<svg width="170" height="52" viewBox="0 0 170 52" fill="none" xmlns="http://www.w3.org/2000/svg">
<path d="M37.1615 25.8136L47.8932 39.3328C50.8465 34.3518 52.0679 28.5166 51.3634 22.7541C50.659 16.9915 48.069 11.632 44.005 7.52669C39.7261 3.18361 34.0601 0.516318 28.0165 0L24.816 2.59375L22.8208 0.0825668C21.0611 0.270121 19.3276 0.655489 17.6525 1.23152L18.1564 1.86448C18.9388 2.85908 19.3006 4.12579 19.1629 5.38867C19.0251 6.65154 18.399 7.80826 17.421 8.60685L13.1514 3.23358C11.7615 4.02125 10.4503 4.94286 9.23602 5.98557L10.7409 7.88445C11.5226 8.87991 11.8832 10.1472 11.7442 11.4101C11.6051 12.673 10.9777 13.8292 9.99867 14.6268L5.86534 9.42556C1.7995 14.4218 -0.280471 20.7681 0.0304346 27.2286C0.341341 33.6892 3.02089 39.8017 7.54729 44.3758C10.1374 46.9965 13.2521 49.0276 16.6825 50.3328C20.113 51.638 23.7799 52.1873 27.4376 51.9438L18.6194 40.8395C17.8383 39.8462 17.4767 38.5816 17.6131 37.3204C17.7495 36.0592 18.373 34.9034 19.348 34.104L32.7899 51.015C34.3971 50.5705 35.9554 49.9619 37.4407 49.1987L23.0592 31.0975C22.0743 31.8902 20.8191 32.2569 19.5675 32.1177C18.3159 31.9785 17.1697 31.3446 16.3791 30.3544L9.25646 21.4105C8.46899 20.4159 8.10353 19.1466 8.24008 17.8804C8.37663 16.6142 9.00404 15.4542 9.98504 14.6543L23.0592 31.1112C24.0436 30.3207 25.2973 29.9552 26.5473 30.0943C27.7972 30.2335 28.942 30.8661 29.7324 31.8543L41.4651 46.6393C42.3484 45.9481 43.1876 45.2013 43.9778 44.4033C44.3114 44.0662 44.6587 43.7153 44.9447 43.3713L30.4746 25.05C29.4898 25.8427 28.2346 26.2095 26.983 26.0702C25.7314 25.931 24.5852 25.2971 23.7946 24.3069L16.6719 15.363C15.8844 14.3684 15.519 13.0991 15.6556 11.8329C15.7921 10.5667 16.4195 9.40676 17.4005 8.60685L30.4678 25.05C31.456 24.2553 32.716 23.8894 33.9711 24.0325C35.2261 24.1757 36.3736 24.8163 37.1615 25.8136ZM24.816 2.59375L34.9144 15.3079C35.7019 16.3025 36.0673 17.5718 35.9308 18.838C35.7942 20.1042 35.1668 21.2642 34.1858 22.0641L24.0874 9.34988C23.2999 8.35527 22.9345 7.086 23.071 5.81982C23.2076 4.55363 23.835 3.39366 24.816 2.59375Z" fill="#D9D9D9"/>
<path d="M75.4918 18.9887H70.0443V35.1979H67.6337V18.9887H62.2339V16.6564H75.4714L75.4918 18.9887ZM82.2604 24.1556C80.2925 24.073 78.1747 25.0775 78.1747 28.2079V35.2255H75.8936V21.954H78.1747V24.1762C78.5264 23.3941 79.1061 22.7392 79.8363 22.299C80.5664 21.8589 81.4121 21.6545 82.2604 21.7132V24.1556ZM96.9211 21.9815V35.2255H94.6399V32.9482C94.1079 33.7803 93.3717 34.4591 92.503 34.9184C91.6343 35.3778 90.6627 35.6021 89.6827 35.5695C88.793 35.5561 87.9147 35.3647 87.0987 35.0064C86.2826 34.6481 85.545 34.13 84.9283 33.4819C84.3116 32.8339 83.8281 32.0688 83.5057 31.2309C83.1834 30.3929 83.0286 29.4988 83.0503 28.6C83.0249 27.6994 83.1771 26.8026 83.4978 25.9618C83.8186 25.1211 84.3016 24.3532 84.9187 23.7027C85.5359 23.0523 86.2749 22.5323 87.0927 22.1731C87.9106 21.8138 88.791 21.6224 89.6827 21.61C90.6627 21.5774 91.6343 21.8017 92.503 22.261C93.3717 22.7204 94.1079 23.3991 94.6399 24.2313V21.954L96.9211 21.9815ZM94.6399 28.6C94.6538 27.9754 94.5426 27.3545 94.313 26.7744C94.0834 26.1943 93.7402 25.667 93.3039 25.2243C92.8677 24.7816 92.3473 24.4325 91.7742 24.198C91.2011 23.9635 90.5869 23.8484 89.9687 23.8597C89.3528 23.8512 88.7414 23.9684 88.1714 24.2043C87.6014 24.4402 87.0844 24.79 86.6514 25.2326C86.2184 25.6752 85.8783 26.2017 85.6515 26.7803C85.4247 27.3589 85.3158 27.9779 85.3315 28.6C85.3158 29.2225 85.4247 29.8418 85.6514 30.4208C85.8781 30.9998 86.2181 31.5266 86.651 31.9698C87.0839 32.413 87.6009 32.7634 88.1709 33.0001C88.741 33.2368 89.3524 33.3548 89.9687 33.3472C90.5899 33.3587 91.2069 33.2426 91.7823 33.006C92.3578 32.7694 92.8797 32.4172 93.3165 31.9708C93.7533 31.5243 94.0958 30.9929 94.3233 30.4088C94.5508 29.8247 94.6585 29.2 94.6399 28.5725V28.6ZM111.997 27.0933V35.2255H109.716V27.1965C109.716 25.0224 108.484 23.8047 106.461 23.8047C104.439 23.8047 102.661 25.05 102.661 28.1803V35.1979H100.38V21.954H102.661V23.8597C103.102 23.1311 103.729 22.5369 104.478 22.1407C105.226 21.7444 106.067 21.561 106.911 21.61C109.975 21.61 112.018 23.674 112.018 27.0658L111.997 27.0933ZM124.479 31.5997C124.479 34.0627 122.382 35.5695 119.576 35.5695C116.954 35.5695 115.116 34.2967 114.36 32.4735L116.328 31.3314C116.743 32.6042 117.949 33.3954 119.576 33.3954C120.938 33.3954 122.17 32.8931 122.17 31.5997C122.17 28.7651 114.83 30.3751 114.83 25.5797C114.83 23.2543 116.825 21.6375 119.474 21.6375C120.439 21.5918 121.396 21.8268 122.233 22.3146C123.069 22.8025 123.75 23.5226 124.193 24.3895L122.279 25.4765C122.034 24.9423 121.635 24.4951 121.135 24.1932C120.635 23.8913 120.056 23.7488 119.474 23.7841C118.289 23.7841 117.138 24.362 117.138 25.5591C117.138 28.3661 124.479 26.6943 124.479 31.5722V31.5997ZM126.658 18.0324C126.658 17.6182 126.821 17.221 127.111 16.9281C127.401 16.6352 127.794 16.4706 128.204 16.4706C128.609 16.4779 128.995 16.6456 129.279 16.9377C129.563 17.2298 129.722 17.6229 129.722 18.0324C129.722 18.4393 129.562 18.8295 129.277 19.1173C128.993 19.405 128.606 19.5666 128.204 19.5666C128 19.5694 127.798 19.5309 127.609 19.4534C127.42 19.3759 127.249 19.261 127.105 19.1154C126.96 18.9698 126.847 18.7965 126.77 18.6058C126.693 18.4151 126.655 18.2107 126.658 18.0049V18.0324ZM127.053 21.9815H129.334V35.2255H127.053V21.9815ZM139.167 33.3954C139.908 33.4313 140.645 33.2719 141.306 32.933C141.968 32.5941 142.53 32.0872 142.939 31.4621L144.88 32.5767C144.254 33.5339 143.394 34.3122 142.384 34.8364C141.374 35.3606 140.247 35.613 139.112 35.5695C134.891 35.5695 132.085 32.5767 132.085 28.6C132.049 27.6764 132.202 26.7552 132.534 25.8939C132.866 25.0325 133.37 24.2495 134.014 23.5937C134.659 22.9378 135.43 22.4232 136.281 22.0819C137.131 21.7406 138.041 21.58 138.956 21.61C142.912 21.61 145.486 24.8917 145.486 28.6C145.486 28.9457 145.459 29.2908 145.404 29.632H134.421C134.863 32.0194 136.729 33.3679 139.167 33.3679V33.3954ZM134.4 27.6506H143.157C143.068 26.5881 142.582 25.5997 141.798 24.8856C141.014 24.1715 139.991 23.7851 138.935 23.8047C137.846 23.7539 136.778 24.1181 135.942 24.8253C135.106 25.5324 134.563 26.5309 134.421 27.6231L134.4 27.6506ZM159.704 27.0933V35.2255H157.423V27.1965C157.423 25.0224 156.19 23.8047 154.168 23.8047C152.146 23.8047 150.368 25.05 150.368 28.1803V35.1979H148.108V21.954H150.389V23.8597C150.829 23.1311 151.457 22.5369 152.205 22.1407C152.954 21.7444 153.794 21.561 154.638 21.61C157.702 21.61 159.725 23.674 159.725 27.0658L159.704 27.0933ZM166.514 24.2037V31.3864C166.514 33.3954 167.671 33.2647 170 33.1615V35.2255C166.071 35.7552 164.232 34.6957 164.232 31.3864V24.1762H161.638V21.954H164.232V18.9337L166.514 18.2457V21.954H170V24.1762L166.514 24.2037Z" fill="#D9D9D9"/>
</svg>
