<svg width="119" height="34" viewBox="0 0 119 34" fill="none" xmlns="http://www.w3.org/2000/svg">
<path d="M45.5488 24.7534C45.5298 24.0317 45.6595 23.3137 45.9299 22.6426C46.2003 21.9714 46.6059 21.3609 47.1224 20.8477C47.6388 20.3345 48.2555 19.9292 48.9352 19.6562C49.615 19.3831 50.3439 19.2479 51.0782 19.2588C54.272 19.2588 56.4319 21.6136 56.4319 25.0202V25.6717H48.4911C48.6907 26.9551 49.7527 28.0266 51.5652 28.0266C52.6006 28.0195 53.6012 27.6587 54.3958 27.0061L55.6574 28.8312C54.5954 29.7888 52.9146 30.2872 51.2658 30.2872C48.0041 30.2754 45.5488 28.1247 45.5488 24.7534ZM51.0782 21.5155C50.4314 21.4755 49.7949 21.6881 49.3067 22.107C48.8185 22.5259 48.5183 23.1173 48.4712 23.7526H53.7331C53.6452 22.7635 52.9386 21.5155 51.0782 21.5155Z" fill="#CCDAE7"/>
<path d="M57.3422 24.7534C57.3232 24.0317 57.4529 23.3137 57.7233 22.6426C57.9937 21.9714 58.3993 21.3609 58.9158 20.8477C59.4322 20.3345 60.0489 19.9292 60.7286 19.6562C61.4084 19.3831 62.1373 19.2479 62.8715 19.2588C66.0654 19.2588 68.2213 21.6136 68.2213 25.0202V25.6717H60.2845C60.4801 26.9551 61.5421 28.0266 63.3586 28.0266C64.3939 28.0188 65.3943 27.6582 66.1892 27.0061L67.4468 28.8312C66.3888 29.7888 64.708 30.2872 63.0552 30.2872C59.8134 30.2754 57.3422 28.1247 57.3422 24.7534ZM62.8715 21.5155C62.2244 21.4755 61.5874 21.6879 61.0986 22.1067C60.6098 22.5255 60.3087 23.1169 60.2606 23.7526H65.5225C65.4346 22.7635 64.728 21.5155 62.8715 21.5155Z" fill="#CCDAE7"/>
<path d="M70.3931 27.3829V21.9276H68.6205V19.5138H70.3931V16.6449H73.1878V19.5138H75.3836V21.9276H73.2157V26.6372C73.2157 27.3123 73.5711 27.8146 74.1899 27.8146C74.5448 27.831 74.8929 27.7146 75.164 27.4889L75.7589 29.6004C75.3596 29.9693 74.5891 30.2715 73.4154 30.2715C71.4312 30.2754 70.3931 29.2786 70.3931 27.3829Z" fill="#CCDAE7"/>
<path d="M79.6594 28.6506V34H76.8647V19.5138H79.6594V20.8404C80.0493 20.3471 80.5496 19.9488 81.1215 19.6765C81.6935 19.4042 82.3216 19.2653 82.9571 19.2705C85.6998 19.2705 87.688 21.2682 87.688 24.7651C87.688 28.262 85.6918 30.2872 82.9571 30.2872C82.3157 30.2858 81.6835 30.1372 81.111 29.853C80.5384 29.5689 80.0414 29.1571 79.6594 28.6506ZM84.7896 24.7259C84.7896 22.9205 83.6837 21.6842 82.0708 21.6842C81.6076 21.6932 81.1523 21.8036 80.7379 22.0072C80.3236 22.2109 79.9606 22.5028 79.6754 22.8616V26.5587C79.9587 26.9226 80.3204 27.2203 80.7345 27.4306C81.1486 27.641 81.6049 27.7587 82.0708 27.7754C83.6837 27.8186 84.7896 26.5823 84.7896 24.7534V24.7259Z" fill="#CCDAE7"/>
<path d="M89.0414 16.7312C89.0409 16.517 89.0833 16.3048 89.1664 16.1067C89.2494 15.9087 89.3713 15.7286 89.5252 15.577C89.6791 15.4253 89.862 15.305 90.0633 15.2229C90.2645 15.1408 90.4803 15.0985 90.6982 15.0985C90.918 15.0959 91.1361 15.1363 91.3399 15.2172C91.5437 15.298 91.7292 15.4179 91.8855 15.5697C92.0419 15.7216 92.166 15.9025 92.2507 16.1019C92.3354 16.3012 92.379 16.5152 92.379 16.7312C92.3795 16.9484 92.3364 17.1635 92.2521 17.3642C92.1678 17.5649 92.0441 17.7472 91.8879 17.9007C91.7317 18.0543 91.5462 18.176 91.3421 18.2588C91.1379 18.3417 90.9191 18.3841 90.6982 18.3835C90.256 18.3794 89.8334 18.2032 89.5229 17.8936C89.2124 17.5839 89.0393 17.166 89.0414 16.7312ZM89.3049 30.0164V19.5138H92.0995V30.0164H89.3049Z" fill="#CCDAE7"/>
<path d="M101.07 30.0164L98.639 26.4842L96.1837 30.0164H93.0657L96.8704 24.6238L93.2773 19.5217H96.4193L98.631 22.74L100.819 19.5217H103.961L100.4 24.6238L104.204 30.0164H101.07Z" fill="#CCDAE7"/>
<path d="M103.729 24.7534C103.71 24.0317 103.84 23.3137 104.11 22.6426C104.381 21.9714 104.786 21.3609 105.303 20.8477C105.819 20.3345 106.436 19.9292 107.116 19.6562C107.796 19.3831 108.524 19.2479 109.259 19.2588C112.453 19.2588 114.608 21.6136 114.608 25.0202V25.6717H106.668C106.867 26.9551 107.929 28.0266 109.746 28.0266C110.781 28.0188 111.781 27.6582 112.576 27.0061L113.838 28.8312C112.776 29.7888 111.095 30.2872 109.446 30.2872C106.185 30.2754 103.729 28.1247 103.729 24.7534ZM109.259 21.5155C108.612 21.4755 107.974 21.6879 107.486 22.1067C106.997 22.5255 106.696 23.1169 106.648 23.7526H111.91C111.822 22.7635 111.115 21.5155 109.259 21.5155Z" fill="#CCDAE7"/>
<path d="M116.205 30.0164V15.4949H119V30.0164H116.205Z" fill="#CCDAE7"/>
<path d="M37.8036 17.4495C37.8036 17.4024 37.8036 17.3592 37.8036 17.3121C37.8036 17.0452 37.7796 16.7744 37.7677 16.5271C37.7557 16.2799 37.7277 16.0365 37.6958 15.7932C37.6638 15.5499 37.6439 15.3693 37.6119 15.1574C37.3837 13.7133 36.9816 12.301 36.4142 10.9501C36.3304 10.7539 36.2386 10.5576 36.1507 10.3575C35.8872 9.80017 35.5918 9.25462 35.2724 8.72086C35.1806 8.57172 35.0888 8.41867 34.993 8.26953C34.6776 7.78286 34.3422 7.30798 33.9789 6.85271C33.6994 6.50341 33.4 6.15411 33.0846 5.82051C32.3109 4.9855 31.4595 4.22341 30.5415 3.54417L30.0744 3.21448C29.9187 3.10459 29.759 2.99862 29.5953 2.89265C29.4316 2.78669 29.2719 2.68466 29.1083 2.58654C28.7769 2.3903 28.4375 2.19405 28.0982 2.02921C27.9385 1.94679 27.7828 1.86831 27.6231 1.79767C27.5844 1.77216 27.5429 1.75108 27.4993 1.73486C27.3676 1.67206 27.2398 1.60926 27.1001 1.55824C26.9604 1.50722 26.7328 1.39341 26.5491 1.32277L26.4374 1.2796C26.09 1.14616 25.7387 1.01272 25.3794 0.887128C25.1917 0.824333 24.9802 0.761528 24.8045 0.706582L24.6727 0.667345L24.0779 0.510346L23.8024 0.447561C22.463 0.144933 21.0926 -0.00519908 19.7182 0.000137396H19.2551C19.0792 0.74936 18.9882 1.51542 18.9836 2.28433V2.35497C18.9836 2.60223 18.9836 2.84556 19.0156 3.09282C19.0137 3.09717 19.0128 3.10183 19.0128 3.10655C19.0128 3.11126 19.0137 3.11595 19.0156 3.1203C19.0156 3.22626 19.0156 3.34007 19.0435 3.44996C19.0715 3.55985 19.0715 3.71291 19.0954 3.84243C19.1431 4.19236 19.2098 4.53954 19.295 4.88249C19.331 5.05125 19.3789 5.21217 19.4268 5.37701C20.024 7.3603 21.1927 9.13108 22.7918 10.4753C24.3909 11.8195 26.3518 12.6797 28.4375 12.9517C27.8198 13.0625 27.193 13.1176 26.5651 13.1165C25.0289 13.1196 23.5103 12.7956 22.1136 12.1668L21.7783 12.0059C21.6717 11.959 21.5678 11.9066 21.4669 11.8489C20.5478 11.3709 19.71 10.7552 18.9836 10.0239C18.7517 9.79549 18.5331 9.5544 18.3289 9.30173C18.17 9.12307 18.0233 8.93427 17.8897 8.73657C17.1734 7.77629 16.6329 6.70046 16.2928 5.55753C16.2529 5.41624 16.213 5.2789 16.177 5.13761C16.0919 4.80793 16.024 4.4704 15.9734 4.12502C15.9455 4.12285 15.9175 4.12285 15.8896 4.12502L15.7219 4.15643C12.7218 4.73027 9.90229 5.99327 7.49332 7.84237C5.08436 9.69147 3.15425 12.0743 1.86047 14.7963C0.631511 17.3758 -0.00373024 20.1899 1.64779e-05 23.0383V31.7354H4.72297C4.72297 31.6412 4.72297 31.551 4.72297 31.4607V31.4254C4.719 31.3692 4.719 31.3128 4.72297 31.2566C4.72598 31.1253 4.73665 30.9943 4.75492 30.8641V30.7229C4.82753 30.2345 4.98127 29.7611 5.21003 29.3217C5.29567 29.1526 5.39168 28.9888 5.49749 28.8311C5.90713 28.226 6.45371 27.7222 7.09443 27.3594L7.16629 27.3201C7.20917 27.3009 7.25054 27.2786 7.29005 27.2534L7.34995 27.2299C7.98132 26.9258 8.67496 26.7674 9.37804 26.7667C10.1999 26.7704 11.0062 26.9871 11.7156 27.395C12.425 27.803 13.0123 28.3877 13.4183 29.0902C13.4423 29.1373 13.4702 29.1765 13.4902 29.2197C13.5139 29.2514 13.534 29.2856 13.5501 29.3217C13.5501 29.3217 13.578 29.3806 13.594 29.4041C13.6099 29.4277 13.6539 29.5454 13.6858 29.6122C13.7196 29.6804 13.7476 29.7513 13.7696 29.8241C13.8014 29.8964 13.8268 29.9712 13.8455 30.0478C13.8455 30.1184 13.8854 30.193 13.9094 30.2676C13.9333 30.3422 13.9732 30.5384 13.9932 30.6601L14.0172 30.8367C14.0446 31.0317 14.058 31.2285 14.0571 31.4254V31.7354H18.9238V31.4725C18.9228 30.748 18.9829 30.0247 19.1034 29.3099C19.1274 29.1647 19.1513 29.0195 19.1793 28.8782C19.2072 28.7369 19.2352 28.6035 19.2631 28.4858C19.259 28.4664 19.259 28.4463 19.2631 28.4269C19.2871 28.2974 19.319 28.1718 19.3549 28.0344C19.4188 27.7832 19.4947 27.536 19.5785 27.2926C19.5956 27.2324 19.6169 27.1734 19.6424 27.116C19.7582 26.7824 19.8819 26.4449 20.0416 26.1192C20.2013 25.7934 20.3371 25.4794 20.4968 25.1615C20.6564 24.8436 20.8401 24.5532 21.0237 24.2549C21.2074 23.9566 21.423 23.6584 21.6306 23.3797C21.7304 23.2463 21.8342 23.105 21.946 22.9872C22.0578 22.8538 22.1695 22.7204 22.2853 22.5948C22.4011 22.4692 22.469 22.3868 22.5608 22.2847C22.6526 22.1827 22.7724 22.0571 22.8842 21.9472L23.0918 21.7392L23.3153 21.5351C23.4631 21.3977 23.6108 21.2643 23.7625 21.1426C24.0659 20.8836 24.3813 20.6363 24.7127 20.4048L25.2117 20.0672C25.4872 19.8906 25.7666 19.7258 26.0501 19.5649L26.4294 19.3647C26.6649 19.2391 26.9085 19.1253 27.152 19.0193C27.3955 18.9134 27.5872 18.831 27.8067 18.7485C29.4001 18.1479 31.0907 17.8355 32.7972 17.8262H32.865C33.0128 17.8262 33.1645 17.8262 33.3122 17.8262C33.3557 18.2513 33.377 18.6784 33.3761 19.1057C33.3794 21.0193 32.9872 22.9137 32.2234 24.6738C31.4596 26.434 30.34 28.0233 28.9326 29.3453H33.4639C35.6262 26.8591 37.0491 23.8347 37.576 20.6049C37.6079 20.4126 37.6359 20.2125 37.6599 20.0201C37.6918 19.7415 37.7237 19.455 37.7437 19.1724C37.7437 19.0625 37.7437 18.9605 37.7437 18.8506C37.7477 18.7918 37.7477 18.7328 37.7437 18.674V18.6504C37.7437 18.3678 37.7437 18.0852 37.7437 17.8027C37.8076 17.6614 37.8076 17.5554 37.8036 17.4495Z" fill="#CCDAE7"/>
</svg>
