<svg width="61" height="65" viewBox="0 0 61 65" fill="none" xmlns="http://www.w3.org/2000/svg">
<path d="M16.6655 63.5153L16.4467 63.0649C16.3537 62.8795 16.2553 62.6835 16.1514 62.4662C15.9211 61.9733 15.722 61.4672 15.5551 60.9508C15.4272 60.4894 15.361 60.0139 15.3582 59.5361C15.3582 58.9533 15.3583 58.2698 15.402 57.5068C15.4458 56.7438 15.5169 55.9172 15.6044 55.0536C15.6919 54.1899 15.7958 53.2839 15.9107 52.4043C16.0255 51.5247 16.1349 50.6452 16.2498 49.755C16.3646 48.8649 16.4631 48.0648 16.5342 47.3177C16.6053 46.5706 16.649 45.8871 16.649 45.2937C16.6676 44.835 16.6161 44.3761 16.4959 43.932C16.373 43.6201 16.1458 43.3571 15.8505 43.1849C15.4997 42.9462 15.1145 42.7588 14.7074 42.6286C14.5402 42.5729 14.3681 42.5321 14.1932 42.5067C14.0427 42.4858 13.8899 42.4858 13.7393 42.5067C13.7006 42.5081 13.6626 42.5173 13.6277 42.5337C13.5929 42.5501 13.562 42.5734 13.5369 42.602C13.5155 42.6676 13.5155 42.7379 13.5369 42.8034C13.5904 43.0293 13.5996 43.263 13.5642 43.4922C13.5642 43.8101 13.5041 44.2075 13.4549 44.695C13.4057 45.1824 13.3455 45.7547 13.2689 46.3428C13.1705 47.0793 13.0775 47.8105 12.99 48.5417L12.804 48.3668C12.0906 47.747 11.2389 47.2955 10.3154 47.0475C10.0037 46.9574 9.68095 46.8833 9.35826 46.8197C8.60088 46.6808 7.83193 46.6098 7.0611 46.6077H6.61805L6.92978 46.3428L7.27435 46.062L7.46037 45.9083L7.67368 45.707C7.76119 45.6222 7.90335 45.495 8.10025 45.3202C9.06288 44.4883 10.2553 43.5081 11.6445 42.3901C13.0338 41.2721 14.6527 40.1011 16.4686 38.8931C18.4454 37.5961 20.4901 36.3988 22.5943 35.306C24.9747 34.0712 27.453 33.0223 30.0055 32.1693C30.5987 31.961 31.2192 31.8344 31.8487 31.7931C32.1091 31.7743 32.3705 31.7743 32.6309 31.7931C32.8675 31.8108 33.1018 31.8498 33.3309 31.9096C33.7154 31.9981 34.0756 32.1662 34.3866 32.4024C34.6454 32.585 34.8371 32.8431 34.9335 33.1389C34.9615 33.2371 34.9726 33.3392 34.9663 33.4409C34.9663 33.6158 34.9663 33.7853 35.0046 33.9708C35.0156 34.1042 35.0547 34.234 35.1194 34.3523C35.1554 34.4052 35.2029 34.4497 35.2587 34.4826C35.3145 34.5156 35.3771 34.5362 35.4421 34.543C35.6161 34.5399 35.7882 34.5076 35.9508 34.4476C36.12 34.3955 36.2749 34.3069 36.4037 34.1885C36.5325 34.0702 36.632 33.9251 36.6947 33.7641C36.8358 33.4268 36.8532 33.0527 36.7439 32.7044C36.5669 32.2161 36.266 31.7788 35.8688 31.4328C35.283 30.9111 34.5755 30.5348 33.8068 30.336C33.2717 30.1829 32.7219 30.0835 32.1659 30.0393C31.5782 29.9952 30.9882 29.9864 30.3993 30.0128C28.7019 30.1348 27.0314 30.4916 25.4385 31.0725C24.0977 31.5209 22.7878 32.0518 21.5169 32.662C20.1987 33.3032 18.8751 34.0026 17.5952 34.7444C16.3154 35.4862 15.052 36.2597 13.8214 37.0492C12.5907 37.8387 11.4585 38.6017 10.3701 39.3593C9.28167 40.117 8.27529 40.8323 7.36736 41.4788C6.45943 42.1252 5.62806 42.7239 4.89515 43.2379C4.04191 43.8419 3.34731 44.2976 2.80037 44.6632C2.45932 44.9158 2.07898 45.1143 1.67362 45.2513C1.22513 45.3255 0.94624 45.4633 0.84232 45.6752C0.789742 45.7829 0.762468 45.9005 0.762468 46.0196C0.762468 46.1387 0.789742 46.2563 0.84232 46.364C0.954877 46.5947 1.11064 46.8031 1.30174 46.9786C1.55159 47.2183 1.82866 47.4298 2.12763 47.6091C2.43146 47.7927 2.7587 47.937 3.10115 48.0383H3.2051C3.4756 48.1111 3.759 48.1274 4.03647 48.086C4.54294 48.0015 5.05443 47.9484 5.56788 47.9271C6.13798 47.8928 6.70973 47.8928 7.27983 47.9271C7.86353 47.9631 8.44442 48.0339 9.01915 48.139L9.19414 48.1761C9.67819 48.27 10.1524 48.4066 10.6108 48.5841C11.0667 48.7632 11.491 49.0099 11.8687 49.3153C12.2173 49.5947 12.4802 49.9611 12.629 50.375C12.6657 50.4869 12.6896 50.6024 12.7001 50.7194C12.7001 50.8306 12.7001 50.9472 12.7384 51.1062C12.629 52.1129 12.5469 53.1196 12.4758 54.1211C12.4047 55.1225 12.3774 56.0815 12.3719 56.9822C12.3665 57.883 12.372 58.6936 12.4595 59.3931C12.4963 59.9484 12.599 60.4978 12.7657 61.0303C12.9814 61.6732 13.2829 62.286 13.6627 62.853C13.9725 63.3217 14.3399 63.7522 14.7566 64.1352C15.0766 64.4322 15.4465 64.6742 15.8505 64.8506C15.9639 64.8995 16.0809 64.9402 16.2006 64.9724C16.3514 65.0092 16.5092 65.0092 16.66 64.9724C16.8093 64.9411 16.9495 64.8777 17.0702 64.7869C17.101 64.7599 17.1245 64.726 17.1388 64.6881C17.1531 64.6503 17.1577 64.6097 17.1523 64.5697C17.1312 64.4221 17.085 64.2788 17.0155 64.1458C16.9207 63.9904 16.804 63.7802 16.6655 63.5153Z" fill="#CCDAE7"/>
<path d="M45.3419 33.0117C45.3946 33.0166 45.4477 33.0166 45.5005 33.0117C46.4357 32.9359 47.3559 32.7362 48.2352 32.4183C48.7493 32.2117 48.9353 31.7242 48.9517 30.4632C48.9702 30.303 48.9544 30.1409 48.9055 29.9868C48.8566 29.8328 48.7755 29.6901 48.6673 29.5677C48.4281 29.3869 48.1274 29.2999 47.825 29.324H47.5789C47.0509 29.3541 46.5281 29.4412 46.0201 29.5836C45.2216 29.8221 44.8278 30.3466 44.7348 31.2897C44.6418 32.2329 44.7019 32.6779 44.9098 32.8793C44.9678 32.93 45.0365 32.9681 45.111 32.9909C45.1856 33.0138 45.2643 33.0209 45.3419 33.0117Z" fill="#CCDAE7"/>
<path d="M60.9736 35.714C60.8926 35.6536 60.791 35.6253 60.6892 35.6345C60.6291 35.6345 60.4321 35.6345 60.4157 35.8146C60.1532 37.7274 58.5725 41.5 56.2371 43.5982C55.9726 43.8683 55.629 44.0533 55.2526 44.128C54.8807 44.1704 54.6127 43.9479 54.4376 43.4763C53.9345 42.0245 54.372 37.1181 54.9846 35.4543C55.3401 34.3946 55.8214 33.8648 56.3574 33.833C56.4579 33.8293 56.558 33.8452 56.652 33.8798C56.746 33.9144 56.8318 33.967 56.9044 34.0344C57.1236 34.2963 57.2827 34.6005 57.3713 34.9266C57.46 35.2527 57.4761 35.5933 57.4185 35.9259C57.4133 35.956 57.4162 35.9868 57.4267 36.0156C57.4372 36.0443 57.4551 36.07 57.4786 36.0902C57.5415 36.1401 57.6218 36.1648 57.7029 36.1591C57.7782 36.1641 57.8529 36.1421 57.9124 36.0971C57.972 36.0521 58.0123 35.9873 58.0256 35.9153C58.1016 35.4982 58.0847 35.0701 57.976 34.6598C57.8673 34.2495 57.6693 33.8665 57.3953 33.5363C57.1213 33.2062 56.7776 32.9366 56.3873 32.7456C55.997 32.5546 55.5691 32.4466 55.1322 32.4289C55.0285 32.421 54.9242 32.421 54.8205 32.4289C53.1359 32.4289 51.7685 33.6899 50.9372 36.016C50.4263 37.4968 50.1479 39.0436 50.1113 40.6045C50.1113 41.0072 50.1113 41.3993 50.1113 41.7755C49.9308 42.5862 49.712 43.4075 49.4658 44.1863C49.0173 45.5904 48.5196 46.9839 47.9071 47.0369C47.5953 47.0369 47.3601 46.7614 47.1468 46.0885C46.6327 44.3453 47.5789 38.252 48.0438 36.1749C48.2188 35.5444 48.372 34.7709 48.0438 34.4106C47.9415 34.314 47.8181 34.241 47.6827 34.197C47.5473 34.153 47.4034 34.139 47.2617 34.1562C46.6138 34.2018 45.9772 34.3449 45.3747 34.5801C44.1167 35.0305 43.7776 36.3604 43.6846 37.1128C43.4221 39.3011 43.1815 41.9291 43.1377 44.1068C42.7712 45.9825 42.2735 48.2874 41.7594 50.2001C41.1796 52.3566 40.835 52.6693 40.5834 52.6852C40.3318 52.701 40.2389 52.3937 40.2061 52.2931C39.7959 50.889 40.2717 44.3453 40.4194 41.9239C40.4194 41.4947 40.4631 41.2085 40.4631 41.1185C40.4631 40.8853 40.4631 40.6151 40.5069 40.3078C40.6108 38.5646 40.7749 35.3325 39.7302 34.8662C39.5226 34.7753 39.2961 34.7318 39.0684 34.7391C38.5214 34.7391 37.2471 34.9881 36.5524 37.2346C36.1368 38.5805 35.7265 40.1223 35.382 41.4735C35.2562 41.9556 35.1304 42.459 35.0101 42.9518C34.2936 45.8289 34.1459 46.2687 33.9162 46.2687H33.8341L33.7904 46.2316C33.7138 46.1627 33.6427 46.009 33.6645 44.9599C33.6645 44.7903 33.6645 44.6261 33.6645 44.4618C33.6645 43.932 33.6645 43.4339 33.7302 42.8723C33.9544 40.684 33.5497 39.7991 33.1832 39.4388C33.0854 39.3449 32.9692 39.2708 32.8415 39.2208C32.7138 39.1708 32.5771 39.1458 32.4394 39.1474C32.2014 39.1537 31.9671 39.2059 31.7502 39.3011C30.3555 39.8627 29.8851 40.8588 29.907 43.3439C29.2375 43.7359 28.4935 43.9936 27.7192 44.1015C27.6407 43.849 27.542 43.6027 27.4239 43.365C26.9371 42.406 26.1112 40.8218 24.4594 41.4841C24.3902 41.5117 24.3155 41.5244 24.2407 41.5212C22.8911 41.4891 21.5828 41.9725 20.598 42.867C19.6857 43.6474 19.0153 44.6582 18.6618 45.7865C18.3063 46.9415 18.3774 49.0239 18.5579 50.2849C18.9134 52.6057 20.2917 55.3132 23.9836 56.1133C24.3584 56.1883 24.7461 56.1774 25.1158 56.0815C27.8505 55.3768 28.3975 47.4979 27.9325 44.9546C28.6182 44.8215 29.2799 44.5912 29.8961 44.2711C29.8961 44.9334 29.8961 45.5904 29.8961 46.2209C29.8961 49.4319 29.9399 52.2136 31.1595 53.0243C31.3011 53.1244 31.4711 53.1799 31.6463 53.1832C32.516 53.1832 33.4567 51.742 34.0036 49.6173C34.2826 48.5311 34.8733 45.9084 35.3547 43.7889C35.6828 42.3636 35.9399 41.2351 36.0219 40.933C36.4376 39.4071 36.6509 39.4071 36.7767 39.4018H36.8806L36.9244 39.4388C36.99 39.5024 37.1431 39.6402 37.0228 41.0867C36.8423 43.2061 36.629 46.0249 36.5798 48.8861C36.5251 52.3302 37.0119 54.3966 38.0565 54.9953C38.2628 55.119 38.5035 55.1782 38.7457 55.1649C39.7685 55.1066 41.3109 53.7183 42.2899 50.1207C42.6017 48.9762 42.908 47.6992 43.1814 46.4541C43.2126 46.904 43.2914 47.3497 43.4166 47.784C43.7995 48.955 44.5488 49.5484 45.5443 49.4636C46.118 49.396 46.6613 49.1759 47.114 48.8278C48.0876 48.1337 48.8533 46.968 49.5807 45.0712C49.8214 44.4671 50.0292 43.826 50.2206 43.1796C50.2948 43.6938 50.4212 44.1996 50.5981 44.6897C50.9153 45.5639 51.5388 46.5654 52.7421 46.4329C53.1622 46.3767 53.5662 46.2378 53.929 46.0249C55.98 44.9016 57.6154 42.8776 58.5999 41.4205C59.7831 39.7346 60.5983 37.8325 60.9955 35.8306C61.0007 35.8107 61.0014 35.7901 60.9976 35.77C60.9938 35.7499 60.9857 35.7308 60.9736 35.714ZM25.6956 42.9359C26.1276 42.9359 26.4558 43.7359 26.5871 44.0327C26.264 43.9432 25.9627 43.7919 25.701 43.5876C25.2744 43.2432 25.4604 42.9306 25.6956 42.9359ZM26.5707 52.0069C26.1714 53.8349 25.5369 55.5305 24.6126 54.5131C24.4162 54.2848 24.2592 54.0271 24.1477 53.7502C23.8086 52.9607 23.5132 47.4555 23.8523 45.5215C23.9486 44.8928 24.1326 44.2796 24.3993 43.6988C24.6817 44.0924 25.0543 44.4172 25.488 44.6479C25.9216 44.8787 26.4045 45.009 26.8988 45.0288C27.134 45.9931 27.0739 49.7551 26.5871 52.0069H26.5707Z" fill="#CCDAE7"/>
<path d="M24.5525 13.4761C25.3767 13.3421 26.1928 13.1652 26.9973 12.9462C27.5443 12.7714 27.6974 12.3051 27.7466 11.3567C27.7959 10.5142 27.3036 10.244 26.4832 10.297C26.0044 10.3345 25.5343 10.4417 25.0885 10.6149C24.7466 10.7413 24.4473 10.9565 24.2235 11.2369C23.9996 11.5173 23.8598 11.8521 23.8195 12.2044C23.6445 13.2959 23.7922 13.6244 24.5525 13.4761Z" fill="#CCDAE7"/>
<path d="M48.6673 14.2603C48.6341 14.2258 48.5897 14.2034 48.5415 14.1967C48.4823 14.1888 48.4223 14.203 48.3735 14.2365C48.3247 14.2699 48.291 14.3201 48.279 14.3768C48.279 14.4298 48.279 14.4881 48.279 14.5411C48.1139 15.8511 47.8488 17.1475 47.4859 18.4196C47.3164 18.9865 46.939 19.0819 46.6655 19.0554C45.5716 18.9707 44.0183 17.0261 43.8433 16.6658C43.8433 16.6658 43.8432 16.6075 43.7995 16.581L43.8651 16.5227C45.5716 14.9332 47.1468 12.7608 46.2936 11.5262C46.164 11.3257 45.994 11.1525 45.7939 11.0168C45.5937 10.8812 45.3675 10.7859 45.1286 10.7368H45.0246C42.2024 10.3447 40.5506 16.5174 40.1021 18.4567V18.2871C40.1623 14.0748 40.6108 8.24646 40.6819 7.3881C40.9116 5.17332 41.0757 3.10159 41.0867 2.56644C41.0976 2.03129 40.9225 1.91473 40.7803 1.82465C40.6153 1.72359 40.4278 1.66184 40.2334 1.64449C40.121 1.62839 40.0078 1.61778 39.8943 1.6127C37.8596 1.58091 37.4385 3.30293 37.269 5.12562C37.1158 7.52055 36.722 11.8759 36.6509 15.9876C36.4212 17.5295 36.197 18.7375 35.9672 19.7442C35.8141 20.4224 34.9444 23.8188 33.8341 23.8082C33.7646 23.7982 33.698 23.7741 33.6386 23.7376C33.5793 23.7011 33.5285 23.6529 33.4896 23.5963C32.248 21.9484 33.8997 9.42272 34.0037 8.38951L34.1513 7.41989C34.4139 5.66608 34.6163 4.156 34.6546 3.71092C34.6824 3.56833 34.6708 3.42113 34.6208 3.28432C34.5709 3.1475 34.4843 3.02595 34.3701 2.93204C34.0983 2.74992 33.781 2.64195 33.4513 2.61943H33.2762C31.4002 2.53465 30.9462 4.1507 30.5415 6.07936C29.9535 9.63834 29.5627 13.2253 29.371 16.8248C29.0976 17.9798 28.5451 20.1734 27.9326 22.0438C27.6099 23.0187 26.8387 25.2706 26.1277 23.3896C25.5807 22.012 26.4558 17.3387 26.8715 15.8127C27.3091 14.5411 27.2106 13.5079 24.3993 14.4934C23.9748 14.6707 23.6048 14.9512 23.325 15.3076C23.0452 15.6641 22.8651 16.0844 22.8022 16.528C20.5488 17.3493 18.4759 19.066 16.7475 20.5072C16.1349 21.0371 15.5661 21.5669 15.041 22.0173H14.9535C13.8268 22.3034 12.4431 22.7061 10.8132 23.1618C9.9982 23.3896 9.2817 23.5592 8.69647 23.6916C8.11124 23.8241 7.60254 23.9407 7.15404 24.0096C6.70555 24.0784 6.29535 24.1314 5.93984 24.1791C5.58432 24.2268 5.22879 24.2533 4.89515 24.2692C3.06835 24.2692 2.81129 24.0943 2.78942 24.0784C2.72878 23.9305 2.70626 23.7704 2.72379 23.6122C2.73258 23.3332 2.76185 23.0552 2.81132 22.7803C2.86601 22.4624 2.94801 22.118 3.04647 21.7206C3.13691 21.3591 3.25578 21.0048 3.40199 20.6609C4.03198 19.0878 4.77589 17.5598 5.62811 16.0883C6.56339 14.4616 7.60252 12.7979 8.70735 11.2083C9.76091 9.68353 10.8946 8.21214 12.1039 6.79996C13.0391 5.66985 14.1178 4.65866 15.3145 3.7904C15.6372 3.56256 15.8614 3.45128 15.9544 3.3824C15.9544 3.48307 15.9216 3.61555 15.8942 3.8116C15.8286 4.11361 15.7192 4.5216 15.577 5.01966C15.4348 5.51772 15.2653 6.07936 15.0738 6.60922L14.4722 8.35242C14.2698 8.93526 14.062 9.4916 13.8651 10.0268C13.5315 10.8957 13.2634 11.6587 13.0829 12.2574C12.9245 12.7556 12.8111 13.2662 12.7438 13.7834C12.6865 14.1395 12.7223 14.5038 12.8478 14.8431C12.9641 15.1169 13.133 15.3668 13.3455 15.5796C13.8432 16.0777 14.3245 16.1783 14.7566 15.8816C14.8869 15.8025 14.9859 15.6831 15.0375 15.5427C15.0891 15.4023 15.0904 15.2492 15.041 15.108L14.9426 14.9067C14.8798 14.7874 14.8007 14.6769 14.7074 14.5782C14.6928 14.5615 14.674 14.5487 14.6527 14.5411C14.6527 14.4987 14.691 14.3609 14.784 14.0483C14.8332 13.8894 14.9261 13.6192 15.0738 13.2271C15.2215 12.835 15.3692 12.4323 15.5388 12.019C15.7247 11.4892 15.9435 10.9116 16.2006 10.2705C16.4576 9.62936 16.6764 8.99885 16.8897 8.36303C17.103 7.7272 17.2944 7.17085 17.4695 6.64629C17.6445 6.12174 17.7813 5.69256 17.8633 5.37465C18.0616 4.76761 18.1666 4.13562 18.175 3.49897C18.1509 2.97926 18.0439 2.46631 17.8578 1.9783C17.371 0.722549 16.7639 0.0337512 16.031 0.00196009C15.2981 -0.029831 14.4777 0.32517 13.526 1.06166C12.491 1.90736 11.539 2.84388 10.6819 3.85928C9.67551 5.01966 8.63084 6.33369 7.60258 7.7272C6.57432 9.12071 5.56791 10.5619 4.64357 11.966C3.71923 13.3701 2.87694 14.7159 2.18779 15.9505C1.55147 17.0529 1.00293 18.2007 0.546947 19.3839C0.194103 20.2885 0.0089435 21.2464 0 22.2134C0.0601642 23.6598 0.836837 24.8997 2.40111 25.97C2.8567 26.273 3.3562 26.5087 3.88331 26.6694C4.52403 26.8568 5.18858 26.9566 5.85778 26.9661C6.79753 26.9853 7.73704 26.9179 8.66362 26.7648C9.17775 26.6853 9.75752 26.5741 10.381 26.4363C10.2224 26.4734 9.86689 26.9661 9.74657 27.1039C9.51685 27.3529 9.29262 27.602 9.07931 27.8616C8.64526 28.3608 8.27775 28.9108 7.98541 29.4988C7.52051 30.479 7.3291 31.6712 8.21515 32.5137L8.24794 32.5614C8.26059 32.5766 8.27776 32.5877 8.29714 32.5932L8.33547 32.6197C8.53462 32.7887 8.7574 32.9296 8.99725 33.0382C9.68791 33.3768 10.4551 33.5426 11.2288 33.5204H11.2616C12.0547 33.4958 12.8343 33.3156 13.5534 32.9906C14.2872 32.6646 14.9732 32.2459 15.5935 31.7454C16.5053 31.0041 17.359 30.1983 18.1477 29.3346C18.9075 28.528 19.5989 27.6633 20.2151 26.7489C20.7944 25.9952 21.2093 25.1353 21.4348 24.2215C21.4898 23.9109 21.4625 23.5919 21.3553 23.2944C21.2482 22.9969 21.0647 22.7307 20.8222 22.5207C20.46 22.1539 20.0195 21.8682 19.5315 21.6835C19.1785 21.568 18.8099 21.5038 18.4376 21.4928C18.2188 21.4928 17.9836 21.4928 17.7266 21.4928L17.3272 21.5351C17.6937 21.1907 18.0656 20.8675 18.4211 20.5655C19.7 19.3895 21.1172 18.3634 22.6436 17.5083C22.2717 19.9403 22.0967 22.5736 22.5616 23.8665C23.1906 25.5885 24.8587 26.2561 26.1659 25.5885C27.1778 25.101 27.8068 24.0519 28.3537 22.7432C28.753 21.7259 29.1085 20.6238 29.4039 19.6065C29.5078 21.9908 29.9016 24.0413 30.8204 25.1011C31.0019 25.3299 31.2356 25.515 31.5031 25.6419C31.7707 25.7687 32.0649 25.8339 32.3628 25.8323C32.635 25.8336 32.906 25.7961 33.1669 25.721C34.496 25.0587 35.9016 22.9022 36.6782 19.5058C36.6859 21.0914 36.8861 22.6706 37.2745 24.2109C37.361 24.612 37.5764 24.9762 37.8899 25.2513C38.2034 25.5264 38.5987 25.6982 39.0192 25.7422H39.0958C39.5825 25.7422 39.8888 25.3395 40.0474 24.4546C40.1623 23.8347 40.2717 22.9552 40.392 22.0226C40.5561 20.6662 40.7202 19.2621 40.9062 18.3136C40.9062 18.1918 40.9554 18.0646 40.9827 17.9374L41.1742 18.303C42.6181 21.0848 43.9089 22.4942 45.0028 22.5419C45.2344 22.5442 45.4637 22.4981 45.6751 22.4066C45.8866 22.3152 46.0752 22.1806 46.228 22.012C47.4641 20.8198 48.3829 16.6605 48.7165 14.3345C48.708 14.3056 48.6909 14.2798 48.6673 14.2603ZM18.536 24.142C18.5881 24.1197 18.6434 24.1054 18.7001 24.0996C18.6017 24.3012 18.4922 24.4976 18.3719 24.6878C18.2243 24.9156 18.0656 25.1699 17.8961 25.4136C17.7265 25.6574 17.5789 25.8693 17.4312 26.0495C17.1249 26.4045 16.8514 26.7277 16.5944 26.9979C16.3373 27.2682 16.0967 27.5278 15.8068 27.7874C15.5169 28.047 15.2215 28.3172 14.8879 28.5981C14.5542 28.8789 14.2042 29.1544 13.7174 29.4988C12.6864 30.3278 11.4528 30.8861 10.1349 31.1202C9.88257 31.1677 9.62157 31.1476 9.38015 31.0619C7.65727 30.336 10.6928 27.6602 11.3765 27.0191C11.5296 26.8761 12.2297 26.1872 12.3884 26.0442C12.547 25.9011 12.4923 25.9382 12.4923 25.9276C12.5521 25.9235 12.6111 25.911 12.6673 25.8905C13.2471 25.7051 13.8104 25.5302 14.3464 25.3607L15.0575 25.1434L17.1358 24.5288C17.6937 24.354 18.1696 24.2162 18.5141 24.142H18.536ZM41.3 17.6036L40.9444 17.9533C40.9827 17.7891 41.0155 17.6248 41.0538 17.4606C41.1595 16.9837 41.2744 16.5122 41.3984 16.0459C41.5515 15.4895 41.8578 14.5676 42.2844 14.6047C42.3422 14.6118 42.397 14.6338 42.4431 14.6682C42.4893 14.7027 42.5252 14.7484 42.547 14.8007C42.7439 15.2617 42.4431 16.4592 41.2781 17.6036H41.3Z" fill="#CCDAE7"/>
</svg>
