<svg width="156" height="44" viewBox="0 0 156 44" fill="none" xmlns="http://www.w3.org/2000/svg">
<path d="M59.711 32.0338C59.6862 31.0999 59.8561 30.1707 60.2106 29.3022C60.5651 28.4336 61.0969 27.6435 61.7739 26.9794C62.4509 26.3153 63.2593 25.7907 64.1504 25.4374C65.0415 25.084 65.997 24.9091 66.9596 24.9231C71.1465 24.9231 73.978 27.9705 73.978 32.3791V33.2222H63.5682C63.8299 34.8831 65.222 36.2697 67.5981 36.2697C68.9554 36.2605 70.2672 35.7937 71.3088 34.9491L72.9626 37.3109C71.5705 38.5502 69.3671 39.1952 67.2056 39.1952C62.9297 39.18 59.711 36.3967 59.711 32.0338ZM66.9596 27.8435C66.1118 27.7919 65.2773 28.0669 64.6373 28.609C63.9974 29.1511 63.6038 29.9164 63.542 30.7386H70.44C70.3249 29.4587 69.3985 27.8435 66.9596 27.8435Z" fill="#D9D9D9"/>
<path d="M75.1712 32.0338C75.1464 31.0999 75.3164 30.1707 75.6709 29.3022C76.0254 28.4336 76.5571 27.6435 77.2342 26.9794C77.9112 26.3153 78.7195 25.7907 79.6106 25.4374C80.5018 25.084 81.4573 24.9091 82.4198 24.9231C86.6068 24.9231 89.433 27.9705 89.433 32.3791V33.2222H79.0284C79.2849 34.8831 80.677 36.2697 83.0584 36.2697C84.4155 36.2596 85.727 35.7929 86.769 34.9491L88.4176 37.3109C87.0307 38.5502 84.8273 39.1952 82.6606 39.1952C78.4109 39.18 75.1712 36.3967 75.1712 32.0338ZM82.4198 27.8435C81.5715 27.7918 80.7364 28.0667 80.0956 28.6087C79.4549 29.1507 79.0601 29.916 78.997 30.7386H85.895C85.7799 29.4587 84.8535 27.8435 82.4198 27.8435Z" fill="#D9D9D9"/>
<path d="M92.2801 35.4367V28.3768H89.9563V25.2532H92.2801V21.5404H95.9436V25.2532H98.8222V28.3768H95.9803V34.4717C95.9803 35.3453 96.4461 35.9954 97.2573 35.9954C97.7226 36.0166 98.1789 35.866 98.5343 35.5738L99.3141 38.3064C98.7908 38.7838 97.7807 39.1749 96.242 39.1749C93.6408 39.18 92.2801 37.8899 92.2801 35.4367Z" fill="#D9D9D9"/>
<path d="M104.427 37.0773V44H100.764V25.2532H104.427V26.9699C104.939 26.3315 105.594 25.8161 106.344 25.4637C107.094 25.1113 107.917 24.9315 108.75 24.9383C112.346 24.9383 114.952 27.5235 114.952 32.049C114.952 36.5744 112.335 39.1952 108.75 39.1952C107.91 39.1934 107.081 39.001 106.33 38.6333C105.58 38.2656 104.928 37.7327 104.427 37.0773ZM111.153 31.9982C111.153 29.6618 109.703 28.0619 107.589 28.0619C106.981 28.0736 106.384 28.2164 105.841 28.4799C105.298 28.7435 104.822 29.1212 104.448 29.5857V34.3701C104.82 34.841 105.294 35.2263 105.837 35.4985C106.38 35.7707 106.978 35.923 107.589 35.9446C109.703 36.0005 111.153 34.4006 111.153 32.0338V31.9982Z" fill="#D9D9D9"/>
<path d="M116.727 21.6522C116.726 21.375 116.782 21.1003 116.89 20.844C116.999 20.5877 117.159 20.3547 117.361 20.1584C117.563 19.9622 117.802 19.8065 118.066 19.7002C118.33 19.594 118.613 19.5393 118.899 19.5393C119.187 19.5359 119.473 19.5881 119.74 19.6928C120.007 19.7975 120.25 19.9525 120.455 20.1491C120.66 20.3456 120.823 20.5797 120.934 20.8377C121.045 21.0957 121.102 21.3726 121.102 21.6522C121.103 21.9332 121.046 22.2115 120.936 22.4713C120.825 22.731 120.663 22.967 120.458 23.1657C120.253 23.3644 120.01 23.5218 119.743 23.6291C119.475 23.7363 119.188 23.7911 118.899 23.7905C118.319 23.7851 117.765 23.5571 117.358 23.1564C116.951 22.7557 116.724 22.2148 116.727 21.6522ZM117.072 38.8448V25.2532H120.736V38.8448H117.072Z" fill="#D9D9D9"/>
<path d="M132.496 38.8448L129.308 34.2736L126.09 38.8448H122.002L126.99 31.8661L122.279 25.2634H126.398L129.298 29.4282L132.166 25.2634H136.285L131.616 31.8661L136.604 38.8448H132.496Z" fill="#D9D9D9"/>
<path d="M135.981 32.0338C135.956 31.0999 136.126 30.1707 136.481 29.3022C136.835 28.4336 137.367 27.6435 138.044 26.9794C138.721 26.3153 139.529 25.7907 140.421 25.4374C141.312 25.084 142.267 24.9091 143.23 24.9231C147.417 24.9231 150.243 27.9705 150.243 32.3791V33.2222H139.833C140.095 34.8831 141.487 36.2697 143.868 36.2697C145.225 36.2596 146.537 35.7929 147.579 34.9491L149.233 37.3109C147.841 38.5502 145.637 39.1952 143.476 39.1952C139.2 39.18 135.981 36.3967 135.981 32.0338ZM143.23 27.8435C142.382 27.7918 141.546 28.0667 140.906 28.6087C140.265 29.1507 139.87 29.916 139.807 30.7386H146.705C146.59 29.4587 145.663 27.8435 143.23 27.8435Z" fill="#D9D9D9"/>
<path d="M152.336 38.8448V20.0523H156V38.8448H152.336Z" fill="#D9D9D9"/>
<path d="M49.5576 22.5816C49.5576 22.5207 49.5576 22.4648 49.5576 22.4039C49.5576 22.0585 49.5262 21.708 49.5105 21.3881C49.4948 21.0681 49.4582 20.7532 49.4163 20.4383C49.3744 20.1234 49.3483 19.8897 49.3064 19.6155C49.0072 17.7466 48.4801 15.9189 47.7363 14.1707C47.6264 13.9168 47.506 13.6628 47.3909 13.4038C47.0455 12.6826 46.6582 11.9766 46.2395 11.2858C46.1191 11.0928 45.9987 10.8947 45.8731 10.7017C45.4597 10.0719 45.02 9.45738 44.5438 8.86821C44.1774 8.41618 43.7849 7.96414 43.3714 7.53242C42.3571 6.45182 41.241 5.46559 40.0376 4.58658L39.4253 4.15992C39.2211 4.01771 39.0118 3.88057 38.7972 3.74344C38.5826 3.6063 38.3733 3.47426 38.1587 3.34729C37.7243 3.09333 37.2794 2.83936 36.8346 2.62604C36.6252 2.51938 36.4211 2.41781 36.2118 2.32639C36.1611 2.29339 36.1066 2.26611 36.0495 2.24511C35.8768 2.16384 35.7093 2.08257 35.5262 2.01655C35.343 1.95052 35.0447 1.80324 34.8039 1.71182L34.6574 1.65595C34.2021 1.48327 33.7415 1.31058 33.2705 1.14805C33.0245 1.06678 32.7471 0.985507 32.5168 0.914401L32.3441 0.863623L31.5643 0.660448L31.2032 0.579197C29.4473 0.187561 27.6508 -0.00672823 25.8491 0.000177807H25.242C25.0114 0.96976 24.892 1.96113 24.8861 2.95619V3.04761C24.8861 3.36759 24.8861 3.68249 24.928 4.00247C24.9255 4.0081 24.9243 4.01413 24.9243 4.02024C24.9243 4.02634 24.9255 4.0324 24.928 4.03803C24.928 4.17516 24.928 4.32244 24.9646 4.46465C25.0013 4.60687 25.0013 4.80495 25.0327 4.97256C25.0952 5.4254 25.1825 5.8747 25.2944 6.31852C25.3415 6.53692 25.4043 6.74516 25.4671 6.95848C26.2499 9.52509 27.7821 11.8167 29.8783 13.5563C31.9746 15.2959 34.5452 16.409 37.2794 16.761C36.4696 16.9044 35.648 16.9758 34.8248 16.9744C32.811 16.9783 30.8203 16.559 28.9893 15.7452L28.5497 15.537C28.41 15.4764 28.2737 15.4086 28.1415 15.3338C26.9366 14.7153 25.8383 13.9185 24.8861 12.9721C24.5821 12.6765 24.2955 12.3645 24.0278 12.0375C23.8195 11.8063 23.6272 11.562 23.4521 11.3062C22.513 10.0634 21.8045 8.67118 21.3586 7.1921C21.3063 7.00925 21.254 6.83151 21.2069 6.64867C21.0952 6.22203 21.0062 5.78522 20.9399 5.33826C20.9034 5.33545 20.8666 5.33545 20.83 5.33826L20.6102 5.37891C16.6774 6.12153 12.9811 7.756 9.82318 10.1489C6.66521 12.5419 4.13498 15.6255 2.43893 19.1482C0.827863 22.4863 -0.00489006 26.1281 2.16012e-05 29.8142V41.0694H6.19146C6.19146 40.9475 6.19146 40.8307 6.19146 40.7138V40.6681C6.18625 40.5954 6.18625 40.5225 6.19146 40.4497C6.19541 40.2798 6.2094 40.1102 6.23334 39.9418V39.759C6.32853 39.127 6.53007 38.5144 6.82995 37.9458C6.94223 37.727 7.06808 37.5149 7.20679 37.3109C7.7438 36.5277 8.46033 35.8758 9.30026 35.4062L9.39446 35.3554C9.45068 35.3306 9.50491 35.3018 9.55671 35.2691L9.63522 35.2386C10.4629 34.8451 11.3722 34.6401 12.2939 34.6393C13.3713 34.644 14.4283 34.9245 15.3582 35.4524C16.2882 35.9803 17.0581 36.737 17.5904 37.6461C17.6218 37.707 17.6584 37.7578 17.6846 37.8137C17.7157 37.8548 17.7421 37.8991 17.7631 37.9458C17.7631 37.9458 17.7997 38.0219 17.8207 38.0524C17.8416 38.0829 17.8992 38.2353 17.9411 38.3216C17.9853 38.41 18.0221 38.5017 18.0509 38.5959C18.0926 38.6894 18.1259 38.7863 18.1504 38.8854C18.1504 38.9768 18.2027 39.0733 18.2341 39.1698C18.2655 39.2663 18.3179 39.5203 18.344 39.6777L18.3754 39.9063C18.4114 40.1587 18.4289 40.4133 18.4278 40.6681V41.0694H24.8076V40.7291C24.8063 39.7915 24.8851 38.8555 25.0431 37.9305C25.0745 37.7426 25.1059 37.5547 25.1426 37.3718C25.1792 37.189 25.2158 37.0163 25.2525 36.8639C25.2471 36.8388 25.2471 36.8129 25.2525 36.7877C25.2839 36.6201 25.3257 36.4576 25.3728 36.2798C25.4566 35.9548 25.556 35.6348 25.6659 35.3199C25.6883 35.2419 25.7163 35.1656 25.7497 35.0914C25.9015 34.6596 26.0637 34.2228 26.273 33.8013C26.4824 33.3797 26.6603 32.9734 26.8697 32.562C27.079 32.1506 27.3198 31.7747 27.5605 31.3887C27.8013 31.0027 28.0839 30.6167 28.356 30.2561C28.4869 30.0834 28.623 29.9006 28.7695 29.7482C28.9161 29.5755 29.0626 29.4028 29.2144 29.2403C29.3661 29.0777 29.4551 28.9711 29.5755 28.839C29.6959 28.707 29.8529 28.5444 29.9994 28.4022L30.2716 28.133L30.5647 27.8689C30.7583 27.6912 30.9519 27.5185 31.1508 27.361C31.5486 27.0258 31.962 26.7058 32.3964 26.4062L33.0507 25.9694C33.4118 25.7408 33.7781 25.5275 34.1497 25.3192L34.6469 25.0602C34.9557 24.8977 35.275 24.7504 35.5942 24.6133C35.9135 24.4761 36.1647 24.3695 36.4525 24.2628C38.5413 23.4856 40.7576 23.0812 42.9946 23.0692H43.0836C43.2772 23.0692 43.4761 23.0692 43.6698 23.0692C43.7268 23.6194 43.7547 24.172 43.7535 24.725C43.7579 27.2015 43.2438 29.653 42.2425 31.9308C41.2412 34.2087 39.7735 36.2654 37.9284 37.9762H43.8686C46.7033 34.7588 48.5686 30.8449 49.2593 26.6652C49.3012 26.4163 49.3378 26.1573 49.3692 25.9084C49.4111 25.5478 49.4529 25.177 49.4791 24.8113C49.4791 24.6691 49.4791 24.5371 49.4791 24.3949C49.4843 24.3188 49.4843 24.2424 49.4791 24.1663V24.1358C49.4791 23.7701 49.4791 23.4044 49.4791 23.0387C49.5629 22.8559 49.5629 22.7188 49.5576 22.5816Z" fill="#D9D9D9"/>
</svg>
