<svg width="112" height="87" viewBox="0 0 112 87" fill="none" xmlns="http://www.w3.org/2000/svg">
<path d="M97.8016 77.5594L95.3361 75.0959L95.3522 60.3173H112V63.4412H98.7492V67.0079H110.255V70.1317H98.7492V74.4488H112V77.5594H97.8016Z" fill="#D9D9D9"/>
<path d="M0 77.5594V60.3173H16.6505V63.4412H3.39702V67.0079H14.1449V70.1317H3.39702V77.5594H0Z" fill="#D9D9D9"/>
<path d="M23.2732 77.5594L19.0597 73.3643L19.0758 60.3173H22.4755V74.4488H32.3293V60.3173H35.7263V77.5594H23.2732Z" fill="#D9D9D9"/>
<path d="M44.769 77.5594V63.4412H38.1382V60.3173H54.786V63.4412H48.1553V77.5594H44.769Z" fill="#D9D9D9"/>
<path d="M61.4114 77.5594L57.1979 73.3643L57.214 60.3173H60.611V74.4488H70.4648V60.3173H73.8618V77.5594H61.4114Z" fill="#D9D9D9"/>
<path d="M86.96 77.5594L81.2474 71.8766L79.6654 71.8633V77.5621H76.2657V60.3253H89.7199L92.9322 63.5393L92.9162 68.4504L89.6824 71.8978L86.1623 71.8633V74.4515H92.9162V77.5621L86.96 77.5594ZM79.6654 68.7501H89.5191V63.4465H79.6654V68.7501Z" fill="#D9D9D9"/>
<path d="M1.83637 82.2054V86.9389H1.26886V82.2054H1.83637Z" fill="#D9D9D9"/>
<path d="M8.94897 82.2054V86.9389H8.03079L4.60432 82.7252H4.56952V86.9389H3.99397V82.2054H4.91484L8.33596 86.4244H8.37611V82.2054H8.94897Z" fill="#D9D9D9"/>
<path d="M16.0616 82.2054V86.9389H15.1407L11.7089 82.7252H11.6741V86.9389H11.1012V82.2054H12.0221L15.4566 86.4244H15.4967V82.2054H16.0616Z" fill="#D9D9D9"/>
<path d="M20.9416 86.9999H20.4705C19.6371 86.9999 19.0312 86.8231 18.6528 86.4695C18.2727 86.1142 18.0826 85.5785 18.0826 84.8572V84.2871C18.0826 83.5587 18.2727 83.0177 18.6528 82.6642C19.033 82.3106 19.6388 82.1338 20.4705 82.1338H20.9416C21.775 82.1338 22.3818 82.3106 22.7619 82.6642C23.142 83.0177 23.3321 83.5587 23.3321 84.2871V84.8572C23.3321 85.5873 23.142 86.1283 22.7619 86.4801C22.3818 86.8302 21.7741 87.0052 20.9416 86.9999ZM20.8613 86.5066C21.1765 86.5099 21.4906 86.4716 21.7955 86.3926C22.017 86.3351 22.2168 86.2154 22.3711 86.0479C22.5112 85.8896 22.6112 85.7005 22.6629 85.4963C22.7216 85.2406 22.7486 84.9788 22.7432 84.7167V84.417C22.7432 83.7859 22.612 83.328 22.3497 83.0434C22.082 82.7596 21.5921 82.6164 20.8613 82.6191H20.5427C20.2258 82.6109 19.9092 82.6485 19.6031 82.7305C19.3818 82.7895 19.1821 82.9101 19.0276 83.0779C18.8902 83.2382 18.7922 83.4279 18.7412 83.6321C18.6801 83.8928 18.6522 84.16 18.6582 84.4276V84.7193C18.6522 84.9816 18.6801 85.2436 18.7412 85.4989C18.7913 85.7027 18.8894 85.8917 19.0276 86.0505C19.1821 86.2183 19.3818 86.3389 19.6031 86.3979C19.9096 86.4777 20.2259 86.5143 20.5427 86.5066H20.8613Z" fill="#D9D9D9"/>
<path d="M30.2118 82.2054L27.8401 86.9336H27.037L24.6679 82.2054H25.3318L27.4332 86.4324H27.468L29.5827 82.2054H30.2118Z" fill="#D9D9D9"/>
<path d="M33.7293 82.2054L36.1064 86.9389H35.4639L34.7465 85.5042H31.8287L31.1059 86.9389H30.4715L32.8459 82.2054H33.7293ZM33.3063 82.6191H33.2715L32.0723 85.0057H34.5003L33.3063 82.6191Z" fill="#D9D9D9"/>
<path d="M39.1742 82.7013V86.9442H38.6013V82.7013H36.5053V82.2054H41.2702V82.7066L39.1742 82.7013Z" fill="#D9D9D9"/>
<path d="M43.5483 82.2054V86.9389H42.9754V82.2054H43.5483Z" fill="#D9D9D9"/>
<path d="M48.431 86.9999H47.9599C47.1273 86.9999 46.5223 86.8222 46.1395 86.4695C45.7567 86.1168 45.5667 85.5785 45.5694 84.8572V84.2871C45.5694 83.5587 45.7594 83.0177 46.1395 82.6642C46.5197 82.3106 47.1264 82.1338 47.9599 82.1338H48.431C49.2635 82.1338 49.8712 82.3115 50.2486 82.6642C50.6261 83.0169 50.8161 83.5578 50.8188 84.2871V84.8572C50.8188 85.5873 50.6287 86.1283 50.2486 86.4801C49.8685 86.8302 49.2635 87.0052 48.431 86.9999ZM48.0402 86.5066H48.348C48.6632 86.5099 48.9773 86.4716 49.2823 86.3926C49.5042 86.3346 49.7048 86.215 49.8605 86.0479C49.9996 85.8893 50.0987 85.7003 50.1496 85.4963C50.2106 85.241 50.2385 84.979 50.2326 84.7167V84.417C50.2326 83.7859 50.0987 83.3271 49.8364 83.0434C49.574 82.7596 49.0761 82.6191 48.348 82.6191H48.0402C47.724 82.6109 47.4084 82.6485 47.1032 82.7305C46.8806 82.7884 46.6797 82.909 46.525 83.0779C46.3877 83.2382 46.2896 83.4279 46.2386 83.6321C46.1788 83.893 46.151 84.1601 46.1556 84.4276V84.7193C46.1511 84.9816 46.179 85.2434 46.2386 85.4989C46.2887 85.7027 46.3869 85.8917 46.525 86.0505C46.6842 86.217 46.8888 86.334 47.1139 86.3873C47.416 86.4667 47.7277 86.5042 48.0402 86.4987V86.5066Z" fill="#D9D9D9"/>
<path d="M57.7949 82.2054V86.9389H56.874L53.4476 82.7252H53.4128V86.9389H52.8399V82.2054H53.7607L57.1792 86.4244H57.222V82.2054H57.7949Z" fill="#D9D9D9"/>
<path d="M67.6567 82.2054V86.9389H66.7358L63.3094 82.7252H63.2746V86.9389H62.7017V82.2054H63.6252L67.0437 86.4244H67.0838V82.2054H67.6567Z" fill="#D9D9D9"/>
<path d="M73.993 86.4483V86.9362H69.8143V82.2054H73.993V82.6933H70.3872V84.3268H73.993V84.8201H70.3872V86.4483H73.993Z" fill="#D9D9D9"/>
<path d="M78.2252 82.7013V86.9442H77.6523V82.7013H75.5563V82.2054H80.3212V82.7066L78.2252 82.7013Z" fill="#D9D9D9"/>
<path d="M89.4951 82.2054L88.0013 86.9389H87.1983L85.5653 82.8206L83.9351 86.9389H83.0945L81.6195 82.2054H82.2406L83.5148 86.4059H83.5496L85.2147 82.2054H85.924L87.5811 86.4112H87.6159L88.9088 82.2054H89.4951Z" fill="#D9D9D9"/>
<path d="M93.8424 86.9999H93.3713C92.5378 86.9999 91.9311 86.8231 91.5509 86.4695C91.1708 86.1142 90.9808 85.5785 90.9808 84.8572V84.2871C90.9808 83.5587 91.1708 83.0177 91.5509 82.6642C91.9311 82.3106 92.5378 82.1338 93.3713 82.1338H93.8424C94.6749 82.1338 95.2826 82.3115 95.66 82.6642C96.0375 83.0169 96.2275 83.5578 96.2302 84.2871V84.8572C96.2302 85.5873 96.0402 86.1283 95.66 86.4801C95.2799 86.8302 94.6749 87.0052 93.8424 86.9999ZM93.4516 86.5066H93.7594C94.0754 86.5099 94.3905 86.4716 94.6963 86.3926C94.9175 86.3346 95.1172 86.2149 95.2719 86.0479C95.411 85.8893 95.5101 85.7003 95.561 85.4963C95.622 85.241 95.6499 84.979 95.644 84.7167V84.417C95.644 83.7859 95.5119 83.328 95.2478 83.0434C94.9801 82.7596 94.4875 82.6164 93.7594 82.6191H93.4516C93.1355 82.6109 92.8198 82.6485 92.5146 82.7305C92.2904 82.792 92.0894 82.9174 91.9364 83.0911C91.7991 83.2515 91.701 83.4412 91.65 83.6453C91.5911 83.9064 91.5642 84.1735 91.5697 84.4409V84.7326C91.5643 84.9947 91.5913 85.2565 91.65 85.5122C91.7016 85.7154 91.7996 85.9041 91.9364 86.0638C92.0919 86.2317 92.2925 86.3522 92.5146 86.4112C92.8208 86.4866 93.1363 86.5188 93.4516 86.5066Z" fill="#D9D9D9"/>
<path d="M98.8242 84.9129V86.9336H98.2433V82.2054H101.295C101.876 82.2054 102.293 82.2982 102.54 82.4865C102.672 82.5997 102.774 82.7425 102.839 82.9031C102.904 83.0636 102.929 83.2372 102.912 83.4093V83.5313C102.932 83.8006 102.864 84.0692 102.719 84.2977C102.569 84.4778 102.354 84.5928 102.119 84.6185V84.6477C102.348 84.6692 102.561 84.7696 102.722 84.9315C102.872 85.1619 102.939 85.4356 102.912 85.7084V86.9389H102.339V85.8357C102.339 85.4671 102.264 85.2205 102.109 85.0985C101.815 84.947 101.483 84.8843 101.153 84.9182L98.8242 84.9129ZM101.097 82.688H98.8242V84.417H101.207C101.517 84.4461 101.829 84.3804 102.101 84.2287C102.189 84.1437 102.257 84.0397 102.298 83.9248C102.339 83.8098 102.353 83.687 102.339 83.5658V83.5234C102.354 83.4011 102.337 83.2771 102.29 83.163C102.243 83.049 102.168 82.9485 102.071 82.871C101.77 82.7217 101.433 82.6557 101.097 82.6801V82.688Z" fill="#D9D9D9"/>
<path d="M105.562 85.1966V86.9336H104.989V82.2054H105.562V84.5655H105.597L109.16 82.2054H110.022L107.16 84.0988L110.089 86.9389H109.286L106.697 84.4435H106.67L105.562 85.1966Z" fill="#D9D9D9"/>
<path d="M93.7648 9.79501L76.8011 0.0893817C76.697 0.0307998 76.5794 0 76.4598 0C76.3401 0 76.2225 0.0307998 76.1185 0.0893817L59.1601 9.79501C59.057 9.8549 58.9716 9.94055 58.9124 10.0434C58.8532 10.1462 58.8223 10.2627 58.8228 10.3811V14.624H50.2915V10.3811C50.2915 10.2625 50.2598 10.1461 50.1996 10.0436C50.1394 9.94109 50.0529 9.85624 49.9488 9.79767L32.9771 0.0893817C32.8731 0.0307998 32.7554 0 32.6358 0C32.5161 0 32.3985 0.0307998 32.2945 0.0893817L15.3281 9.79501C15.2249 9.85406 15.1392 9.93916 15.08 10.0416C15.0207 10.1441 14.99 10.2603 14.9908 10.3784V29.7897C14.9906 29.9083 15.0219 30.0249 15.0816 30.1278C15.1412 30.2307 15.2272 30.3162 15.3308 30.3757L32.2971 40.0787C32.4016 40.1374 32.5196 40.1685 32.6398 40.1689C32.7591 40.1689 32.8764 40.1378 32.9798 40.0787L39.8568 36.154L47.486 49.2566C47.5462 49.3592 47.6325 49.4444 47.7363 49.5035C47.8401 49.5626 47.9579 49.5936 48.0776 49.5934H67.6727C67.7925 49.5936 67.9102 49.5626 68.0141 49.5035C68.1179 49.4444 68.2042 49.3592 68.2643 49.2566L74.2366 39.01L76.1104 40.0867C76.2142 40.1475 76.3325 40.1795 76.4531 40.1795C76.5728 40.1799 76.6904 40.1478 76.793 40.0867L93.7567 30.381C93.8608 30.3225 93.9473 30.2376 94.0075 30.1351C94.0677 30.0326 94.0994 29.9162 94.0994 29.7976V10.3811C94.0999 10.263 94.0693 10.1468 94.0106 10.044C93.9519 9.94127 93.8672 9.85543 93.7648 9.79501ZM92.7422 28.6229L77.141 19.6916V1.85549L92.7422 10.7788V28.6229ZM60.1613 10.7709L75.7651 1.85549V19.6916L72.2075 21.7282L68.259 14.9528C68.1989 14.8502 68.1126 14.765 68.0087 14.7059C67.9049 14.6468 67.7872 14.6158 67.6674 14.616H60.172L60.1613 10.7709ZM67.2659 15.9684L76.2817 31.4232H58.258L50.2754 17.7345V15.9684H67.2659ZM48.9182 28.6043L33.3171 19.6916V1.85549L48.9182 10.7788V28.6043ZM31.9545 1.85549V19.6916L16.3534 28.6149V10.7709L31.9545 1.85549ZM32.6371 38.7157L17.036 29.7897L32.6371 20.8663L48.2382 29.7897L32.6371 38.7157ZM41.0373 35.4725L49.9434 30.3784C50.0477 30.3187 50.1343 30.2329 50.1945 30.1296C50.2546 30.0262 50.2862 29.909 50.2861 29.7897V20.4367L57.0855 32.1047L48.075 47.5568L41.0373 35.4725ZM67.2712 48.2357H49.2555L58.2633 32.7809H76.2925L67.2712 48.2357ZM76.4611 38.7157L74.9138 37.8326L78.0592 32.4415C78.1184 32.3384 78.1495 32.2219 78.1495 32.1034C78.1495 31.9848 78.1184 31.8683 78.0592 31.7653L72.8928 22.895L76.4557 20.8584L92.0569 29.7897L76.4611 38.7157Z" fill="#D9D9D9"/>
</svg>
