<svg width="79" height="85" viewBox="0 0 79 85" fill="none" xmlns="http://www.w3.org/2000/svg">
<path d="M21.5831 83.0585L21.2998 82.4695C21.1794 82.227 21.0519 81.9707 20.9173 81.6866C20.6192 81.042 20.3613 80.3802 20.1452 79.7049C19.9795 79.1015 19.8938 78.4797 19.8902 77.8549C19.8902 77.0928 19.8902 76.1989 19.9469 75.2012C20.0036 74.2034 20.0957 73.1225 20.209 71.9931C20.3223 70.8637 20.4569 69.6789 20.6056 68.5287C20.7544 67.3785 20.896 66.2283 21.0448 65.0643C21.1935 63.9002 21.3211 62.854 21.4131 61.877C21.5052 60.9001 21.5619 60.0062 21.5619 59.2302C21.5859 58.6303 21.5192 58.0303 21.3636 57.4495C21.2044 57.0417 20.9101 56.6977 20.5277 56.4726C20.0733 56.1604 19.5746 55.9153 19.0473 55.745C18.8307 55.6723 18.6078 55.6189 18.3814 55.5856C18.1864 55.5584 17.9885 55.5584 17.7935 55.5856C17.7434 55.5875 17.6942 55.5995 17.649 55.621C17.6039 55.6425 17.5639 55.6729 17.5314 55.7104C17.5037 55.796 17.5037 55.888 17.5314 55.9737C17.6007 56.2691 17.6127 56.5747 17.5668 56.8744C17.5668 57.2902 17.4889 57.8098 17.4252 58.4473C17.3614 59.0847 17.2835 59.833 17.1844 60.6021C17.0569 61.5652 16.9364 62.5214 16.8231 63.4776L16.5823 63.2489C15.6584 62.4384 14.5553 61.8479 13.3593 61.5237C12.9556 61.4059 12.5376 61.3089 12.1197 61.2257C11.1388 61.0441 10.143 60.9513 9.14471 60.9486H8.57091L8.97463 60.6021L9.42089 60.2349L9.66178 60.034L9.93805 59.7707C10.0514 59.6598 10.2355 59.4935 10.4905 59.2649C11.7372 58.177 13.2814 56.8952 15.0806 55.4332C16.8798 53.9712 18.9764 52.4399 21.3281 50.8602C23.8884 49.1641 26.5363 47.5985 29.2615 46.1694C32.3443 44.5546 35.5538 43.183 38.8596 42.0675C39.6279 41.7952 40.4314 41.6296 41.2467 41.5756C41.5839 41.551 41.9225 41.551 42.2597 41.5756C42.5661 41.5988 42.8695 41.6498 43.1663 41.728C43.6642 41.8436 44.1307 42.0635 44.5334 42.3724C44.8686 42.6111 45.1169 42.9487 45.2417 43.3355C45.278 43.4639 45.2923 43.5974 45.2842 43.7304C45.2842 43.9591 45.2843 44.1808 45.3338 44.4233C45.3481 44.5978 45.3987 44.7676 45.4826 44.9222C45.5291 44.9914 45.5907 45.0495 45.6629 45.0927C45.7352 45.1358 45.8163 45.1628 45.9005 45.1716C46.1257 45.1675 46.3487 45.1253 46.5593 45.0469C46.7784 44.9787 46.9789 44.8629 47.1458 44.7081C47.3126 44.5533 47.4414 44.3635 47.5226 44.1531C47.7054 43.7119 47.7279 43.2227 47.5863 42.7673C47.3572 42.1288 46.9674 41.5569 46.453 41.1044C45.6944 40.4222 44.7781 39.9301 43.7825 39.6701C43.0896 39.4699 42.3776 39.3399 41.6575 39.2821C40.8963 39.2245 40.1322 39.213 39.3696 39.2475C37.1714 39.407 35.0079 39.8737 32.945 40.6333C31.2085 41.2196 29.5121 41.9139 27.8661 42.7119C26.159 43.5503 24.4448 44.4649 22.7873 45.4349C21.1298 46.405 19.4936 47.4166 17.8998 48.449C16.306 49.4813 14.8397 50.4791 13.4301 51.4699C12.0205 52.4607 10.7172 53.3961 9.54134 54.2415C8.36549 55.0868 7.2888 55.8697 6.33962 56.5418C5.23461 57.3317 4.33504 57.9276 3.6267 58.4057C3.18502 58.736 2.69245 58.9956 2.16748 59.1748C1.58664 59.2718 1.22546 59.452 1.09087 59.7291C1.02278 59.8699 0.987458 60.0237 0.987458 60.1795C0.987458 60.3352 1.02278 60.4891 1.09087 60.6299C1.23664 60.9315 1.43837 61.204 1.68586 61.4336C2.00944 61.747 2.36826 62.0236 2.75546 62.2581C3.14894 62.4982 3.57275 62.6868 4.01624 62.8194H4.15087C4.50118 62.9146 4.86821 62.9358 5.22756 62.8817C5.88348 62.7712 6.5459 62.7018 7.21087 62.6739C7.94919 62.629 8.68965 62.629 9.42798 62.6739C10.1839 62.721 10.9362 62.8135 11.6805 62.951L11.9072 62.9995C12.534 63.1223 13.1482 63.3009 13.7418 63.533C14.3323 63.7673 14.8818 64.0899 15.371 64.4892C15.8223 64.8546 16.1629 65.3338 16.3556 65.875C16.4032 66.0213 16.4341 66.1723 16.4477 66.3253C16.4477 66.4708 16.4477 66.6233 16.4973 66.8312C16.3556 68.1477 16.2493 69.4641 16.1572 70.7737C16.0651 72.0832 16.0298 73.3373 16.0227 74.5152C16.0156 75.6931 16.0227 76.7532 16.136 77.6678C16.1837 78.3941 16.3167 79.1125 16.5327 79.8089C16.8119 80.6496 17.2025 81.4509 17.6943 82.1924C18.0956 82.8052 18.5713 83.3683 19.111 83.8692C19.5254 84.2575 20.0045 84.5739 20.5277 84.8046C20.6746 84.8686 20.8261 84.9218 20.9811 84.9639C21.1763 85.012 21.3808 85.012 21.576 84.9639C21.7694 84.9229 21.951 84.84 22.1073 84.7214C22.1472 84.686 22.1777 84.6416 22.1962 84.5921C22.2147 84.5427 22.2207 84.4896 22.2136 84.4373C22.1863 84.2442 22.1265 84.0569 22.0365 83.883C21.9137 83.6798 21.7626 83.4049 21.5831 83.0585Z" fill="#D9D9D9"/>
<path d="M58.7215 43.1692C58.7898 43.1756 58.8585 43.1756 58.9268 43.1692C60.1381 43.07 61.3298 42.8089 62.4685 42.3932C63.1344 42.123 63.3752 41.4855 63.3965 39.8364C63.4204 39.627 63.4 39.415 63.3367 39.2136C63.2733 39.0121 63.1683 38.8256 63.0281 38.6655C62.7183 38.4291 62.3289 38.3153 61.9373 38.3467H61.6186C60.9348 38.3861 60.2577 38.5 59.5998 38.6863C58.5656 38.9981 58.0556 39.684 57.9352 40.9173C57.8148 42.1507 57.8927 42.7327 58.1618 42.996C58.237 43.0623 58.3259 43.1121 58.4225 43.142C58.519 43.1719 58.621 43.1811 58.7215 43.1692Z" fill="#D9D9D9"/>
<path d="M78.9659 46.7029C78.8609 46.624 78.7293 46.5869 78.5975 46.599C78.5196 46.599 78.2646 46.599 78.2433 46.8345C77.9033 49.3358 75.8562 54.2692 72.8316 57.013C72.4892 57.3662 72.0442 57.6081 71.5566 57.7059C71.075 57.7613 70.7279 57.4703 70.5012 56.8536C69.8495 54.9551 70.4162 48.539 71.2096 46.3634C71.67 44.9776 72.2933 44.2847 72.9875 44.2432C73.1176 44.2383 73.2473 44.2592 73.369 44.3044C73.4907 44.3496 73.6019 44.4183 73.6958 44.5065C73.9797 44.849 74.1858 45.2468 74.3006 45.6732C74.4154 46.0997 74.4362 46.5451 74.3616 46.9801C74.355 47.0194 74.3586 47.0597 74.3723 47.0973C74.3859 47.1348 74.409 47.1684 74.4395 47.1948C74.521 47.2602 74.625 47.2924 74.73 47.2849C74.8276 47.2915 74.9242 47.2627 75.0013 47.2039C75.0785 47.145 75.1307 47.0604 75.1479 46.9662C75.2463 46.4207 75.2244 45.8609 75.0836 45.3244C74.9429 44.7878 74.6865 44.2869 74.3316 43.8552C73.9768 43.4235 73.5317 43.0709 73.0262 42.8211C72.5208 42.5714 71.9665 42.4302 71.4007 42.407C71.2664 42.3967 71.1314 42.3967 70.997 42.407C68.8153 42.407 67.0445 44.0561 65.9678 47.0978C65.3062 49.0343 64.9456 51.057 64.8982 53.0982C64.8982 53.6248 64.8982 54.1375 64.8982 54.6295C64.6645 55.6896 64.3811 56.7636 64.0623 57.7821C63.4815 59.6183 62.8369 61.4405 62.0436 61.5098C61.6398 61.5098 61.3352 61.1495 61.059 60.2696C60.3931 57.99 61.6186 50.0218 62.2207 47.3057C62.4473 46.4812 62.6457 45.4696 62.2207 44.9984C62.0881 44.8722 61.9283 44.7767 61.753 44.7192C61.5776 44.6616 61.3913 44.6433 61.2078 44.6658C60.3687 44.7255 59.5442 44.9125 58.7639 45.2201C57.1348 45.8091 56.6956 47.5482 56.5752 48.5321C56.2352 51.3937 55.9235 54.8304 55.8669 57.6782C55.3923 60.131 54.7477 63.145 54.0818 65.6463C53.331 68.4664 52.8847 68.8752 52.5589 68.896C52.233 68.9167 52.1127 68.5149 52.0702 68.3832C51.5389 66.5471 52.1552 57.99 52.3464 54.8235C52.3464 54.2623 52.4031 53.8881 52.4031 53.7703C52.4031 53.4654 52.403 53.1121 52.4597 52.7102C52.5943 50.4306 52.8068 46.204 51.4539 45.5943C51.185 45.4754 50.8917 45.4185 50.5968 45.428C49.8884 45.428 48.238 45.7536 47.3384 48.6915C46.8001 50.4514 46.2688 52.4677 45.8225 54.2345C45.6596 54.8651 45.4967 55.5233 45.3409 56.1677C44.413 59.9301 44.2217 60.5052 43.9242 60.5052H43.818L43.7613 60.4566C43.6622 60.3666 43.57 60.1656 43.5983 58.7937C43.5983 58.572 43.5983 58.3572 43.5983 58.1424C43.5983 57.4495 43.5983 56.7982 43.6833 56.0637C43.9738 53.2021 43.4496 52.045 42.975 51.5739C42.8483 51.4511 42.6978 51.3541 42.5325 51.2887C42.3671 51.2233 42.19 51.1907 42.0117 51.1928C41.7035 51.201 41.4 51.2693 41.1191 51.3937C39.3129 52.1282 38.7037 53.4308 38.732 56.6804C37.865 57.1931 36.9015 57.5301 35.8987 57.6712C35.797 57.341 35.6692 57.0189 35.5162 56.7081C34.8858 55.454 33.8162 53.3823 31.677 54.2484C31.5873 54.2846 31.4906 54.3011 31.3936 54.2969C29.6459 54.255 27.9515 54.8871 26.6761 56.0568C25.4946 57.0774 24.6264 58.3992 24.1686 59.8746C23.7082 61.3851 23.8002 64.1081 24.034 65.7572C24.4944 68.792 26.2794 72.3326 31.0607 73.3789C31.5461 73.477 32.0482 73.4628 32.527 73.3373C36.0687 72.4158 36.777 62.1126 36.1749 58.7868C37.0629 58.6128 37.9198 58.3116 38.7179 57.893C38.7179 58.7591 38.7179 59.6182 38.7179 60.4428C38.7179 64.6417 38.7746 68.2793 40.3542 69.3394C40.5375 69.4704 40.7576 69.543 40.9846 69.5473C42.1109 69.5473 43.3292 67.6626 44.0375 64.8842C44.3988 63.4638 45.1638 60.034 45.7872 57.2625C46.2122 55.3986 46.5451 53.9228 46.6513 53.5278C47.1897 51.5323 47.4659 51.5323 47.6288 51.5254H47.7634L47.8201 51.5739C47.9051 51.657 48.1034 51.8372 47.9476 53.7287C47.7138 56.5003 47.4376 60.1864 47.3739 63.928C47.303 68.4317 47.9334 71.134 49.2863 71.9169C49.5535 72.0787 49.8651 72.1562 50.1789 72.1387C51.5035 72.0624 53.501 70.2471 54.7689 65.5424C55.1726 64.0458 55.5693 62.3759 55.9235 60.7476C55.9638 61.336 56.0659 61.9188 56.2281 62.4868C56.724 64.0181 57.6944 64.7941 58.9836 64.6832C59.7266 64.5947 60.4302 64.307 61.0165 63.8518C62.2774 62.9441 63.269 61.4198 64.2111 58.9392C64.5228 58.1493 64.7919 57.311 65.0398 56.4656C65.1359 57.138 65.2997 57.7994 65.5286 58.4403C65.9395 59.5836 66.7469 60.8932 68.3053 60.7199C68.8495 60.6464 69.3726 60.4649 69.8424 60.1864C72.4987 58.7175 74.6167 56.0707 75.8917 54.1653C77.424 51.9607 78.4797 49.4732 78.9942 46.8553C79.0009 46.8294 79.0018 46.8024 78.9969 46.7761C78.992 46.7498 78.9814 46.7248 78.9659 46.7029ZM33.2778 56.1469C33.8374 56.1469 34.2624 57.1931 34.4324 57.5812C34.014 57.4642 33.6238 57.2663 33.2849 56.9992C32.7324 56.5488 32.9733 56.14 33.2778 56.1469ZM34.4112 68.0091C33.8941 70.3995 33.0724 72.6168 31.8753 71.2864C31.6209 70.9878 31.4176 70.6508 31.2733 70.2887C30.8341 69.2563 30.4516 62.0572 30.8907 59.5282C31.0154 58.7059 31.2537 57.9041 31.5991 57.1446C31.9648 57.6593 32.4474 58.0841 33.009 58.3858C33.5706 58.6875 34.196 58.858 34.8362 58.8838C35.1408 60.1448 35.0629 65.0643 34.4324 68.0091H34.4112Z" fill="#D9D9D9"/>
<path d="M31.7975 17.6226C32.8649 17.4474 33.9218 17.2161 34.9637 16.9297C35.6721 16.701 35.8704 16.0913 35.9342 14.851C35.9979 13.7494 35.3604 13.396 34.2979 13.4653C33.6779 13.5144 33.069 13.6546 32.4916 13.881C32.0489 14.0463 31.6613 14.3277 31.3714 14.6944C31.0815 15.0611 30.9004 15.4989 30.8482 15.9597C30.6216 17.387 30.8129 17.8166 31.7975 17.6226Z" fill="#D9D9D9"/>
<path d="M63.0282 18.648C62.9852 18.603 62.9277 18.5736 62.8653 18.5649C62.7886 18.5546 62.7108 18.5732 62.6476 18.6169C62.5845 18.6607 62.5408 18.7263 62.5253 18.8005C62.5253 18.8698 62.5253 18.946 62.5253 19.0153C62.3115 20.7284 61.9681 22.4237 61.4981 24.0872C61.2786 24.8286 60.7898 24.9533 60.4356 24.9186C59.0189 24.8078 57.0073 22.2649 56.7807 21.7937C56.7807 21.7937 56.7806 21.7175 56.7239 21.6829L56.8089 21.6067C59.019 19.528 61.059 16.6872 59.954 15.0728C59.7861 14.8105 59.566 14.584 59.3068 14.4066C59.0476 14.2293 58.7546 14.1047 58.4452 14.0404H58.3106C54.6556 13.5276 52.5164 21.5997 51.9355 24.1357V23.914C52.0135 18.4055 52.5943 10.7838 52.6864 9.66136C52.9839 6.76511 53.1964 4.05593 53.2106 3.35612C53.2248 2.6563 52.998 2.50387 52.8139 2.38608C52.6001 2.25393 52.3574 2.17318 52.1055 2.15049C51.9599 2.12944 51.8134 2.11556 51.6664 2.10891C49.0313 2.06734 48.486 4.31922 48.2664 6.70273C48.068 9.83457 47.558 15.5301 47.466 20.9068C47.1684 22.9231 46.878 24.5029 46.5805 25.8194C46.3822 26.7063 45.2559 31.1477 43.818 31.1338C43.7279 31.1207 43.6417 31.0892 43.5648 31.0415C43.4879 30.9938 43.4222 30.9308 43.3717 30.8566C41.7638 28.7018 43.9029 12.322 44.0375 10.9709L44.2288 9.70293C44.5688 7.40949 44.8309 5.43477 44.8805 4.85275C44.9166 4.66628 44.9015 4.47379 44.8368 4.29488C44.7721 4.11596 44.6601 3.95701 44.5121 3.83421C44.1601 3.59604 43.7491 3.45485 43.3222 3.42541H43.0955C40.6658 3.31455 40.0779 5.42784 39.5537 7.94994C38.7922 12.604 38.2862 17.2946 38.0379 22.0016C37.6837 23.5121 36.9683 26.3806 36.1749 28.8265C35.757 30.1014 34.7583 33.0462 33.8375 30.5865C33.1291 28.785 34.2625 22.6737 34.8008 20.6782C35.3675 19.0153 35.24 17.6641 31.5991 18.9529C31.0494 19.1848 30.5702 19.5515 30.2078 20.0177C29.8455 20.4838 29.6122 21.0335 29.5307 21.6136C26.6123 22.6876 23.9278 24.9325 21.6894 26.8171C20.8961 27.51 20.1594 28.2029 19.4794 28.7919H19.366C17.9068 29.166 16.1148 29.6926 14.0039 30.2885C12.9485 30.5864 12.0206 30.8081 11.2626 30.9814C10.5047 31.1546 9.84591 31.307 9.26507 31.3971C8.68423 31.4872 8.153 31.5565 7.69257 31.6188C7.23215 31.6812 6.77171 31.7158 6.33962 31.7366C3.97376 31.7366 3.64086 31.508 3.61252 31.4872C3.53399 31.2937 3.50482 31.0844 3.52753 30.8775C3.53892 30.5127 3.57682 30.1491 3.64088 29.7896C3.71172 29.3739 3.81792 28.9235 3.94542 28.4039C4.06256 27.9311 4.2165 27.4679 4.40586 27.0181C5.22175 24.961 6.18517 22.9628 7.28886 21.0385C8.50012 18.9113 9.84589 16.7357 11.2767 14.657C12.6412 12.6631 14.1094 10.7389 15.6756 8.89225C16.8867 7.41441 18.2837 6.0921 19.8336 4.95668C20.2515 4.65874 20.5418 4.51322 20.6623 4.42314C20.6623 4.55479 20.6198 4.72803 20.5844 4.9844C20.4993 5.37934 20.3577 5.91286 20.1735 6.56417C19.9894 7.21548 19.7698 7.94994 19.5218 8.64282L18.7427 10.9224C18.4806 11.6846 18.2114 12.4121 17.9564 13.1119C17.5243 14.2482 17.1772 15.246 16.9435 16.0289C16.7383 16.6804 16.5914 17.3481 16.5043 18.0244C16.4301 18.4901 16.4764 18.9666 16.6389 19.4102C16.7896 19.7682 17.0084 20.095 17.2835 20.3733C17.9281 21.0246 18.5514 21.1563 19.111 20.7683C19.2798 20.6648 19.408 20.5086 19.4748 20.325C19.5416 20.1415 19.5433 19.9412 19.4794 19.7567L19.3518 19.4934C19.2706 19.3374 19.1682 19.1929 19.0473 19.0638C19.0284 19.0419 19.004 19.0252 18.9765 19.0153C18.9765 18.9599 19.0261 18.7797 19.1465 18.3709C19.2102 18.163 19.3306 17.8097 19.5218 17.2969C19.7131 16.7842 19.9044 16.2576 20.124 15.7172C20.3648 15.0243 20.6481 14.269 20.9811 13.4306C21.314 12.5922 21.5973 11.7677 21.8736 10.9363C22.1498 10.1048 22.3977 9.37726 22.6244 8.69131C22.851 8.00535 23.0282 7.44412 23.1344 7.02839C23.3912 6.23456 23.5272 5.40812 23.5382 4.57558C23.5069 3.89596 23.3683 3.22517 23.1274 2.58701C22.4969 0.944871 21.7106 0.0441362 20.7614 0.0025632C19.8123 -0.0390098 18.7498 0.425222 17.5173 1.38833C16.1769 2.49424 14.9439 3.71892 13.8339 5.04675C12.5306 6.56417 11.1776 8.28251 9.84596 10.1048C8.51428 11.9271 7.21091 13.8117 6.01381 15.6479C4.81671 17.484 3.72587 19.2439 2.83336 20.8583C2.00928 22.2999 1.29888 23.8009 0.708341 25.3482C0.251379 26.5312 0.0115826 27.7837 0 29.0482C0.0779175 30.9398 1.08377 32.5612 3.10963 33.9608C3.69966 34.357 4.34656 34.6652 5.02921 34.8754C5.85899 35.1204 6.71964 35.251 7.58631 35.2634C8.80336 35.2885 10.0201 35.2003 11.2201 35.0001C11.8859 34.8962 12.6368 34.7507 13.4443 34.5705C13.2389 34.619 12.7784 35.2634 12.6226 35.4435C12.3251 35.7692 12.0347 36.0949 11.7584 36.4344C11.1963 37.0871 10.7204 37.8064 10.3418 38.5754C9.73967 39.8572 9.49179 41.4162 10.6393 42.5179L10.6818 42.5803C10.6981 42.6002 10.7204 42.6147 10.7455 42.6218L10.7951 42.6565C11.053 42.8775 11.3416 43.0618 11.6522 43.2038C12.5466 43.6466 13.5402 43.8634 14.5423 43.8344H14.5847C15.6118 43.8022 16.6215 43.5665 17.5527 43.1415C18.5031 42.7153 19.3915 42.1677 20.1948 41.5132C21.3757 40.5438 22.4813 39.49 23.5027 38.3606C24.4868 37.3058 25.3822 36.175 26.1803 34.9793C26.9304 33.9938 27.4678 32.8693 27.7598 31.6742C27.8311 31.2681 27.7956 30.851 27.6569 30.4619C27.5181 30.0729 27.2805 29.7247 26.9665 29.4501C26.4974 28.9705 25.9269 28.5969 25.2948 28.3553C24.8378 28.2044 24.3604 28.1203 23.8782 28.1059C23.5948 28.1059 23.2903 28.1059 22.9574 28.1059L22.4402 28.1613C22.9148 27.711 23.3965 27.2883 23.8569 26.8934C25.5131 25.3556 27.3486 24.0137 29.3253 22.8954C28.8437 26.0758 28.617 29.5194 29.2191 31.21C30.0337 33.4619 32.1941 34.3349 33.887 33.4619C35.1974 32.8244 36.012 31.4525 36.7204 29.7411C37.2375 28.4108 37.6979 26.9696 38.0804 25.6393C38.215 28.7572 38.725 31.4387 39.915 32.8245C40.15 33.1238 40.4526 33.3658 40.7991 33.5317C41.1457 33.6976 41.5267 33.7828 41.9125 33.7806C42.265 33.7824 42.6159 33.7333 42.9538 33.6351C44.6751 32.769 46.4955 29.949 47.5013 25.5076C47.5113 27.581 47.7705 29.6462 48.2735 31.6604C48.3855 32.1849 48.6646 32.6611 49.0705 33.0209C49.4765 33.3806 49.9884 33.6054 50.533 33.6629H50.6322C51.2626 33.6629 51.6593 33.1362 51.8647 31.9791C52.0135 31.1684 52.1551 30.0183 52.311 28.7988C52.5235 27.025 52.736 25.1889 52.9769 23.9486C52.9769 23.7893 53.0405 23.6229 53.076 23.4567L53.3239 23.9347C55.194 27.5724 56.8657 29.4155 58.2823 29.4778C58.5822 29.4809 58.8792 29.4206 59.1531 29.301C59.4269 29.1814 59.6711 29.0054 59.869 28.7849C61.4699 27.2259 62.6598 21.7868 63.0919 18.7451C63.0808 18.7073 63.0587 18.6736 63.0282 18.648ZM24.0057 31.5703C24.0731 31.5411 24.1448 31.5224 24.2181 31.5149C24.0907 31.7786 23.9489 32.0353 23.7932 32.284C23.6019 32.5819 23.3965 32.9145 23.1769 33.2332C22.9573 33.552 22.7661 33.8291 22.5748 34.0647C22.1782 34.5289 21.824 34.9516 21.491 35.305C21.1581 35.6584 20.8465 35.9979 20.4711 36.3374C20.0957 36.6769 19.7131 37.0302 19.281 37.3975C18.8489 37.7647 18.3956 38.125 17.7652 38.5754C16.43 39.6594 14.8323 40.3895 13.1256 40.6956C12.7987 40.7578 12.4607 40.7314 12.1481 40.6194C9.91679 39.6701 13.848 36.1711 14.7334 35.3327C14.9318 35.1456 15.8385 34.2448 16.0439 34.0578C16.2494 33.8707 16.1785 33.9192 16.1785 33.9053C16.256 33.8999 16.3324 33.8836 16.4052 33.8568C17.156 33.6143 17.8856 33.3857 18.5798 33.164L19.5007 32.8799L22.1923 32.0761C22.9148 31.8475 23.5311 31.6673 23.9773 31.5703H24.0057ZM53.4869 23.0202L53.0264 23.4774C53.076 23.2626 53.1185 23.0479 53.168 22.8331C53.305 22.2095 53.4537 21.5928 53.6143 20.9831C53.8126 20.2555 54.2093 19.0499 54.7618 19.0984C54.8366 19.1078 54.9076 19.1365 54.9673 19.1815C55.0271 19.2266 55.0736 19.2864 55.1019 19.3548C55.3569 19.9576 54.9673 21.5235 53.4585 23.0202H53.4869Z" fill="#D9D9D9"/>
</svg>
