<svg width="222" height="33" viewBox="0 0 222 33" fill="none" xmlns="http://www.w3.org/2000/svg">
<path d="M100.265 0V11.4427H98.9713V2.47448L94.5722 11.4427H92.4837L88.0913 2.47448V11.4427H86.7978V0H88.3608L93.5279 10.534L98.6951 0H100.265Z" fill="#D9D9D9"/>
<path d="M117.963 11.4427L113.173 0H111.28L106.49 11.4427H107.904L112.229 1.09744L116.555 11.4427H117.963Z" fill="#D9D9D9"/>
<path d="M131.719 4.26638e-07H124.181V11.4427H131.719C134.131 11.4427 135.209 10.3243 135.209 7.82186V3.62783C135.209 1.11841 134.131 4.26638e-07 131.719 4.26638e-07ZM133.895 7.5143C133.895 9.17793 133.006 10.1006 131.382 10.1006H125.474V1.32112H131.389C133.006 1.32112 133.895 2.23682 133.895 3.90045V7.5143Z" fill="#D9D9D9"/>
<path d="M13.467 21.5433V32.986H12.1735V24.0178L7.78108 32.986H5.69265L1.29348 24.0178V32.986H0V21.5433H1.56969L6.73013 32.0843L11.8973 21.5433H13.467Z" fill="#D9D9D9"/>
<path d="M65.2533 32.986L60.4701 21.5433H58.5703L53.7871 32.986H55.1952L59.5202 22.6408L63.852 32.986H65.2533Z" fill="#D9D9D9"/>
<path d="M78.4171 32.986C80.8289 32.986 81.9001 32.0004 81.9001 29.7916C81.9001 27.5827 80.8289 26.5971 78.4171 26.5971H74.7658C72.5022 26.5971 72.1653 25.4298 72.1653 24.7378C72.1653 24.0457 72.5022 22.8854 74.7658 22.8854H81.9001V21.5433H74.3615C71.9497 21.5433 70.8718 22.5289 70.8718 24.7378C70.8718 26.9466 71.9497 27.9392 74.3615 27.9392H78.0129C80.2698 27.9392 80.6066 29.0995 80.6066 29.7916C80.6066 30.4836 80.2698 31.6439 78.0129 31.6439H70.8718V32.986H78.4171Z" fill="#D9D9D9"/>
<path d="M99.7798 32.986V31.6439H92.578C92.2364 31.6852 91.8901 31.6458 91.5652 31.5287C91.2402 31.4117 90.945 31.22 90.7014 30.968C90.4579 30.7159 90.2723 30.4101 90.1587 30.0732C90.045 29.7364 90.0061 29.3773 90.045 29.0227V25.5276C90.0061 25.1739 90.0448 24.8157 90.1581 24.4797C90.2715 24.1437 90.4565 23.8386 90.6994 23.5872C90.9423 23.3358 91.2369 23.1447 91.561 23.028C91.8852 22.9113 92.2305 22.8721 92.5713 22.9134H99.7798V21.5713H92.2277C89.8159 21.5713 88.738 22.6897 88.738 25.1921V29.3861C88.738 31.8816 89.8159 33 92.2277 33L99.7798 32.986Z" fill="#D9D9D9"/>
<path d="M107.925 21.5433H106.631V32.986H107.925V21.5433Z" fill="#D9D9D9"/>
<path d="M125.804 22.8854V21.5433H114.776V32.986H125.804V31.6439H116.069V27.9392H125.804V26.5971H116.069V22.8854H125.804Z" fill="#D9D9D9"/>
<path d="M31.9125 22.8854V21.5433H20.8843V32.986H31.9125V31.6439H22.1778V27.9392H31.9125V26.5971H22.1778V22.8854H31.9125Z" fill="#D9D9D9"/>
<path d="M143.677 32.986V21.5433H142.384V31.3503L134.299 21.5433H132.656V32.986H133.942V23.179L142.04 32.986H143.677Z" fill="#D9D9D9"/>
<path d="M156.693 32.986V22.8854H161.557V21.5433H150.535V22.8854H155.399V32.986H156.693Z" fill="#D9D9D9"/>
<path d="M44.8069 32.986V22.8854H49.6709V21.5433H38.6494V22.8854H43.5134V32.986H44.8069Z" fill="#D9D9D9"/>
<path d="M169.702 21.5433H168.408V32.986H169.702V21.5433Z" fill="#D9D9D9"/>
<path d="M184.098 32.986C186.51 32.986 187.581 32.0004 187.581 29.7916C187.581 27.5827 186.51 26.5971 184.098 26.5971H180.481C178.224 26.5971 177.887 25.4298 177.887 24.7378C177.887 24.0457 178.224 22.8854 180.481 22.8854H187.615V21.5433H180.076C177.665 21.5433 176.593 22.5289 176.593 24.7378C176.593 26.9466 177.665 27.9392 180.076 27.9392H183.728C185.985 27.9392 186.328 29.0995 186.328 29.7916C186.328 30.4836 185.985 31.6439 183.728 31.6439H176.593V32.986H184.098Z" fill="#D9D9D9"/>
<path d="M199.923 32.986V22.8854H204.794V21.5433H193.766L193.773 22.8854H198.63V32.986H199.923Z" fill="#D9D9D9"/>
<path d="M218.517 32.986C220.929 32.986 222 32.0004 222 29.7916C222 27.5827 220.929 26.5971 218.517 26.5971H214.839C212.582 26.5971 212.245 25.4298 212.245 24.7378C212.245 24.0457 212.582 22.8854 214.839 22.8854H221.973V21.5433H214.435C212.023 21.5433 210.952 22.5289 210.952 24.7378C210.952 26.9466 212.023 27.9392 214.435 27.9392H218.086C220.343 27.9392 220.68 29.0995 220.68 29.7916C220.68 30.4836 220.343 31.6439 218.086 31.6439H210.952V32.986H218.517Z" fill="#D9D9D9"/>
</svg>
