<svg width="108" height="44" viewBox="0 0 108 44" fill="none" xmlns="http://www.w3.org/2000/svg">
<path d="M3.54847 43.9627L3.43087 43.267H2.50018L2.10506 43.9627H1.77678L3.10766 41.6651H3.42664L3.85899 43.9627H3.54847ZM2.99767 42.3738L2.63217 43.0226H3.39364L3.28365 42.3704C3.27265 42.3017 3.26419 42.2321 3.25742 42.1616C3.25065 42.0912 3.24473 42.0051 3.23796 41.9051H3.23204C3.16358 42.0662 3.08531 42.2228 2.99767 42.3738Z" fill="#D9D9D9"/>
<path d="M9.79088 43.3165C9.78596 43.3734 9.7931 43.4307 9.81179 43.4844C9.83049 43.5382 9.8603 43.5871 9.89918 43.6279C9.99835 43.7031 10.1207 43.7386 10.2435 43.7279C10.3627 43.7323 10.4813 43.7079 10.5896 43.6566C10.6843 43.607 10.7624 43.5295 10.8138 43.4339C10.8808 43.3051 10.9279 43.1663 10.9534 43.0226L11.2343 41.6651H11.5313L11.2453 43.0565C11.2102 43.254 11.1415 43.4436 11.0422 43.6166C10.9649 43.7461 10.8518 43.8491 10.7173 43.9122C10.5655 43.9757 10.4023 44.0053 10.2385 43.9992C9.97843 43.9992 9.78919 43.9436 9.67073 43.8322C9.60878 43.7688 9.56085 43.6924 9.53019 43.6082C9.49953 43.524 9.48687 43.434 9.49306 43.3444C9.49682 43.2107 9.51383 43.0779 9.54382 42.9478L9.80864 41.6625H10.1065L9.82387 43.0374C9.80358 43.129 9.79252 43.2226 9.79088 43.3165Z" fill="#D9D9D9"/>
<path d="M17.9107 41.886C17.8149 41.8837 17.7198 41.9024 17.6315 41.9407C17.5583 41.9718 17.4948 42.023 17.4479 42.0886C17.4054 42.1503 17.3829 42.2243 17.3836 42.2999C17.381 42.3506 17.3973 42.4004 17.4293 42.4391C17.4694 42.4782 17.5173 42.5079 17.5698 42.526C17.6557 42.558 17.7433 42.5853 17.8321 42.6078C17.9843 42.6442 18.1315 42.7 18.2703 42.7739C18.3632 42.822 18.4411 42.8958 18.4954 42.9869C18.5481 43.0983 18.5702 43.2224 18.5593 43.3458C18.5484 43.4692 18.505 43.5872 18.4336 43.687C18.3439 43.7961 18.2269 43.8779 18.0952 43.9236C17.9513 43.9747 17.7999 44.0003 17.6476 43.9992C17.3752 43.9992 17.171 43.9323 17.035 43.7983C16.8936 43.6501 16.8141 43.4511 16.8134 43.2435L17.1112 43.1765C17.1063 43.3334 17.1595 43.4863 17.2601 43.6044C17.3148 43.6539 17.3787 43.6916 17.4479 43.7152C17.5171 43.7388 17.5902 43.7478 17.6628 43.7418C17.776 43.745 17.8888 43.7264 17.9953 43.687C18.0765 43.6581 18.1476 43.6055 18.2001 43.5357C18.245 43.471 18.2687 43.3934 18.2678 43.3139C18.2712 43.2461 18.2518 43.1792 18.2128 43.1243C18.1641 43.067 18.1017 43.0239 18.0317 42.9991C17.9123 42.9524 17.7895 42.9152 17.6645 42.8878C17.5437 42.8629 17.4277 42.818 17.321 42.7547C17.2458 42.7087 17.1848 42.6418 17.145 42.5617C17.1093 42.4782 17.0919 42.3876 17.0943 42.2964C17.0943 42.1786 17.1288 42.0634 17.1933 41.966C17.266 41.8581 17.3661 41.7727 17.4826 41.719C17.6241 41.654 17.7778 41.6222 17.9327 41.6259C18.1713 41.6259 18.353 41.6807 18.4776 41.7903C18.5437 41.8542 18.5965 41.9312 18.6327 42.0167C18.669 42.1023 18.6879 42.1945 18.6883 42.2877L18.393 42.353C18.393 42.2252 18.3482 42.1017 18.2669 42.0051C18.2185 41.9615 18.1619 41.9285 18.1007 41.908C18.0395 41.8876 17.9749 41.88 17.9107 41.886Z" fill="#D9D9D9"/>
<path d="M25.3089 41.9381L24.8859 43.9627H24.5906L25.0094 41.9381H24.2978L24.3537 41.6651H26.0738L26.0171 41.9381H25.3089Z" fill="#D9D9D9"/>
<path d="M33.103 42.2495C33.1032 42.3509 33.0793 42.4509 33.0336 42.5408C32.9823 42.6371 32.9081 42.7185 32.8179 42.7774C32.7058 42.849 32.581 42.8972 32.4507 42.9191V42.9287C32.4832 42.9438 32.512 42.9661 32.5353 42.9939C32.5684 43.035 32.5953 43.081 32.6148 43.1304C32.6484 43.2131 32.6767 43.2979 32.6994 43.3844L32.8686 43.9627H32.5463L32.4143 43.4661C32.3883 43.3576 32.3515 43.2521 32.3043 43.1513C32.274 43.0895 32.225 43.0395 32.1647 43.0087C32.0876 42.9782 32.0053 42.9643 31.9227 42.9678H31.6562L31.4506 43.9627H31.1545L31.63 41.6651H32.405C32.6487 41.6651 32.8263 41.7141 32.938 41.812C32.9955 41.8677 33.0402 41.9359 33.0687 42.0115C33.0973 42.0872 33.109 42.1685 33.103 42.2495ZM32.7874 42.2686C32.7918 42.2215 32.7852 42.1741 32.7683 42.1301C32.7514 42.0861 32.7246 42.0469 32.6901 42.0155C32.601 41.9573 32.4959 41.9301 32.3906 41.9381H31.8677L31.7112 42.6947H32.2248C32.3279 42.6972 32.4306 42.6801 32.5277 42.6443C32.6046 42.6158 32.6717 42.5647 32.7206 42.4973C32.7672 42.4296 32.7907 42.348 32.7874 42.2651V42.2686Z" fill="#D9D9D9"/>
<path d="M39.9453 43.9627L39.8285 43.267H38.8978L38.5027 43.9627H38.1753L39.5062 41.6651H39.8243L40.2575 43.9627H39.9453ZM39.3953 42.3738L39.0298 43.0226H39.7913L39.6813 42.3704C39.6703 42.3017 39.6618 42.2321 39.6551 42.1616C39.6483 42.0912 39.6415 42.0051 39.6356 41.9051H39.6297C39.5612 42.0662 39.483 42.2228 39.3953 42.3738Z" fill="#D9D9D9"/>
<path d="M47.2005 43.6896L47.1438 43.9627H45.746L46.2215 41.6651H46.5168L46.098 43.6896H47.2005Z" fill="#D9D9D9"/>
<path d="M52.7271 43.9627L53.2026 41.6651H53.5004L53.0249 43.9627H52.7271Z" fill="#D9D9D9"/>
<path d="M60.2851 43.9627L60.1675 43.267H59.2368L58.8426 43.9627H58.5143L59.8452 41.6651H60.1641L60.5973 43.9627H60.2851ZM59.7335 42.3738L59.3671 43.0226H60.1286L60.0186 42.3704C60.0076 42.3017 59.9983 42.2321 59.9915 42.1616C59.9848 42.0912 59.9789 42.0051 59.9729 41.9051H59.967C59.8985 42.0661 59.8205 42.2226 59.7335 42.3738Z" fill="#D9D9D9"/>
<path d="M8.63005 39.6623H0L1.34443 38.6709L8.24677 18.1975C8.24677 18.1975 9.08355 16.3199 11.1395 16.3199C13.1955 16.3199 32.3009 16.1373 32.3009 16.1373L31.0318 17.1017L29.5089 21.8744L11.3181 21.8222L13.704 23.9876L13.2725 25.5782H26.2878L24.7649 30.3509L8.80434 30.1943L11.0211 32.2815L8.63005 39.6623Z" fill="#D9D9D9"/>
<path d="M34.483 16.2155H42.9751L41.7229 16.98L34.1445 39.6179L25.6871 39.6614L26.8031 38.6796L34.483 16.2155Z" fill="#D9D9D9"/>
<path d="M72.3579 16.2147L71.1057 16.9808L63.5282 39.6179L56.3212 39.6623L49.4155 25.8348L44.8018 39.6179L36.3444 39.6623L37.4595 38.6796L45.1411 16.2147H52.392L59.0718 30.2378L63.8658 16.2147H72.3579Z" fill="#D9D9D9"/>
<path d="M79.3736 3.84213H76.7347L91.7561 22.7423H89.4556L72.6667 1.77322H70.1547L86.9351 22.7423H84.3638L66.3482 0H63.5578L81.8772 22.8293L65.1645 43.9723L77.5452 43.9644L94.2596 22.7423L79.3736 3.84213Z" fill="#D9D9D9"/>
<path d="M107.814 6.17453H95.2284L90.3312 12.2769L96.6752 20.1533L107.814 6.17453Z" fill="#D9D9D9"/>
<path d="M96.6498 25.4478L90.3312 33.3242L95.5499 39.6527H108L96.6498 25.4478Z" fill="#D9D9D9"/>
</svg>
