<svg width="116" height="85" viewBox="0 0 116 85" fill="none" xmlns="http://www.w3.org/2000/svg">
<path d="M19.9543 38.9082H20.9918L20.3194 39.619C20.1727 39.395 20.0503 39.1568 19.9543 38.9082Z" fill="#D9D9D9"/>
<path d="M69.8406 29.7002V29.6759H69.8655L69.8406 29.7002Z" fill="#D9D9D9"/>
<path d="M84.433 40.6528H85.3793V41.5009L84.433 40.6528Z" fill="#D9D9D9"/>
<path d="M97.3155 42.3652H86.392L86.2592 42.244V40.6286H88.9236C88.1543 40.0144 87.5503 39.2271 87.1639 38.3347H88.4753C87.6699 37.6676 87.0192 36.8417 86.5663 35.9115H87.6702C87.0019 35.4987 86.5186 34.8553 86.3172 34.1103H86.9066C86.3218 33.483 85.9482 32.6967 85.8358 31.8568C85.8358 31.7922 85.8358 31.8568 85.8358 31.8568C85.729 32.6966 85.3578 33.4837 84.7733 34.1103H85.3544C85.1582 34.8554 84.6773 35.4996 84.0097 35.9115H85.1137C84.6608 36.8417 84.01 37.6676 83.2045 38.3347H84.5078C84.2844 38.8785 83.9672 39.3811 83.5698 39.8209L71.0608 28.6421L70.5545 29.1025C70.4527 28.968 70.369 28.8214 70.3055 28.6663H70.8782C70.5284 28.3805 70.2453 28.0253 70.0481 27.6243H70.5378C70.2402 27.4407 70.0286 27.1506 69.9485 26.8166H70.1976C69.9405 26.5436 69.7778 26.1989 69.7327 25.8312C69.6876 26.1989 69.5251 26.5436 69.2679 26.8166H69.5169C69.4368 27.1506 69.2252 27.4407 68.9276 27.6243H69.4173C69.2201 28.0253 68.9371 28.3805 68.5872 28.6663H69.16C68.9934 29.058 68.7278 29.4025 68.388 29.6679H69.5584V30.0394L67.1513 32.1879L71.0027 38.7789V38.8516L70.9364 38.7628L66.4457 32.7049L52.3928 13.78L45.0967 23.7796C44.9297 23.5768 44.785 23.3575 44.6651 23.1253H45.1548C44.8571 22.9417 44.6455 22.6516 44.5655 22.3176H44.8144C44.5627 22.0412 44.4009 21.6982 44.3496 21.3322C44.3029 21.6995 44.1405 22.0437 43.8848 22.3176H44.1421C44.0581 22.6499 43.8473 22.9386 43.5527 23.1253H44.0342C43.837 23.5263 43.554 23.8815 43.2042 24.1673H43.7769C43.6081 24.5578 43.343 24.9018 43.005 25.1689H44.1089L42.7725 27.0024L48.4916 34.8938L46.8315 33.1249L42.3409 28.4805L36.6135 22.5438L21.1578 38.8274C20.4256 38.1921 19.8279 37.4239 19.3981 36.5658H20.5105C19.8392 36.156 19.355 35.5113 19.1575 34.7646H19.7385C19.1567 34.1362 18.786 33.35 18.676 32.511C18.676 32.4464 18.676 32.511 18.676 32.511C18.5707 33.3513 18.1994 34.1389 17.6135 34.7646H18.1946C17.9984 35.5097 17.5174 36.1539 16.8499 36.5658H17.9538C17.5042 37.4979 16.8531 38.3244 16.0448 38.9889H17.3479C16.9654 39.8835 16.3607 40.6716 15.5882 41.2829H18.2609V41.8806L17.5139 42.6883L6.59042 42.7287C6.48251 19.2241 26.7359 0.0972962 51.8118 0.00037003C76.8878 -0.0965562 97.2159 18.8606 97.3155 42.3652Z" fill="#D9D9D9"/>
<path d="M7.28761 78.2279L7.02204 79.3991H9.13031L7.90184 84.8189H9.38768L10.6078 79.3991H12.7162L12.9818 78.2279H7.28761Z" fill="#D9D9D9"/>
<path d="M21.3239 79.8433C20.9431 79.837 20.5695 79.9441 20.2531 80.1503C19.9962 80.3425 19.7648 80.5649 19.5642 80.8126L19.7551 80.0049H18.4518L17.3562 84.8512H18.7175L19.2487 82.5249C19.3023 82.214 19.4209 81.9171 19.5973 81.6526C19.7453 81.481 19.9332 81.3461 20.1454 81.259C20.3575 81.172 20.5879 81.1352 20.8176 81.1518H21.1994L21.4982 79.8433H21.3239Z" fill="#D9D9D9"/>
<path d="M31.3344 83.5992L31.849 81.3618C31.9818 80.7722 31.849 80.3764 31.4506 80.1664C31.0053 79.9407 30.5081 79.8295 30.0063 79.8433C29.2807 79.7953 28.565 80.0275 28.0141 80.4895C27.7139 80.7791 27.499 81.1417 27.3916 81.5395H28.7031C28.7672 81.3734 28.8661 81.2221 28.9936 81.0953C29.1981 80.9312 29.4598 80.8502 29.7241 80.8691C29.9407 80.8561 30.1573 80.8949 30.3549 80.9822C30.4208 81.0287 30.4688 81.0953 30.4913 81.1714C30.5139 81.2475 30.5097 81.3287 30.4794 81.4022C30.4562 81.4889 30.4092 81.5678 30.3434 81.6304C30.2776 81.693 30.1955 81.737 30.1059 81.7576C29.9231 81.8172 29.7335 81.8551 29.5414 81.8707L29.0683 81.9272C28.6322 81.9605 28.2053 82.0671 27.8066 82.2422C27.5417 82.3634 27.3098 82.5436 27.1296 82.7681C26.9493 82.9925 26.8258 83.2551 26.769 83.5346C26.7078 83.7167 26.6955 83.911 26.7333 84.0991C26.7711 84.2871 26.8577 84.4626 26.9849 84.6089C27.1285 84.7405 27.2984 84.8421 27.484 84.9074C27.6696 84.9727 27.867 85.0003 28.064 84.9885C28.4301 84.9899 28.7914 84.9069 29.1182 84.7462C29.3904 84.6171 29.6443 84.4542 29.8734 84.2615C29.8662 84.361 29.8662 84.4609 29.8734 84.5604C29.8573 84.6513 29.8573 84.7442 29.8734 84.835H31.351V84.6492C31.2814 84.6179 31.2255 84.5635 31.1933 84.4958C31.161 84.3849 31.161 84.2674 31.1933 84.1565C31.2597 83.9385 31.3011 83.7527 31.3344 83.5992ZM30.1308 82.9369C30.0995 83.115 30.031 83.285 29.9297 83.4364C29.8283 83.5878 29.6961 83.7174 29.5414 83.8173C29.2916 83.9682 29.0052 84.0518 28.7113 84.0596C28.551 84.0674 28.3938 84.0154 28.2715 83.9142C28.2175 83.8497 28.1815 83.7726 28.1669 83.6906C28.1524 83.6085 28.1598 83.5242 28.1885 83.4457C28.2162 83.3295 28.27 83.2207 28.3461 83.1271C28.4221 83.0336 28.5185 82.9576 28.6284 82.9046C28.8366 82.8138 29.0577 82.7539 29.2841 82.7269L29.5996 82.6784C29.7283 82.6553 29.8558 82.6256 29.9814 82.5896C30.0784 82.556 30.1728 82.5155 30.2636 82.4684L30.1308 82.9369Z" fill="#D9D9D9"/>
<path d="M39.0539 79.9645L37.9498 84.8108H39.3277L40.4318 79.9645H39.0539ZM39.4523 78.2037L39.1867 79.3829H40.5645L40.8302 78.2037H39.4523Z" fill="#D9D9D9"/>
<path d="M47.8275 78.2279L46.3335 84.8189H47.6948L49.1888 78.2279H47.8275Z" fill="#D9D9D9"/>
<path d="M60.0625 80.4733C59.9428 80.26 59.7528 80.0922 59.5231 79.9968C59.2612 79.8864 58.9783 79.8314 58.693 79.8353C58.4077 79.8393 58.1258 79.8969 57.863 80.0049C57.5427 80.1393 57.2586 80.3438 57.0329 80.6026L57.564 78.2683H56.2111L54.7253 84.835H56.0783L56.6759 82.2019C56.7378 81.8373 56.9114 81.4995 57.1739 81.2326C57.2922 81.1231 57.4316 81.0375 57.584 80.9806C57.7364 80.9238 57.899 80.8969 58.0622 80.9014C58.4108 80.9014 58.6183 81.0145 58.693 81.2407C58.7517 81.4468 58.7517 81.6646 58.693 81.8707L58.0206 84.835H59.4068L60.0625 81.9757C60.1366 81.6645 60.1894 81.3487 60.2203 81.0307C60.2247 80.8339 60.1698 80.6402 60.0625 80.4733Z" fill="#D9D9D9"/>
<path d="M71.3015 82.7511C71.3849 82.4359 71.4404 82.1143 71.4675 81.7899C71.506 81.445 71.4487 81.0963 71.3015 80.7803C71.1646 80.4701 70.921 80.2159 70.6126 80.0614C70.2622 79.9024 69.8784 79.825 69.4919 79.8353C68.786 79.8287 68.1006 80.0663 67.5579 80.5057C66.9706 81.0105 66.5758 81.6936 66.4374 82.4442C66.3148 82.7692 66.2793 83.1193 66.3345 83.4613C66.3897 83.8034 66.5337 84.126 66.7528 84.3989C66.9725 84.6041 67.2332 84.7632 67.5188 84.866C67.8045 84.9688 68.1088 85.0133 68.4129 84.9966C69.1584 85.0164 69.8843 84.7626 70.4465 84.2858C70.7479 84.0546 70.9825 83.7512 71.1272 83.4054H69.741C69.6472 83.5307 69.5354 83.6422 69.4089 83.7365C69.1956 83.8902 68.9355 83.9698 68.6702 83.9627C68.4439 83.9756 68.2203 83.9098 68.0393 83.7769C67.8991 83.6484 67.8003 83.4832 67.7546 83.3011C67.7089 83.119 67.7185 82.928 67.7821 82.7511H71.3015ZM68.4544 81.1357C68.6831 80.9414 68.9814 80.8428 69.2844 80.8611C69.4093 80.852 69.5347 80.8706 69.6511 80.9153C69.7675 80.9601 69.872 81.0299 69.9568 81.1195C70.0394 81.2283 70.0963 81.3535 70.1236 81.4861C70.1508 81.6187 70.1477 81.7555 70.1145 81.8869H67.9813C68.0805 81.6109 68.2454 81.3618 68.4627 81.1599L68.4544 81.1357Z" fill="#D9D9D9"/>
<path d="M81.918 83.5992L82.4243 81.3618C82.5654 80.7722 82.4243 80.3764 82.0342 80.1664C81.5889 79.9408 81.0917 79.8295 80.5898 79.8433C79.8619 79.7967 79.1442 80.0285 78.5895 80.4895C78.2945 80.7817 78.0828 81.1436 77.9752 81.5395H79.2867C79.3507 81.3734 79.4497 81.2221 79.5772 81.0953C79.7817 80.9312 80.0433 80.8502 80.3076 80.8691C80.5243 80.8561 80.7409 80.8949 80.9385 80.9822C81.0022 81.0304 81.0485 81.0971 81.0709 81.1725C81.0933 81.248 81.0905 81.3284 81.063 81.4022C81.0398 81.4889 80.9928 81.5678 80.9269 81.6304C80.8611 81.693 80.7791 81.737 80.6895 81.7576C80.5067 81.8172 80.3172 81.8551 80.125 81.8707L79.652 81.9272C79.2159 81.9605 78.789 82.0671 78.3903 82.2422C78.1253 82.3635 77.8933 82.5436 77.7131 82.7681C77.5329 82.9926 77.4094 83.2551 77.3527 83.5346C77.2898 83.7165 77.2767 83.9112 77.3145 84.0995C77.3523 84.2879 77.4399 84.4634 77.5685 84.6089C77.7122 84.7405 77.882 84.8421 78.0676 84.9074C78.2532 84.9727 78.4505 85.0003 78.6475 84.9885C79.0137 84.9899 79.3749 84.9069 79.7017 84.7462C79.974 84.6171 80.2279 84.4542 80.4571 84.2615C80.4499 84.361 80.4499 84.4609 80.4571 84.5604C80.441 84.6513 80.441 84.7442 80.4571 84.835H81.9346V84.6493C81.8644 84.6158 81.8064 84.5623 81.7685 84.4958C81.742 84.3842 81.742 84.2681 81.7685 84.1565C81.8432 83.9385 81.8848 83.7527 81.918 83.5992ZM80.7144 82.9369C80.683 83.115 80.6146 83.285 80.5132 83.4364C80.4119 83.5878 80.2798 83.7174 80.125 83.8173C79.8753 83.9682 79.5888 84.0518 79.295 84.0596C79.1347 84.0674 78.9773 84.0154 78.855 83.9142C78.7987 83.8509 78.7612 83.7738 78.7466 83.6912C78.732 83.6087 78.7408 83.5238 78.7721 83.4457C78.7998 83.3295 78.8535 83.2207 78.9296 83.1272C79.0057 83.0336 79.1022 82.9576 79.212 82.9046C79.4198 82.8126 79.6409 82.7526 79.8677 82.7269L80.1831 82.6784C80.3119 82.6553 80.4394 82.6256 80.565 82.5896C80.662 82.556 80.7563 82.5155 80.8472 82.4684L80.7144 82.9369Z" fill="#D9D9D9"/>
<path d="M93.356 78.2279L92.8249 80.546C92.729 80.3242 92.5633 80.1375 92.3517 80.0129C92.1137 79.8746 91.8403 79.8046 91.5632 79.811C91.2287 79.807 90.8968 79.8686 90.5873 79.9921C90.2778 80.1156 89.9971 80.2985 89.7619 80.5299C89.2102 81.0633 88.8394 81.7482 88.6994 82.4926C88.6087 82.7865 88.5818 83.0955 88.6204 83.4C88.659 83.7045 88.7622 83.9979 88.9236 84.2615C89.0678 84.4853 89.2707 84.6676 89.5114 84.7897C89.7522 84.9118 90.022 84.9693 90.2932 84.9562C90.6288 84.9657 90.962 84.8965 91.2644 84.7543C91.5826 84.602 91.8651 84.3875 92.0944 84.1242L91.9367 84.8027H93.2564L94.7506 78.2279H93.356ZM92.4347 82.4361C92.3611 82.8249 92.177 83.1858 91.9034 83.4781C91.7795 83.6076 91.6291 83.7105 91.4618 83.78C91.2946 83.8496 91.1142 83.8843 90.9323 83.8819C90.7767 83.8987 90.6196 83.8691 90.4817 83.7969C90.3439 83.7248 90.2317 83.6136 90.1603 83.4781C90.0395 83.1269 90.0395 82.7469 90.1603 82.3957C90.2373 82.0112 90.4145 81.6524 90.675 81.3538C90.793 81.2155 90.9417 81.1052 91.1099 81.031C91.2782 80.9569 91.4615 80.9209 91.6462 80.9257C91.7623 80.9195 91.8784 80.9372 91.9871 80.9776C92.0958 81.0179 92.1946 81.08 92.277 81.1599C92.4168 81.3464 92.5047 81.5648 92.5323 81.794C92.56 82.0232 92.5263 82.2555 92.4347 82.4684V82.4361Z" fill="#D9D9D9"/>
<path d="M116 55.5229L104.155 58.0349C98.0376 55.3856 59.6807 52.8171 36.5968 51.4843C26.3041 50.8947 19.0412 50.5393 19.0412 50.5393L30.8446 48.9239V47.373H27.3501C28.357 46.5724 29.1465 45.5434 29.6493 44.3764H27.9892C29.0345 43.5152 29.8828 42.4503 30.4793 41.2505H28.9687C29.8465 40.7135 30.4793 39.8694 30.7367 38.892H29.9647C30.7338 38.0737 31.2239 37.0439 31.3675 35.9438C31.3675 35.855 31.4173 35.9438 31.4173 35.9438C31.5609 37.0439 32.051 38.0737 32.8201 38.892H32.0564C32.3126 39.8677 32.942 40.7114 33.8162 41.2505H32.3719C32.9684 42.4503 33.8167 43.5152 34.862 44.3764H33.1522C33.655 45.5434 34.4445 46.5724 35.4515 47.373H31.9568V48.73L66.5453 43.8837L40.6227 40.1763L51.0814 38.6497L47.0639 34.2234L42.2579 30.3787L43.6441 35.0553L37.3771 24.7165L36.5471 22.4872L42.2828 28.4159L44.7148 29.6517L48.118 32.511C48.1929 32.4043 48.257 32.2907 48.309 32.1718H47.7861C48.1043 31.9129 48.3618 31.5906 48.5413 31.2268H48.1098C48.3721 31.0666 48.5619 30.8154 48.6409 30.524H48.4169C48.643 30.2746 48.7875 29.9653 48.8319 29.6356C48.8764 29.9653 49.0209 30.2746 49.247 30.524H49.0228C49.0979 30.8172 49.2888 31.0698 49.5541 31.2268H49.1141C49.297 31.5886 49.5541 31.9102 49.8695 32.1718H49.3466C49.5024 32.5226 49.7413 32.8326 50.0438 33.0764H48.9979V33.2622L55.4641 38.7305L48.7323 40.2571L56.8171 41.0648V40.5236H55.5388C55.9016 40.2304 56.1863 39.8564 56.3688 39.4332H55.738C56.1218 39.1155 56.4352 38.7253 56.6593 38.2862H56.1198C56.4329 38.1064 56.6643 37.8178 56.7672 37.4785H56.4933C56.7661 37.1738 56.9394 36.797 56.9914 36.3962C57.0495 36.7984 57.2285 37.175 57.506 37.4785H57.2321C57.3373 37.8143 57.5644 38.1014 57.8712 38.2862H57.3482C57.5645 38.7279 57.876 39.119 58.2614 39.4332H57.6305C57.8138 39.8559 58.0984 40.2298 58.4606 40.5236H57.1823V41.1052L68.2967 42.1875L81.4946 41.6544L71.3928 39.0859L70.8699 38.7224L66.3792 32.6645L67.0433 32.1395L71.1023 38.5608L71.7332 39.0132L84.184 41.8321L72.2146 42.5671L80.1831 43.3345L41.1704 50.6039C85.1053 51.7509 106.363 53.649 116 55.5229Z" fill="#D9D9D9"/>
<path d="M57.2736 21.5664L58.087 26.6712L52.4011 13.7154L60.0128 23.9734L57.2736 21.5664Z" fill="#D9D9D9"/>
<path d="M75.6925 34.0376L79.378 36.1377L70.9944 28.6501L77.5518 38.7224L75.6925 34.0376Z" fill="#D9D9D9"/>
<path d="M37.9748 29.7648L40.7804 35.7661L37.9748 32.6241V29.7648Z" fill="#D9D9D9"/>
<path d="M59.6475 32.7614L55.4972 29.0378L53.3474 22.0753L53.7458 22.3257L56.5016 28.2947L59.0499 29.9021L57.3898 29.5144L59.6475 32.7614Z" fill="#D9D9D9"/>
<path d="M16.9828 54.4567C16.8287 54.2518 16.6145 54.097 16.3684 54.0125C16.1526 53.9371 16.0281 53.9936 15.9949 54.1821C15.9659 54.3771 15.8765 54.5589 15.7386 54.7032C15.6007 54.8476 15.4207 54.9475 15.2229 54.9898C14.6471 55.1616 14.0489 55.2514 13.4467 55.2564C12.7246 55.2564 11.9028 55.2564 10.9565 55.2079C10.0103 55.1595 9.09719 55.111 8.13433 55.0787C7.17146 55.0464 6.21686 55.0787 5.2955 55.0787C4.45423 55.1104 3.61913 55.2323 2.80533 55.4422C2.1124 55.6157 1.46843 55.9387 0.92109 56.3872C0.405914 56.8348 0.0829155 57.4548 0.0163573 58.1238C-0.0374122 58.4705 0.0424224 58.8243 0.240489 59.1173C0.435154 59.4193 0.69594 59.6758 1.00418 59.8685C1.3314 60.0822 1.69336 60.2406 2.07488 60.3369C2.45106 60.4476 2.84524 60.4887 3.23698 60.4581C3.56244 60.4353 3.8766 60.3325 4.15002 60.1592C4.28668 60.069 4.39985 59.949 4.48054 59.8088C4.56123 59.6686 4.60726 59.512 4.6149 59.3515C4.42168 59.3382 4.23147 59.2973 4.05042 59.2304C3.94251 59.1738 3.90099 59.0203 3.9342 58.7619C3.9674 58.5034 4.29943 58.1076 4.88047 57.9057C5.58963 57.6751 6.3211 57.5154 7.06352 57.4291C7.89358 57.308 8.88139 57.2272 9.91066 57.1787C10.9399 57.1303 11.9276 57.0576 12.8656 56.993C13.8036 56.9284 14.6419 56.8395 15.3558 56.7264C15.886 56.6937 16.3969 56.5205 16.8333 56.2256C16.9885 56.1189 17.1148 55.9771 17.2015 55.8126C17.2882 55.648 17.3327 55.4655 17.3313 55.2806C17.3029 54.9781 17.1814 54.691 16.9828 54.4567ZM13.8285 59.2465C13.7807 59.0039 13.6825 58.7735 13.5397 58.5693C13.397 58.3651 13.2128 58.1915 12.9984 58.0592C12.6142 57.8255 12.1794 57.6817 11.7284 57.6391C11.3374 57.593 10.9407 57.643 10.5746 57.7845C10.2426 57.9218 10.1015 58.0995 10.1513 58.3096C10.17 58.6861 10.1394 59.0633 10.06 59.4323C9.97701 60.0058 9.84421 60.6923 9.6616 61.4758C9.47899 62.2593 9.27978 63.0912 9.03906 63.9959C8.79834 64.9005 8.55762 65.7486 8.30861 66.5483C8.05959 67.3479 7.80225 68.0668 7.55323 68.6887C7.39311 69.1367 7.16968 69.5608 6.88924 69.9488C6.82188 70.0087 6.77409 70.0867 6.75195 70.1728C6.72981 70.259 6.73427 70.3497 6.76472 70.4334C6.84858 70.6048 6.99729 70.7379 7.17974 70.805C7.43955 70.9251 7.72227 70.9911 8.0098 70.9988C8.32814 71.0355 8.65052 71.0219 8.96438 70.9584C9.31335 70.887 9.64548 70.7528 9.94379 70.5626C10.2772 70.3549 10.5604 70.0794 10.7738 69.7549C11.3152 68.8942 11.7951 67.9982 12.2099 67.0733C12.6365 66.1389 12.9997 65.1784 13.2973 64.1978C13.5643 63.3095 13.7585 62.402 13.8782 61.4839C13.9841 60.7403 13.9674 59.985 13.8285 59.2465Z" fill="#D9D9D9"/>
<path d="M26.686 63.9959C26.3291 63.9959 26.1299 63.8909 26.0884 63.6728C26.0388 63.4057 26.0388 63.1322 26.0884 62.8651C26.1465 62.542 26.2046 62.1866 26.271 61.807C26.3369 61.4532 26.3083 61.0888 26.188 60.7489C26.034 60.3985 25.7576 60.1124 25.4077 59.9411C24.8032 59.6894 24.1466 59.5788 23.4903 59.6181C23.0386 59.6145 22.5921 59.7141 22.1871 59.9088C21.7748 60.1104 21.3946 60.3688 21.0582 60.6762C20.698 61.0043 20.3727 61.3669 20.0871 61.7585C19.7843 62.1476 19.507 62.555 19.2571 62.9782C19.2571 62.7035 19.2571 62.4343 19.2571 62.1705V61.2658C19.2705 60.9455 19.1805 60.6292 18.9997 60.3612C18.8316 60.1338 18.6056 59.9529 18.3439 59.8361C18.0798 59.7271 17.7997 59.6589 17.5139 59.6342C17.2358 59.6113 16.9559 59.6304 16.6838 59.6908C16.4625 59.7379 16.2535 59.8286 16.0696 59.9573C15.9036 60.0704 15.8372 60.1915 15.8704 60.3289C15.9056 60.651 15.9056 60.9759 15.8704 61.2981C15.8704 61.7827 15.7791 62.3401 15.6878 62.9782C15.5965 63.6163 15.4886 64.2947 15.3558 65.0217C15.2229 65.7486 15.0818 66.4352 14.9241 67.0975C14.7802 67.697 14.6001 68.2876 14.3847 68.8664C14.2541 69.2661 14.0578 69.6425 13.8036 69.9811C13.7346 70.0418 13.6877 70.1226 13.6698 70.2114C13.6519 70.3001 13.6638 70.3922 13.7039 70.4738C13.8086 70.6548 13.9722 70.7969 14.1688 70.8777C14.4309 70.9938 14.7118 71.0649 14.9989 71.0877C15.3282 71.1265 15.6618 71.1128 15.9866 71.0473C16.3286 70.9697 16.6525 70.8299 16.9412 70.6353C17.2556 70.4091 17.5021 70.1051 17.655 69.7549C18.0285 68.9472 18.3191 68.2606 18.5349 67.6468C18.7336 67.0676 18.8944 66.4768 19.0163 65.8779C19.1738 65.7585 19.2944 65.5992 19.365 65.4175C19.6057 64.9167 19.8879 64.3917 20.195 63.8424C20.4944 63.3262 20.8241 62.8273 21.1828 62.3481C21.4795 61.9506 21.8129 61.5802 22.1788 61.2416C22.3936 61.0064 22.6883 60.8544 23.0088 60.8135C23.1167 60.8135 23.1583 60.8943 23.1168 61.0639C23.0558 61.2836 22.9811 61.4994 22.8927 61.7101C22.7931 61.9766 22.6686 62.2755 22.5441 62.5985C22.4131 62.9148 22.3238 63.2459 22.2784 63.584C22.2405 63.8887 22.2574 64.1975 22.3282 64.4967C22.3579 64.6363 22.4176 64.7682 22.5034 64.8838C22.5893 64.9993 22.6993 65.0959 22.8263 65.1671C23.1188 65.3515 23.4574 65.4548 23.8058 65.4659C24.1524 65.4843 24.4998 65.4489 24.835 65.3609C25.1662 65.2786 25.4865 65.1594 25.7896 65.0055C26.0477 64.8816 26.2924 64.7327 26.5201 64.5613C26.6606 64.4683 26.7724 64.3398 26.8437 64.1898C26.9101 64.0524 26.8437 63.9959 26.686 63.9959Z" fill="#D9D9D9"/>
<path d="M42.6231 65.5225C42.6054 65.4489 42.5708 65.3801 42.522 65.3214C42.4731 65.2626 42.4112 65.2154 42.3409 65.1832C42.2738 65.1384 42.1976 65.108 42.1175 65.0941C42.0373 65.0801 41.955 65.083 41.8761 65.1025C41.8004 65.1192 41.729 65.1508 41.6662 65.1952C41.6034 65.2396 41.5505 65.296 41.5108 65.3609C41.4908 65.392 41.4686 65.4217 41.4445 65.4498L40.9465 66.1767C40.7694 66.4137 40.5619 66.6829 40.3239 66.9844C40.0749 67.2752 39.8175 67.5822 39.5436 67.881C39.4441 67.9785 39.3499 68.0809 39.2614 68.188C39.1568 68.309 39.0459 68.425 38.9294 68.5353C38.8108 68.646 38.68 68.7435 38.5393 68.826C38.4223 68.9062 38.2838 68.9511 38.1409 68.9553C37.9915 68.9553 37.8918 68.8341 37.8337 68.5999C37.7698 68.3026 37.7447 67.9986 37.759 67.6952C37.7734 67.2952 37.8094 66.8962 37.8669 66.4998C37.9222 66.0976 37.9999 65.6985 38.0993 65.3044C38.2072 64.9086 38.3235 64.5532 38.4397 64.2463C38.5133 64.0148 38.6347 63.8004 38.7965 63.6163C38.9127 63.514 38.838 63.3847 38.5724 63.2286C38.2569 63.0574 37.9101 62.9476 37.5515 62.9055C37.1001 62.8475 36.6418 62.8694 36.1985 62.9701C35.7149 63.0704 35.2864 63.3407 34.9949 63.7293L34.9202 63.8263L34.8289 63.9959C34.7891 64.0571 34.7556 64.122 34.7292 64.1897C34.6752 64.2811 34.6335 64.3789 34.6048 64.4805C34.107 65.5145 33.4857 66.4877 32.7538 67.3802C32.288 67.9661 31.7655 68.5071 31.1933 68.9957C30.8198 69.3026 30.5376 69.4238 30.3632 69.3511C30.2561 69.3075 30.1632 69.2364 30.0944 69.1453C30.0257 69.0542 29.9837 68.9466 29.973 68.8341C29.9221 68.494 29.9221 68.1485 29.973 67.8083C30.0217 67.3919 30.1106 66.9808 30.2387 66.5806C30.4342 65.9811 30.6784 65.3977 30.9692 64.8359C31.2538 64.2727 31.584 63.7325 31.9569 63.2205C32.2604 62.7961 32.6021 62.3987 32.9778 62.0331C33.1898 61.7874 33.4835 61.6217 33.8079 61.5647C33.9407 61.5647 33.9905 61.6616 33.9573 61.8474C33.9328 61.9998 33.8996 62.1508 33.8577 62.2997C33.8417 62.372 33.8415 62.4468 33.8572 62.5192C33.873 62.5916 33.9043 62.6599 33.949 62.7197C33.9928 62.7856 34.0514 62.841 34.1205 62.8815C34.1895 62.9221 34.2671 62.9469 34.3475 62.9539C34.4999 62.9872 34.6597 62.9641 34.7957 62.8893C34.8651 62.8529 34.9246 62.8009 34.9694 62.7377C35.0141 62.6745 35.0427 62.6019 35.053 62.5258C35.2476 61.9459 35.2476 61.3207 35.053 60.7408C34.9668 60.5054 34.8145 60.2982 34.6131 60.1431C34.4038 59.9623 34.1535 59.8322 33.8827 59.7634C33.2619 59.6521 32.6208 59.7311 32.0482 59.9896C31.2524 60.3221 30.5222 60.7868 29.8901 61.3627C29.1158 62.0115 28.4445 62.7682 27.8979 63.6082C27.3492 64.4374 26.9297 65.3411 26.6528 66.2898C26.3202 67.2534 26.2685 68.2879 26.5035 69.2784C26.6461 69.7562 26.9253 70.1848 27.3086 70.5142C27.7535 70.8724 28.3167 71.0617 28.894 71.0473C29.3735 71.0439 29.8475 70.9478 30.2885 70.7646C30.7699 70.5633 31.2242 70.3056 31.6415 69.9972C32.0963 69.6611 32.5211 69.2882 32.9115 68.8826C33.3254 68.4446 33.7161 67.9863 34.0819 67.5095C34.0643 68.0173 34.0948 68.5256 34.1732 69.028C34.2281 69.4104 34.3607 69.7783 34.5633 70.1103C34.7464 70.4016 35.0075 70.6389 35.3186 70.7969C35.6482 70.9667 36.0165 71.0528 36.3894 71.0473C37.5736 71.0473 38.9211 70.2396 40.4318 68.6241C40.7306 68.301 40.9963 67.986 41.2619 67.671L41.3033 67.6145C41.5357 67.3318 41.7349 67.0652 41.9176 66.8068L42.3575 66.201C42.4116 66.113 42.4726 66.0293 42.5401 65.9506C42.6229 65.8234 42.6526 65.6702 42.6231 65.5225Z" fill="#D9D9D9"/>
<path d="M51.928 59.9654C51.9023 59.6507 51.8324 59.3409 51.7205 59.0446C51.6134 58.7605 51.4264 58.5114 51.1809 58.3257C50.8933 58.1206 50.5407 58.0206 50.1849 58.043C50.0201 58.0309 49.855 58.0638 49.7084 58.138C49.5617 58.2122 49.4393 58.3248 49.3549 58.463C49.1835 58.738 49.0943 59.0541 49.0975 59.3757C49.0963 59.6557 49.1617 59.9321 49.2884 60.1835C49.4212 60.4258 49.5955 60.4985 49.803 60.4016C49.9837 60.2923 50.2006 60.2547 50.4089 60.2965C50.4821 60.3248 50.5474 60.3696 50.5993 60.4272C50.6513 60.4847 50.6884 60.5535 50.7077 60.6277C50.747 60.8468 50.747 61.0709 50.7077 61.29C50.6757 61.5979 50.6203 61.9029 50.5418 62.2028C50.3344 62.9529 50.0565 63.6829 49.7117 64.3836C49.3479 65.1636 48.9262 65.9167 48.45 66.6371C48.0268 67.2716 47.5373 67.8617 46.9891 68.398C46.6309 68.8091 46.1213 69.0672 45.5698 69.1168C45.3124 69.1168 45.1465 68.923 45.0884 68.5191C45.0243 68.0095 45.0243 67.4941 45.0884 66.9845C45.1568 66.3118 45.2621 65.6431 45.4038 64.9813C45.5615 64.2544 45.7275 63.5759 45.8935 62.9459C46.0595 62.3158 46.2255 61.7747 46.3832 61.3304C46.4443 61.0541 46.563 60.793 46.7318 60.5631C46.9311 60.4096 46.9228 60.24 46.7318 60.0623C46.4627 59.8554 46.136 59.7316 45.7939 59.7069C45.3182 59.6607 44.8379 59.7102 44.3827 59.8523C43.7978 60.0469 43.2804 60.3966 42.8887 60.8619C42.611 61.2007 42.3948 61.5831 42.2495 61.9928C42.0464 62.5197 41.8801 63.0594 41.7515 63.6082C41.627 64.1736 41.5274 64.7632 41.4527 65.3852C41.4527 65.4336 41.4527 65.4902 41.4527 65.5386C41.3799 66.1796 41.3467 66.8242 41.3531 67.4691V67.5337C41.3612 68.0758 41.4167 68.6162 41.5191 69.1491C41.5757 69.5549 41.7231 69.9436 41.9507 70.288C42.1076 70.5235 42.3249 70.715 42.5811 70.8439C42.8372 70.9728 43.1235 71.0346 43.4116 71.023C44.5688 71.016 45.6958 70.6636 46.6406 70.0134C47.7796 69.2245 48.766 68.2455 49.5541 67.1218C49.931 66.6092 50.2668 66.0691 50.5584 65.5063C50.8488 64.9668 51.1065 64.4112 51.3303 63.8424C51.5315 63.3155 51.6952 62.7758 51.8201 62.227C51.9244 61.7543 51.98 61.2727 51.9861 60.7893C51.9612 60.5954 51.9529 60.2965 51.928 59.9654Z" fill="#D9D9D9"/>
<path d="M63.2831 65.2075C63.2184 65.1603 63.1448 65.1261 63.0665 65.1066C62.9882 65.0872 62.9067 65.0831 62.8267 65.0944C62.7467 65.094 62.668 65.1148 62.5993 65.1547C62.5306 65.1945 62.4742 65.2519 62.4365 65.3205L62.3867 65.3932C62.0073 66.064 61.5536 66.6924 61.0337 67.2672C60.5875 67.763 60.0895 68.2123 59.5479 68.608C59.1098 68.936 58.6299 69.2075 58.1202 69.4157C57.7262 69.5689 57.3076 69.6536 56.8834 69.6661C56.6365 69.6811 56.3906 69.6237 56.1775 69.5013C55.9644 69.3789 55.7939 69.1972 55.6881 68.9795C55.4357 68.4789 55.3515 67.9138 55.4475 67.3641C56.3024 67.0367 57.0982 66.5786 57.8048 66.0071C58.4278 65.5104 58.9854 64.9407 59.4649 64.3109C59.9054 63.7089 60.2342 63.0364 60.4361 62.3239C60.602 61.793 60.5756 61.2227 60.3613 60.7085C60.3065 60.5294 60.2119 60.3643 60.0842 60.2247C59.9566 60.0852 59.7991 59.9746 59.6227 59.9008C59.2833 59.7446 58.9104 59.6698 58.5352 59.6827C57.9031 59.7385 57.2926 59.9347 56.7506 60.2562C56.0604 60.6372 55.4242 61.1043 54.8581 61.6454C54.5062 61.997 54.1738 62.3663 53.862 62.752C53.5165 63.1791 53.203 63.6299 52.9241 64.1009C52.6391 64.5788 52.3948 65.0785 52.1936 65.5952C51.996 66.0915 51.8622 66.6097 51.7952 67.1379C51.7295 67.6307 51.7519 68.1308 51.8616 68.616C51.977 69.1032 52.2136 69.5553 52.5506 69.9326C52.9324 70.3966 53.4602 70.7258 54.0529 70.8696C54.6437 71.0019 55.2479 71.0696 55.8542 71.0715C56.631 71.0659 57.3997 70.9179 58.1202 70.6353C58.8888 70.348 59.6145 69.9623 60.2783 69.4884C60.9423 69.0122 61.5543 68.4708 62.1045 67.8729L62.3369 67.6064C62.7559 67.1269 63.1153 66.6009 63.4077 66.0394C63.4881 65.9112 63.5231 65.7608 63.5073 65.6113C63.5021 65.5323 63.4794 65.4552 63.4407 65.3855C63.402 65.3158 63.3482 65.2551 63.2831 65.2075ZM57.3815 63.277C57.9378 62.6022 58.5889 62.0067 59.3155 61.5081C59.3029 61.823 59.2384 62.1339 59.1245 62.4289C58.955 62.86 58.723 63.2652 58.4356 63.6324C58.1159 64.0756 57.7487 64.4845 57.34 64.8521C56.8899 65.2684 56.3846 65.6242 55.8376 65.9102C56.196 64.9541 56.718 64.0638 57.3815 63.277Z" fill="#D9D9D9"/>
<path d="M70.6043 65.5225C70.5867 65.4489 70.5521 65.3801 70.5032 65.3214C70.4543 65.2626 70.3923 65.2154 70.322 65.1832C70.2562 65.1391 70.1815 65.109 70.1028 65.0951C70.0241 65.0812 69.9432 65.0837 69.8656 65.1025C69.7524 65.1281 69.6489 65.1841 69.5668 65.264C69.54 65.2901 69.5176 65.3201 69.5003 65.3529L68.9359 66.1606C68.7588 66.3975 68.5513 66.6667 68.3134 66.9683C68.0644 67.2591 67.807 67.566 67.5331 67.8649C67.4336 67.9623 67.3394 68.0648 67.2509 68.1718C67.1442 68.3014 67.0306 68.4254 66.9105 68.5434C66.792 68.654 66.6611 68.7516 66.5204 68.8341C66.4035 68.9142 66.265 68.9592 66.122 68.9634C66.0058 68.9634 65.9477 68.7695 65.9477 68.3818C65.9575 67.8656 65.999 67.3504 66.0722 66.8391C66.1552 66.201 66.2631 65.4659 66.4125 64.634C66.5619 63.802 66.7196 62.962 66.9022 62.0897C67.0848 61.2173 67.2675 60.3692 67.4584 59.5292C67.6493 58.6892 67.8403 57.9138 68.0229 57.2434C68.2055 56.573 68.3632 55.9995 68.5209 55.5472C68.5857 55.2595 68.7038 54.9858 68.8694 54.7394C68.9525 54.6587 68.9359 54.5698 68.8694 54.4648C68.7205 54.3342 68.5452 54.2351 68.3548 54.174C68.0859 54.0861 67.8073 54.0292 67.5248 54.0044C67.2 53.9749 66.8725 53.994 66.5537 54.061C66.2121 54.1355 65.8881 54.2726 65.5991 54.4648C65.2819 54.6684 65.0222 54.9461 64.8437 55.2725C64.6375 55.6877 64.4628 56.1169 64.3208 56.5568C64.1215 57.1464 63.9057 57.8411 63.6899 58.6326C63.4741 59.4242 63.2666 60.2481 63.0674 61.185C62.8682 62.122 62.7188 63.0186 62.5943 63.9394C62.5279 64.4159 62.478 64.8925 62.4365 65.3448C62.395 65.7971 62.3784 66.1525 62.3701 66.5806C62.3618 67.0087 62.3701 67.2268 62.3701 67.5256C62.3829 67.965 62.4329 68.4027 62.5196 68.8341C62.6036 69.4155 62.8283 69.9692 63.1753 70.4496C63.3201 70.6406 63.5109 70.7943 63.7308 70.897C63.9508 70.9998 64.1932 71.0486 64.437 71.0392C65.6212 71.0392 66.9686 70.2315 68.4793 68.616C68.7782 68.293 69.0438 67.9779 69.3094 67.6629L69.4256 67.5175L69.9652 66.8229L70.4051 66.2171C70.4592 66.1292 70.5202 66.0454 70.5877 65.9667C70.6526 65.8264 70.6586 65.667 70.6043 65.5225Z" fill="#D9D9D9"/>
<path d="M77.8839 65.5225C77.8662 65.4489 77.8315 65.3801 77.7827 65.3214C77.7338 65.2626 77.6719 65.2154 77.6016 65.1832C77.5357 65.1391 77.461 65.109 77.3823 65.0951C77.3036 65.0812 77.2228 65.0837 77.1451 65.1025C77.0685 65.1168 76.996 65.1474 76.9329 65.1921C76.8697 65.2367 76.8175 65.2944 76.7799 65.3609L76.7052 65.4659L76.2072 66.1767C76.0301 66.4137 75.8226 66.6829 75.5846 66.9844C75.3439 67.2752 75.0782 67.5822 74.8043 67.881C74.7048 67.9785 74.6106 68.0809 74.5221 68.188C74.4178 68.3195 74.3041 68.4436 74.1818 68.5595C74.0648 68.672 73.9338 68.7697 73.7917 68.8503C73.6752 68.9313 73.5364 68.9763 73.3933 68.9795C73.2439 68.9795 73.1608 68.7857 73.1276 68.3979C73.0839 67.9035 73.0839 67.4062 73.1276 66.9118C73.1857 66.314 73.2687 65.6598 73.385 64.949C73.5012 64.2382 73.6256 63.5759 73.7584 62.9459C73.8769 62.4005 74.0238 61.8613 74.1984 61.3304C74.2841 61.0171 74.4276 60.7216 74.6217 60.4581C74.7545 60.3369 74.6218 60.1915 74.3562 60.0219C73.9881 59.8431 73.5877 59.7361 73.1774 59.7069C72.6756 59.6643 72.1703 59.7333 71.6999 59.9088C71.4417 60.0106 71.2076 60.1627 71.012 60.3558C70.8165 60.5488 70.6636 60.7788 70.5627 61.0316C70.4003 61.4099 70.2644 61.7985 70.156 62.1947C70.0149 62.6793 69.8988 63.2124 69.7908 63.8101C69.6829 64.4078 69.6248 64.7875 69.5584 65.3044C69.5584 65.4094 69.5584 65.5225 69.5169 65.6275C69.4422 66.2656 69.3923 66.8714 69.384 67.4529V67.5418C69.3728 68.039 69.4062 68.5363 69.4837 69.028C69.532 69.4197 69.6589 69.7985 69.8572 70.1426C70.0403 70.4339 70.3015 70.6713 70.6126 70.8292C70.9452 70.999 71.3161 71.0851 71.6916 71.0796C72.8703 71.0796 74.1818 70.2719 75.734 68.6564L75.8502 68.5191C76.0992 68.2445 76.3233 67.9699 76.5474 67.7114C76.7715 67.4529 77.0206 67.1218 77.2032 66.9037C77.3858 66.6856 77.5352 66.4514 77.6431 66.2979L77.8257 66.0475C77.88 65.9718 77.9138 65.884 77.9239 65.7922C77.9341 65.7005 77.9203 65.6077 77.8839 65.5225ZM75.2027 55.5148C75.053 55.3551 74.8641 55.2349 74.6535 55.1657C74.443 55.0964 74.2178 55.0804 73.9992 55.1191C73.7323 55.1348 73.4693 55.1892 73.219 55.2806C72.9605 55.3707 72.715 55.4929 72.4885 55.6441C72.2666 55.793 72.0656 55.9695 71.8908 56.1691C71.7301 56.3558 71.6114 56.5732 71.5423 56.8072C71.4638 57.0079 71.4352 57.2238 71.4592 57.4372C71.4797 57.621 71.5547 57.795 71.675 57.938C71.8059 58.0898 71.9745 58.2066 72.1648 58.2772C72.3819 58.3674 72.6187 58.4035 72.8537 58.3823C73.1375 58.3662 73.4173 58.3091 73.6838 58.2126C73.9443 58.111 74.1921 57.9809 74.4225 57.8249C74.644 57.6722 74.8423 57.49 75.0118 57.2838C75.1689 57.0934 75.2898 56.8773 75.3688 56.6457C75.4542 56.4613 75.4839 56.257 75.4545 56.0568C75.4251 55.8566 75.3378 55.6686 75.2027 55.5148Z" fill="#D9D9D9"/>
<path d="M91.1066 65.5144C91.0667 65.3635 90.9687 65.2333 90.8327 65.1509C90.6913 65.0743 90.5257 65.0513 90.3679 65.0863C90.2906 65.1021 90.218 65.1341 90.1549 65.1801C90.0918 65.2262 90.0398 65.2851 90.0027 65.3529L89.9114 65.4821C89.7288 65.7244 89.571 65.9506 89.4299 66.1525C89.2888 66.3544 89.0481 66.6694 88.8073 66.9602C88.5666 67.251 88.3011 67.5579 88.0271 67.8568C87.641 68.3435 87.1511 68.7431 86.5912 69.028C86.5563 69.0376 86.5196 69.0402 86.4837 69.0355C86.4477 69.0309 86.4131 69.0191 86.382 69.0009C86.3509 68.9828 86.3239 68.9586 86.3028 68.9299C86.2816 68.9012 86.2668 68.8686 86.2591 68.8341C86.2159 68.5909 86.2159 68.3423 86.2591 68.0991C86.2591 67.776 86.3338 67.3802 86.4168 66.9118C86.4998 66.4433 86.5994 65.9263 86.7322 65.3448C86.8318 64.9005 86.9481 64.4563 87.0975 63.9959C87.2469 63.5355 87.3631 63.0993 87.4627 62.6793C87.5569 62.2898 87.6098 61.892 87.6204 61.492C87.6368 61.1521 87.5501 60.8151 87.3714 60.5227C87.1763 60.2216 86.8845 59.9916 86.5413 59.8685C86.0081 59.6883 85.4452 59.6062 84.8812 59.6261C84.4655 59.6263 84.0548 59.7145 83.6777 59.8846C83.2921 60.057 82.9342 60.2829 82.6152 60.555C82.2838 60.8442 81.9783 61.1604 81.7021 61.5C81.4035 61.8501 81.1264 62.2169 80.8721 62.5985C80.8721 62.3805 80.8721 62.1624 80.8721 61.9443C80.8721 61.7262 80.8721 61.4839 80.8721 61.2254C80.8819 60.903 80.7922 60.5851 80.6147 60.3127C80.4494 60.0808 80.2229 59.8966 79.959 59.7796C79.6953 59.6679 79.4152 59.597 79.129 59.5696C78.8509 59.5464 78.5709 59.5655 78.2989 59.6261C78.077 59.679 77.8663 59.7692 77.6764 59.8927C77.608 59.931 77.5531 59.9885 77.519 60.0577C77.4849 60.1269 77.4732 60.2046 77.4854 60.2804C77.5251 60.605 77.5251 60.9331 77.4854 61.2577C77.4356 61.7424 77.3609 62.2997 77.2695 62.9378C77.1782 63.5759 77.0455 64.2544 76.8878 64.9813C76.8878 65.1429 76.8213 65.2963 76.7798 65.4579C76.6636 66.0071 76.5225 66.5402 76.3814 67.0733C76.2403 67.6064 76.0826 68.0587 75.9249 68.4787C75.8869 68.602 75.8427 68.7233 75.7921 68.8422C75.657 69.2431 75.455 69.6196 75.1944 69.9568C75.1287 70.0196 75.084 70.1003 75.0662 70.1882C75.0485 70.2761 75.0584 70.3672 75.0948 70.4496C75.2018 70.6287 75.3647 70.7702 75.5597 70.8534C75.8224 70.968 76.103 71.0389 76.3897 71.0634C76.7191 71.1022 77.0526 71.0886 77.3775 71.023C77.7174 70.9469 78.0389 70.807 78.3237 70.6111C78.6385 70.3832 78.8872 70.0799 79.0459 69.7307C79.4166 68.9068 79.7237 68.1799 79.9672 67.5499C80.2003 66.9609 80.389 66.3562 80.5317 65.7406C80.6184 65.6341 80.6909 65.5174 80.7475 65.3932C80.9883 64.8925 81.2705 64.3674 81.5776 63.8182C81.8769 63.302 82.2067 62.803 82.5653 62.3239C82.862 61.9263 83.1955 61.5559 83.5614 61.2173C83.778 60.9844 84.0718 60.8329 84.3915 60.7892C84.599 60.7892 84.6986 60.9346 84.682 61.2335C84.6492 61.6265 84.5798 62.0158 84.4745 62.3966C84.3583 62.8732 84.2006 63.4224 84.0014 64.012C83.8022 64.6017 83.6278 65.2559 83.4535 65.894C83.2901 66.5144 83.1599 67.1425 83.0634 67.776C82.984 68.3117 82.984 68.8557 83.0634 69.3914C83.1178 69.825 83.3092 70.2314 83.6112 70.5546C83.7962 70.7157 84.0132 70.8383 84.2487 70.9147C84.4843 70.9911 84.7334 71.0197 84.9808 70.9988C85.3799 71.0003 85.7751 70.9234 86.1429 70.7726C86.5222 70.6173 86.8816 70.4194 87.2137 70.183C87.5596 69.9433 87.8819 69.6729 88.1765 69.3753C88.4836 69.0845 88.7575 68.8018 89.0065 68.5676L89.4133 68.1072L89.8201 67.6225C90.0691 67.3075 90.2932 67.0248 90.4758 66.8148C90.6584 66.6048 90.8078 66.3625 90.9157 66.209L91.0983 65.9586C91.1314 65.8892 91.1493 65.8139 91.1507 65.7374C91.1521 65.6609 91.1371 65.5849 91.1066 65.5144Z" fill="#D9D9D9"/>
<path d="M105.516 65.3044C105.454 65.2526 105.381 65.2137 105.303 65.1901C105.224 65.1665 105.142 65.1587 105.06 65.1671C104.897 65.1831 104.746 65.2581 104.637 65.3771C104.116 65.9977 103.562 66.5909 102.976 67.1541C102.363 67.7075 101.64 68.1335 100.851 68.406C100.901 68.2283 100.976 67.986 101.076 67.6872C101.175 67.3883 101.258 67.0572 101.341 66.6856C101.43 66.2859 101.494 65.8813 101.532 65.474C101.582 65.0397 101.599 64.6023 101.582 64.1655C101.589 63.8447 101.477 63.532 101.267 63.2851C101.075 63.0809 100.827 62.935 100.553 62.8651C100.264 62.7864 99.9632 62.759 99.6646 62.7843C99.3657 62.8058 99.0718 62.8712 98.793 62.9782C98.5551 63.0676 98.3378 63.2021 98.1538 63.374C98.08 63.4326 98.0229 63.5087 97.988 63.595C97.9531 63.6813 97.9416 63.7748 97.9546 63.8667V63.9394C97.4258 65.1051 96.7571 66.2059 95.9624 67.2187C95.4662 67.8469 94.9104 68.4283 94.3023 68.9553C93.9288 69.2622 93.6383 69.3834 93.4723 69.3107C93.3651 69.2671 93.2722 69.196 93.2035 69.1049C93.1347 69.0138 93.0928 68.9063 93.0822 68.7937C93.027 68.4539 93.027 68.1078 93.0822 67.7679C93.1267 67.3508 93.2158 66.9394 93.3478 66.5402C93.5397 65.9394 93.784 65.3557 94.0782 64.7955C94.3628 64.2324 94.6931 63.6922 95.066 63.1801C95.3695 62.7557 95.7112 62.3583 96.087 61.9928C96.2989 61.747 96.5926 61.5813 96.917 61.5243C97.0498 61.5243 97.0997 61.6212 97.0665 61.807C97.0419 61.9594 97.0087 62.1104 96.9669 62.2593C96.9496 62.3311 96.9481 62.4055 96.9624 62.4779C96.9767 62.5503 97.0065 62.6189 97.0499 62.6793C97.0958 62.745 97.1561 62.8001 97.2264 62.8406C97.2967 62.8811 97.3753 62.906 97.4566 62.9136C97.6091 62.9453 97.7683 62.9223 97.9048 62.8489C97.9742 62.8125 98.0337 62.7606 98.0784 62.6974C98.1231 62.6342 98.1518 62.5615 98.1621 62.4855C98.3479 61.9042 98.3479 61.2817 98.1621 60.7004C98.0729 60.4665 97.921 60.2601 97.7222 60.1027C97.5116 59.9236 97.2617 59.7938 96.9917 59.7231C96.3709 59.6111 95.7298 59.6902 95.1573 59.9492C94.3234 60.2502 93.5527 60.6963 92.883 61.2658C92.1084 61.9166 91.4346 62.6729 90.8825 63.5113C90.4809 64.1258 90.1497 64.7812 89.8948 65.4659C89.7952 65.7083 89.7204 65.9506 89.6457 66.1929C89.45 66.8188 89.3493 67.4691 89.3469 68.1233C89.3524 68.4806 89.4026 68.836 89.4964 69.1814C89.6461 69.7053 89.9593 70.171 90.3928 70.5142C90.8352 70.8712 91.3953 71.0605 91.9699 71.0473C92.492 71.0427 93.007 70.9298 93.4806 70.7161C94.0098 70.4822 94.5064 70.1836 94.9581 69.8276C95.4519 69.4386 95.9076 69.006 96.3194 68.5353C96.7487 68.0424 97.1505 67.5274 97.5229 66.9925C97.3901 67.5155 97.2266 68.0305 97.0332 68.5353C96.87 69.0108 96.6616 69.4705 96.4107 69.9084C96.1534 69.9972 95.9044 70.0942 95.6719 70.1992L94.9747 70.5465C93.7933 71.1007 92.7848 71.951 92.0529 73.01C91.7575 73.4341 91.5541 73.9123 91.4553 74.4155C91.4013 74.823 91.492 75.2362 91.7126 75.5867C91.8048 75.7372 91.9164 75.8756 92.0446 75.9986C92.2 76.1516 92.3793 76.2797 92.5758 76.3782C92.8393 76.504 93.1183 76.5963 93.4059 76.6528C93.7666 76.7224 94.1338 76.7549 94.5015 76.7498C94.9908 76.7479 95.4713 76.6227 95.8961 76.3863C96.3719 76.1234 96.8077 75.7971 97.1909 75.417C97.6205 74.9969 98.0069 74.537 98.3447 74.0439C98.6983 73.544 99.0199 73.0234 99.3076 72.485C99.5898 71.9519 99.8472 71.435 100.063 70.9423C100.279 70.4496 100.453 70.0134 100.586 69.6338C101.618 69.3644 102.58 68.8854 103.408 68.2283C104.2 67.5913 104.928 66.8827 105.583 66.1121C105.639 66.0577 105.681 65.9916 105.707 65.9188C105.733 65.8461 105.742 65.7685 105.732 65.6921C105.728 65.616 105.706 65.5418 105.669 65.4747C105.632 65.4077 105.58 65.3495 105.516 65.3044ZM95.0411 72.9373C94.8721 73.3443 94.6723 73.7384 94.4435 74.1166C94.2689 74.4106 94.057 74.682 93.8126 74.9243C93.6089 75.1362 93.3361 75.2731 93.0406 75.312C92.8497 75.312 92.7253 75.312 92.6755 75.1828C92.6406 75.0285 92.6406 74.8686 92.6755 74.7143C92.7115 74.5118 92.7787 74.3158 92.8747 74.1328C92.9743 73.9308 93.0656 73.7612 93.1403 73.6239C93.4436 73.161 93.822 72.7491 94.2609 72.4042C94.7148 72.0572 95.2044 71.7568 95.7218 71.5077C95.4562 71.9842 95.2403 72.4608 95.0411 72.905V72.9373Z" fill="#D9D9D9"/>
<path d="M42.2911 30.3948L53.3474 38.3428L51.1146 38.6739L42.2911 30.3948Z" fill="#D9D9D9"/>
</svg>
