<svg width="162" height="38" viewBox="0 0 162 38" fill="none" xmlns="http://www.w3.org/2000/svg">
<path d="M46.5631 29.2299C45.2021 29.2398 43.8464 29.0568 42.5365 28.6862C41.4885 28.4053 40.4944 27.9515 39.5953 27.3433L40.7946 24.6682C41.5837 25.1951 42.4446 25.6053 43.3505 25.8861C44.4003 26.2391 45.4993 26.4226 46.6066 26.4298C47.5433 26.4959 48.4806 26.3081 49.3199 25.8861C49.6108 25.7278 49.8528 25.4924 50.0193 25.2057C50.1858 24.9191 50.2705 24.592 50.2642 24.2604C50.2682 24.0223 50.2181 23.7864 50.1174 23.5706C50.0168 23.3549 49.8684 23.1649 49.6835 23.0153C49.2846 22.688 48.8256 22.4423 48.3323 22.2922C47.7896 22.1236 47.1004 21.9333 46.205 21.7485C45.0842 21.4908 43.979 21.1695 42.8947 20.7861C42.0697 20.4778 41.336 19.9653 40.762 19.2963C40.1498 18.5274 39.8408 17.5599 39.8937 16.5778C39.884 15.6208 40.162 14.683 40.6914 13.8864C41.3009 13.0249 42.1476 12.3599 43.128 11.9725C44.4095 11.4443 45.7855 11.1852 47.1709 11.2113C48.2772 11.2116 49.3795 11.3449 50.4541 11.6082C51.3709 11.8306 52.2515 12.182 53.0698 12.6522L51.9844 15.3707C50.5102 14.5392 48.8517 14.0906 47.1601 14.0658C46.2161 13.9953 45.2723 14.2052 44.4467 14.6693C44.1593 14.8444 43.9221 15.0913 43.7585 15.3858C43.5949 15.6803 43.5104 16.0124 43.5133 16.3494C43.5109 16.6934 43.6136 17.0299 43.8076 17.3137C44.0017 17.5975 44.2777 17.815 44.5987 17.937C45.5548 18.3362 46.5495 18.635 47.5671 18.8287C48.6861 19.0863 49.7895 19.4076 50.8719 19.7911C51.6926 20.0971 52.4252 20.6013 53.0046 21.2591C53.6201 22.0097 53.9319 22.9643 53.8783 23.9342C53.8832 24.8844 53.5993 25.8137 53.0643 26.5984C52.4425 27.4604 51.5877 28.1263 50.6006 28.5177C49.3165 29.0253 47.9431 29.2676 46.5631 29.2299Z" fill="#D9D9D9"/>
<path d="M61.7796 29.1538C60.4636 29.237 59.166 28.8108 58.1546 27.9631C57.3189 27.1801 56.8956 26.0003 56.8956 24.4616V18.5514H54.7792V15.9634H56.8956V12.6195H60.3904V15.9634H63.8092V18.5514H60.3904V24.3855C60.3612 24.9345 60.5439 25.4737 60.9005 25.8915C61.0892 26.0776 61.3145 26.222 61.5622 26.3157C61.8098 26.4093 62.0743 26.45 62.3386 26.4353C62.8613 26.4464 63.3771 26.3148 63.8309 26.0547L64.7263 28.4089C64.3526 28.6414 63.944 28.8121 63.5162 28.9146C62.9497 29.0671 62.3662 29.1475 61.7796 29.1538Z" fill="#D9D9D9"/>
<path d="M70.9833 29.1538C70.0754 29.1753 69.1737 28.9991 68.3405 28.6373C67.6607 28.3424 67.0804 27.8572 66.6691 27.24C66.2842 26.6406 66.0841 25.9409 66.0939 25.2282C66.0712 24.6835 66.182 24.1415 66.4166 23.6496C66.6512 23.1577 67.0024 22.7309 67.4397 22.4064C68.3568 21.7104 69.8003 21.357 71.743 21.357H75.1456V21.1178C75.1677 20.7138 75.1014 20.3098 74.9514 19.9342C74.8014 19.5585 74.5714 19.2202 74.2773 18.9429C73.5536 18.3878 72.6522 18.117 71.743 18.1817C70.9875 18.1822 70.2367 18.3015 69.5181 18.5351C68.9394 18.7205 68.3909 18.9898 67.8901 19.3344L66.6854 16.9964C67.4378 16.5086 68.2618 16.1417 69.1274 15.909C70.158 15.6246 71.2221 15.4801 72.2912 15.4795C74.3424 15.4795 75.9379 15.9743 77.0232 16.9421C78.1086 17.9099 78.6513 19.3833 78.6513 21.3461V28.9581H75.3952V26.6038L74.9502 27.365C74.2556 28.5177 72.9206 29.1538 70.9833 29.1538ZM72.1772 23.2002C69.9577 23.2002 69.491 24.206 69.491 25.0488C69.4835 25.3225 69.5428 25.5938 69.6639 25.8392C69.785 26.0847 69.9641 26.2968 70.1856 26.457C70.714 26.8104 71.3419 26.9839 71.9764 26.9518C72.6544 26.9635 73.3226 26.7886 73.9083 26.4461C74.4813 26.1007 74.9138 25.5634 75.1293 24.9292V23.2002H72.1772Z" fill="#D9D9D9"/>
<path d="M92.1909 29.1973L87.8821 23.6895L85.7765 25.7665L85.7114 29.1973H82.2112V10.7274H85.706V21.7702L91.9195 15.8709L95.9353 15.9307L90.4706 21.5038L96.516 29.1973H92.1909Z" fill="#D9D9D9"/>
<path d="M106.387 29.1538C104.58 29.1538 103.196 28.5775 102.263 27.452L101.84 26.9355V28.9472H98.5184V10.461H102.019V17.5293L102.437 17.0725C102.941 16.5367 103.555 16.1172 104.237 15.8431C104.92 15.5689 105.653 15.4467 106.387 15.4849C107.564 15.4723 108.723 15.7665 109.752 16.3385C110.747 16.8979 111.566 17.7246 112.118 18.7254C112.709 19.8311 113.006 21.0707 112.981 22.3248C113.006 23.5771 112.709 24.8149 112.118 25.9187C111.568 26.9208 110.748 27.7479 109.752 28.3056C108.723 28.8758 107.563 29.1681 106.387 29.1538ZM105.698 18.2796C105.2 18.2607 104.703 18.3479 104.241 18.5354C103.779 18.7228 103.362 19.0062 103.017 19.367C102.659 19.7635 102.382 20.2268 102.202 20.7306C102.022 21.2344 101.943 21.7687 101.97 22.303C101.918 23.3819 102.295 24.4374 103.017 25.2391C103.363 25.5987 103.78 25.8815 104.242 26.0688C104.704 26.2562 105.2 26.344 105.698 26.3265C106.201 26.3476 106.703 26.2616 107.171 26.0741C107.639 25.8867 108.061 25.6021 108.411 25.2391C109.132 24.4362 109.508 23.3816 109.459 22.303C109.5 21.2208 109.114 20.1659 108.384 19.367C108.04 19.0016 107.623 18.7129 107.16 18.5199C106.697 18.327 106.199 18.2339 105.698 18.247V18.2796Z" fill="#D9D9D9"/>
<path d="M119.362 29.1538C118.46 29.1645 117.566 28.979 116.741 28.6101C116.06 28.3177 115.479 27.8319 115.07 27.2128C114.685 26.6134 114.485 25.9137 114.495 25.201C114.471 24.6561 114.581 24.1137 114.815 23.6215C115.05 23.1294 115.402 22.7027 115.84 22.3792C116.752 21.6832 118.201 21.3298 120.144 21.3298H123.541V21.0906C123.563 20.6866 123.496 20.2828 123.346 19.9072C123.196 19.5316 122.966 19.1933 122.673 18.9157C121.951 18.3609 121.051 18.0901 120.144 18.1545C119.387 18.1554 118.634 18.2747 117.913 18.5079C117.335 18.6944 116.787 18.9636 116.285 19.3072L115.086 16.9692C115.838 16.4805 116.662 16.1135 117.528 15.8818C118.557 15.5969 119.619 15.4524 120.687 15.4523C122.743 15.4523 124.339 15.9471 125.424 16.9149C126.509 17.8827 127.052 19.3561 127.052 21.3189V28.9309H123.796V26.5766L123.351 27.3378C122.64 28.5177 121.3 29.1538 119.362 29.1538ZM120.54 23.173C118.32 23.173 117.827 24.1789 117.827 25.0216C117.819 25.2953 117.879 25.5666 118 25.812C118.121 26.0575 118.3 26.2696 118.521 26.4298C119.048 26.7824 119.674 26.9559 120.307 26.9246C120.985 26.9371 121.653 26.7622 122.239 26.4189C122.813 26.0741 123.248 25.5368 123.465 24.902V23.173H120.54Z" fill="#D9D9D9"/>
<path d="M140.619 29.1973V22.1834C140.689 21.2517 140.415 20.3267 139.848 19.5845C139.561 19.2816 139.211 19.0453 138.823 18.8922C138.435 18.7391 138.018 18.6729 137.602 18.6982C137.127 18.6772 136.654 18.7559 136.212 18.9291C135.77 19.1024 135.369 19.3663 135.035 19.7041C134.361 20.5231 134.029 21.5709 134.107 22.6293V29.181H130.607V15.9362H133.928V17.9262L134.346 17.4695C134.864 16.9044 135.504 16.4654 136.218 16.1863C137.01 15.8771 137.853 15.7221 138.703 15.7296C139.425 15.6997 140.147 15.8136 140.825 16.0646C141.503 16.3157 142.124 16.6989 142.654 17.1922C143.647 18.1654 144.146 19.6334 144.146 21.569V29.181L140.619 29.1973Z" fill="#D9D9D9"/>
<path d="M157.675 29.1973L153.366 23.6895L151.266 25.7665L151.201 29.1973H147.695V10.7274H151.195V21.7702L157.409 15.8709L161.419 15.9307L155.955 21.5038L162 29.1973H157.675Z" fill="#D9D9D9"/>
<path d="M18.1218 8.67763L9.10802 11.8257H25.1385C25.4897 11.8257 25.8265 11.9655 26.0748 12.2143C26.3231 12.4631 26.4626 12.8005 26.4626 13.1524V24.4072C26.4619 25.0649 26.2026 25.6959 25.7409 26.1634L13.9215 38H1.00594C0.807085 38.0004 0.612605 37.9416 0.447138 37.8311C0.28167 37.7206 0.152688 37.5634 0.076536 37.3793C0.000384137 37.1953 -0.0195038 36.9927 0.0194005 36.7974C0.0583048 36.602 0.154231 36.4226 0.295042 36.2819L8.67931 29.3115L17.6931 26.1634H1.66258C1.48824 26.1634 1.31563 26.1289 1.15462 26.0619C0.993619 25.9949 0.847395 25.8967 0.724369 25.7729C0.601342 25.6491 0.503921 25.5023 0.437698 25.3407C0.371475 25.1791 0.33775 25.006 0.338465 24.8313V13.5873C0.338379 13.2611 0.402575 12.938 0.527359 12.6367C0.652144 12.3353 0.835078 12.0616 1.06566 11.8312L12.8796 0H25.7897C25.9896 4.52027e-05 26.185 0.0595715 26.3512 0.171038C26.5173 0.282505 26.6466 0.440883 26.7228 0.626095C26.7989 0.811306 26.8184 1.015 26.7789 1.21135C26.7393 1.40771 26.6425 1.58787 26.5006 1.729L18.1218 8.67763Z" fill="#D9D9D9"/>
</svg>
