<svg width="170" height="58" viewBox="0 0 170 58" fill="none" xmlns="http://www.w3.org/2000/svg">
<path d="M63.0349 39.2259L64.7114 36.538C65.1301 37.0566 65.6594 37.4771 66.2615 37.7695C66.8637 38.0619 67.5237 38.2189 68.1944 38.2292C70.3648 38.2292 71.7683 36.7502 71.7683 34.5704V20.848H75.3423V34.6025C75.3423 39.2002 72.4051 41.3736 68.4673 41.3736C67.4603 41.4118 66.4565 41.2403 65.5207 40.8703C64.585 40.5004 63.7381 39.9402 63.0349 39.2259Z" fill="#D9D9D9"/>
<path d="M78.5914 22.6614C78.5905 22.4027 78.6413 22.1465 78.741 21.9074C78.8406 21.6683 78.987 21.451 79.1718 21.2681C79.3566 21.0852 79.5762 20.9403 79.8178 20.8417C80.0595 20.7432 80.3184 20.6928 80.5798 20.6937C80.8391 20.6936 81.0958 20.7448 81.3349 20.8441C81.574 20.9435 81.7906 21.089 81.9722 21.2723C82.1537 21.4555 82.2965 21.6728 82.3922 21.9113C82.4878 22.1498 82.5344 22.4048 82.5292 22.6614C82.5335 22.9174 82.4863 23.1717 82.3902 23.4095C82.2942 23.6473 82.1513 23.8637 81.9698 24.0463C81.7884 24.2288 81.572 24.3738 81.3334 24.4728C81.0947 24.5717 80.8385 24.6227 80.5798 24.6226C80.319 24.6235 80.0605 24.5734 79.8193 24.4752C79.5781 24.377 79.3589 24.2327 79.1741 24.0505C78.9894 23.8683 78.8428 23.6518 78.7428 23.4134C78.6428 23.175 78.5914 22.9195 78.5914 22.6614ZM78.9617 41.0135V26.4103H82.1653V41.0135H78.9617Z" fill="#D9D9D9"/>
<path d="M85.5443 44.7624L87.0454 42.4604C88.267 43.8236 89.7941 44.338 91.75 44.338C93.8554 44.338 96.1167 43.367 96.1167 40.2548V38.5957C95.5751 39.3412 94.8645 39.9506 94.0418 40.375C93.2191 40.7993 92.3073 41.0269 91.3796 41.0393C87.6237 41.0393 84.8425 38.3514 84.8425 33.5415C84.8425 28.7316 87.5652 26.0437 91.3796 26.0437C92.3049 26.0389 93.2179 26.2535 94.0421 26.6697C94.8663 27.0859 95.5777 27.6915 96.1167 28.4358V26.4103H99.3267V40.2548C99.3267 45.5148 95.3564 46.9359 91.75 46.9359C89.2417 46.9359 87.3768 46.3957 85.5443 44.7624ZM96.1362 36.268V30.8279C95.6929 30.2442 95.1218 29.7674 94.4657 29.4333C93.8095 29.0992 93.0855 28.9164 92.3478 28.8988C89.781 28.8988 88.163 30.77 88.163 33.5801C88.163 36.3901 89.781 38.2356 92.3478 38.2356C93.0885 38.2125 93.8143 38.0235 94.4705 37.6826C95.1267 37.3418 95.6962 36.8581 96.1362 36.268Z" fill="#D9D9D9"/>
<path d="M101.614 39.078L103.083 36.8081C104.435 38.0638 106.206 38.7846 108.06 38.8337C110.01 38.8337 110.991 38.0492 110.991 36.9046C110.991 34.0366 102.075 36.0879 102.075 30.4742C102.075 28.0822 104.148 26.0566 107.878 26.0566C109.97 26.0085 112.005 26.7303 113.59 28.0822L112.245 30.3199C111.673 29.7527 110.992 29.3055 110.242 29.0049C109.491 28.7044 108.688 28.5567 107.878 28.5708C106.195 28.5708 105.156 29.3554 105.156 30.3842C105.156 32.9563 114.077 31.0272 114.077 36.8145C114.077 39.4188 111.914 41.3801 107.937 41.3801C105.607 41.4571 103.338 40.6312 101.614 39.078Z" fill="#D9D9D9"/>
<path d="M117.346 37.5926V29.1624H114.903V26.4103H117.346V22.417H120.556V26.4103H123.552V29.1624H120.556V36.8081C120.556 37.8048 121.043 38.5636 121.96 38.5636C122.219 38.5693 122.476 38.5239 122.717 38.4301C122.958 38.3362 123.178 38.1958 123.363 38.017L124.13 40.4348C123.285 41.107 122.216 41.4419 121.134 41.3736C118.633 41.3736 117.346 40.0425 117.346 37.5926Z" fill="#D9D9D9"/>
<path d="M134.852 41.0135V39.4124C134.24 40.0562 133.494 40.5619 132.667 40.8948C131.839 41.2277 130.949 41.3801 130.056 41.3415C127.671 41.3415 124.955 39.7082 124.955 36.5059C124.955 33.1171 127.639 31.7281 130.056 31.7281C130.945 31.68 131.833 31.8223 132.661 32.1453C133.488 32.4682 134.236 32.9642 134.852 33.5994V31.4709C134.852 29.7797 133.416 28.7509 131.401 28.7509C130.581 28.7464 129.769 28.9104 129.016 29.2325C128.264 29.5546 127.587 30.0277 127.028 30.6221L125.683 28.4165C126.509 27.6381 127.483 27.0289 128.548 26.6239C129.613 26.219 130.748 26.0261 131.889 26.0566C135.19 26.0566 138.062 27.4198 138.062 31.3166V41.0264L134.852 41.0135ZM134.852 37.6891V35.4513C134.419 34.9529 133.878 34.558 133.269 34.2963C132.661 34.0346 132 33.9128 131.336 33.9402C129.536 33.9402 128.159 34.9947 128.159 36.5702C128.159 38.1456 129.536 39.2002 131.336 39.2002C131.999 39.2261 132.66 39.1037 133.269 38.8421C133.877 38.5805 134.418 38.1863 134.852 37.6891Z" fill="#D9D9D9"/>
<path d="M140.713 33.6958C140.713 29.2782 143.865 26.0437 148.322 26.0437C151.227 26.0437 152.936 27.2526 153.976 28.648L151.864 30.5771C151.491 30.0324 150.984 29.5911 150.39 29.2951C149.796 28.9991 149.136 28.8583 148.472 28.8859C145.814 28.8859 144.014 30.8793 144.014 33.7215C144.014 36.5637 145.814 38.5893 148.472 38.5893C149.141 38.6039 149.803 38.4506 150.396 38.1436C150.989 37.8366 151.494 37.386 151.864 36.8338L153.976 38.8015C153.316 39.6532 152.456 40.3327 151.471 40.781C150.486 41.2292 149.405 41.4327 148.322 41.3736C143.865 41.3736 140.713 38.107 140.713 33.6958Z" fill="#D9D9D9"/>
<path d="M165.978 41.0135L161.488 34.9626L159.408 37.0846V41.0135H156.205V20.848H159.408V33.4515L165.906 26.4103H169.877L163.768 33.0271L170 41.0135H165.978Z" fill="#D9D9D9"/>
<path d="M134.475 57.7645L132.058 50.4597L129.627 57.7645H128.737L125.93 49.2251H126.931L129.218 56.4785L131.648 49.2251H132.454L134.884 56.4785L137.172 49.2251H138.172L135.365 57.7645H134.475Z" fill="#D9D9D9"/>
<path d="M145.021 57.7645V56.7614C144.652 57.1633 144.198 57.4803 143.692 57.6902C143.186 57.9002 142.639 57.998 142.091 57.9767C141.701 57.9941 141.312 57.9333 140.947 57.7981C140.582 57.6629 140.248 57.456 139.966 57.1899C139.684 56.9238 139.459 56.604 139.305 56.2497C139.151 55.8954 139.07 55.5139 139.069 55.1281C139.068 54.7426 139.147 54.3611 139.301 54.0069C139.455 53.6527 139.68 53.3333 139.963 53.0684C140.246 52.8034 140.581 52.5985 140.947 52.4662C141.312 52.3338 141.702 52.2769 142.091 52.2988C142.64 52.2765 143.187 52.3745 143.694 52.5857C144.201 52.7969 144.654 53.1161 145.021 53.5205V51.7843C145.021 50.4983 143.988 49.8552 142.715 49.8552C142.195 49.8429 141.679 49.9497 141.208 50.1672C140.737 50.3847 140.323 50.7071 139.998 51.1091L139.478 50.4661C139.891 49.9979 140.403 49.6267 140.979 49.3798C141.554 49.1328 142.178 49.0162 142.805 49.0386C144.56 49.0386 145.951 49.8681 145.951 51.7779V57.7902L145.021 57.7645ZM145.021 56.0862V54.2085C144.711 53.8251 144.314 53.5186 143.863 53.3132C143.412 53.1078 142.918 53.0093 142.422 53.0254C142.124 52.9986 141.823 53.0336 141.539 53.1279C141.255 53.2223 140.993 53.374 140.772 53.5735C140.55 53.773 140.372 54.0159 140.25 54.2869C140.128 54.5578 140.065 54.8508 140.063 55.1474C140.067 55.4429 140.132 55.7345 140.254 56.0039C140.377 56.2733 140.555 56.5146 140.776 56.7127C140.998 56.9109 141.258 57.0614 141.542 57.155C141.825 57.2486 142.125 57.2832 142.422 57.2565C142.917 57.2702 143.408 57.1719 143.859 56.9691C144.309 56.7663 144.707 56.4643 145.021 56.0862Z" fill="#D9D9D9"/>
<path d="M148.491 57.7645V45.9649H149.421V57.7645H148.491Z" fill="#D9D9D9"/>
<path d="M151.955 57.7645V45.9649H152.884V57.7645H151.955Z" fill="#D9D9D9"/>
<path d="M154.944 53.4884C154.944 51.0063 156.692 48.9871 159.09 48.9871C161.689 48.9871 163.164 51.0384 163.164 53.4884V53.7327H155.919C156.003 55.5911 157.257 57.1344 159.298 57.1344C159.825 57.1407 160.349 57.0382 160.834 56.8334C161.32 56.6285 161.757 56.3259 162.118 55.9447L162.599 56.5492C162.167 57.0013 161.643 57.3576 161.061 57.5948C160.48 57.832 159.855 57.9447 159.226 57.9253C156.731 57.9767 154.944 56.1184 154.944 53.4884ZM159.07 49.8038C157.03 49.8038 156.016 51.5721 155.945 53.064H162.215C162.232 52.6439 162.163 52.2248 162.013 51.8315C161.862 51.4383 161.634 51.079 161.34 50.7749C161.047 50.4708 160.695 50.2281 160.305 50.0613C159.915 49.8945 159.495 49.8069 159.07 49.8038Z" fill="#D9D9D9"/>
<path d="M165.38 56.1184V50.0353H163.95V49.2251H165.38V46.9037H166.316V49.2444H168.064V50.0546H166.316V55.9962C166.316 56.6907 166.602 57.1665 167.206 57.1665C167.386 57.166 167.565 57.13 167.731 57.0604C167.897 56.9909 168.048 56.8892 168.174 56.7614L168.531 57.4687C168.337 57.6521 168.106 57.7936 167.853 57.8843C167.6 57.9751 167.331 58.0131 167.063 57.996C165.932 57.9767 165.38 57.2887 165.38 56.1184Z" fill="#D9D9D9"/>
<path d="M11.9794 16.3404L28.8289 33.0206L20.7583 41.0135L3.49288 23.9217" fill="#D9D9D9"/>
<path d="M2.95384 23.4397C1.06253 21.5681 0 19.0297 0 16.3829C0 13.7361 1.06251 11.1976 2.95382 9.32606L12.3641 0.0139459L20.4326 7.99835L3.89118 24.3673L2.95384 23.4397Z" fill="#D9D9D9"/>
<path d="M54.1715 23.9089L54.165 23.9153L53.7621 24.3268H53.7491L36.8931 41.0071L28.8225 33.0335V33.0271H28.8289V33.0142L45.685 16.3404" fill="#D9D9D9"/>
<path d="M37.247 7.9844L45.3156 0L54.6936 9.28028C55.6371 10.2055 56.3865 11.306 56.8989 12.5186C57.4114 13.7312 57.6767 15.0321 57.6797 16.3464C57.6826 17.6608 57.4232 18.9628 56.9163 20.1777C56.4094 21.3926 55.665 22.4964 54.7258 23.4258L53.8068 24.3352L37.2654 7.96623L37.247 7.9844Z" fill="#D9D9D9"/>
</svg>
