<svg width="86" height="67" viewBox="0 0 86 67" fill="none" xmlns="http://www.w3.org/2000/svg">
<path d="M75.0976 59.7297L73.2045 57.8325L73.2169 46.4513H86V48.857H75.8253V51.6037H84.6598V54.0095H75.8253V57.3342H86V59.7297H75.0976Z" fill="#CCDAE7"/>
<path d="M0 59.7297V46.4513H12.7852V48.857H2.60843V51.6037H10.8613V54.0095H2.60843V59.7297H0Z" fill="#CCDAE7"/>
<path d="M17.8705 59.7297L14.6351 56.4989L14.6475 46.4513H17.258V57.3342H24.8243V46.4513H27.4327V59.7297H17.8705Z" fill="#CCDAE7"/>
<path d="M34.3762 59.7297V48.857H29.2847V46.4513H42.0678V48.857H36.9764V59.7297H34.3762Z" fill="#CCDAE7"/>
<path d="M47.1552 59.7297L43.9198 56.4989L43.9322 46.4513H46.5406V57.3342H54.1069V46.4513H56.7153V59.7297H47.1552Z" fill="#CCDAE7"/>
<path d="M66.7729 59.7297L62.3864 55.3532L61.1716 55.343V59.7317H58.5611V46.4574H68.8921L71.3587 48.9326L71.3464 52.7147L68.8633 55.3696L66.1603 55.343V57.3362H71.3464V59.7317L66.7729 59.7297ZM61.1716 52.9455H68.7379V48.8611H61.1716V52.9455Z" fill="#CCDAE7"/>
<path d="M1.41007 63.3076V66.9529H0.974306V63.3076H1.41007Z" fill="#CCDAE7"/>
<path d="M6.87153 63.3076V66.9529H6.1665L3.53546 63.7079H3.50874V66.9529H3.0668V63.3076H3.77389L6.40083 66.5567H6.43165V63.3076H6.87153Z" fill="#CCDAE7"/>
<path d="M12.333 63.3076V66.9529H11.6259L8.99075 63.7079H8.96403V66.9529H8.52415V63.3076H9.23124L11.8684 66.5567H11.8993V63.3076H12.333Z" fill="#CCDAE7"/>
<path d="M16.0802 66.9999H15.7184C15.0785 66.9999 14.6132 66.8638 14.3227 66.5915C14.0308 66.3178 13.8849 65.9053 13.8849 65.3498V64.9107C13.8849 64.3498 14.0308 63.9332 14.3227 63.6609C14.6146 63.3886 15.0798 63.2525 15.7184 63.2525H16.0802C16.7201 63.2525 17.186 63.3886 17.4779 63.6609C17.7698 63.9332 17.9157 64.3498 17.9157 64.9107V65.3498C17.9157 65.9121 17.7698 66.3287 17.4779 66.5996C17.186 66.8692 16.7194 67.004 16.0802 66.9999ZM16.0185 66.6201C16.2605 66.6226 16.5017 66.593 16.7359 66.5322C16.9059 66.488 17.0594 66.3958 17.1778 66.2668C17.2854 66.1448 17.3622 65.9992 17.4019 65.842C17.4469 65.6451 17.4676 65.4435 17.4635 65.2416V65.0108C17.4635 64.5248 17.3628 64.1721 17.1614 63.9529C16.9558 63.7344 16.5797 63.6241 16.0185 63.6262H15.7739C15.5305 63.6199 15.2875 63.6488 15.0524 63.712C14.8824 63.7574 14.7291 63.8503 14.6105 63.9795C14.505 64.103 14.4297 64.2491 14.3905 64.4063C14.3436 64.6071 14.3222 64.8129 14.3268 65.019V65.2436C14.3222 65.4456 14.3437 65.6474 14.3905 65.844C14.429 66.0009 14.5044 66.1465 14.6105 66.2688C14.7291 66.398 14.8824 66.4909 15.0524 66.5363C15.2878 66.5978 15.5306 66.626 15.7739 66.6201H16.0185Z" fill="#CCDAE7"/>
<path d="M23.1984 63.3076L21.3772 66.9489H20.7605L18.9414 63.3076H19.4512L21.0647 66.5629H21.0915L22.7153 63.3076H23.1984Z" fill="#CCDAE7"/>
<path d="M25.8993 63.3076L27.7246 66.9529H27.2312L26.6804 65.8481H24.4399L23.8849 66.9529H23.3977L25.221 63.3076H25.8993ZM25.5745 63.6262H25.5478L24.6269 65.4642H26.4913L25.5745 63.6262Z" fill="#CCDAE7"/>
<path d="M30.0802 63.6895V66.957H29.6403V63.6895H28.0308V63.3076H31.6896V63.6936L30.0802 63.6895Z" fill="#CCDAE7"/>
<path d="M33.4389 63.3076V66.9529H32.999V63.3076H33.4389Z" fill="#CCDAE7"/>
<path d="M37.1881 66.9999H36.8263C36.1871 66.9999 35.7225 66.8631 35.4286 66.5915C35.1346 66.3199 34.9887 65.9053 34.9908 65.3498V64.9107C34.9908 64.3498 35.1367 63.9332 35.4286 63.6609C35.7205 63.3886 36.1864 63.2525 36.8263 63.2525H37.1881C37.8273 63.2525 38.2939 63.3893 38.5838 63.6609C38.8736 63.9325 39.0195 64.3491 39.0216 64.9107V65.3498C39.0216 65.9121 38.8756 66.3287 38.5838 66.5996C38.2919 66.8692 37.8273 67.004 37.1881 66.9999ZM36.888 66.6201H37.1244C37.3663 66.6226 37.6076 66.593 37.8417 66.5322C38.0122 66.4876 38.1662 66.3955 38.2857 66.2668C38.3925 66.1446 38.4686 65.999 38.5077 65.842C38.5546 65.6454 38.576 65.4436 38.5714 65.2416V65.0108C38.5714 64.5248 38.4687 64.1715 38.2672 63.9529C38.0658 63.7344 37.6835 63.6262 37.1244 63.6262H36.888C36.6453 63.6199 36.4029 63.6488 36.1686 63.712C35.9976 63.7565 35.8434 63.8495 35.7246 63.9795C35.6191 64.103 35.5438 64.2491 35.5046 64.4063C35.4587 64.6073 35.4373 64.813 35.4409 65.019V65.2436C35.4374 65.4456 35.4588 65.6472 35.5046 65.844C35.5431 66.0009 35.6185 66.1465 35.7246 66.2688C35.8468 66.397 36.0039 66.4871 36.1768 66.5282C36.4087 66.5893 36.6481 66.6182 36.888 66.6139V66.6201Z" fill="#CCDAE7"/>
<path d="M44.3782 63.3076V66.9529H43.6711L41.0401 63.7079H41.0134V66.9529H40.5735V63.3076H41.2806L43.9054 66.5567H43.9383V63.3076H44.3782Z" fill="#CCDAE7"/>
<path d="M51.9507 63.3076V66.9529H51.2436L48.6125 63.7079H48.5858V66.9529H48.1459V63.3076H48.8551L51.48 66.5567H51.5108V63.3076H51.9507Z" fill="#CCDAE7"/>
<path d="M56.816 66.5751V66.9509H53.6074V63.3076H56.816V63.6834H54.0473V64.9414H56.816V65.3212H54.0473V66.5751H56.816Z" fill="#CCDAE7"/>
<path d="M60.0658 63.6895V66.957H59.6259V63.6895H58.0164V63.3076H61.6752V63.6936L60.0658 63.6895Z" fill="#CCDAE7"/>
<path d="M68.7194 63.3076L67.5724 66.9529H66.9558L65.702 63.7814L64.4501 66.9529H63.8047L62.6721 63.3076H63.149L64.1274 66.5424H64.1542L65.4327 63.3076H65.9774L67.2497 66.5465H67.2765L68.2693 63.3076H68.7194Z" fill="#CCDAE7"/>
<path d="M72.0576 66.9999H71.6958C71.0558 66.9999 70.5899 66.8638 70.298 66.5915C70.0062 66.3178 69.8602 65.9053 69.8602 65.3498V64.9107C69.8602 64.3498 70.0062 63.9332 70.298 63.6609C70.5899 63.3886 71.0558 63.2525 71.6958 63.2525H72.0576C72.6968 63.2525 73.1634 63.3893 73.4532 63.6609C73.7431 63.9325 73.889 64.3491 73.8911 64.9107V65.3498C73.8911 65.9121 73.7451 66.3287 73.4532 66.5996C73.1614 66.8692 72.6968 67.004 72.0576 66.9999ZM71.7575 66.6201H71.9938C72.2365 66.6226 72.4784 66.5931 72.7133 66.5322C72.8831 66.4875 73.0365 66.3954 73.1552 66.2668C73.262 66.1446 73.3381 65.999 73.3772 65.842C73.4241 65.6454 73.4455 65.4436 73.4409 65.2416V65.0108C73.4409 64.5248 73.3395 64.1721 73.1367 63.9529C72.9311 63.7344 72.5529 63.6241 71.9938 63.6262H71.7575C71.5147 63.6199 71.2724 63.6488 71.038 63.712C70.8659 63.7594 70.7115 63.8559 70.594 63.9897C70.4886 64.1132 70.4133 64.2593 70.3741 64.4165C70.3289 64.6176 70.3082 64.8232 70.3124 65.0292V65.2538C70.3083 65.4557 70.329 65.6573 70.3741 65.8542C70.4137 66.0107 70.489 66.156 70.594 66.279C70.7134 66.4083 70.8674 66.5011 71.038 66.5465C71.2731 66.6047 71.5154 66.6294 71.7575 66.6201Z" fill="#CCDAE7"/>
<path d="M75.8828 65.3927V66.9489H75.4368V63.3076H77.7801C78.2261 63.3076 78.5468 63.3791 78.7359 63.5241C78.8372 63.6112 78.916 63.7213 78.9657 63.8449C79.0154 63.9686 79.0346 64.1022 79.0216 64.2348V64.3287C79.0371 64.5361 78.9852 64.743 78.8736 64.9189C78.7582 65.0576 78.5931 65.1462 78.4132 65.166V65.1885C78.5884 65.205 78.7522 65.2824 78.8756 65.407C78.9907 65.5844 79.0421 65.7953 79.0216 66.0054V66.9529H78.5817V66.1034C78.5817 65.8195 78.5242 65.6296 78.4049 65.5357C78.1793 65.419 77.9241 65.3707 77.6711 65.3968L75.8828 65.3927ZM77.628 63.6793H75.8828V65.0108H77.7122C77.9506 65.0332 78.1902 64.9826 78.3988 64.8658C78.4666 64.8003 78.5184 64.7203 78.5501 64.6317C78.5819 64.5432 78.5927 64.4486 78.5817 64.3553V64.3226C78.5929 64.2284 78.5799 64.1329 78.544 64.0451C78.5081 63.9573 78.4503 63.8799 78.3762 63.8202C78.1446 63.7052 77.8861 63.6544 77.628 63.6732V63.6793Z" fill="#CCDAE7"/>
<path d="M81.0565 65.6112V66.9489H80.6167V63.3076H81.0565V65.1252H81.0833L83.8191 63.3076H84.481L82.2837 64.7657L84.5324 66.9529H83.9157L81.9281 65.0312H81.9075L81.0565 65.6112Z" fill="#CCDAE7"/>
<path d="M71.9979 7.54329L58.9723 0.0688342C58.8924 0.0237194 58.8021 0 58.7102 0C58.6183 0 58.528 0.0237194 58.4481 0.0688342L45.4265 7.54329C45.3474 7.58941 45.2818 7.65537 45.2363 7.73457C45.1909 7.81377 45.1671 7.90344 45.1675 7.99461V11.2621H38.6166V7.99461C38.6167 7.90331 38.5923 7.81363 38.5461 7.73471C38.4999 7.65578 38.4334 7.59044 38.3535 7.54533L25.3217 0.0688342C25.2418 0.0237194 25.1515 0 25.0596 0C24.9677 0 24.8774 0.0237194 24.7975 0.0688342L11.7698 7.54329C11.6905 7.58876 11.6248 7.65429 11.5793 7.73321C11.5338 7.81213 11.5102 7.90162 11.5108 7.99257V22.9415C11.5106 23.0328 11.5347 23.1226 11.5805 23.2019C11.6263 23.2811 11.6923 23.3469 11.7718 23.3928L24.7996 30.8652C24.8798 30.9104 24.9704 30.9344 25.0627 30.9346C25.1543 30.9347 25.2444 30.9107 25.3237 30.8652L30.6043 27.8428L36.4625 37.9333C36.5086 38.0123 36.5749 38.0779 36.6547 38.1234C36.7344 38.1689 36.8248 38.1928 36.9167 38.1926H51.963C52.055 38.1928 52.1453 38.1689 52.2251 38.1234C52.3048 38.0779 52.3711 38.0123 52.4173 37.9333L57.0031 30.0422L58.4419 30.8713C58.5216 30.9182 58.6125 30.9429 58.705 30.9428C58.797 30.9431 58.8873 30.9184 58.9661 30.8713L71.9918 23.3969C72.0717 23.3518 72.1381 23.2864 72.1843 23.2075C72.2306 23.1286 72.2549 23.0389 72.2549 22.9476V7.99461C72.2553 7.90368 72.2318 7.81422 72.1867 7.73507C72.1416 7.65592 72.0766 7.58982 71.9979 7.54329ZM71.2127 22.0429L59.2333 15.1648V1.42894L71.2127 8.30094V22.0429ZM46.1953 8.29482L58.1768 1.42894V15.1648L55.445 16.7332L52.4132 11.5154C52.367 11.4363 52.3007 11.3708 52.221 11.3252C52.1412 11.2797 52.0509 11.2558 51.9589 11.256H46.2035L46.1953 8.29482ZM51.6506 12.2975L58.5735 24.1995H44.7338L38.6043 13.6576V12.2975H51.6506ZM37.5622 22.0286L25.5827 15.1648V1.42894L37.5622 8.30094V22.0286ZM24.5365 1.42894V15.1648L12.557 22.0368V8.29482L24.5365 1.42894ZM25.0606 29.8155L13.0812 22.9415L25.0606 16.0695L37.0401 22.9415L25.0606 29.8155ZM31.5108 27.3179L38.3494 23.3948C38.4295 23.3489 38.496 23.2828 38.5422 23.2032C38.5884 23.1236 38.6126 23.0333 38.6125 22.9415V15.7386L43.8335 24.7243L36.9147 36.6242L31.5108 27.3179ZM51.6547 37.147H37.8212L44.7379 25.2451H58.5817L51.6547 37.147ZM58.7112 29.8155L57.5231 29.1355L59.9383 24.9837C59.9837 24.9043 60.0076 24.8146 60.0076 24.7233C60.0076 24.632 59.9837 24.5423 59.9383 24.4629L55.9712 17.6318L58.7071 16.0633L70.6865 22.9415L58.7112 29.8155Z" fill="#CCDAE7"/>
</svg>
