<svg width="130" height="44" viewBox="0 0 130 44" fill="none" xmlns="http://www.w3.org/2000/svg">
<path d="M48.2032 29.7576L49.4852 27.7185C49.8053 28.1119 50.2101 28.4309 50.6706 28.6527C51.1311 28.8745 51.6358 28.9936 52.1487 29.0015C53.8083 29.0015 54.8817 27.8795 54.8817 26.2258V15.8158H57.6147V26.2502C57.6147 29.7381 55.3686 31.3869 52.3573 31.3869C51.5873 31.4158 50.8197 31.2857 50.1041 31.0051C49.3885 30.7244 48.7409 30.2994 48.2032 29.7576Z" fill="#CCDAE7"/>
<path d="M60.0993 17.1914C60.0986 16.9952 60.1375 16.8008 60.2137 16.6194C60.2899 16.438 60.4018 16.2732 60.5432 16.1344C60.6845 15.9957 60.8524 15.8858 61.0372 15.811C61.2219 15.7362 61.42 15.698 61.6198 15.6987C61.8181 15.6986 62.0145 15.7374 62.1973 15.8128C62.3801 15.8882 62.5458 15.9986 62.6846 16.1376C62.8234 16.2766 62.9326 16.4414 63.0058 16.6224C63.0789 16.8033 63.1145 16.9967 63.1106 17.1914C63.1139 17.3856 63.0777 17.5785 63.0043 17.7589C62.9309 17.9393 62.8216 18.1035 62.6828 18.242C62.5441 18.3805 62.3786 18.4905 62.1961 18.5655C62.0136 18.6406 61.8177 18.6793 61.6198 18.6792C61.4204 18.6799 61.2228 18.6419 61.0383 18.5674C60.8539 18.4929 60.6862 18.3834 60.5449 18.2452C60.4037 18.107 60.2916 17.9427 60.2151 17.7619C60.1386 17.5811 60.0993 17.3872 60.0993 17.1914ZM60.3825 31.1137V20.0354H62.8323V31.1137H60.3825Z" fill="#CCDAE7"/>
<path d="M65.4162 33.9577L66.5641 32.2113C67.4983 33.2455 68.666 33.6357 70.1618 33.6357C71.7718 33.6357 73.501 32.8991 73.501 30.5381V29.2795C73.0869 29.845 72.5434 30.3073 71.9143 30.6293C71.2852 30.9512 70.5879 31.1238 69.8785 31.1332C67.0063 31.1332 64.8796 29.0942 64.8796 25.4453C64.8796 21.7964 66.9616 19.7573 69.8785 19.7573C70.5861 19.7536 71.2843 19.9164 71.9146 20.2322C72.5448 20.5479 73.0888 21.0074 73.501 21.572V20.0354H75.9557V30.5381C75.9557 34.5284 72.9196 35.6065 70.1618 35.6065C68.2437 35.6065 66.8175 35.1968 65.4162 33.9577ZM73.5159 27.5136V23.3867C73.1769 22.9439 72.7402 22.5821 72.2384 22.3287C71.7367 22.0752 71.183 21.9366 70.6189 21.9232C68.6561 21.9232 67.4188 23.3428 67.4188 25.4745C67.4188 27.6063 68.6561 29.0063 70.6189 29.0063C71.1853 28.9888 71.7403 28.8454 72.2421 28.5868C72.7439 28.3283 73.1795 27.9613 73.5159 27.5136Z" fill="#CCDAE7"/>
<path d="M77.7049 29.6454L78.8279 27.9234C79.8621 28.876 81.2166 29.4228 82.6343 29.46C84.125 29.46 84.8753 28.8649 84.8753 27.9966C84.8753 25.8209 78.0577 27.377 78.0577 23.1184C78.0577 21.3037 79.6429 19.7671 82.4951 19.7671C84.0947 19.7306 85.6511 20.2782 86.863 21.3037L85.8344 23.0013C85.3973 22.571 84.8763 22.2317 84.3025 22.0037C83.7288 21.7757 83.114 21.6637 82.4951 21.6744C81.2081 21.6744 80.4131 22.2696 80.4131 23.0501C80.4131 25.0014 87.2357 23.5379 87.2357 27.9283C87.2357 29.9039 85.5809 31.3918 82.5398 31.3918C80.758 31.4502 79.0232 30.8236 77.7049 29.6454Z" fill="#CCDAE7"/>
<path d="M89.7352 28.5185V22.1232H87.8668V20.0354H89.7352V17.006H92.1899V20.0354H94.4807V22.1232H92.1899V27.9234C92.1899 28.6795 92.5626 29.2551 93.2632 29.2551C93.4612 29.2595 93.6581 29.225 93.8424 29.1539C94.0267 29.0827 94.1947 28.9761 94.3366 28.8405L94.9229 30.6747C94.2767 31.1846 93.4595 31.4387 92.6321 31.3869C90.719 31.3869 89.7352 30.3771 89.7352 28.5185Z" fill="#CCDAE7"/>
<path d="M103.122 31.1137V29.899C102.654 30.3875 102.084 30.7711 101.451 31.0236C100.818 31.2762 100.137 31.3918 99.4548 31.3625C97.6311 31.3625 95.554 30.1234 95.554 27.6941C95.554 25.1233 97.6063 24.0696 99.4548 24.0696C100.134 24.0331 100.813 24.1411 101.446 24.3861C102.079 24.6311 102.651 25.0074 103.122 25.4892V23.8745C103.122 22.5915 102.024 21.811 100.483 21.811C99.8562 21.8076 99.2352 21.932 98.6595 22.1763C98.0839 22.4207 97.5662 22.7797 97.1391 23.2306L96.1105 21.5574C96.7425 20.9669 97.487 20.5047 98.3014 20.1975C99.1158 19.8902 99.9839 19.744 100.856 19.7671C103.38 19.7671 105.577 20.8012 105.577 23.7574V31.1235L103.122 31.1137ZM103.122 28.5917V26.8941C102.791 26.516 102.378 26.2164 101.912 26.0179C101.446 25.8193 100.941 25.727 100.434 25.7477C99.0572 25.7477 98.0038 26.5477 98.0038 27.7429C98.0038 28.938 99.0572 29.7381 100.434 29.7381C100.941 29.7577 101.446 29.6649 101.911 29.4664C102.377 29.2679 102.791 28.9689 103.122 28.5917Z" fill="#CCDAE7"/>
<path d="M107.604 25.5623C107.604 22.211 110.014 19.7573 113.423 19.7573C115.644 19.7573 116.951 20.6744 117.746 21.733L116.131 23.1964C115.846 22.7832 115.458 22.4485 115.004 22.2239C114.55 21.9994 114.045 21.8925 113.537 21.9135C111.505 21.9135 110.128 23.4257 110.128 25.5819C110.128 27.738 111.505 29.2746 113.537 29.2746C114.049 29.2857 114.555 29.1694 115.009 28.9365C115.462 28.7036 115.849 28.3618 116.131 27.9429L117.746 29.4356C117.242 30.0818 116.584 30.5973 115.831 30.9373C115.078 31.2774 114.251 31.4317 113.423 31.3869C110.014 31.3869 107.604 28.9088 107.604 25.5623Z" fill="#CCDAE7"/>
<path d="M126.924 31.1137L123.49 26.5233L121.9 28.1332V31.1137H119.451V15.8158H121.9V25.377L126.869 20.0354H129.906L125.235 25.055L130 31.1137H126.924Z" fill="#CCDAE7"/>
<path d="M102.834 43.8214L100.985 38.2798L99.1268 43.8214H98.446L96.2994 37.3431H97.0646L98.8137 42.8457L100.672 37.3431H101.288L103.147 42.8457L104.896 37.3431H105.661L103.515 43.8214H102.834Z" fill="#CCDAE7"/>
<path d="M110.899 43.8214V43.0604C110.616 43.3652 110.269 43.6057 109.882 43.765C109.495 43.9243 109.077 43.9985 108.658 43.9823C108.36 43.9955 108.062 43.9494 107.783 43.8468C107.504 43.7443 107.249 43.5873 107.033 43.3855C106.817 43.1836 106.645 42.941 106.527 42.6722C106.409 42.4034 106.348 42.114 106.347 41.8213C106.346 41.5289 106.407 41.2394 106.524 40.9707C106.642 40.7021 106.814 40.4598 107.031 40.2588C107.247 40.0578 107.503 39.9023 107.783 39.8019C108.062 39.7015 108.36 39.6583 108.658 39.6749C109.078 39.6581 109.496 39.7324 109.884 39.8926C110.271 40.0528 110.618 40.295 110.899 40.6018V39.2847C110.899 38.309 110.109 37.8212 109.135 37.8212C108.737 37.8119 108.343 37.8928 107.983 38.0579C107.622 38.2229 107.306 38.4674 107.058 38.7725L106.66 38.2846C106.975 37.9295 107.367 37.6479 107.807 37.4605C108.247 37.2731 108.725 37.1847 109.204 37.2017C110.546 37.2017 111.609 37.831 111.609 39.2798V43.8409L110.899 43.8214ZM110.899 42.5482V41.1237C110.661 40.8328 110.358 40.6003 110.013 40.4445C109.668 40.2887 109.291 40.2139 108.911 40.2261C108.683 40.2059 108.453 40.2324 108.235 40.304C108.018 40.3755 107.818 40.4907 107.649 40.642C107.479 40.7933 107.344 40.9776 107.25 41.1831C107.157 41.3887 107.108 41.611 107.107 41.836C107.11 42.0601 107.159 42.2813 107.253 42.4857C107.347 42.6901 107.483 42.8732 107.652 43.0235C107.822 43.1738 108.021 43.288 108.238 43.359C108.454 43.43 108.684 43.4562 108.911 43.436C109.289 43.4464 109.665 43.3718 110.01 43.2179C110.354 43.0641 110.658 42.835 110.899 42.5482Z" fill="#CCDAE7"/>
<path d="M113.552 43.8214V34.8699H114.263V43.8214H113.552Z" fill="#CCDAE7"/>
<path d="M116.201 43.8214V34.8699H116.911V43.8214H116.201Z" fill="#CCDAE7"/>
<path d="M118.487 40.5774C118.487 38.6944 119.823 37.1627 121.657 37.1627C123.644 37.1627 124.772 38.7188 124.772 40.5774V40.7628H119.232C119.297 42.1725 120.256 43.3433 121.816 43.3433C122.219 43.3481 122.62 43.2703 122.991 43.115C123.362 42.9596 123.696 42.73 123.972 42.4408L124.34 42.8994C124.01 43.2424 123.609 43.5127 123.165 43.6926C122.72 43.8726 122.242 43.958 121.761 43.9433C119.853 43.9824 118.487 42.5726 118.487 40.5774ZM121.642 37.7822C120.082 37.7822 119.306 39.1237 119.252 40.2554H124.047C124.06 39.9367 124.007 39.6188 123.892 39.3205C123.777 39.0222 123.602 38.7496 123.378 38.5189C123.154 38.2882 122.884 38.1041 122.586 37.9775C122.288 37.851 121.967 37.7846 121.642 37.7822Z" fill="#CCDAE7"/>
<path d="M126.467 42.5726V37.9578H125.374V37.3431H126.467V35.5821H127.183V37.3578H128.519V37.9724H127.183V42.4799C127.183 43.0067 127.401 43.3677 127.863 43.3677C128.001 43.3673 128.138 43.34 128.265 43.2872C128.392 43.2344 128.507 43.1573 128.604 43.0604L128.877 43.597C128.728 43.7361 128.551 43.8434 128.358 43.9123C128.165 43.9811 127.959 44.0099 127.754 43.997C126.889 43.9823 126.467 43.4604 126.467 42.5726Z" fill="#CCDAE7"/>
<path d="M9.16071 12.3961L22.0457 25.0501L15.874 31.1137L2.67103 18.1475" fill="#CCDAE7"/>
<path d="M2.25882 17.7819C0.812519 16.362 0 14.4363 0 12.4284C0 10.4205 0.812509 8.49477 2.25881 7.07494L9.45488 0.0105797L15.6249 6.06771L2.9756 18.4855L2.25882 17.7819Z" fill="#CCDAE7"/>
<path d="M41.4253 18.1378L41.4203 18.1426L41.1122 18.4548H41.1023L28.2124 31.1088L22.0407 25.0599V25.055H22.0457V25.0453L34.9356 12.3961" fill="#CCDAE7"/>
<path d="M28.483 6.05713L34.6531 0L41.8245 7.04021C42.546 7.74209 43.1191 8.57696 43.5109 9.49687C43.9028 10.4168 44.1057 11.4036 44.108 12.4007C44.1103 13.3978 43.9119 14.3856 43.5243 15.3072C43.1366 16.2288 42.5673 17.0662 41.8491 17.7713L41.1464 18.4612L28.4971 6.04334L28.483 6.05713Z" fill="#CCDAE7"/>
</svg>
