<svg width="108" height="24" viewBox="0 0 108 24" fill="none" xmlns="http://www.w3.org/2000/svg">
<path d="M50.4226 3.69046V5.35254L40.0558 18.3969H50.2994V20.2864H37.1753V18.6243L47.5413 5.57993H37.1753V3.69046H50.4226Z" fill="#CCDAE7"/>
<path d="M57.6634 20.2864H55.4217V3.69046H57.6634V20.2864Z" fill="#CCDAE7"/>
<path d="M64.1146 20.2864V3.69046H72.7096C76.1815 3.69046 77.9297 5.50965 77.9297 8.63037C77.9297 10.5662 76.9172 12.0455 75.3437 12.5912V12.7285H76.3047C77.5601 12.7285 77.9786 13.2974 77.9786 14.3906V20.2864H75.7385V13.892H66.3563V20.2889L64.1146 20.2864ZM66.3563 12.091H72.2902C74.3591 12.091 75.5656 11.0888 75.5656 9.54162V8.06147C75.5656 6.39939 74.3346 5.53363 72.2902 5.53363H66.3563V12.091Z" fill="#CCDAE7"/>
<path d="M86.1298 20.2864H83.8889V3.69046H86.1298V20.2864Z" fill="#CCDAE7"/>
<path d="M91.2065 11.9992C91.2065 9.31422 91.9456 7.21885 93.423 5.7387C94.9004 4.23622 96.9666 3.48539 99.6041 3.48539C102.242 3.48539 104.307 4.23622 105.784 5.7387C107.261 7.21885 108 9.31422 108 11.9992C108 14.6841 107.261 16.7803 105.784 18.2836C104.331 19.7638 102.264 20.5163 99.6041 20.5163C96.9447 20.5163 94.8792 19.7654 93.3985 18.2836C91.9423 16.7803 91.2065 14.6858 91.2065 11.9992ZM93.569 13.1386C93.569 16.5992 95.9314 18.6475 99.6024 18.6475C103.419 18.6475 105.635 16.5074 105.635 13.1386V10.8159C105.635 9.10915 105.093 7.76544 103.985 6.80954C102.901 5.83048 101.448 5.35254 99.6024 5.35254C95.7846 5.35254 93.569 7.4694 93.569 10.8159V13.1386Z" fill="#CCDAE7"/>
<path d="M24.8055 1.94322L16.4265 10.1312H16.4214L16.3556 10.1965L5.21843 21.0835L2.24262 24H1.8545L0 22.1031L19.5769 2.97685L22.5527 0.0603638H22.9645L24.8055 1.94322Z" fill="#CCDAE7"/>
<path d="M24.7954 22.1453V22.1502L22.8556 24H2.24262L5.21843 21.0835L19.539 21.148L16.4644 18.0322L12.1209 17.9909L16.4265 13.887L24.7954 22.1453Z" fill="#CCDAE7"/>
<path d="M19.5769 2.97685L5.2564 2.91235L8.30815 6.0091L12.6888 6.04631L8.38324 10.1502L0.00928096 1.88286L1.99203 0L22.5527 0.0603638L19.5769 2.97685Z" fill="#CCDAE7"/>
</svg>
