<svg width="125" height="29" viewBox="0 0 125 29" fill="none" xmlns="http://www.w3.org/2000/svg">
<path d="M35.9283 22.3071C34.8781 22.3146 33.8321 22.1749 32.8214 21.8921C32.0127 21.6778 31.2457 21.3314 30.5519 20.8672L31.4773 18.8257C32.0862 19.2279 32.7504 19.5409 33.4495 19.7552C34.2595 20.0246 35.1075 20.1646 35.9619 20.1701C36.6847 20.2205 37.4078 20.0772 38.0555 19.7552C38.28 19.6344 38.4666 19.4548 38.5951 19.236C38.7236 19.0172 38.789 18.7676 38.7841 18.5145C38.7872 18.3328 38.7485 18.1528 38.6709 17.9881C38.5932 17.8235 38.4787 17.6785 38.336 17.5643C38.0283 17.3145 37.674 17.127 37.2934 17.0125C36.8747 16.8838 36.3429 16.7386 35.652 16.5975C34.7872 16.4009 33.9344 16.1557 33.0978 15.8631C32.4612 15.6278 31.895 15.2367 31.4522 14.7261C30.9798 14.1393 30.7414 13.401 30.7822 12.6515C30.7747 11.9211 30.9892 11.2054 31.3977 10.5975C31.868 9.94007 32.5213 9.43254 33.2778 9.13693C34.2666 8.73382 35.3283 8.53611 36.3973 8.55602C37.2509 8.55624 38.1015 8.65793 38.9306 8.85892C39.638 9.02858 40.3175 9.29681 40.9489 9.6556L40.1114 11.7303C38.9739 11.0957 37.6942 10.7534 36.389 10.7344C35.6606 10.6806 34.9323 10.8408 34.2953 11.195C34.0735 11.3286 33.8905 11.5171 33.7643 11.7418C33.638 11.9666 33.5729 12.22 33.5751 12.4772C33.5732 12.7397 33.6525 12.9965 33.8022 13.2131C33.9519 13.4296 34.1649 13.5956 34.4126 13.6888C35.1503 13.9934 35.9179 14.2214 36.703 14.3693C37.5664 14.5658 38.4178 14.811 39.253 15.1037C39.8863 15.3372 40.4515 15.7221 40.8986 16.2241C41.3735 16.7968 41.6141 17.5254 41.5728 18.2656C41.5765 18.9908 41.3575 19.6999 40.9447 20.2988C40.4649 20.9566 39.8053 21.4648 39.0437 21.7635C38.0528 22.1509 36.9932 22.3358 35.9283 22.3071Z" fill="#CCDAE7"/>
<path d="M47.6695 22.249C46.654 22.3125 45.6528 21.9872 44.8724 21.3403C44.2275 20.7427 43.9009 19.8423 43.9009 18.6681V14.1577H42.2679V12.1826H43.9009V9.6307H46.5975V12.1826H49.2355V14.1577H46.5975V18.61C46.575 19.0289 46.716 19.4405 46.9911 19.7593C47.1367 19.9013 47.3106 20.0115 47.5017 20.083C47.6928 20.1545 47.8968 20.1856 48.1008 20.1743C48.5041 20.1828 48.9021 20.0824 49.2523 19.8838L49.9431 21.6805C49.6548 21.8579 49.3395 21.9882 49.0094 22.0664C48.5723 22.1828 48.1221 22.2441 47.6695 22.249Z" fill="#CCDAE7"/>
<path d="M54.7711 22.249C54.0706 22.2654 53.3748 22.1309 52.7319 21.8548C52.2074 21.6297 51.7595 21.2595 51.4422 20.7884C51.1452 20.331 50.9908 19.797 50.9984 19.2531C50.9808 18.8374 51.0663 18.4238 51.2473 18.0484C51.4284 17.673 51.6994 17.3472 52.0368 17.0996C52.7444 16.5685 53.8582 16.2988 55.3573 16.2988H57.9827V16.1162C57.9997 15.8079 57.9486 15.4996 57.8329 15.2129C57.7171 14.9262 57.5396 14.6681 57.3128 14.4564C56.7543 14.0328 56.0588 13.8261 55.3573 13.8755C54.7743 13.8759 54.195 13.9669 53.6405 14.1452C53.194 14.2867 52.7708 14.4922 52.3843 14.7552L51.4548 12.971C52.0354 12.5987 52.6711 12.3187 53.339 12.1411C54.1343 11.924 54.9553 11.8137 55.7802 11.8133C57.363 11.8133 58.5941 12.1909 59.4315 12.9295C60.269 13.6681 60.6877 14.7925 60.6877 16.2905V22.0996H58.1753V20.3029L57.832 20.8838C57.296 21.7635 56.2659 22.249 54.7711 22.249ZM55.6923 17.7054C53.9797 17.7054 53.6196 18.473 53.6196 19.1162C53.6138 19.325 53.6596 19.5321 53.753 19.7194C53.8464 19.9067 53.9846 20.0686 54.1555 20.1909C54.5633 20.4605 55.0478 20.5929 55.5374 20.5685C56.0605 20.5774 56.5761 20.4439 57.028 20.1826C57.4701 19.919 57.8038 19.5089 57.9702 19.0249V17.7054H55.6923Z" fill="#CCDAE7"/>
<path d="M71.1349 22.2822L67.8102 18.0788L66.1856 19.6639L66.1353 22.2822H63.4345V8.18672H66.1311V16.6141L70.9256 12.112L74.0241 12.1577L69.8076 16.4108L74.4722 22.2822H71.1349Z" fill="#CCDAE7"/>
<path d="M82.0888 22.249C80.6945 22.249 79.6267 21.8091 78.9065 20.9502L78.5799 20.556V22.0913H76.0173V7.9834H78.7181V13.3776L79.0405 13.029C79.4296 12.6201 79.9037 12.3 80.4301 12.0908C80.9565 11.8815 81.5225 11.7883 82.0888 11.8174C82.9966 11.8078 83.8912 12.0323 84.6849 12.4689C85.4528 12.8958 86.0851 13.5266 86.5106 14.2905C86.9669 15.1342 87.1962 16.0802 87.1764 17.0373C87.1959 17.9931 86.9666 18.9377 86.5106 19.7801C86.0864 20.5448 85.4538 21.176 84.6849 21.6017C83.8908 22.0368 82.9962 22.2599 82.0888 22.249ZM81.5571 13.9502C81.1727 13.9358 80.7896 14.0024 80.433 14.1454C80.0765 14.2885 79.7546 14.5048 79.4885 14.7801C79.2119 15.0827 78.9982 15.4363 78.8595 15.8207C78.7208 16.2052 78.66 16.613 78.6804 17.0207C78.6405 17.8441 78.9311 18.6496 79.4885 19.2614C79.7552 19.5359 80.0772 19.7516 80.4336 19.8946C80.79 20.0376 81.1728 20.1046 81.5571 20.0913C81.9454 20.1074 82.3327 20.0417 82.6936 19.8987C83.0545 19.7556 83.3807 19.5384 83.6507 19.2614C84.2066 18.6487 84.4969 17.8438 84.4588 17.0207C84.4907 16.1949 84.1928 15.3898 83.6298 14.7801C83.3643 14.5012 83.0425 14.2809 82.6854 14.1336C82.3282 13.9864 81.9438 13.9154 81.5571 13.9253V13.9502Z" fill="#CCDAE7"/>
<path d="M92.1006 22.249C91.4041 22.2571 90.7141 22.1155 90.0782 21.834C89.5525 21.6109 89.1042 21.2402 88.7885 20.7676C88.4915 20.3102 88.3371 19.7762 88.3446 19.2324C88.326 18.8165 88.411 18.4025 88.5921 18.0269C88.7732 17.6514 89.0449 17.3257 89.3831 17.0788C90.0865 16.5477 91.2045 16.278 92.7036 16.278H95.3248V16.0954C95.3415 15.7872 95.2903 15.479 95.1746 15.1923C95.0589 14.9057 94.8815 14.6475 94.6548 14.4357C94.0979 14.0123 93.4038 13.8056 92.7036 13.8548C92.1193 13.8555 91.5386 13.9465 90.9826 14.1245C90.5364 14.2668 90.1133 14.4722 89.7264 14.7344L88.801 12.9502C89.3812 12.5772 90.0171 12.2971 90.6853 12.1203C91.4791 11.9029 92.2988 11.7926 93.1223 11.7925C94.7093 11.7925 95.9403 12.1701 96.7778 12.9087C97.6152 13.6473 98.034 14.7718 98.034 16.2697V22.0788H95.5216V20.2822L95.1783 20.8631C94.6297 21.7635 93.5955 22.249 92.1006 22.249ZM93.0092 17.6846C91.2967 17.6846 90.9156 18.4523 90.9156 19.0954C90.9098 19.3043 90.9556 19.5114 91.049 19.6987C91.1425 19.886 91.2806 20.0478 91.4516 20.1701C91.858 20.4392 92.341 20.5716 92.8292 20.5477C93.3524 20.5573 93.8682 20.4238 94.3199 20.1618C94.7633 19.8987 95.0985 19.4886 95.2662 19.0041V17.6846H93.0092Z" fill="#CCDAE7"/>
<path d="M108.502 22.2822V16.9295C108.556 16.2184 108.345 15.5124 107.908 14.9461C107.686 14.7149 107.416 14.5345 107.116 14.4177C106.817 14.3009 106.495 14.2503 106.174 14.2697C105.808 14.2537 105.443 14.3137 105.102 14.4459C104.761 14.5781 104.451 14.7796 104.193 15.0373C103.674 15.6623 103.417 16.462 103.477 17.2697V22.2697H100.777V12.1618H103.339V13.6805L103.662 13.332C104.062 12.9007 104.556 12.5657 105.106 12.3527C105.717 12.1168 106.368 11.9985 107.024 12.0041C107.581 11.9814 108.138 12.0683 108.661 12.2599C109.184 12.4514 109.664 12.7439 110.072 13.1203C110.839 13.8631 111.224 14.9834 111.224 16.4606V22.2697L108.502 22.2822Z" fill="#CCDAE7"/>
<path d="M121.663 22.2822L118.338 18.0788L116.718 19.6639L116.667 22.2822H113.962V8.18672H116.663V16.6141L121.458 12.112L124.552 12.1577L120.335 16.4108L125 22.2822H121.663Z" fill="#CCDAE7"/>
<path d="M13.9828 6.6224L7.02779 9.0249H19.397C19.668 9.0249 19.9278 9.13157 20.1194 9.32144C20.3111 9.51131 20.4187 9.76883 20.4187 10.0373V18.6266C20.4181 19.1285 20.218 19.61 19.8618 19.9668L10.7419 29H0.776187C0.622751 29.0003 0.472689 28.9555 0.345014 28.8711C0.217338 28.7868 0.117815 28.6668 0.0590555 28.5263C0.000296402 28.3859 -0.0150492 28.2313 0.0149696 28.0822C0.0449883 27.9331 0.119006 27.7962 0.227656 27.6888L6.697 22.3693L13.6521 19.9668H1.28286C1.14833 19.9668 1.01514 19.9405 0.890913 19.8893C0.766682 19.8382 0.653854 19.7633 0.558926 19.6688C0.463998 19.5743 0.388828 19.4622 0.33773 19.3389C0.286632 19.2156 0.26061 19.0835 0.261161 18.9502V10.3693C0.261095 10.1203 0.310629 9.87375 0.406913 9.64376C0.503197 9.41377 0.644351 9.20488 0.822267 9.02905L9.93794 0H19.8995C20.0537 3.44968e-05 20.2045 0.0454624 20.3327 0.130529C20.4609 0.215596 20.5606 0.336464 20.6194 0.477809C20.6782 0.619155 20.6932 0.774607 20.6627 0.924455C20.6322 1.0743 20.5575 1.2118 20.448 1.3195L13.9828 6.6224Z" fill="#CCDAE7"/>
</svg>
