<svg width="162" height="44" viewBox="0 0 162 44" fill="none" xmlns="http://www.w3.org/2000/svg">
<path d="M71.8003 36.0466H73.7994C72.6118 39.2735 69.3223 41.65 65.7319 41.65H65.3795C64.0684 41.6541 62.7756 41.3545 61.611 40.7769C58.6025 39.2583 57.1616 36.9805 56.7301 33.7194C56.734 33.5823 56.7261 33.4452 56.7063 33.3094V33.0399C56.7261 32.8799 56.734 32.7188 56.7301 32.5577C57.1616 28.4083 60.3482 25.1624 64.7462 24.7258C64.9995 24.7258 65.2529 24.6992 65.5062 24.6992H65.6052C67.4118 24.7285 69.1661 25.2853 70.6343 26.2952C72.1026 27.3052 73.215 28.7203 73.8232 30.352H71.8003C71.2473 29.2282 70.3805 28.2733 69.296 27.5931C68.2116 26.9129 66.9519 26.5341 65.6566 26.4987C65.2672 26.4861 64.8774 26.5102 64.4928 26.5708C61.132 26.9505 58.5787 30.0141 58.5787 33.2145C58.5831 34.9034 59.2565 36.5276 60.4626 37.7583C61.6687 38.989 63.3173 39.7342 65.0747 39.843C65.2291 39.843 65.3518 39.8695 65.4706 39.8695C66.7673 39.8622 68.0367 39.5117 69.1389 38.8565C70.2411 38.2014 71.1334 37.2671 71.7172 36.1567C71.7489 36.1111 71.7766 36.0846 71.8003 36.0466Z" fill="#D9D9D9"/>
<path d="M75.5491 39.7215L78.6565 33.7688C80.24 30.7848 81.8234 27.7781 83.3633 24.7714C83.387 24.7486 83.387 24.6992 83.4108 24.6992C83.4345 24.6992 83.4622 24.7486 83.4622 24.7714C83.7908 25.3788 84.1193 25.9862 84.4479 26.6164C85.5365 28.7234 86.6489 30.8342 87.7612 32.945C89.2536 35.853 90.7697 38.7648 92.3136 41.65H90.2393L89.4792 40.196C89.0834 39.4368 88.6875 38.6775 88.2917 37.9182C88.2402 37.8233 88.2402 37.8233 88.1412 37.8233H78.6407C78.6284 37.8242 78.6169 37.8293 78.6081 37.8376C78.5994 37.846 78.5941 37.8571 78.5932 37.8688L78.5417 37.9182L76.7208 41.4109C76.6899 41.4968 76.6473 41.5785 76.5941 41.6538H74.5357C74.8642 41.0085 75.1928 40.3517 75.5491 39.7215ZM79.6937 36.0466H87.1556C87.306 36.0466 87.306 36.0466 87.2308 35.9289C86.4391 34.4104 85.6474 32.945 84.9031 31.4416C84.4242 30.5418 83.9412 29.6459 83.4622 28.7234C83.4622 28.7006 83.4622 28.6778 83.4108 28.6778C83.3593 28.6778 83.387 28.7006 83.387 28.7234C83.0822 29.308 82.7814 29.8623 82.4765 30.4242C81.5423 32.2654 80.5804 34.0839 79.6185 35.9289C79.6029 35.9399 79.5902 35.9542 79.5813 35.9706C79.5723 35.9871 79.5675 36.0053 79.567 36.0238C79.6064 36.0419 79.6501 36.0498 79.6937 36.0466Z" fill="#D9D9D9"/>
<path d="M103.437 34.4863H96.9134V41.6386H95.041V24.6878H103.489C106.216 24.6878 108.267 27.015 108.267 29.5852C108.267 32.1553 106.244 34.4863 103.437 34.4863ZM106.394 29.6117C106.418 27.8882 105.104 26.4835 103.489 26.4569H96.9134V32.7134H103.437C105.056 32.7134 106.394 31.3315 106.394 29.6117Z" fill="#D9D9D9"/>
<path d="M111.35 41.6386V24.6878H113.219V41.6386H111.35Z" fill="#D9D9D9"/>
<path d="M116.397 24.6878H131.088V26.4835H124.667V41.669H122.822V26.4835H116.397V24.6878Z" fill="#D9D9D9"/>
<path d="M130.747 39.7215L133.859 33.7574C135.442 30.7734 137.025 27.7667 138.561 24.76C138.589 24.7372 138.589 24.6878 138.613 24.6878C138.637 24.6878 138.664 24.7372 138.664 24.76C138.993 25.3674 139.321 25.9748 139.65 26.605C140.735 28.712 141.847 30.8228 142.959 32.9336C144.452 35.8416 145.972 38.7534 147.512 41.6386H145.437L144.681 40.1847C144.285 39.4254 143.89 38.6661 143.494 37.9068C143.442 37.8119 143.442 37.8119 143.339 37.8119H133.839C133.826 37.8127 133.814 37.8176 133.805 37.8259C133.795 37.8342 133.789 37.8454 133.787 37.8575L133.74 37.9068L131.919 41.3995C131.885 41.4841 131.842 41.5654 131.792 41.6424H129.718C130.074 41.0084 130.395 40.3517 130.747 39.7215ZM134.896 36.0352H142.346C142.5 36.0352 142.5 36.0352 142.421 35.9175C141.629 34.399 140.838 32.9336 140.097 31.4302C139.614 30.5305 139.135 29.6345 138.656 28.712C138.656 28.6892 138.656 28.6664 138.605 28.6664C138.553 28.6664 138.581 28.6892 138.581 28.712C138.276 29.2966 137.972 29.8509 137.671 30.4128C136.732 32.254 135.775 34.0725 134.813 35.9175C134.797 35.9285 134.784 35.9428 134.775 35.9592C134.766 35.9757 134.762 35.9939 134.761 36.0124C134.802 36.0362 134.848 36.0481 134.896 36.0466V36.0352Z" fill="#D9D9D9"/>
<path d="M162 41.6386H149.206V24.6878H151.074V39.843H162V41.6386Z" fill="#D9D9D9"/>
<path d="M66.1435 2.33857H57.696V19.2894H59.5684V12.1294H66.0921C68.8987 12.1294 70.9215 9.82503 70.9215 7.2321C70.9215 4.63918 68.8749 2.33857 66.1435 2.33857ZM66.0921 10.3641H59.5684V4.10768H66.1435C67.7626 4.13046 69.0768 5.53892 69.0491 7.25868C69.0214 8.97844 67.7111 10.3641 66.0921 10.3641Z" fill="#D9D9D9"/>
<path d="M83.6681 15.9903C83.1337 15.4323 82.5795 14.897 82.0213 14.3655C81.4632 13.834 80.8615 13.2266 80.2796 12.6419C80.1053 12.4841 79.9451 12.3127 79.8006 12.1294H81.7798C81.9491 12.1337 82.1185 12.1261 82.2865 12.1066C82.5399 12.0801 82.7893 12.0345 83.0426 11.9852C84.0545 11.6987 84.9463 11.1133 85.591 10.3124C86.2357 9.51141 86.6004 8.53576 86.633 7.52442C86.6608 7.3152 86.6608 7.10344 86.633 6.89422C86.3797 4.41898 84.6894 2.47903 82.0569 2.33857H73.4669V19.2135C73.4669 19.2894 73.4669 19.2894 73.5183 19.2894H75.264C75.2878 19.2894 75.2878 19.2894 75.3393 19.2628V12.1294H77.1998C79.6145 14.5173 82.0292 16.8939 84.44 19.2894H87.0447C86.5143 18.7769 85.9838 18.2454 85.4613 17.7367C84.8556 17.152 84.2737 16.5712 83.6681 15.9903ZM75.3749 4.10768H81.8471C83.5414 4.10768 84.7052 5.53892 84.8042 7.06506C84.822 7.31922 84.8047 7.57452 84.7527 7.82434C84.6515 8.51253 84.2986 9.14384 83.7569 9.60558C83.2153 10.0673 82.5202 10.3294 81.7957 10.3451H75.3234V4.17981C75.3234 4.10768 75.2957 4.10768 75.3749 4.10768Z" fill="#D9D9D9"/>
<path d="M89.5584 19.2894H101.747V17.4937H91.4308V11.7004H100.053V9.92753L91.4308 9.90475V4.10768H101.747V2.33857H89.5584V19.2894Z" fill="#D9D9D9"/>
<path d="M112.063 4.20639C112.447 4.14258 112.837 4.11713 113.227 4.13046C114.997 4.1488 116.687 4.83802 117.929 6.04764C118.533 6.60148 119.022 7.25966 119.37 7.98758H121.393C120.785 6.35659 119.674 4.94208 118.206 3.93276C116.738 2.92344 114.985 2.36731 113.179 2.33857H113.076C112.823 2.33857 112.57 2.36135 112.316 2.36135C110.235 2.5574 108.291 3.44947 106.826 4.88133C105.362 6.3132 104.469 8.19359 104.304 10.1933C104.309 10.3557 104.299 10.5182 104.276 10.6792V10.945C104.299 11.0817 104.308 11.2203 104.304 11.3588C104.732 14.6085 106.172 16.8863 109.181 18.4162C110.346 18.9939 111.638 19.2934 112.95 19.2894H113.306C116.896 19.2894 120.182 16.9128 121.369 13.6859H119.39C119.366 13.7353 119.343 13.7581 119.315 13.8074C118.731 14.9171 117.84 15.8507 116.738 16.5052C115.637 17.1597 114.368 17.5097 113.072 17.5165C112.946 17.5165 112.819 17.4937 112.676 17.4937C110.916 17.3847 109.265 16.6374 108.059 15.4035C106.852 14.1696 106.181 12.5416 106.18 10.85C106.149 7.6497 108.698 4.59362 112.063 4.20639Z" fill="#D9D9D9"/>
<path d="M132.774 2.33856C131.025 2.33631 129.314 2.83197 127.858 3.76277C126.403 4.69357 125.268 6.01765 124.597 7.56736C123.927 9.11707 123.751 10.8227 124.092 12.4683C124.433 14.1139 125.276 15.6255 126.513 16.8116C127.75 17.9977 129.327 18.805 131.043 19.1313C132.759 19.4576 134.537 19.2882 136.153 18.6446C137.769 18.001 139.149 16.9121 140.119 15.5157C141.089 14.1194 141.605 12.4785 141.602 10.8007C141.604 9.68841 141.378 8.58659 140.935 7.55853C140.492 6.53048 139.842 5.59647 139.022 4.81014C138.201 4.02381 137.227 3.40067 136.155 2.97652C135.083 2.55236 133.934 2.33556 132.774 2.33856ZM132.774 17.4937C131.394 17.4937 130.044 17.1012 128.897 16.3657C127.749 15.6303 126.854 14.585 126.326 13.362C125.798 12.139 125.66 10.7933 125.929 9.49494C126.198 8.19663 126.863 7.00406 127.839 6.06802C128.815 5.13199 130.059 4.49454 131.412 4.23629C132.766 3.97804 134.169 4.11058 135.445 4.61716C136.72 5.12373 137.81 5.98159 138.577 7.08225C139.344 8.18291 139.753 9.47694 139.753 10.8007C139.755 11.6802 139.576 12.5514 139.226 13.3644C138.876 14.1773 138.362 14.9159 137.714 15.5378C137.065 16.1597 136.295 16.6527 135.447 16.9883C134.6 17.324 133.691 17.4957 132.774 17.4937Z" fill="#D9D9D9"/>
<path d="M153.311 10.6792C153.283 11.2866 153.283 11.8675 153.283 12.4749H159.68C159.369 13.6338 158.741 14.692 157.86 15.5403C156.98 16.3885 155.88 16.996 154.673 17.3001C154.396 17.3494 154.119 17.4216 153.841 17.4443C153.485 17.4671 153.133 17.4937 152.777 17.4937C149.087 17.4937 146.003 14.3427 146.003 10.85C146.012 10.2201 146.097 9.59323 146.257 8.98222C147.088 6.32476 149.162 4.7151 151.918 4.17981C152.269 4.13138 152.623 4.10727 152.978 4.10768C153.208 4.10768 153.41 4.13046 153.64 4.13046C154.6 4.23811 155.528 4.53228 156.367 4.99503C157.205 5.45779 157.937 6.07943 158.516 6.82209H160.717C159.953 5.45074 158.81 4.30727 157.414 3.51657C156.018 2.72587 154.422 2.31837 152.8 2.33857H152.294L151.763 2.4107C147.338 2.8245 144.127 6.82209 144.127 10.945C144.146 11.0706 144.154 11.1976 144.151 11.3246C144.547 14.5249 145.999 16.9015 149.008 18.3783C149.674 18.6953 150.379 18.9312 151.106 19.0806C151.383 19.1565 151.66 19.1793 151.941 19.2287C152.336 19.2697 152.732 19.2862 153.129 19.278C153.261 19.2835 153.394 19.2746 153.525 19.2514C153.675 19.2514 153.826 19.2287 153.98 19.2287C156.102 18.8148 157.646 18.2833 159.237 16.7534C160.34 15.6794 161.118 14.3385 161.489 12.8735C161.582 12.5472 161.65 12.2147 161.691 11.8789C161.715 11.6131 161.743 11.3474 161.766 11.0816V10.6678L153.311 10.6792Z" fill="#D9D9D9"/>
<path d="M18.0787 26.643H27.7574V17.3608H18.0787V26.643Z" fill="#D9D9D9"/>
<path d="M22.9201 0C18.3838 0.00375356 13.9506 1.29723 10.1808 3.7169C6.41094 6.13657 3.47375 9.5738 1.74052 13.5941C0.00729099 17.6144 -0.444161 22.0373 0.443211 26.3036C1.33058 30.57 3.51694 34.4882 6.72592 37.5631C9.9349 40.6379 14.0224 42.7313 18.4718 43.5787C22.9211 44.426 27.5326 43.9892 31.7231 42.3235C35.9137 40.6578 39.4952 37.838 42.015 34.2206C44.5348 30.6031 45.8797 26.3504 45.8797 22C45.8744 16.1635 43.4532 10.5678 39.148 6.4425C34.8428 2.31724 29.0059 -2.16874e-06 22.9201 0ZM34.5899 33.1955H20.9249L14.0885 26.6392L11.2463 23.8982V10.8045H24.9152L31.7476 17.3608L34.5938 20.1018L34.5899 33.1955Z" fill="#D9D9D9"/>
</svg>
