<svg width="170" height="25" viewBox="0 0 170 25" fill="none" xmlns="http://www.w3.org/2000/svg">
<path d="M76.7794 0V8.66871H75.7888V1.8746L72.4201 8.66871H70.8209L67.4573 1.8746V8.66871H66.4668V0H67.6636L71.6205 7.9803L75.5773 0H76.7794Z" fill="#CCDAE7"/>
<path d="M90.3317 8.66871L86.6637 0H85.2141L81.5461 8.66871H82.6295L85.9415 0.831392L89.2535 8.66871H90.3317Z" fill="#CCDAE7"/>
<path d="M100.866 3.23211e-07H95.0933V8.66871H100.866C102.713 8.66871 103.538 7.82144 103.538 5.92565V2.74836C103.538 0.84728 102.713 3.23211e-07 100.866 3.23211e-07ZM102.532 5.69265C102.532 6.95298 101.851 7.65198 100.608 7.65198H96.0838V1.00085H100.613C101.851 1.00085 102.532 1.69456 102.532 2.95488V5.69265Z" fill="#CCDAE7"/>
<path d="M10.3126 16.3207V24.9894H9.32206V18.1953L5.95849 24.9894H4.35924L0.990502 18.1953V24.9894H0V16.3207H1.20201L5.1537 24.3063L9.11055 16.3207H10.3126Z" fill="#CCDAE7"/>
<path d="M49.9687 24.9894L46.306 16.3207H44.8512L41.1884 24.9894H42.2666L45.5785 17.1521L48.8957 24.9894H49.9687Z" fill="#CCDAE7"/>
<path d="M60.0492 24.9894C61.896 24.9894 62.7163 24.2427 62.7163 22.5694C62.7163 20.896 61.896 20.1493 60.0492 20.1493H57.2531C55.5197 20.1493 55.2617 19.265 55.2617 18.7407C55.2617 18.2165 55.5197 17.3374 57.2531 17.3374H62.7163V16.3207H56.9435C55.0966 16.3207 54.2712 17.0674 54.2712 18.7407C54.2712 20.4141 55.0966 21.1661 56.9435 21.1661H59.7396C61.4679 21.1661 61.7258 22.0451 61.7258 22.5694C61.7258 23.0936 61.4679 23.9727 59.7396 23.9727H54.2712V24.9894H60.0492Z" fill="#CCDAE7"/>
<path d="M76.4079 24.9894V23.9727H70.8931C70.6315 24.0039 70.3663 23.9741 70.1175 23.8854C69.8686 23.7967 69.6425 23.6515 69.456 23.4606C69.2696 23.2697 69.1275 23.038 69.0404 22.7828C68.9534 22.5276 68.9236 22.2555 68.9534 21.9869V19.3391C68.9236 19.0712 68.9532 18.7998 69.04 18.5452C69.1268 18.2907 69.2685 18.0595 69.4545 17.8691C69.6405 17.6787 69.8661 17.5338 70.1143 17.4454C70.3625 17.357 70.627 17.3274 70.8879 17.3586H76.4079V16.3419H70.6248C68.778 16.3419 67.9525 17.1891 67.9525 19.0849V22.2622C67.9525 24.1527 68.778 25 70.6248 25L76.4079 24.9894Z" fill="#CCDAE7"/>
<path d="M82.645 16.3207H81.6545V24.9894H82.645V16.3207Z" fill="#CCDAE7"/>
<path d="M96.3366 17.3374V16.3207H87.8915V24.9894H96.3366V23.9727H88.882V21.1661H96.3366V20.1493H88.882V17.3374H96.3366Z" fill="#CCDAE7"/>
<path d="M24.4375 17.3374V16.3207H15.9925V24.9894H24.4375V23.9727H16.983V21.1661H24.4375V20.1493H16.983V17.3374H24.4375Z" fill="#CCDAE7"/>
<path d="M110.023 24.9894V16.3207H109.033V23.7503L102.842 16.3207H101.583V24.9894H102.569V17.5598L108.769 24.9894H110.023Z" fill="#CCDAE7"/>
<path d="M119.99 24.9894V17.3374H123.715V16.3207H115.275V17.3374H118.999V24.9894H119.99Z" fill="#CCDAE7"/>
<path d="M34.3116 24.9894V17.3374H38.0363V16.3207H29.5964V17.3374H33.3211V24.9894H34.3116Z" fill="#CCDAE7"/>
<path d="M129.952 16.3207H128.961V24.9894H129.952V16.3207Z" fill="#CCDAE7"/>
<path d="M140.976 24.9894C142.823 24.9894 143.643 24.2427 143.643 22.5694C143.643 20.896 142.823 20.1493 140.976 20.1493H138.206C136.478 20.1493 136.22 19.265 136.22 18.7407C136.22 18.2165 136.478 17.3374 138.206 17.3374H143.669V16.3207H137.896C136.05 16.3207 135.229 17.0674 135.229 18.7407C135.229 20.4141 136.05 21.1661 137.896 21.1661H140.693C142.421 21.1661 142.684 22.0451 142.684 22.5694C142.684 23.0936 142.421 23.9727 140.693 23.9727H135.229V24.9894H140.976Z" fill="#CCDAE7"/>
<path d="M153.094 24.9894V17.3374H156.824V16.3207H148.379L148.384 17.3374H152.104V24.9894H153.094Z" fill="#CCDAE7"/>
<path d="M167.333 24.9894C169.18 24.9894 170 24.2427 170 22.5694C170 20.896 169.18 20.1493 167.333 20.1493H164.516C162.788 20.1493 162.53 19.265 162.53 18.7407C162.53 18.2165 162.788 17.3374 164.516 17.3374H169.979V16.3207H164.207C162.36 16.3207 161.539 17.0674 161.539 18.7407C161.539 20.4141 162.36 21.1661 164.207 21.1661H167.003C168.731 21.1661 168.989 22.0451 168.989 22.5694C168.989 23.0936 168.731 23.9727 167.003 23.9727H161.539V24.9894H167.333Z" fill="#CCDAE7"/>
</svg>
