<svg width="89" height="65" viewBox="0 0 89 65" fill="none" xmlns="http://www.w3.org/2000/svg">
<path d="M15.3097 29.7533H16.1058L15.5899 30.2968C15.4773 30.1256 15.3835 29.9434 15.3097 29.7533Z" fill="#CCDAE7"/>
<path d="M53.5846 22.7119V22.6934H53.6037L53.5846 22.7119Z" fill="#CCDAE7"/>
<path d="M64.7805 31.0875H65.5065V31.736L64.7805 31.0875Z" fill="#CCDAE7"/>
<path d="M74.6645 32.3969H66.2835L66.1816 32.3043V31.0689H68.2259C67.6356 30.5992 67.1722 29.9972 66.8757 29.3148H67.882C67.2639 28.8046 66.7647 28.173 66.4172 27.4618H67.2642C66.7514 27.1461 66.3806 26.6541 66.2261 26.0844H66.6784C66.2297 25.6047 65.943 25.0033 65.8568 24.3611C65.8568 24.3117 65.8568 24.3611 65.8568 24.3611C65.7748 25.0033 65.4901 25.6052 65.0416 26.0844H65.4874C65.3369 26.6541 64.9679 27.1468 64.4557 27.4618H65.3027C64.9552 28.173 64.4559 28.8046 63.8379 29.3148H64.8379C64.6665 29.7306 64.4231 30.115 64.1182 30.4513L54.5208 21.9028L54.1323 22.2548C54.0542 22.152 53.99 22.0399 53.9413 21.9213H54.3807C54.1123 21.7027 53.8951 21.4311 53.7438 21.1245H54.1196C53.8912 20.984 53.7289 20.7622 53.6674 20.5068H53.8585C53.6612 20.298 53.5364 20.0345 53.5018 19.7533C53.4672 20.0345 53.3425 20.298 53.1452 20.5068H53.3362C53.2748 20.7622 53.1125 20.984 52.8841 21.1245H53.2598C53.1085 21.4311 52.8914 21.7027 52.623 21.9213H53.0624C52.9346 22.2208 52.7308 22.4843 52.4701 22.6872H53.3681V22.9713L51.5212 24.6143L54.4762 29.6545V29.7101L54.4253 29.6421L50.9799 25.0096L40.198 10.5377L34.6001 18.1844C34.4719 18.0293 34.3609 17.8616 34.2689 17.6841H34.6446C34.4163 17.5436 34.2539 17.3218 34.1925 17.0664H34.3835C34.1903 16.855 34.0662 16.5928 34.0269 16.3129C33.991 16.5937 33.8664 16.8569 33.6702 17.0664H33.8677C33.8032 17.3205 33.6415 17.5413 33.4155 17.6841H33.7849C33.6336 17.9907 33.4164 18.2623 33.148 18.4809H33.5874C33.4579 18.7795 33.2545 19.0426 32.9952 19.2468H33.8422L32.8169 20.6489L37.2048 26.6835L35.9311 25.3308L32.4857 21.7792L28.0914 17.2394L16.2332 29.6915C15.6714 29.2058 15.2127 28.6183 14.883 27.9621H15.7365C15.2215 27.6487 14.8499 27.1557 14.6984 26.5847H15.1442C14.6978 26.1042 14.4134 25.5029 14.329 24.8614C14.329 24.812 14.329 24.8614 14.329 24.8614C14.2482 25.5039 13.9633 26.1062 13.5138 26.5847H13.9596C13.8091 27.1544 13.4401 27.6471 12.9279 27.9621H13.7749C13.43 28.6748 12.9304 29.3069 12.3102 29.8151H13.31C13.0165 30.4991 12.5526 31.1018 11.9599 31.5692H14.0106V32.0263L13.4374 32.644L5.05644 32.6749C4.97365 14.7008 20.5129 0.074403 39.7522 0.000282964C58.9915 -0.0738371 74.588 14.4228 74.6645 32.3969Z" fill="#CCDAE7"/>
<path d="M5.59136 59.8213L5.3876 60.7169H7.00515L6.06262 64.8615H7.20261L8.13877 60.7169H9.7564L9.96016 59.8213H5.59136Z" fill="#CCDAE7"/>
<path d="M16.3606 61.0567C16.0685 61.0518 15.7818 61.1337 15.539 61.2914C15.3419 61.4384 15.1644 61.6085 15.0104 61.7979L15.1569 61.1802H14.157L13.3164 64.8862H14.3608L14.7684 63.1073C14.8096 62.8695 14.9005 62.6425 15.0359 62.4402C15.1494 62.309 15.2936 62.2059 15.4564 62.1393C15.6191 62.0727 15.7959 62.0446 15.9721 62.0573H16.265L16.4943 61.0567H16.3606Z" fill="#CCDAE7"/>
<path d="M24.041 63.9288L24.4359 62.2179C24.5378 61.767 24.4359 61.4643 24.1302 61.3037C23.7885 61.1312 23.4071 61.0461 23.0221 61.0567C22.4654 61.02 21.9162 61.1975 21.4936 61.5508C21.2633 61.7723 21.0983 62.0495 21.016 62.3538H22.0222C22.0714 62.2267 22.1473 62.111 22.2451 62.014C22.402 61.8886 22.6028 61.8266 22.8056 61.8411C22.9718 61.8311 23.1379 61.8608 23.2896 61.9276C23.3401 61.9631 23.3769 62.014 23.3942 62.0722C23.4115 62.1304 23.4083 62.1926 23.385 62.2488C23.3672 62.315 23.3312 62.3754 23.2807 62.4233C23.2302 62.4711 23.1672 62.5048 23.0985 62.5205C22.9582 62.5661 22.8128 62.5951 22.6654 62.607L22.3024 62.6502C21.9678 62.6757 21.6403 62.7572 21.3344 62.8911C21.1311 62.9838 20.9532 63.1216 20.8149 63.2932C20.6766 63.4649 20.5819 63.6657 20.5383 63.8794C20.4914 64.0187 20.4819 64.1673 20.5109 64.311C20.5399 64.4548 20.6063 64.589 20.7039 64.7009C20.8141 64.8016 20.9445 64.8793 21.0869 64.9292C21.2293 64.9791 21.3807 65.0002 21.5318 64.9912C21.8128 64.9923 22.09 64.9288 22.3407 64.8059C22.5495 64.7072 22.7443 64.5826 22.9201 64.4353C22.9146 64.5114 22.9146 64.5878 22.9201 64.6638C22.9078 64.7333 22.9078 64.8044 22.9201 64.8738H24.0538V64.7318C24.0004 64.7078 23.9575 64.6662 23.9328 64.6144C23.908 64.5296 23.908 64.4398 23.9328 64.355C23.9837 64.1882 24.0155 64.0462 24.041 63.9288ZM23.1176 63.4223C23.0936 63.5585 23.0411 63.6885 22.9633 63.8043C22.8855 63.9201 22.7841 64.0192 22.6654 64.0956C22.4738 64.2109 22.254 64.2749 22.0285 64.2809C21.9055 64.2868 21.7849 64.2471 21.6911 64.1697C21.6496 64.1203 21.622 64.0614 21.6108 63.9987C21.5997 63.9359 21.6054 63.8714 21.6274 63.8115C21.6486 63.7226 21.6899 63.6394 21.7483 63.5678C21.8066 63.4963 21.8806 63.4381 21.9649 63.3976C22.1246 63.3282 22.2942 63.2824 22.468 63.2617L22.71 63.2247C22.8088 63.207 22.9066 63.1843 23.0029 63.1567C23.0774 63.1311 23.1498 63.1001 23.2195 63.0641L23.1176 63.4223Z" fill="#CCDAE7"/>
<path d="M29.9637 61.1493L29.1167 64.8553H30.1739L31.0209 61.1493H29.9637ZM30.2694 59.8028L30.0657 60.7046H31.1228L31.3266 59.8028H30.2694Z" fill="#CCDAE7"/>
<path d="M36.6952 59.8213L35.549 64.8615H36.5934L37.7397 59.8213H36.6952Z" fill="#CCDAE7"/>
<path d="M46.0825 61.5384C45.9906 61.3753 45.8448 61.247 45.6686 61.174C45.4677 61.0896 45.2506 61.0475 45.0317 61.0505C44.8128 61.0536 44.5966 61.0976 44.3949 61.1802C44.1491 61.283 43.9312 61.4394 43.758 61.6373L44.1655 59.8522H43.1274L41.9875 64.8738H43.0256L43.4841 62.8602C43.5316 62.5815 43.6648 62.3231 43.8662 62.119C43.957 62.0353 44.0639 61.9698 44.1808 61.9264C44.2978 61.8829 44.4225 61.8623 44.5477 61.8658C44.8152 61.8658 44.9744 61.9523 45.0317 62.1252C45.0768 62.2828 45.0768 62.4494 45.0317 62.607L44.5158 64.8738H45.5794L46.0825 62.6873C46.1393 62.4493 46.1798 62.2079 46.2035 61.9646C46.2069 61.8142 46.1648 61.666 46.0825 61.5384Z" fill="#CCDAE7"/>
<path d="M54.7055 63.2803C54.7695 63.0392 54.812 62.7933 54.8328 62.5452C54.8624 62.2815 54.8184 62.0148 54.7055 61.7732C54.6004 61.536 54.4136 61.3416 54.1769 61.2234C53.908 61.1018 53.6136 61.0426 53.3171 61.0505C52.7755 61.0455 52.2496 61.2272 51.8332 61.5631C51.3826 61.9492 51.0797 62.4716 50.9735 63.0455C50.8794 63.2941 50.8523 63.5618 50.8946 63.8234C50.9369 64.0849 51.0474 64.3317 51.2155 64.5403C51.384 64.6973 51.5841 64.8189 51.8032 64.8975C52.0224 64.9762 52.2559 65.0102 52.4892 64.9974C53.0612 65.0125 53.6181 64.8185 54.0495 64.4538C54.2807 64.277 54.4607 64.0451 54.5717 63.7806H53.5082C53.4362 63.8764 53.3504 63.9617 53.2534 64.0338C53.0897 64.1513 52.8902 64.2122 52.6866 64.2068C52.513 64.2166 52.3414 64.1663 52.2026 64.0647C52.095 63.9665 52.0192 63.8401 51.9841 63.7008C51.9491 63.5616 51.9564 63.4155 52.0052 63.2803H54.7055ZM52.521 62.0449C52.6965 61.8964 52.9254 61.8209 53.1579 61.8349C53.2537 61.828 53.3499 61.8422 53.4392 61.8764C53.5285 61.9106 53.6087 61.964 53.6738 62.0326C53.7371 62.1158 53.7808 62.2115 53.8017 62.3129C53.8226 62.4143 53.8202 62.5189 53.7947 62.6194H52.158C52.2341 62.4084 52.3607 62.2178 52.5274 62.0635L52.521 62.0449Z" fill="#CCDAE7"/>
<path d="M62.8509 63.9288L63.2394 62.2179C63.3476 61.767 63.2394 61.4643 62.94 61.3037C62.5984 61.1312 62.2169 61.0461 61.8319 61.0567C61.2734 61.021 60.7227 61.1983 60.2971 61.5508C60.0708 61.7742 59.9084 62.051 59.8258 62.3538H60.832C60.8812 62.2267 60.9571 62.111 61.0549 62.014C61.2118 61.8886 61.4125 61.8266 61.6153 61.8411C61.7815 61.8311 61.9477 61.8608 62.0994 61.9276C62.1482 61.9644 62.1838 62.0154 62.201 62.0731C62.2181 62.1308 62.216 62.1923 62.1949 62.2488C62.1771 62.315 62.141 62.3754 62.0905 62.4233C62.04 62.4711 61.9771 62.5048 61.9084 62.5205C61.7681 62.5661 61.6227 62.5951 61.4753 62.607L61.1123 62.6502C60.7777 62.6757 60.4501 62.7572 60.1443 62.8911C59.941 62.9838 59.763 63.1216 59.6247 63.2932C59.4864 63.4649 59.3917 63.6657 59.3482 63.8794C59.3 64.0185 59.2898 64.1674 59.3189 64.3114C59.3479 64.4554 59.4151 64.5896 59.5138 64.7009C59.624 64.8016 59.7543 64.8793 59.8967 64.9292C60.0391 64.9791 60.1905 65.0002 60.3416 64.9912C60.6226 64.9923 60.8997 64.9288 61.1505 64.8059C61.3593 64.7072 61.5542 64.5826 61.73 64.4353C61.7245 64.5114 61.7245 64.5878 61.73 64.6638C61.7177 64.7333 61.7177 64.8044 61.73 64.8738H62.8636V64.7318C62.8098 64.7062 62.7653 64.6653 62.7362 64.6144C62.7158 64.5291 62.7158 64.4403 62.7362 64.355C62.7935 64.1882 62.8254 64.0462 62.8509 63.9288ZM61.9274 63.4223C61.9034 63.5585 61.8508 63.6885 61.7731 63.8043C61.6953 63.9201 61.594 64.0192 61.4753 64.0956C61.2836 64.211 61.0639 64.2749 60.8384 64.2809C60.7154 64.2868 60.5947 64.2471 60.5009 64.1697C60.4576 64.1213 60.4289 64.0623 60.4177 63.9992C60.4064 63.936 60.4132 63.8711 60.4372 63.8115C60.4584 63.7226 60.4997 63.6394 60.5581 63.5678C60.6164 63.4963 60.6904 63.4381 60.7747 63.3976C60.9342 63.3273 61.1038 63.2814 61.2778 63.2617L61.5198 63.2247C61.6186 63.207 61.7164 63.1843 61.8128 63.1567C61.8872 63.1311 61.9596 63.1001 62.0293 63.0641L61.9274 63.4223Z" fill="#CCDAE7"/>
<path d="M71.6266 59.8213L71.2191 61.594C71.1455 61.4244 71.0184 61.2816 70.856 61.1864C70.6734 61.0806 70.4637 61.027 70.2511 61.032C69.9944 61.0289 69.7398 61.076 69.5023 61.1704C69.2649 61.2649 69.0495 61.4047 68.8691 61.5817C68.4458 61.9896 68.1613 62.5133 68.0539 63.0826C67.9843 63.3073 67.9636 63.5436 67.9932 63.7765C68.0228 64.0094 68.1021 64.2337 68.2258 64.4353C68.3365 64.6064 68.4922 64.7458 68.6769 64.8392C68.8616 64.9326 69.0686 64.9765 69.2767 64.9665C69.5342 64.9738 69.7898 64.9208 70.0218 64.8121C70.266 64.6956 70.4827 64.5316 70.6587 64.3303L70.5376 64.8491H71.5502L72.6966 59.8213H71.6266ZM70.9197 63.0394C70.8633 63.3367 70.722 63.6127 70.5121 63.8362C70.417 63.9352 70.3016 64.0139 70.1733 64.0671C70.045 64.1203 69.9066 64.1468 69.767 64.145C69.6477 64.1578 69.5271 64.1352 69.4213 64.08C69.3156 64.0248 69.2295 63.9398 69.1747 63.8362C69.082 63.5676 69.082 63.2771 69.1747 63.0085C69.2338 62.7145 69.3698 62.4401 69.5696 62.2117C69.6601 62.106 69.7743 62.0216 69.9033 61.9649C70.0324 61.9082 70.1731 61.8807 70.3147 61.8843C70.4038 61.8796 70.4929 61.8932 70.5763 61.924C70.6597 61.9549 70.7355 62.0024 70.7987 62.0635C70.906 62.206 70.9734 62.3731 70.9947 62.5484C71.0158 62.7237 70.99 62.9013 70.9197 63.0641V63.0394Z" fill="#CCDAE7"/>
<path d="M89 42.4587L79.9121 44.3797C75.2185 42.3537 45.7895 40.3895 28.0786 39.3704C20.1816 38.9195 14.6092 38.6477 14.6092 38.6477L23.6653 37.4124V36.2264H20.9841C21.7567 35.6142 22.3624 34.8273 22.7481 33.9349H21.4744C22.2765 33.2763 22.9273 32.462 23.385 31.5445H22.226C22.8995 31.1339 23.385 30.4884 23.5825 29.7409H22.9902C23.5803 29.1152 23.9563 28.3277 24.0665 27.4865C24.0665 27.4185 24.1046 27.4865 24.1046 27.4865C24.2149 28.3277 24.5909 29.1152 25.181 29.7409H24.595C24.7915 30.4871 25.2745 31.1323 25.9452 31.5445H24.837C25.2947 32.462 25.9456 33.2763 26.7476 33.9349H25.4357C25.8215 34.8273 26.4273 35.6142 27.1998 36.2264H24.5186V37.2641L51.0563 33.5581L31.1674 30.723L39.1917 29.5556L36.1094 26.1708L32.422 23.2307L33.4856 26.807L28.6773 18.9009L28.0404 17.1961L32.4411 21.7298L34.307 22.6748L36.9181 24.8614C36.9756 24.7798 37.0247 24.6929 37.0647 24.602H36.6634C36.9076 24.404 37.1052 24.1575 37.2429 23.8793H36.9118C37.1131 23.7568 37.2587 23.5647 37.3194 23.3419H37.1475C37.3209 23.1512 37.4318 22.9146 37.4659 22.6625C37.5 22.9146 37.6109 23.1512 37.7843 23.3419H37.6124C37.6699 23.5661 37.8164 23.7592 38.02 23.8793H37.6824C37.8227 24.156 38.02 24.4019 38.262 24.602H37.8607C37.9803 24.8702 38.1636 25.1073 38.3957 25.2937H37.5932V25.4358L42.5543 29.6174L37.3895 30.7848L43.5924 31.4025V30.9886H42.6116C42.89 30.7644 43.1085 30.4784 43.2485 30.1548H42.7645C43.0589 29.9119 43.2994 29.6135 43.4714 29.2777H43.0574C43.2976 29.1402 43.4752 28.9195 43.5542 28.66H43.344C43.5533 28.427 43.6863 28.1389 43.7261 27.8324C43.7707 28.14 43.9081 28.4279 44.121 28.66H43.9108C43.9916 28.9168 44.1658 29.1364 44.4012 29.2777H43.9999C44.1658 29.6154 44.4048 29.9146 44.7005 30.1548H44.2165C44.3572 30.478 44.5755 30.7639 44.8534 30.9886H43.8726V31.4334L52.4001 32.261L62.5261 31.8534L54.7755 29.8892L54.3743 29.6112L50.9289 24.9787L51.4384 24.5772L54.5526 29.4877L55.0367 29.8336L64.5894 31.9893L55.406 32.5513L61.5198 33.1381L31.5877 38.6971C65.2963 39.5742 81.6061 41.0257 89 42.4587Z" fill="#CCDAE7"/>
<path d="M43.9427 16.492L44.5668 20.3956L40.2043 10.4883L46.0443 18.3326L43.9427 16.492Z" fill="#CCDAE7"/>
<path d="M58.0744 26.0288L60.9021 27.6347L54.4698 21.9089L59.501 29.6112L58.0744 26.0288Z" fill="#CCDAE7"/>
<path d="M29.1358 22.7613L31.2884 27.3506L29.1358 24.9479V22.7613Z" fill="#CCDAE7"/>
<path d="M45.7641 25.0529L42.5798 22.2054L40.9303 16.8811L41.236 17.0726L43.3504 21.6372L45.3055 22.8663L44.0318 22.5698L45.7641 25.0529Z" fill="#CCDAE7"/>
<path d="M13.0299 41.6434C12.9117 41.4867 12.7473 41.3683 12.5585 41.3037C12.3929 41.246 12.2974 41.2893 12.272 41.4334C12.2497 41.5825 12.1811 41.7215 12.0753 41.8319C11.9695 41.9422 11.8314 42.0187 11.6797 42.051C11.2379 42.1824 10.7789 42.2511 10.3169 42.2549C9.76281 42.2549 9.13232 42.2549 8.40631 42.2178C7.6803 42.1808 6.97974 42.1437 6.24099 42.119C5.50224 42.0943 4.76983 42.119 4.06293 42.119C3.41747 42.1432 2.77674 42.2364 2.15237 42.3969C1.62072 42.5297 1.12664 42.7767 0.706698 43.1196C0.311434 43.4619 0.0636162 43.936 0.01255 44.4476C-0.0287042 44.7127 0.0325482 44.9833 0.184513 45.2073C0.333869 45.4383 0.533954 45.6344 0.770446 45.7818C1.0215 45.9453 1.29922 46.0664 1.59193 46.14C1.88056 46.2246 2.18299 46.2561 2.48354 46.2327C2.73325 46.2153 2.97429 46.1366 3.18407 46.0041C3.28892 45.9351 3.37575 45.8434 3.43766 45.7362C3.49956 45.6289 3.53488 45.5092 3.54074 45.3864C3.3925 45.3762 3.24656 45.345 3.10765 45.2938C3.02486 45.2506 2.993 45.1332 3.01848 44.9356C3.04395 44.7379 3.2987 44.4352 3.7445 44.2808C4.2886 44.1045 4.84981 43.9824 5.41943 43.9164C6.05628 43.8238 6.81417 43.762 7.60387 43.7249C8.39357 43.6879 9.15138 43.6323 9.87103 43.5829C10.5907 43.5334 11.2339 43.4655 11.7816 43.379C12.1884 43.354 12.5804 43.2216 12.9152 42.9961C13.0342 42.9144 13.1312 42.8061 13.1977 42.6802C13.2642 42.5544 13.2984 42.4148 13.2973 42.2734C13.2755 42.0421 13.1823 41.8225 13.0299 41.6434ZM10.6098 45.3062C10.5732 45.1207 10.4978 44.9444 10.3882 44.7883C10.2787 44.6321 10.1374 44.4994 9.97294 44.3982C9.67812 44.2195 9.34457 44.1095 8.99854 44.077C8.69852 44.0417 8.39417 44.08 8.1133 44.1882C7.85856 44.2932 7.75029 44.4291 7.7885 44.5897C7.80287 44.8776 7.77934 45.1661 7.71846 45.4482C7.65477 45.8868 7.55289 46.4118 7.41278 47.0109C7.27267 47.61 7.11983 48.2462 6.93514 48.938C6.75045 49.6298 6.56576 50.2784 6.37471 50.8899C6.18365 51.5014 5.98621 52.0511 5.79515 52.5267C5.6723 52.8693 5.50087 53.1936 5.28571 53.4902C5.23403 53.5361 5.19736 53.5957 5.18037 53.6616C5.16339 53.7275 5.16681 53.7968 5.19017 53.8608C5.25451 53.9919 5.36861 54.0937 5.5086 54.145C5.70793 54.2368 5.92484 54.2873 6.14545 54.2932C6.3897 54.3213 6.63704 54.3109 6.87785 54.2623C7.14559 54.2077 7.40041 54.105 7.62929 53.9597C7.8851 53.8008 8.10238 53.5901 8.26614 53.342C8.68152 52.6838 9.04971 51.9986 9.36796 51.2913C9.69524 50.5768 9.97389 49.8423 10.2022 49.0924C10.4071 48.4132 10.5561 47.7192 10.648 47.0171C10.7292 46.4484 10.7164 45.8709 10.6098 45.3062Z" fill="#CCDAE7"/>
<path d="M20.4746 48.938C20.2008 48.938 20.048 48.8577 20.0161 48.691C19.978 48.4867 19.978 48.2775 20.0161 48.0733C20.0607 47.8262 20.1053 47.5545 20.1562 47.2642C20.2067 46.9936 20.1848 46.715 20.0925 46.455C19.9743 46.1871 19.7623 45.9683 19.4939 45.8373C19.03 45.6449 18.5263 45.5603 18.0228 45.5903C17.6761 45.5875 17.3336 45.6637 17.0229 45.8126C16.7065 45.9668 16.4148 46.1644 16.1567 46.3994C15.8803 46.6503 15.6308 46.9276 15.4117 47.2271C15.1793 47.5246 14.9666 47.8362 14.7748 48.1598C14.7748 47.9498 14.7748 47.7439 14.7748 47.5421V46.8503C14.7851 46.6054 14.7161 46.3635 14.5774 46.1585C14.4484 45.9847 14.275 45.8463 14.0742 45.7571C13.8716 45.6736 13.6567 45.6215 13.4374 45.6026C13.2241 45.5851 13.0092 45.5997 12.8005 45.6459C12.6307 45.6819 12.4704 45.7513 12.3293 45.8497C12.2019 45.9362 12.1509 46.0288 12.1764 46.1338C12.2034 46.3802 12.2034 46.6287 12.1764 46.875C12.1764 47.2456 12.1064 47.6718 12.0363 48.1598C11.9663 48.6477 11.8835 49.1666 11.7816 49.7225C11.6797 50.2784 11.5714 50.8034 11.4504 51.3099C11.34 51.7683 11.2018 52.22 11.0365 52.6626C10.9363 52.9682 10.7857 53.256 10.5907 53.5149C10.5378 53.5614 10.5018 53.6232 10.488 53.691C10.4743 53.7589 10.4834 53.8293 10.5142 53.8917C10.5945 54.0302 10.72 54.1388 10.8709 54.2006C11.072 54.2894 11.2875 54.3437 11.5078 54.3612C11.7604 54.3908 12.0164 54.3804 12.2656 54.3303C12.528 54.2709 12.7765 54.164 12.998 54.0153C13.2392 53.8423 13.4283 53.6098 13.5457 53.342C13.8322 52.7243 14.0552 52.1993 14.2208 51.7299C14.3732 51.287 14.4965 50.8352 14.5901 50.3772C14.7109 50.2859 14.8035 50.1641 14.8576 50.0251C15.0423 49.6422 15.2588 49.2407 15.4945 48.8207C15.7241 48.4259 15.9771 48.0444 16.2523 47.678C16.48 47.374 16.7357 47.0907 17.0165 46.8318C17.1813 46.652 17.4074 46.5357 17.6533 46.5044C17.7361 46.5044 17.768 46.5662 17.7361 46.6959C17.6894 46.8639 17.632 47.0289 17.5642 47.19C17.4878 47.3939 17.3923 47.6224 17.2967 47.8695C17.1963 48.1113 17.1278 48.3645 17.0929 48.623C17.0639 48.8561 17.0768 49.0922 17.1312 49.321C17.1539 49.4278 17.1997 49.5287 17.2656 49.617C17.3314 49.7054 17.4158 49.7792 17.5132 49.8337C17.7377 49.9747 17.9975 50.0537 18.2648 50.0622C18.5307 50.0762 18.7973 50.0491 19.0545 49.9819C19.3086 49.9189 19.5543 49.8277 19.7869 49.7101C19.9849 49.6153 20.1727 49.5015 20.3473 49.3704C20.4551 49.2993 20.5409 49.2011 20.5956 49.0863C20.6465 48.9813 20.5956 48.938 20.4746 48.938Z" fill="#CCDAE7"/>
<path d="M32.7022 50.1054C32.6886 50.0491 32.6621 49.9966 32.6246 49.9516C32.5871 49.9067 32.5396 49.8706 32.4857 49.846C32.4342 49.8117 32.3758 49.7885 32.3143 49.7778C32.2528 49.7672 32.1896 49.7694 32.1291 49.7842C32.071 49.797 32.0162 49.8212 31.968 49.8551C31.9198 49.8891 31.8793 49.9322 31.8488 49.9819C31.8335 50.0056 31.8165 50.0283 31.7979 50.0498L31.4158 50.6057C31.28 50.7869 31.1207 50.9928 30.9382 51.2234C30.7471 51.4458 30.5497 51.6805 30.3395 51.909C30.2631 51.9835 30.1909 52.0619 30.123 52.1437C30.0427 52.2363 29.9577 52.325 29.8682 52.4093C29.7773 52.494 29.6769 52.5686 29.5689 52.6317C29.4792 52.6929 29.3729 52.7273 29.2632 52.7305C29.1486 52.7305 29.0722 52.6379 29.0276 52.4587C28.9786 52.2314 28.9593 51.999 28.9702 51.7669C28.9813 51.461 29.009 51.1559 29.053 50.8528C29.0955 50.5452 29.1551 50.24 29.2314 49.9387C29.3142 49.636 29.4033 49.3642 29.4925 49.1295C29.549 48.9525 29.6421 48.7885 29.7663 48.6477C29.8555 48.5695 29.7981 48.4707 29.5943 48.3512C29.3523 48.2203 29.0862 48.1364 28.811 48.1042C28.4648 48.0598 28.1131 48.0766 27.773 48.1536C27.402 48.2303 27.0732 48.437 26.8496 48.7342L26.7923 48.8083L26.7222 48.938C26.6916 48.9848 26.666 49.0345 26.6457 49.0863C26.6043 49.1562 26.5722 49.2309 26.5502 49.3086C26.1683 50.0993 25.6916 50.8436 25.1301 51.5261C24.7727 51.9741 24.3718 52.3878 23.9328 52.7614C23.6462 52.9961 23.4297 53.0888 23.2959 53.0332C23.2137 52.9999 23.1424 52.9455 23.0897 52.8758C23.037 52.8062 23.0047 52.7239 22.9966 52.6379C22.9574 52.3778 22.9574 52.1135 22.9966 51.8534C23.0339 51.5349 23.1021 51.2206 23.2004 50.9146C23.3503 50.4561 23.5378 50.01 23.7608 49.5804C23.9792 49.1497 24.2326 48.7367 24.5186 48.3451C24.7515 48.0205 25.0136 47.7167 25.302 47.4371C25.4646 47.2492 25.6899 47.1225 25.9388 47.0789C26.0407 47.0789 26.079 47.153 26.0535 47.295C26.0347 47.4116 26.0091 47.5271 25.9771 47.6409C25.9647 47.6962 25.9646 47.7534 25.9767 47.8088C25.9887 47.8641 26.0128 47.9164 26.0471 47.9621C26.0807 48.0125 26.1257 48.0549 26.1786 48.0859C26.2316 48.1169 26.2912 48.1358 26.3528 48.1412C26.4698 48.1666 26.5923 48.149 26.6967 48.0918C26.75 48.064 26.7956 48.0242 26.83 47.9759C26.8643 47.9276 26.8862 47.8721 26.8941 47.8139C27.0434 47.3704 27.0434 46.8923 26.8941 46.4488C26.828 46.2688 26.7111 46.1104 26.5566 45.9918C26.396 45.8535 26.204 45.7541 25.9962 45.7015C25.5199 45.6163 25.028 45.6767 24.5887 45.8744C23.9782 46.1287 23.4179 46.484 22.9329 46.9244C22.3389 47.4206 21.8238 47.9992 21.4044 48.6416C20.9835 49.2757 20.6616 49.9667 20.4491 50.6922C20.1939 51.4291 20.1543 52.2201 20.3346 52.9776C20.444 53.343 20.6582 53.6707 20.9523 53.9226C21.2937 54.1965 21.7258 54.3413 22.1687 54.3303C22.5366 54.3277 22.9002 54.2542 23.2386 54.1141C23.6079 53.9602 23.9565 53.7631 24.2766 53.5273C24.6256 53.2703 24.9515 52.9851 25.251 52.6749C25.5687 52.34 25.8684 51.9895 26.149 51.6249C26.1355 52.0132 26.159 52.4019 26.2191 52.7861C26.2612 53.0785 26.3629 53.3599 26.5184 53.6138C26.6589 53.8365 26.8592 54.018 27.0979 54.1388C27.3508 54.2686 27.6333 54.3345 27.9194 54.3303C28.828 54.3303 29.8619 53.7126 31.021 52.4773C31.2502 52.2302 31.454 51.9893 31.6578 51.7484L31.6896 51.7052C31.8679 51.489 32.0208 51.2852 32.1609 51.0875L32.4984 50.6243C32.5399 50.557 32.5868 50.493 32.6385 50.4328C32.7021 50.3356 32.7248 50.2184 32.7022 50.1054Z" fill="#CCDAE7"/>
<path d="M39.8413 45.8559C39.8216 45.6152 39.768 45.3783 39.6821 45.1517C39.5999 44.9345 39.4565 44.744 39.2681 44.602C39.0475 44.4452 38.777 44.3687 38.5039 44.3858C38.3775 44.3766 38.2508 44.4018 38.1383 44.4585C38.0258 44.5152 37.9319 44.6013 37.8671 44.707C37.7356 44.9173 37.6672 45.159 37.6696 45.405C37.6688 45.6191 37.7189 45.8305 37.8161 46.0226C37.918 46.208 38.0517 46.2635 38.2109 46.1894C38.3496 46.1059 38.516 46.0771 38.6758 46.1091C38.732 46.1308 38.7821 46.165 38.8219 46.209C38.8618 46.253 38.8902 46.3056 38.9051 46.3624C38.9352 46.5299 38.9352 46.7013 38.9051 46.8689C38.8805 47.1042 38.838 47.3375 38.7777 47.5668C38.6186 48.1405 38.4054 48.6987 38.1409 49.2345C37.8617 49.8309 37.5382 50.4069 37.1729 50.9578C36.8482 51.443 36.4726 51.8942 36.052 52.3043C35.7771 52.6187 35.3862 52.8161 34.963 52.854C34.7656 52.854 34.6382 52.7058 34.5937 52.397C34.5445 52.0072 34.5445 51.6131 34.5937 51.2234C34.6462 50.709 34.727 50.1977 34.8357 49.6916C34.9567 49.1357 35.084 48.6168 35.2114 48.1351C35.3388 47.6533 35.4661 47.2395 35.5871 46.8997C35.634 46.6885 35.725 46.4888 35.8546 46.313C36.0075 46.1956 36.0011 46.0659 35.8546 45.93C35.6481 45.7718 35.3974 45.6771 35.135 45.6582C34.77 45.6229 34.4015 45.6608 34.0523 45.7694C33.6035 45.9183 33.2065 46.1856 32.906 46.5415C32.6929 46.8005 32.5271 47.093 32.4156 47.4062C32.2598 47.8092 32.1321 48.2219 32.0335 48.6416C31.938 49.0739 31.8616 49.5248 31.8042 50.0004C31.8042 50.0375 31.8042 50.0807 31.8042 50.1178C31.7484 50.6079 31.7229 51.1009 31.7278 51.594V51.6434C31.7341 52.058 31.7766 52.4712 31.8552 52.8787C31.8986 53.189 32.0117 53.4863 32.1863 53.7497C32.3067 53.9297 32.4734 54.0762 32.67 54.1748C32.8665 54.2733 33.0861 54.3205 33.3072 54.3117C34.195 54.3064 35.0597 54.0369 35.7846 53.5397C36.6585 52.9364 37.4153 52.1877 38.0199 51.3284C38.3092 50.9365 38.5668 50.5235 38.7905 50.0931C39.0133 49.6805 39.211 49.2556 39.3827 48.8207C39.5371 48.4178 39.6627 48.005 39.7585 47.5853C39.8386 47.2239 39.8812 46.8556 39.8859 46.4859C39.8668 46.3377 39.8604 46.1091 39.8413 45.8559Z" fill="#CCDAE7"/>
<path d="M48.5534 49.8645C48.5038 49.8285 48.4473 49.8023 48.3872 49.7874C48.3271 49.7726 48.2646 49.7694 48.2032 49.7781C48.1418 49.7778 48.0815 49.7937 48.0288 49.8242C47.976 49.8547 47.9328 49.8985 47.9038 49.951L47.8657 50.0066C47.5746 50.5195 47.2265 51.0001 46.8276 51.4396C46.4852 51.8187 46.1032 52.1623 45.6876 52.4649C45.3515 52.7158 44.9833 52.9234 44.5922 53.0826C44.2899 53.1997 43.9687 53.2645 43.6433 53.2741C43.4539 53.2856 43.2652 53.2417 43.1017 53.1481C42.9382 53.0545 42.8074 52.9155 42.7262 52.749C42.5326 52.3662 42.468 51.9341 42.5416 51.5137C43.1976 51.2634 43.8081 50.9131 44.3502 50.476C44.8283 50.0962 45.2561 49.6605 45.6239 49.1789C45.9619 48.7186 46.2142 48.2043 46.3691 47.6595C46.4964 47.2535 46.4761 46.8174 46.3117 46.4241C46.2696 46.2872 46.197 46.1609 46.0991 46.0542C46.0011 45.9475 45.8803 45.8629 45.745 45.8065C45.4846 45.687 45.1985 45.6298 44.9107 45.6397C44.4257 45.6824 43.9572 45.8324 43.5414 46.0782C43.0119 46.3697 42.5237 46.7268 42.0894 47.1406C41.8194 47.4094 41.5644 47.6919 41.3252 47.9868C41.06 48.3134 40.8195 48.6582 40.6055 49.0183C40.3869 49.3838 40.1995 49.7659 40.0451 50.161C39.8935 50.5406 39.7908 50.9368 39.7394 51.3408C39.689 51.7176 39.7062 52.1 39.7903 52.4711C39.8789 52.8436 40.0605 53.1893 40.319 53.4779C40.6119 53.8327 41.0169 54.0844 41.4716 54.1944C41.9249 54.2955 42.3885 54.3473 42.8536 54.3488C43.4496 54.3445 44.0394 54.2314 44.5922 54.0153C45.1819 53.7956 45.7387 53.5006 46.248 53.1382C46.7574 52.774 47.227 52.3601 47.6492 51.9028L47.8274 51.699C48.1489 51.3323 48.4247 50.9301 48.649 50.5007C48.7107 50.4027 48.7376 50.2877 48.7254 50.1734C48.7214 50.1129 48.704 50.054 48.6743 50.0007C48.6447 49.9474 48.6034 49.9009 48.5534 49.8645ZM44.0254 48.3883C44.4523 47.8723 44.9519 47.4169 45.5093 47.0356C45.4996 47.2764 45.4501 47.5141 45.3628 47.7398C45.2327 48.0694 45.0547 48.3793 44.8342 48.6601C44.5889 48.999 44.3072 49.3117 43.9936 49.5928C43.6483 49.9111 43.2606 50.1832 42.8409 50.4019C43.1159 49.6708 43.5164 48.99 44.0254 48.3883Z" fill="#CCDAE7"/>
<path d="M54.1706 50.1054C54.157 50.0491 54.1305 49.9966 54.093 49.9516C54.0555 49.9067 54.0079 49.8706 53.954 49.846C53.9035 49.8122 53.8461 49.7892 53.7858 49.7786C53.7254 49.7679 53.6633 49.7699 53.6038 49.7842C53.517 49.8039 53.4375 49.8466 53.3745 49.9078C53.354 49.9277 53.3368 49.9506 53.3235 49.9757L52.8905 50.5934C52.7546 50.7746 52.5954 50.9805 52.4129 51.211C52.2218 51.4334 52.0243 51.6681 51.8142 51.8967C51.7378 51.9712 51.6656 52.0495 51.5977 52.1314C51.5158 52.2305 51.4286 52.3253 51.3365 52.4155C51.2456 52.5002 51.1452 52.5747 51.0372 52.6379C50.9475 52.6991 50.8412 52.7335 50.7315 52.7367C50.6424 52.7367 50.5978 52.5884 50.5978 52.292C50.6054 51.8972 50.6372 51.5033 50.6933 51.1122C50.757 50.6243 50.8398 50.0622 50.9544 49.426C51.0691 48.7898 51.19 48.1474 51.3302 47.4803C51.4703 46.8133 51.6104 46.1647 51.7569 45.5223C51.9034 44.88 52.0499 44.287 52.19 43.7743C52.3301 43.2617 52.4511 42.8231 52.5721 42.4772C52.6218 42.2573 52.7124 42.048 52.8395 41.8596C52.9032 41.7978 52.8904 41.7299 52.8395 41.6496C52.7252 41.5497 52.5908 41.4739 52.4446 41.4272C52.2383 41.36 52.0246 41.3164 51.8078 41.2975C51.5586 41.2749 51.3074 41.2895 51.0627 41.3407C50.8006 41.3978 50.5521 41.5026 50.3303 41.6496C50.087 41.8053 49.8877 42.0176 49.7508 42.2672C49.5926 42.5847 49.4585 42.9129 49.3496 43.2493C49.1967 43.7002 49.0311 44.2314 48.8655 44.8367C48.7 45.442 48.5407 46.0721 48.3879 46.7886C48.2351 47.505 48.1205 48.1907 48.0249 48.8948C47.974 49.2592 47.9357 49.6236 47.9039 49.9695C47.872 50.3154 47.8593 50.5872 47.853 50.9146C47.8466 51.2419 47.853 51.4087 47.853 51.6372C47.8627 51.9733 47.9011 52.3079 47.9676 52.6379C48.0321 53.0825 48.2045 53.5059 48.4707 53.8732C48.5818 54.0193 48.7282 54.1368 48.8969 54.2154C49.0657 54.294 49.2517 54.3313 49.4387 54.3241C50.3473 54.3241 51.3811 53.7064 52.5402 52.4711C52.7695 52.224 52.9733 51.9831 53.177 51.7422L53.2662 51.6311L53.6802 51.0999L54.0177 50.6366C54.0592 50.5694 54.1061 50.5053 54.1578 50.4451C54.2076 50.3379 54.2122 50.2159 54.1706 50.1054Z" fill="#CCDAE7"/>
<path d="M59.7557 50.1054C59.7422 50.0491 59.7156 49.9966 59.6781 49.9516C59.6406 49.9067 59.5931 49.8706 59.5392 49.846C59.4886 49.8122 59.4313 49.7892 59.3709 49.7786C59.3105 49.7679 59.2485 49.7699 59.1889 49.7842C59.1301 49.7952 59.0745 49.8186 59.0261 49.8527C58.9776 49.8869 58.9376 49.931 58.9087 49.9819L58.8514 50.0622L58.4693 50.6057C58.3334 50.7869 58.1742 50.9928 57.9917 51.2234C57.807 51.4458 57.6031 51.6805 57.393 51.909C57.3166 51.9835 57.2444 52.0619 57.1765 52.1437C57.0964 52.2443 57.0092 52.3392 56.9153 52.4279C56.8256 52.5139 56.7251 52.5886 56.616 52.6502C56.5267 52.7121 56.4202 52.7466 56.3104 52.749C56.1957 52.749 56.132 52.6008 56.1065 52.3043C56.073 51.9262 56.073 51.5459 56.1065 51.1678C56.1511 50.7107 56.2148 50.2104 56.304 49.6669C56.3931 49.1233 56.4886 48.6168 56.5905 48.1351C56.6815 47.718 56.7941 47.3057 56.9281 46.8997C56.9939 46.6602 57.1039 46.4341 57.2529 46.2327C57.3548 46.14 57.2529 46.0288 57.0491 45.8991C56.7668 45.7624 56.4595 45.6806 56.1448 45.6582C55.7597 45.6256 55.372 45.6784 55.0111 45.8126C54.813 45.8904 54.6334 46.0068 54.4834 46.1544C54.3333 46.3021 54.216 46.4779 54.1387 46.6712C54.014 46.9605 53.9098 47.2577 53.8266 47.5606C53.7183 47.9312 53.6292 48.3389 53.5464 48.796C53.4636 49.253 53.419 49.5434 53.3681 49.9387C53.3681 50.019 53.3681 50.1054 53.3362 50.1857C53.2789 50.6737 53.2407 51.1369 53.2343 51.5816V51.6496C53.2257 52.0299 53.2513 52.4101 53.3108 52.7861C53.3479 53.0857 53.4452 53.3753 53.5974 53.6385C53.7378 53.8612 53.9382 54.0427 54.1769 54.1635C54.4321 54.2934 54.7166 54.3592 55.0048 54.355C55.9091 54.355 56.9153 53.7373 58.1062 52.502L58.1954 52.397C58.3865 52.187 58.5584 51.977 58.7303 51.7793C58.9023 51.5816 59.0934 51.3284 59.2335 51.1616C59.3736 50.9949 59.4882 50.8157 59.571 50.6984L59.7111 50.5069C59.7527 50.449 59.7787 50.3819 59.7865 50.3117C59.7942 50.2415 59.7837 50.1706 59.7557 50.1054ZM57.6986 42.4525C57.5838 42.3303 57.4388 42.2385 57.2773 42.1855C57.1158 42.1326 56.943 42.1203 56.7752 42.1499C56.5705 42.1619 56.3687 42.2035 56.1766 42.2734C55.9783 42.3423 55.7899 42.4357 55.6162 42.5514C55.4459 42.6652 55.2917 42.8002 55.1576 42.9528C55.0343 43.0956 54.9432 43.2618 54.8902 43.4408C54.83 43.5942 54.8081 43.7594 54.8264 43.9226C54.8422 44.0631 54.8997 44.1962 54.992 44.3055C55.0924 44.4216 55.2218 44.5109 55.3678 44.5649C55.5344 44.6339 55.716 44.6615 55.8964 44.6452C56.1141 44.633 56.3288 44.5893 56.5332 44.5155C56.7331 44.4378 56.9233 44.3384 57.1 44.2191C57.27 44.1023 57.4221 43.963 57.5522 43.8052C57.6727 43.6597 57.7654 43.4944 57.8261 43.3173C57.8916 43.1763 57.9144 43.0201 57.8918 42.867C57.8693 42.7138 57.8023 42.5701 57.6986 42.4525Z" fill="#CCDAE7"/>
<path d="M69.9008 50.0992C69.8702 49.9838 69.7949 49.8843 69.6906 49.8213C69.5821 49.7627 69.4551 49.7451 69.334 49.7719C69.2747 49.7839 69.219 49.8084 69.1705 49.8436C69.1221 49.8789 69.0823 49.9239 69.0538 49.9757L68.9837 50.0745C68.8436 50.2598 68.7226 50.4328 68.6143 50.5872C68.5061 50.7416 68.3214 50.9825 68.1367 51.2049C67.952 51.4272 67.7482 51.6619 67.5381 51.8905C67.2418 52.2627 66.866 52.5682 66.4363 52.7861C66.4095 52.7935 66.3814 52.7954 66.3538 52.7919C66.3262 52.7883 66.2997 52.7793 66.2759 52.7654C66.252 52.7515 66.2313 52.7331 66.2151 52.7111C66.1989 52.6892 66.1875 52.6642 66.1816 52.6379C66.1484 52.4519 66.1484 52.2618 66.1816 52.0758C66.1816 51.8287 66.2388 51.5261 66.3025 51.1678C66.3662 50.8096 66.4426 50.4143 66.5445 49.9695C66.621 49.6298 66.7102 49.2901 66.8248 48.938C66.9394 48.586 67.0285 48.2524 67.105 47.9312C67.1773 47.6334 67.2179 47.3291 67.226 47.0233C67.2386 46.7634 67.1721 46.5056 67.0349 46.2821C66.8853 46.0518 66.6614 45.8759 66.3981 45.7818C65.989 45.644 65.5571 45.5812 65.1244 45.5965C64.8054 45.5965 64.4903 45.664 64.201 45.7941C63.9052 45.926 63.6306 46.0987 63.3858 46.3068C63.1315 46.5279 62.8972 46.7697 62.6852 47.0294C62.4562 47.2971 62.2435 47.5776 62.0484 47.8695C62.0484 47.7027 62.0484 47.5359 62.0484 47.3692C62.0484 47.2024 62.0484 47.0171 62.0484 46.8194C62.0559 46.5729 61.9871 46.3298 61.8509 46.1215C61.7241 45.9441 61.5504 45.8033 61.3479 45.7138C61.1455 45.6284 60.9306 45.5742 60.711 45.5532C60.4977 45.5355 60.2829 45.5501 60.0742 45.5965C59.9039 45.6369 59.7423 45.7058 59.5965 45.8003C59.5441 45.8295 59.5019 45.8736 59.4758 45.9265C59.4496 45.9794 59.4406 46.0388 59.45 46.0968C59.4805 46.345 59.4805 46.5959 59.45 46.8441C59.4118 47.2147 59.3545 47.6409 59.2844 48.1289C59.2143 48.6168 59.1125 49.1357 58.9915 49.6916C58.9915 49.8151 58.9405 49.9325 58.9087 50.056C58.8195 50.476 58.7113 50.8837 58.603 51.2913C58.4947 51.699 58.3737 52.0449 58.2527 52.3661C58.2236 52.4603 58.1896 52.5531 58.1509 52.644C58.0472 52.9506 57.8922 53.2386 57.6923 53.4964C57.6418 53.5444 57.6076 53.6061 57.5939 53.6733C57.5803 53.7406 57.5879 53.8102 57.6158 53.8732C57.698 54.0102 57.8229 54.1184 57.9725 54.182C58.1741 54.2696 58.3893 54.3239 58.6094 54.3426C58.862 54.3723 59.118 54.3619 59.3672 54.3117C59.628 54.2535 59.8746 54.1465 60.0932 53.9967C60.3347 53.8224 60.5256 53.5905 60.6473 53.3235C60.9317 52.6934 61.1674 52.1376 61.3542 51.6558C61.533 51.2054 61.6778 50.743 61.7873 50.2722C61.8538 50.1908 61.9094 50.1015 61.9529 50.0066C62.1375 49.6236 62.3541 49.2222 62.5897 48.8021C62.8194 48.4074 63.0724 48.0258 63.3475 47.6595C63.5752 47.3554 63.831 47.0722 64.1118 46.8133C64.278 46.6352 64.5034 46.5193 64.7486 46.4859C64.9079 46.4859 64.9843 46.5971 64.9715 46.8256C64.9464 47.1262 64.8931 47.4239 64.8123 47.715C64.7232 48.0795 64.6022 48.4995 64.4493 48.9504C64.2965 49.4013 64.1627 49.9016 64.029 50.3895C63.9036 50.8639 63.8037 51.3443 63.7297 51.8287C63.6687 52.2384 63.6687 52.6544 63.7297 53.064C63.7714 53.3956 63.9182 53.7064 64.15 53.9535C64.2919 54.0767 64.4584 54.1704 64.6391 54.2289C64.8198 54.2873 65.011 54.3092 65.2008 54.2932C65.507 54.2944 65.8102 54.2355 66.0924 54.1203C66.3834 54.0015 66.6591 53.8502 66.914 53.6694C67.1794 53.486 67.4266 53.2793 67.6527 53.0517C67.8883 52.8293 68.0985 52.6131 68.2895 52.434L68.6016 52.082L68.9137 51.7114C69.1047 51.4705 69.2766 51.2543 69.4168 51.0937C69.5569 50.9331 69.6715 50.7478 69.7543 50.6304L69.8944 50.439C69.9198 50.3859 69.9335 50.3283 69.9346 50.2698C69.9357 50.2113 69.9242 50.1532 69.9008 50.0992Z" fill="#CCDAE7"/>
<path d="M80.9565 49.9387C80.9085 49.899 80.8528 49.8693 80.7926 49.8513C80.7324 49.8332 80.669 49.8272 80.6063 49.8337C80.4812 49.8459 80.3653 49.9032 80.2815 49.9942C79.8821 50.4688 79.457 50.9224 79.0078 51.3531C78.537 51.7763 77.9823 52.1021 77.3774 52.3105C77.4156 52.1746 77.473 51.9893 77.5494 51.7608C77.6258 51.5322 77.6895 51.279 77.7532 50.9949C77.8213 50.6892 77.8703 50.3798 77.8997 50.0684C77.9381 49.7362 77.9508 49.4017 77.9379 49.0677C77.9434 48.8224 77.8575 48.5833 77.6959 48.3945C77.5491 48.2384 77.3589 48.1268 77.1482 48.0733C76.9267 48.0131 76.6959 47.9922 76.4668 48.0115C76.2374 48.028 76.012 48.0779 75.798 48.1598C75.6155 48.2282 75.4488 48.3311 75.3077 48.4624C75.251 48.5073 75.2072 48.5655 75.1805 48.6315C75.1537 48.6974 75.1449 48.769 75.1548 48.8392V48.8948C74.7491 49.7863 74.236 50.628 73.6264 51.4025C73.2456 51.8829 72.8192 52.3275 72.3527 52.7305C72.0661 52.9652 71.8432 53.0579 71.7158 53.0023C71.6336 52.969 71.5623 52.9146 71.5096 52.8449C71.4568 52.7753 71.4247 52.693 71.4165 52.607C71.3742 52.3471 71.3742 52.0824 71.4165 51.8225C71.4507 51.5036 71.519 51.1889 71.6203 50.8837C71.7675 50.4243 71.9549 49.9779 72.1807 49.5495C72.399 49.1189 72.6525 48.7058 72.9386 48.3142C73.1715 47.9896 73.4336 47.6858 73.7219 47.4062C73.8845 47.2183 74.1098 47.0916 74.3588 47.048C74.4606 47.048 74.4989 47.1221 74.4734 47.2642C74.4546 47.3807 74.4291 47.4962 74.397 47.6101C74.3838 47.6649 74.3826 47.7219 74.3936 47.7772C74.4046 47.8326 74.4274 47.885 74.4607 47.9312C74.4959 47.9815 74.5422 48.0236 74.5961 48.0546C74.65 48.0855 74.7103 48.1046 74.7727 48.1104C74.8898 48.1346 75.0119 48.1171 75.1167 48.061C75.1699 48.0331 75.2155 47.9934 75.2498 47.945C75.2841 47.8967 75.3062 47.8412 75.314 47.783C75.4566 47.3385 75.4566 46.8625 75.314 46.418C75.2456 46.2391 75.129 46.0813 74.9765 45.9609C74.8149 45.824 74.6232 45.7247 74.416 45.6706C73.9398 45.585 73.4479 45.6454 73.0086 45.8435C72.3688 46.0737 71.7775 46.4148 71.2637 46.8503C70.6694 47.348 70.1524 47.9263 69.7288 48.5674C69.4207 49.0373 69.1666 49.5386 68.971 50.0622C68.8946 50.2475 68.8372 50.4328 68.7799 50.6181C68.6297 51.0967 68.5525 51.594 68.5507 52.0943C68.5549 52.3675 68.5934 52.6393 68.6653 52.9035C68.7802 53.3041 69.0205 53.6602 69.3531 53.9226C69.6925 54.1956 70.1223 54.3404 70.5631 54.3303C70.9637 54.3268 71.3588 54.2405 71.7222 54.077C72.1282 53.8981 72.5092 53.6698 72.8558 53.3976C73.2346 53.1001 73.5843 52.7693 73.9002 52.4093C74.2296 52.0324 74.5379 51.6386 74.8236 51.2296C74.7217 51.6295 74.5963 52.0234 74.4479 52.4093C74.3227 52.773 74.1628 53.1245 73.9703 53.4594C73.7729 53.5273 73.5818 53.6014 73.4035 53.6817L72.8685 53.9473C71.9621 54.3712 71.1884 55.0214 70.6268 55.8312C70.4001 56.1554 70.2441 56.5212 70.1683 56.9059C70.1268 57.2176 70.1965 57.5336 70.3657 57.8016C70.4364 57.9166 70.522 58.0225 70.6204 58.1166C70.7397 58.2335 70.8773 58.3315 71.028 58.4069C71.2301 58.5031 71.4442 58.5737 71.6649 58.6169C71.9416 58.6701 72.2234 58.6949 72.5055 58.691C72.8809 58.6896 73.2496 58.5938 73.5754 58.413C73.9405 58.212 74.2749 57.9625 74.5689 57.6718C74.8985 57.3506 75.195 56.9989 75.4541 56.6218C75.7254 56.2396 75.9722 55.8414 76.1929 55.4297C76.4094 55.0221 76.6069 54.6268 76.7725 54.25C76.938 53.8732 77.0718 53.5397 77.1737 53.2494C77.9656 53.0433 78.7035 52.6771 79.339 52.1746C79.9466 51.6874 80.5052 51.1456 81.0075 50.5563C81.0505 50.5147 81.0831 50.4641 81.1029 50.4085C81.1228 50.3529 81.1293 50.2936 81.1221 50.2351C81.1188 50.1769 81.1022 50.1202 81.0735 50.0689C81.0449 50.0177 81.005 49.9732 80.9565 49.9387ZM72.9195 55.7756C72.7898 56.0868 72.6365 56.3882 72.4609 56.6774C72.327 56.9022 72.1644 57.1097 71.9769 57.2951C71.8206 57.4571 71.6114 57.5618 71.3846 57.5916C71.2381 57.5916 71.1427 57.5916 71.1044 57.4927C71.0777 57.3747 71.0777 57.2525 71.1044 57.1345C71.1321 56.9796 71.1837 56.8297 71.2573 56.6898C71.3337 56.5353 71.4038 56.4056 71.4611 56.3006C71.6938 55.9467 71.9841 55.6317 72.3209 55.368C72.6691 55.1026 73.0448 54.8728 73.4417 54.6823C73.2379 55.0468 73.0723 55.4112 72.9195 55.7509V55.7756Z" fill="#CCDAE7"/>
<path d="M32.4475 23.2431L40.9303 29.3209L39.2172 29.5742L32.4475 23.2431Z" fill="#CCDAE7"/>
</svg>
