<svg width="96" height="59" viewBox="0 0 96 59" fill="none" xmlns="http://www.w3.org/2000/svg">
<path d="M4.11519 53.0279H11.0332V50.874H4.16335C3.41474 50.8768 2.68013 51.0775 2.03369 51.4557C1.38725 51.8339 0.851866 52.3762 0.481589 53.0279C0.194628 53.5466 0.0298974 54.1241 0 54.7163C0 54.7911 0 54.8658 0 54.943C0.000252001 55.611 0.171006 56.2677 0.496036 56.8509C0.854107 57.4818 1.36731 58.0104 1.98686 58.3866C2.60641 58.7627 3.31172 58.9739 4.03572 59H11.0477V54.2267H5.79111V55.7921H8.69991V56.8557H4.18501C3.67413 56.8577 3.18291 56.6587 2.81718 56.3013C2.45145 55.944 2.24049 55.4571 2.22976 54.9454C2.22978 54.8704 2.2346 54.7955 2.24421 54.7211C2.30645 54.2631 2.52841 53.8419 2.87081 53.5321C3.21321 53.2222 3.654 53.0436 4.11519 53.0279Z" fill="#CCDAE7"/>
<path d="M84.9451 53.0303V50.8788H75.9876V58.9976H78.7495V57.7602H77.8393V56.8485H83.2572V54.697H78.7495V53.0303H84.9451Z" fill="#CCDAE7"/>
<path d="M39.5505 53.0255C39.1921 52.3945 38.6784 51.8657 38.0585 51.4896C37.4385 51.1134 36.7328 50.9023 36.0084 50.8764H28.9989V58.9952H35.8664C36.6149 58.9918 37.3493 58.791 37.9956 58.4128C38.642 58.0347 39.1775 57.4927 39.5481 56.8413C39.8348 56.3225 39.9995 55.745 40.0297 55.1529C40.0297 55.0781 40.0297 55.0009 40.0297 54.9261C40.0334 54.2621 39.8685 53.6081 39.5505 53.0255ZM37.7927 55.1601C37.729 55.617 37.5064 56.0368 37.1642 56.3456C36.822 56.6545 36.3821 56.8325 35.9217 56.8485H31.7584V53.9541H30.8482V53.0424H35.8471C36.3578 53.0397 36.849 53.2383 37.2148 53.5952C37.5806 53.9522 37.7916 54.4389 37.8023 54.9503C37.8033 55.0203 37.8001 55.0904 37.7927 55.1601Z" fill="#CCDAE7"/>
<path d="M23.3282 53.0303C23.1305 52.4108 22.7432 51.8694 22.2211 51.4828C21.699 51.0962 21.0686 50.884 20.4194 50.8764H12.4082V58.9928H15.1701V55.9344H16.0803V56.8461H18.1487L20.2918 58.9928H23.1283L20.9299 56.7906C21.4798 56.6954 21.9932 56.4513 22.4147 56.0848C22.8361 55.7184 23.1495 55.2435 23.321 54.7115C23.3992 54.4606 23.4422 54.2 23.4486 53.9372V53.7829C23.4417 53.5278 23.4013 53.2747 23.3282 53.0303ZM20.3399 54.7187H15.1701V53.0303H20.3857C20.4964 53.0333 20.6054 53.0581 20.7065 53.1033C20.8076 53.1486 20.8988 53.2133 20.9749 53.2938C21.051 53.3743 21.1106 53.4691 21.1502 53.5726C21.1898 53.6762 21.2086 53.7866 21.2056 53.8974C21.2026 54.0083 21.1778 54.1175 21.1327 54.2187C21.0875 54.32 21.0229 54.4114 20.9426 54.4877C20.8622 54.5639 20.7676 54.6236 20.6642 54.6632C20.5608 54.7029 20.4506 54.7217 20.3399 54.7187Z" fill="#CCDAE7"/>
<path d="M66.9987 50.8764H64.2344V58.9952H66.9987V50.8764Z" fill="#CCDAE7"/>
<path d="M75.2941 58.9952L69.9268 50.8764H66.9987L69.5246 54.697H68.2653V56.8485H70.9477L72.366 58.9952H75.2941Z" fill="#CCDAE7"/>
<path d="M43.0035 54.7115C42.9938 54.7859 42.989 54.8608 42.9891 54.9358C42.9998 55.4474 43.2107 55.9344 43.5765 56.2917C43.9422 56.649 44.4334 56.8481 44.9443 56.8461H51.1014V58.9952H44.7758C44.0516 58.9686 43.3461 58.7572 42.7263 58.3811C42.1064 58.005 41.5927 57.4767 41.2337 56.8461C40.9097 56.2626 40.7398 55.6059 40.74 54.9382C40.74 54.861 40.74 54.7863 40.74 54.7115C40.7711 54.1195 40.9358 53.5422 41.2216 53.0231C41.5925 52.3713 42.1283 51.829 42.7752 51.4509C43.422 51.0727 44.1569 50.8721 44.9058 50.8692H51.0822V53.0231H44.8769C44.4159 53.0376 43.9748 53.215 43.6319 53.5241C43.289 53.8331 43.0664 54.2538 43.0035 54.7115Z" fill="#CCDAE7"/>
<path d="M27.6143 50.8764H24.8524V58.9952H27.6143V50.8764Z" fill="#CCDAE7"/>
<path d="M96 50.8764V53.0279H92.1665V58.9952H89.5515V53.9396H90.4593V53.0279H85.6458V50.8764H96Z" fill="#CCDAE7"/>
<path d="M63.4012 53.0303C63.2032 52.411 62.8158 51.8698 62.2938 51.4832C61.7717 51.0967 61.1416 50.8844 60.4924 50.8764H52.4812V58.9928H55.2431V55.9344H56.1533V56.8461H58.2241L60.3672 58.9928H63.2038L61.0053 56.7906C61.5551 56.6951 62.0685 56.451 62.4899 56.0845C62.9113 55.7181 63.2247 55.2433 63.3964 54.7115C63.4747 54.4606 63.5176 54.2 63.524 53.9372V53.7829C63.5164 53.5277 63.4751 53.2746 63.4012 53.0303ZM60.413 54.7187H55.2407V53.0303H60.4563C60.567 53.0332 60.676 53.0578 60.7772 53.1029C60.8783 53.1479 60.9697 53.2125 61.0459 53.2929C61.1222 53.3733 61.1818 53.468 61.2216 53.5715C61.2613 53.675 61.2803 53.7854 61.2774 53.8962C61.2746 54.0071 61.2499 54.1163 61.205 54.2176C61.16 54.319 61.0955 54.4104 61.0152 54.4868C60.935 54.5632 60.8405 54.623 60.7371 54.6628C60.6338 54.7025 60.5236 54.7216 60.413 54.7187Z" fill="#CCDAE7"/>
<path d="M61.1305 2.36398H34.8574L25.936 11.3028V34.5014L34.5348 43.117H61.4628L70.0592 34.5086V11.3101L61.1305 2.36398ZM65.6406 35.1406C65.64 35.2099 65.6121 35.2761 65.5629 35.3249C65.5138 35.3737 65.4474 35.4011 65.3782 35.4011H30.6074C30.5386 35.4004 30.4729 35.3728 30.4242 35.3241C30.3756 35.2754 30.348 35.2095 30.3474 35.1406V31.2066C30.3474 31.1373 30.3747 31.0708 30.4234 31.0216C30.4721 30.9723 30.5382 30.9443 30.6074 30.9437H34.7611V10.9676C34.7611 10.8294 34.8159 10.6969 34.9135 10.5992C35.011 10.5015 35.1433 10.4466 35.2812 10.4466H60.7067C60.8447 10.4466 60.977 10.5015 61.0745 10.5992C61.1721 10.6969 61.2269 10.8294 61.2269 10.9676V30.9485H65.3782C65.4478 30.9485 65.5145 30.9762 65.5637 31.0255C65.613 31.0748 65.6406 31.1417 65.6406 31.2114V35.1406Z" fill="#CCDAE7"/>
<path d="M68.4892 2.24579V2.52317H68.1593V1.04945H69.6041C69.6972 1.05565 69.784 1.09841 69.8458 1.16841C69.9076 1.23842 69.9393 1.33002 69.934 1.4233V1.71274C69.9365 1.78723 69.9168 1.86079 69.8774 1.92396C69.8379 1.98714 69.7805 2.03706 69.7125 2.06731L70.0424 2.52317H69.6161L69.3007 2.08902H68.494V1.76339H69.5584C69.5816 1.76154 69.6031 1.75066 69.6184 1.73308C69.6337 1.71549 69.6415 1.69261 69.6402 1.66932V1.48119C69.6415 1.4579 69.6337 1.43503 69.6184 1.41744C69.6031 1.39986 69.5816 1.38898 69.5584 1.38712H68.494V2.24579H68.4892Z" fill="#CCDAE7"/>
<path d="M69.3368 3.57239C68.9609 3.6375 68.574 3.58102 68.2323 3.41115C67.8905 3.24127 67.6116 2.9668 67.436 2.62753C67.2604 2.28826 67.1972 1.90181 67.2556 1.52415C67.3139 1.14649 67.4908 0.797247 67.7606 0.527022C68.0304 0.256797 68.379 0.0796209 68.7561 0.0211715C69.1331 -0.0372778 69.5189 0.026036 69.8576 0.201931C70.1963 0.377826 70.4703 0.657169 70.6399 0.999491C70.8095 1.34181 70.8658 1.72933 70.8008 2.1059C70.7374 2.47164 70.5626 2.8088 70.3006 3.0713C70.0385 3.33379 69.7019 3.5088 69.3368 3.57239ZM69.2814 0.357208C68.9761 0.303458 68.6616 0.348349 68.3834 0.485396C68.1052 0.622444 67.8777 0.844545 67.7338 1.1196C67.5899 1.39466 67.5371 1.70843 67.5829 2.01556C67.6287 2.32269 67.7708 2.60728 67.9887 2.82818C68.2066 3.04909 68.489 3.19488 68.795 3.24447C69.101 3.29407 69.4149 3.24491 69.6912 3.1041C69.9675 2.96328 70.192 2.73812 70.3322 2.46113C70.4723 2.18414 70.5209 1.86968 70.471 1.5632C70.4225 1.26442 70.2828 0.988016 70.0711 0.772041C69.8594 0.556067 69.586 0.411141 69.2887 0.357208H69.2814Z" fill="#CCDAE7"/>
</svg>
