<svg width="84" height="34" viewBox="0 0 84 34" fill="none" xmlns="http://www.w3.org/2000/svg">
<path d="M2.75992 33.9712L2.66845 33.4336H1.94458L1.63727 33.9712H1.38194L2.41707 32.1957H2.66516L3.00143 33.9712H2.75992ZM2.33152 32.7434L2.04724 33.2447H2.6395L2.55395 32.7407C2.54539 32.6876 2.53881 32.6339 2.53355 32.5794C2.52829 32.525 2.52368 32.4585 2.51841 32.3812H2.51381C2.46057 32.5057 2.39968 32.6267 2.33152 32.7434Z" fill="#CCDAE7"/>
<path d="M7.61513 33.4719C7.6113 33.5158 7.61685 33.5601 7.63139 33.6016C7.64594 33.6431 7.66912 33.681 7.69936 33.7124C7.77649 33.7705 7.87169 33.798 7.96719 33.7897C8.0599 33.7931 8.15209 33.7743 8.23634 33.7346C8.30998 33.6963 8.37072 33.6364 8.41073 33.5626C8.46281 33.463 8.49944 33.3558 8.51931 33.2447L8.73779 32.1957H8.96877L8.74634 33.2709C8.71908 33.4236 8.66561 33.5701 8.5884 33.7037C8.52829 33.8038 8.44031 33.8834 8.33571 33.9322C8.2176 33.9812 8.09065 34.0041 7.96324 33.9994C7.761 33.9994 7.61381 33.9564 7.52168 33.8704C7.4735 33.8213 7.43622 33.7623 7.41237 33.6972C7.38852 33.6322 7.37867 33.5627 7.38349 33.4934C7.38642 33.3901 7.39965 33.2874 7.42297 33.1869L7.62895 32.1937H7.86058L7.64079 33.2562C7.62501 33.327 7.61641 33.3993 7.61513 33.4719Z" fill="#CCDAE7"/>
<path d="M13.9306 32.3664C13.8561 32.3647 13.7821 32.3791 13.7134 32.4088C13.6565 32.4328 13.6071 32.4723 13.5706 32.523C13.5376 32.5707 13.5201 32.6278 13.5206 32.6863C13.5185 32.7255 13.5313 32.7639 13.5561 32.7938C13.5873 32.8241 13.6246 32.847 13.6654 32.861C13.7322 32.8857 13.8003 32.9068 13.8694 32.9242C13.9878 32.9523 14.1023 32.9955 14.2103 33.0525C14.2825 33.0897 14.3431 33.1467 14.3853 33.2172C14.4263 33.3033 14.4435 33.3992 14.435 33.4945C14.4266 33.5898 14.3928 33.681 14.3373 33.7581C14.2675 33.8425 14.1765 33.9057 14.074 33.9409C13.9621 33.9804 13.8444 34.0002 13.7259 33.9994C13.514 33.9994 13.3552 33.9476 13.2495 33.8442C13.1395 33.7296 13.0776 33.5758 13.0771 33.4154L13.3087 33.3637C13.3049 33.4849 13.3463 33.6031 13.4245 33.6943C13.4671 33.7326 13.5168 33.7617 13.5706 33.7799C13.6244 33.7982 13.6812 33.8052 13.7378 33.8005C13.8258 33.803 13.9135 33.7886 13.9964 33.7581C14.0595 33.7358 14.1148 33.6952 14.1556 33.6412C14.1905 33.5912 14.209 33.5312 14.2083 33.4699C14.2109 33.4175 14.1958 33.3657 14.1655 33.3234C14.1277 33.2791 14.0791 33.2457 14.0247 33.2266C13.9318 33.1905 13.8363 33.1618 13.7391 33.1406C13.6451 33.1214 13.5549 33.0866 13.4719 33.0378C13.4134 33.0022 13.366 32.9505 13.335 32.8886C13.3072 32.8241 13.2937 32.7541 13.2955 32.6836C13.2956 32.5925 13.3224 32.5036 13.3725 32.4282C13.4291 32.3449 13.507 32.2789 13.5976 32.2374C13.7076 32.1872 13.8272 32.1626 13.9477 32.1655C14.1333 32.1655 14.2745 32.2078 14.3715 32.2925C14.4229 32.3419 14.464 32.4014 14.4921 32.4675C14.5203 32.5336 14.535 32.6048 14.5353 32.6769L14.3057 32.7273C14.3056 32.6286 14.2708 32.5332 14.2076 32.4585C14.1699 32.4248 14.1259 32.3993 14.0783 32.3835C14.0307 32.3677 13.9804 32.3619 13.9306 32.3664Z" fill="#CCDAE7"/>
<path d="M19.6847 32.4067L19.3557 33.9712H19.126L19.4517 32.4067H18.8983L18.9417 32.1957H20.2796L20.2355 32.4067H19.6847Z" fill="#CCDAE7"/>
<path d="M25.7468 32.6473C25.7469 32.7257 25.7284 32.803 25.6928 32.8724C25.6529 32.9469 25.5952 33.0097 25.525 33.0552C25.4378 33.1106 25.3408 33.1478 25.2394 33.1648V33.1722C25.2647 33.1839 25.2871 33.2011 25.3052 33.2226C25.331 33.2543 25.3519 33.2899 25.3671 33.3281C25.3932 33.3919 25.4152 33.4575 25.4329 33.5243L25.5645 33.9712H25.3138L25.2111 33.5875C25.1909 33.5036 25.1622 33.422 25.1256 33.3442C25.102 33.2965 25.0639 33.2578 25.017 33.234C24.957 33.2104 24.893 33.1997 24.8288 33.2024H24.6215L24.4616 33.9712H24.2313L24.6011 32.1957H25.2039C25.3934 32.1957 25.5316 32.2336 25.6185 32.3093C25.6632 32.3523 25.6979 32.405 25.7201 32.4635C25.7423 32.522 25.7514 32.5848 25.7468 32.6473ZM25.5013 32.6621C25.5047 32.6257 25.4996 32.589 25.4865 32.5551C25.4733 32.5211 25.4525 32.4907 25.4257 32.4666C25.3563 32.4215 25.2746 32.4006 25.1927 32.4067H24.786L24.6643 32.9914H25.0637C25.1439 32.9933 25.2238 32.9801 25.2993 32.9524C25.3592 32.9304 25.4113 32.8909 25.4493 32.8388C25.4856 32.7865 25.5039 32.7234 25.5013 32.6594V32.6621Z" fill="#CCDAE7"/>
<path d="M31.0686 33.9712L30.9777 33.4336H30.2539L29.9466 33.9712H29.6919L30.727 32.1957H30.9745L31.3114 33.9712H31.0686ZM30.6408 32.7434L30.3565 33.2447H30.9488L30.8632 32.7407C30.8547 32.6876 30.8481 32.6339 30.8428 32.5794C30.8376 32.525 30.8323 32.4585 30.8277 32.3812H30.8231C30.7699 32.5057 30.709 32.6267 30.6408 32.7434Z" fill="#CCDAE7"/>
<path d="M36.7115 33.7602L36.6674 33.9712H35.5802L35.9501 32.1957H36.1797L35.854 33.7602H36.7115Z" fill="#CCDAE7"/>
<path d="M41.0099 33.9712L41.3798 32.1957H41.6114L41.2416 33.9712H41.0099Z" fill="#CCDAE7"/>
<path d="M46.8884 33.9712L46.797 33.4336H46.0731L45.7664 33.9712H45.5111L46.5462 32.1957H46.7943L47.1313 33.9712H46.8884ZM46.4594 32.7434L46.1744 33.2447H46.7667L46.6811 32.7407C46.6726 32.6876 46.6654 32.6339 46.6601 32.5794C46.6548 32.525 46.6502 32.4585 46.6456 32.3812H46.641C46.5877 32.5056 46.5271 32.6266 46.4594 32.7434Z" fill="#CCDAE7"/>
<path d="M6.71226 30.6481H0L1.04567 29.882L6.41416 14.0617C6.41416 14.0617 7.06498 12.6108 8.66408 12.6108C10.2632 12.6108 25.1229 12.4697 25.1229 12.4697L24.1358 13.215L22.9513 16.9029L8.80293 16.8626L10.6587 18.5359L10.3231 19.765H20.4461L19.2616 23.453L6.84782 23.332L8.57195 24.9448L6.71226 30.6481Z" fill="#CCDAE7"/>
<path d="M26.8201 12.5302H33.4251L32.4512 13.1209L26.5569 30.6138L19.9788 30.6474L20.8468 29.8887L26.8201 12.5302Z" fill="#CCDAE7"/>
<path d="M56.2784 12.5295L55.3044 13.1216L49.4108 30.6138L43.8054 30.6481L38.4343 19.9632L34.8459 30.6138L28.2678 30.6481L29.1352 29.8887L35.1097 12.5295H40.7493L45.9448 23.3656L49.6734 12.5295H56.2784Z" fill="#CCDAE7"/>
<path d="M61.735 2.96892H59.6825L71.3658 17.5736H69.5765L56.5186 1.37022H54.5648L67.6162 17.5736H65.6163L51.6041 0H49.4338L63.6823 17.6408L50.6835 33.9786L60.313 33.9725L73.313 17.5736L61.735 2.96892Z" fill="#CCDAE7"/>
<path d="M83.8552 4.77123H74.0665L70.2576 9.48669L75.1918 15.573L83.8552 4.77123Z" fill="#CCDAE7"/>
<path d="M75.1721 19.6642L70.2576 25.7505L74.3166 30.6407H84L75.1721 19.6642Z" fill="#CCDAE7"/>
</svg>
