<svg width="140" height="32" viewBox="0 0 140 32" fill="none" xmlns="http://www.w3.org/2000/svg">
<path d="M65.3626 4.92062V7.13671L51.9242 24.5292H65.203V27.0485H48.1902V24.8324L61.6276 7.43991H48.1902V4.92062H65.3626Z" fill="#D9D9D9"/>
<path d="M74.7489 27.0485H71.8429V4.92062H74.7489V27.0485Z" fill="#D9D9D9"/>
<path d="M83.1115 27.0485V4.92062H94.2532C98.7538 4.92062 101.02 7.3462 101.02 11.5072C101.02 14.0882 99.7075 16.0606 97.6677 16.7883V16.9713H98.9135C100.541 16.9713 101.083 17.7299 101.083 19.1874V27.0485H98.1796V18.5226H86.0175V27.0518L83.1115 27.0485ZM86.0175 16.1213H93.7096C96.3914 16.1213 97.9554 14.785 97.9554 12.7222V10.7486C97.9554 8.53253 96.3596 7.37817 93.7096 7.37817H86.0175V16.1213Z" fill="#D9D9D9"/>
<path d="M111.65 27.0485H108.745V4.92062H111.65V27.0485Z" fill="#D9D9D9"/>
<path d="M118.231 15.9989C118.231 12.419 119.189 9.62514 121.104 7.6516C123.019 5.64829 125.697 4.64719 129.116 4.64719C132.535 4.64719 135.213 5.64829 137.128 7.6516C139.042 9.62514 140 12.419 140 15.9989C140 19.5788 139.042 22.3738 137.128 24.3782C135.245 26.3517 132.564 27.355 129.116 27.355C125.669 27.355 122.992 26.3539 121.072 24.3782C119.184 22.3738 118.231 19.581 118.231 15.9989ZM121.293 17.5182C121.293 22.1323 124.355 24.8633 129.114 24.8633C134.061 24.8633 136.934 22.0099 136.934 17.5182V14.4212C136.934 12.1455 136.231 10.3539 134.795 9.07938C133.391 7.77398 131.507 7.13671 129.114 7.13671C124.165 7.13671 121.293 9.95921 121.293 14.4212V17.5182Z" fill="#D9D9D9"/>
<path d="M32.1552 2.59096L21.2936 13.5083H21.287L21.2017 13.5954L6.76463 28.1114L2.9071 32H2.40399L0 29.4708L25.3775 3.96913L29.235 0.0804851H29.7688L32.1552 2.59096Z" fill="#D9D9D9"/>
<path d="M32.1421 29.527V29.5336L29.6277 32H2.9071L6.76463 28.1114L25.3283 28.1974L21.3428 24.043L15.7123 23.9879L21.2936 18.516L32.1421 29.527Z" fill="#D9D9D9"/>
<path d="M25.3775 3.96913L6.81385 3.88313L10.7698 8.01213L16.4484 8.06174L10.8672 13.5336L0.0120309 2.51047L2.58226 0L29.235 0.0804851L25.3775 3.96913Z" fill="#D9D9D9"/>
</svg>
