<svg width="125" height="78" viewBox="0 0 125 78" fill="none" xmlns="http://www.w3.org/2000/svg">
<path d="M5.35832 70.1047H14.3662V67.2571H5.42103C4.44628 67.2609 3.48975 67.5262 2.64803 68.0261C1.80632 68.5261 1.1092 69.2431 0.627069 70.1047C0.253421 70.7904 0.0389289 71.5539 0 72.3368C0 72.4356 0 72.5345 0 72.6365C0.000328127 73.5196 0.222663 74.3878 0.645881 75.1588C1.11212 75.9929 1.78036 76.6917 2.58706 77.189C3.39377 77.6863 4.31213 77.9655 5.25484 78H14.385V71.6895H7.5405V73.759H11.328V75.1652H5.44923C4.78402 75.1679 4.14441 74.9047 3.66821 74.4323C3.192 73.9599 2.91731 73.3161 2.90333 72.6397C2.90335 72.5406 2.90964 72.4415 2.92215 72.3432C3.00319 71.7377 3.2922 71.1809 3.73804 70.7712C4.18387 70.3615 4.75781 70.1254 5.35832 70.1047Z" fill="#D9D9D9"/>
<path d="M110.606 70.1079V67.2635H98.9421V77.9968H102.538V76.361H101.353V75.1556H108.408V72.3113H102.538V70.1079H110.606Z" fill="#D9D9D9"/>
<path d="M51.4981 70.1015C51.0313 69.2672 50.3625 68.5682 49.5553 68.071C48.748 67.5737 47.8292 67.2946 46.886 67.2603H37.759V77.9936H46.701C47.6756 77.9892 48.6319 77.7237 49.4735 77.2238C50.3151 76.7239 51.0123 76.0072 51.4949 75.1461C51.8682 74.4602 52.0826 73.6968 52.122 72.9139C52.122 72.8151 52.122 72.7131 52.122 72.6142C52.1268 71.7364 51.9121 70.8718 51.4981 70.1015ZM49.2093 72.9235C49.1263 73.5276 48.8365 74.0826 48.3909 74.4908C47.9453 74.8991 47.3725 75.1345 46.7731 75.1556H41.3521V71.3292H40.1669V70.1238H46.6759C47.3408 70.1203 47.9804 70.3828 48.4567 70.8547C48.933 71.3266 49.2078 71.97 49.2218 72.6461C49.2231 72.7388 49.2189 72.8314 49.2093 72.9235Z" fill="#D9D9D9"/>
<path d="M30.3752 70.1079C30.1179 69.2889 29.6135 68.5731 28.9337 68.062C28.2539 67.5509 27.4331 67.2704 26.5877 67.2603H16.1565V77.9904H19.7527V73.9471H20.9379V75.1525H23.6311L26.4216 77.9904H30.115L27.2524 75.0791C27.9685 74.9532 28.637 74.6305 29.1858 74.1461C29.7346 73.6616 30.1426 73.0337 30.3658 72.3304C30.4678 71.9987 30.5237 71.6542 30.532 71.3068V71.1028C30.5231 70.7655 30.4704 70.431 30.3752 70.1079ZM26.4843 72.34H19.7527V70.1079H26.5439C26.688 70.1118 26.8299 70.1447 26.9615 70.2044C27.0932 70.2642 27.2119 70.3497 27.3111 70.4562C27.4102 70.5626 27.4878 70.6879 27.5393 70.8248C27.5908 70.9618 27.6153 71.1077 27.6114 71.2542C27.6075 71.4008 27.5753 71.5451 27.5165 71.679C27.4577 71.8129 27.3736 71.9337 27.269 72.0345C27.1643 72.1353 27.0411 72.2142 26.9065 72.2666C26.7719 72.319 26.6284 72.344 26.4843 72.34Z" fill="#D9D9D9"/>
<path d="M87.2379 67.2603H83.6385V77.9936H87.2379V67.2603Z" fill="#D9D9D9"/>
<path d="M98.0392 77.9936L91.0505 67.2603H87.2379L90.5269 72.3113H88.8871V75.1556H92.3799L94.2266 77.9936H98.0392Z" fill="#D9D9D9"/>
<path d="M55.9942 72.3304C55.9815 72.4288 55.9753 72.5278 55.9753 72.627C55.9893 73.3034 56.264 73.9471 56.7402 74.4195C57.2164 74.8919 57.856 75.1551 58.5212 75.1525H66.5383V77.9936H58.3018C57.3588 77.9584 56.4402 77.679 55.6331 77.1818C54.826 76.6846 54.1571 75.9861 53.6897 75.1525C53.2678 74.381 53.0466 73.5129 53.0469 72.6302C53.0469 72.5281 53.0469 72.4293 53.0469 72.3304C53.0874 71.5478 53.3018 70.7846 53.674 70.0983C54.1569 69.2367 54.8546 68.5197 55.6968 68.0198C56.539 67.5199 57.4959 67.2546 58.4711 67.2508H66.5132V70.0983H58.4334C57.8331 70.1175 57.2589 70.3521 56.8124 70.7606C56.3659 71.1692 56.0761 71.7253 55.9942 72.3304Z" fill="#D9D9D9"/>
<path d="M35.9562 67.2603H32.3599V77.9936H35.9562V67.2603Z" fill="#D9D9D9"/>
<path d="M125 67.2603V70.1047H120.009V77.9936H116.604V71.31H117.786V70.1047H111.518V67.2603H125Z" fill="#D9D9D9"/>
<path d="M82.5537 70.1079C82.2959 69.2891 81.7914 68.5736 81.1117 68.0626C80.432 67.5516 79.6114 67.2709 78.7662 67.2603H68.3349V77.9904H71.9311V73.9471H73.1163V75.1525H75.8127L78.6031 77.9904H82.2966L79.434 75.0791C80.1499 74.9529 80.8183 74.6301 81.367 74.1457C81.9157 73.6612 82.3239 73.0336 82.5474 72.3304C82.6493 71.9987 82.7052 71.6542 82.7136 71.3068V71.1028C82.7036 70.7654 82.6499 70.4309 82.5537 70.1079ZM78.6627 72.34H71.928V70.1079H78.7191C78.8633 70.1116 79.0052 70.1442 79.1369 70.2038C79.2687 70.2634 79.3876 70.3488 79.4869 70.4551C79.5861 70.5614 79.6638 70.6865 79.7156 70.8233C79.7673 70.9602 79.792 71.1061 79.7883 71.2526C79.7846 71.3992 79.7525 71.5436 79.694 71.6775C79.6354 71.8115 79.5514 71.9324 79.4469 72.0334C79.3424 72.1344 79.2194 72.2134 79.0848 72.266C78.9502 72.3186 78.8068 72.3438 78.6627 72.34Z" fill="#D9D9D9"/>
<path d="M79.597 3.12526H45.3873L33.7708 14.9427V45.612L44.9671 57.0022H80.0297L91.2229 45.6216V14.9523L79.597 3.12526ZM85.4696 46.457C85.4687 46.5486 85.4324 46.6362 85.3684 46.7007C85.3044 46.7652 85.2179 46.8014 85.1278 46.8014H39.8534C39.7638 46.8006 39.6782 46.764 39.6149 46.6996C39.5515 46.6352 39.5156 46.5481 39.5148 46.457V41.2562C39.5148 41.1646 39.5503 41.0766 39.6138 41.0115C39.6772 40.9464 39.7633 40.9094 39.8534 40.9086H45.2619V14.4995C45.2619 14.3168 45.3332 14.1416 45.4602 14.0125C45.5872 13.8833 45.7595 13.8107 45.9391 13.8107H79.0452C79.2248 13.8107 79.3971 13.8833 79.5241 14.0125C79.6511 14.1416 79.7225 14.3168 79.7225 14.4995V40.915H85.1278C85.2185 40.915 85.3053 40.9516 85.3694 41.0168C85.4335 41.082 85.4696 41.1704 85.4696 41.2626V46.457Z" fill="#D9D9D9"/>
<path d="M89.1787 2.96902V3.33572H88.7491V1.3874H90.6303C90.7515 1.39561 90.8646 1.45213 90.945 1.54468C91.0255 1.63723 91.0667 1.75833 91.0599 1.88165V2.26431C91.0632 2.36278 91.0375 2.46002 90.9862 2.54355C90.9348 2.62707 90.86 2.69306 90.7714 2.73305L91.201 3.33572H90.646L90.2353 2.76175H89.1849V2.33127H90.5708C90.601 2.32882 90.6291 2.31443 90.649 2.29118C90.6689 2.26794 90.6791 2.23769 90.6774 2.2069V1.95818C90.6791 1.9274 90.6689 1.89715 90.649 1.87391C90.6291 1.85067 90.601 1.83628 90.5708 1.83383H89.1849V2.96902H89.1787Z" fill="#D9D9D9"/>
<path d="M90.2823 4.72282C89.7928 4.8089 89.2891 4.73424 88.8441 4.50965C88.3991 4.28506 88.036 3.92222 87.8073 3.47369C87.5787 3.02516 87.4964 2.51425 87.5724 2.01498C87.6484 1.5157 87.8787 1.05399 88.23 0.696741C88.5812 0.339494 89.0352 0.105261 89.5261 0.0279895C90.017 -0.0492825 90.5194 0.0344205 90.9604 0.26696C91.4014 0.499499 91.7582 0.868799 91.979 1.32136C92.1998 1.77392 92.2732 2.28624 92.1886 2.78407C92.1059 3.26759 91.8784 3.71333 91.5372 4.06036C91.196 4.40738 90.7577 4.63876 90.2823 4.72282ZM90.2102 0.472241C89.8126 0.401181 89.4031 0.460529 89.0409 0.64171C88.6786 0.822891 88.3825 1.11652 88.1951 1.48016C88.0077 1.84379 87.9389 2.25861 87.9986 2.66464C88.0582 3.07068 88.2432 3.44691 88.5269 3.73895C88.8107 4.031 89.1783 4.22373 89.5768 4.28931C89.9753 4.35488 90.384 4.28988 90.7438 4.10372C91.1036 3.91756 91.3958 3.61988 91.5783 3.2537C91.7608 2.88751 91.8241 2.47179 91.7591 2.06661C91.696 1.67161 91.5141 1.30619 91.2384 1.02066C90.9627 0.735139 90.6068 0.543543 90.2196 0.472241H90.2102Z" fill="#D9D9D9"/>
</svg>
