<svg width="130" height="41" viewBox="0 0 130 41" fill="none" xmlns="http://www.w3.org/2000/svg">
<path d="M28.4176 20.3531L36.6242 31.0124C38.8826 27.0851 39.8166 22.4843 39.2779 17.9407C38.7392 13.3972 36.7587 9.17136 33.6509 5.9345C30.3788 2.51015 26.046 0.407097 21.4243 0L18.9769 2.04507L17.4512 0.0651007C16.1056 0.21298 14.7799 0.516828 13.4989 0.971006L13.8843 1.47007C14.4826 2.25428 14.7593 3.25303 14.6539 4.24876C14.5486 5.24448 14.0698 6.15652 13.3219 6.78617L10.057 2.54956C8.99413 3.1706 7.99141 3.89726 7.06284 4.71939L8.21364 6.21659C8.8114 7.00147 9.08715 8.00064 8.98084 8.99641C8.87452 9.99217 8.39474 10.9038 7.64604 11.5327L4.48526 7.43169C1.37608 11.371 -0.214478 16.3748 0.0232735 21.4687C0.261025 26.5627 2.31009 31.3821 5.77146 34.9886C7.75215 37.055 10.134 38.6563 12.7572 39.6855C15.3805 40.7146 18.1847 41.1477 20.9817 40.9557L14.2384 32.2004C13.6411 31.4172 13.3645 30.4201 13.4689 29.4257C13.5732 28.4313 14.0499 27.52 14.7955 26.8897L25.0746 40.2233C26.3037 39.8729 27.4953 39.3931 28.6311 38.7913L17.6335 24.5192C16.8804 25.1442 15.9205 25.4334 14.9634 25.3236C14.0063 25.2138 13.1298 24.714 12.5252 23.9333L7.07847 16.8813C6.47629 16.0971 6.19682 15.0963 6.30124 14.098C6.40566 13.0997 6.88544 12.1851 7.63562 11.5544L17.6335 24.53C18.3863 23.9067 19.345 23.6185 20.3008 23.7282C21.2567 23.838 22.1321 24.3367 22.7365 25.1159L31.7086 36.7733C32.384 36.2283 33.0258 35.6395 33.6301 35.0103C33.8852 34.7445 34.1508 34.4679 34.3695 34.1966L23.3041 19.7509C22.551 20.376 21.5911 20.6652 20.634 20.5554C19.677 20.4456 18.8004 19.9458 18.1959 19.1651L12.7491 12.1131C12.1469 11.3289 11.8675 10.3281 11.9719 9.3298C12.0763 8.33146 12.5561 7.41687 13.3063 6.78617L23.2989 19.7509C24.0546 19.1244 25.0181 18.8358 25.9779 18.9487C26.9376 19.0616 27.8151 19.5667 28.4176 20.3531ZM18.9769 2.04507L26.6993 12.0697C27.3014 12.8539 27.5809 13.8547 27.4765 14.853C27.372 15.8514 26.8923 16.766 26.1421 17.3967L18.4198 7.37202C17.8176 6.58781 17.5381 5.58704 17.6426 4.5887C17.747 3.59037 18.2268 2.67577 18.9769 2.04507Z" fill="#CCDAE7"/>
<path d="M57.729 14.9719H53.5633V27.7522H51.7199V14.9719H47.5906V13.1329H57.7134L57.729 14.9719ZM62.905 19.0457C61.4001 18.9807 59.7807 19.7726 59.7807 22.2408V27.7739H58.0363V17.3099H59.7807V19.062C60.0496 18.4454 60.4929 17.929 61.0513 17.5819C61.6096 17.2349 62.2564 17.0737 62.905 17.12V19.0457ZM74.1162 17.3316V27.7739H72.3717V25.9784C71.9649 26.6345 71.4019 27.1697 70.7376 27.5318C70.0733 27.894 69.3303 28.0709 68.5809 28.0451C67.9005 28.0346 67.2289 27.8837 66.6049 27.6012C65.9808 27.3187 65.4167 26.9102 64.9451 26.3992C64.4735 25.8883 64.1038 25.285 63.8573 24.6243C63.6108 23.9637 63.4925 23.2586 63.5091 22.55C63.4897 21.8399 63.606 21.1328 63.8513 20.4699C64.0966 19.807 64.4659 19.2015 64.9379 18.6887C65.4098 18.1759 65.9749 17.7659 66.6003 17.4826C67.2257 17.1993 67.899 17.0484 68.5809 17.0386C69.3303 17.0129 70.0733 17.1898 70.7376 17.552C71.4019 17.9141 71.9649 18.4493 72.3717 19.1054V17.3099L74.1162 17.3316ZM72.3717 22.55C72.3823 22.0576 72.2973 21.5679 72.1217 21.1106C71.9462 20.6532 71.6837 20.2375 71.3501 19.8884C71.0165 19.5393 70.6185 19.2641 70.1803 19.0792C69.742 18.8943 69.2724 18.8036 68.7996 18.8125C68.3286 18.8057 67.8611 18.8982 67.4252 19.0842C66.9893 19.2702 66.594 19.5459 66.2628 19.8949C65.9317 20.2439 65.6716 20.659 65.4982 21.1152C65.3247 21.5715 65.2415 22.0595 65.2535 22.55C65.2415 23.0408 65.3247 23.5291 65.4981 23.9856C65.6715 24.4422 65.9315 24.8576 66.2626 25.207C66.5936 25.5564 66.9889 25.8327 67.4248 26.0193C67.8608 26.2059 68.3283 26.299 68.7996 26.293C69.2746 26.302 69.7464 26.2105 70.1865 26.0239C70.6266 25.8374 71.0257 25.5597 71.3597 25.2077C71.6937 24.8557 71.9556 24.4367 72.1296 23.9762C72.3035 23.5156 72.3859 23.023 72.3717 22.5283V22.55ZM85.6449 21.362V27.7739H83.9005V21.4434C83.9005 19.7292 82.958 18.7691 81.4115 18.7691C79.8649 18.7691 78.5058 19.7509 78.5058 22.2191V27.7522H76.7614V17.3099H78.5058V18.8125C78.8424 18.238 79.3225 17.7695 79.8948 17.4571C80.4671 17.1446 81.1101 17 81.7551 17.0386C84.0984 17.0386 85.6605 18.666 85.6605 21.3403L85.6449 21.362ZM95.1898 24.9151C95.1898 26.8571 93.5859 28.0451 91.4405 28.0451C89.4358 28.0451 88.0298 27.0416 87.4518 25.6041L88.9567 24.7036C89.2744 25.7071 90.196 26.331 91.4405 26.331C92.482 26.331 93.4245 25.935 93.4245 24.9151C93.4245 22.6802 87.8111 23.9496 87.8111 20.1686C87.8111 18.3351 89.3369 17.0603 91.3625 17.0603C92.1002 17.0243 92.8324 17.2096 93.4721 17.5942C94.1117 17.9789 94.632 18.5467 94.9711 19.2302L93.5078 20.0873C93.3203 19.666 93.0153 19.3135 92.6327 19.0754C92.25 18.8374 91.8074 18.725 91.3625 18.7528C90.4564 18.7528 89.5764 19.2085 89.5764 20.1524C89.5764 22.3656 95.1898 21.0474 95.1898 24.8935V24.9151ZM96.8561 14.2179C96.8561 13.8913 96.9806 13.5781 97.2023 13.3471C97.4239 13.1162 97.7246 12.9865 98.0381 12.9865C98.348 12.9922 98.6433 13.1244 98.8605 13.3547C99.0777 13.585 99.1994 13.895 99.1993 14.2179C99.1993 14.5387 99.077 14.8464 98.8592 15.0732C98.6414 15.3001 98.3461 15.4275 98.0381 15.4275C97.8823 15.4297 97.7276 15.3994 97.5833 15.3383C97.4389 15.2772 97.3078 15.1865 97.1976 15.0718C97.0874 14.957 97.0004 14.8203 96.9417 14.67C96.8831 14.5196 96.854 14.3585 96.8561 14.1962V14.2179ZM97.1581 17.3316H98.9025V27.7739H97.1581V17.3316ZM106.422 26.331C106.988 26.3593 107.552 26.2336 108.058 25.9664C108.563 25.6992 108.994 25.2995 109.307 24.8067L110.791 25.6854C110.312 26.4402 109.655 27.0538 108.882 27.4671C108.11 27.8804 107.248 28.0795 106.38 28.0451C103.152 28.0451 101.006 25.6854 101.006 22.55C100.979 21.8218 101.095 21.0955 101.349 20.4163C101.603 19.7372 101.988 19.1198 102.481 18.6027C102.974 18.0856 103.564 17.6798 104.215 17.4107C104.865 17.1416 105.561 17.015 106.26 17.0386C109.286 17.0386 111.254 19.6262 111.254 22.55C111.254 22.8226 111.233 23.0946 111.192 23.3637H102.792C103.131 25.2461 104.558 26.3093 106.422 26.3093V26.331ZM102.777 21.8014H109.473C109.405 20.9637 109.033 20.1844 108.434 19.6213C107.834 19.0583 107.052 18.7537 106.245 18.7691C105.412 18.729 104.595 19.0162 103.955 19.5738C103.316 20.1313 102.901 20.9186 102.792 21.7797L102.777 21.8014ZM122.127 21.362V27.7739H120.382V21.4434C120.382 19.7292 119.44 18.7691 117.893 18.7691C116.347 18.7691 114.988 19.7509 114.988 22.2191V27.7522H113.259V17.3099H115.003V18.8125C115.34 18.238 115.82 17.7695 116.392 17.4571C116.964 17.1446 117.607 17 118.253 17.0386C120.596 17.0386 122.142 18.666 122.142 21.3403L122.127 21.362ZM127.334 19.0837V24.747C127.334 26.331 128.219 26.2279 130 26.1465V27.7739C126.995 28.1916 125.589 27.3562 125.589 24.747V19.062H123.606V17.3099H125.589V14.9285L127.334 14.386V17.3099H130V19.062L127.334 19.0837Z" fill="#CCDAE7"/>
</svg>
