<svg width="125" height="34" viewBox="0 0 125 34" fill="none" xmlns="http://www.w3.org/2000/svg">
<path d="M55.4015 27.8542H56.944C56.0276 30.3477 53.4894 32.1841 50.719 32.1841H50.4472C49.4355 32.1872 48.438 31.9558 47.5393 31.5094C45.218 30.336 44.1061 28.5758 43.7732 26.0559C43.7763 25.95 43.7701 25.844 43.7549 25.7391V25.5308C43.7701 25.4072 43.7763 25.2827 43.7732 25.1582C44.1061 21.9519 46.565 19.4437 49.9585 19.1063C50.1539 19.1063 50.3494 19.0858 50.5449 19.0858H50.6213C52.0153 19.1084 53.3689 19.5386 54.5018 20.319C55.6347 21.0994 56.493 22.193 56.9623 23.4538H55.4015C54.9748 22.5854 54.3059 21.8475 53.4692 21.3219C52.6324 20.7964 51.6604 20.5036 50.661 20.4763C50.3605 20.4665 50.0597 20.4852 49.763 20.532C47.1698 20.8254 45.1996 23.1927 45.1996 25.6657C45.203 26.9708 45.7226 28.2259 46.6532 29.1769C47.5838 30.1279 48.8559 30.7037 50.212 30.7877C50.3311 30.7877 50.4258 30.8083 50.5174 30.8083C51.518 30.8026 52.4975 30.5317 53.3479 30.0255C54.1984 29.5193 54.8868 28.7973 55.3373 27.9392C55.3618 27.904 55.3831 27.8835 55.4015 27.8542Z" fill="#CCDAE7"/>
<path d="M58.294 30.6939L60.6918 26.094C61.9135 23.7883 63.1353 21.4649 64.3235 19.1415C64.3418 19.1239 64.3418 19.0858 64.3602 19.0858C64.3785 19.0858 64.3999 19.1239 64.3999 19.1415C64.6534 19.6109 64.9069 20.0802 65.1604 20.5672C66.0004 22.1953 66.8587 23.8264 67.717 25.4575C68.8685 27.7046 70.0384 29.9546 71.2296 32.1841H69.6291L69.0426 31.0606C68.7372 30.4739 68.4317 29.8871 68.1263 29.3004C68.0866 29.2271 68.0866 29.2271 68.0102 29.2271H60.6796C60.6701 29.2278 60.6612 29.2317 60.6544 29.2382C60.6477 29.2446 60.6436 29.2532 60.6429 29.2623L60.6032 29.3004L59.1981 31.9993C59.1743 32.0657 59.1414 32.1289 59.1004 32.1871H57.5121C57.7656 31.6884 58.0191 31.1808 58.294 30.6939ZM61.492 27.8542H67.2497C67.3657 27.8542 67.3657 27.8542 67.3077 27.7632C66.6968 26.5898 66.0859 25.4575 65.5117 24.2958C65.1421 23.6005 64.7695 22.9082 64.3999 22.1953C64.3999 22.1777 64.3999 22.1601 64.3602 22.1601C64.3204 22.1601 64.3418 22.1777 64.3418 22.1953C64.1066 22.6471 63.8745 23.0754 63.6393 23.5096C62.9185 24.9324 62.1762 26.3375 61.434 27.7632C61.422 27.7717 61.4122 27.7828 61.4053 27.7955C61.3984 27.8082 61.3946 27.8223 61.3943 27.8366C61.4247 27.8506 61.4584 27.8566 61.492 27.8542Z" fill="#CCDAE7"/>
<path d="M79.8126 26.6485H74.7789V32.1753H73.3341V19.077H79.8523C81.9568 19.077 83.539 20.8752 83.539 22.8613C83.539 24.8473 81.9782 26.6485 79.8126 26.6485ZM82.0943 22.8818C82.1126 21.55 81.0985 20.4645 79.8523 20.444H74.7789V25.2785H79.8126C81.0619 25.2785 82.0943 24.2107 82.0943 22.8818Z" fill="#CCDAE7"/>
<path d="M85.9184 32.1753V19.077H87.3601V32.1753H85.9184Z" fill="#CCDAE7"/>
<path d="M89.8128 19.077H101.148V20.4645H96.1935V32.1988H94.7702V20.4645H89.8128V19.077Z" fill="#CCDAE7"/>
<path d="M100.885 30.6939L103.286 26.0852C104.508 23.7795 105.729 21.4561 106.915 19.1327C106.936 19.1151 106.936 19.077 106.954 19.077C106.973 19.077 106.994 19.1151 106.994 19.1327C107.248 19.6021 107.501 20.0714 107.755 20.5584C108.592 22.1865 109.45 23.8176 110.308 25.4487C111.46 27.6958 112.633 29.9458 113.821 32.1753H112.22L111.637 31.0518C111.331 30.4651 111.026 29.8783 110.72 29.2916C110.681 29.2183 110.681 29.2183 110.601 29.2183H103.271C103.261 29.2189 103.252 29.2227 103.244 29.2291C103.237 29.2355 103.232 29.2441 103.231 29.2535L103.194 29.2916L101.789 31.9905C101.763 32.0559 101.73 32.1187 101.692 32.1783H100.091C100.366 31.6883 100.613 31.1808 100.885 30.6939ZM104.086 27.8454H109.835C109.954 27.8454 109.954 27.8454 109.893 27.7544C109.282 26.581 108.671 25.4487 108.1 24.287C107.727 23.5917 107.358 22.8994 106.988 22.1865C106.988 22.1689 106.988 22.1513 106.948 22.1513C106.909 22.1513 106.93 22.1689 106.93 22.1865C106.695 22.6383 106.46 23.0666 106.227 23.5008C105.503 24.9235 104.764 26.3287 104.022 27.7544C104.01 27.7629 104 27.774 103.993 27.7867C103.986 27.7994 103.983 27.8134 103.982 27.8278C104.014 27.8462 104.05 27.8554 104.086 27.8542V27.8454Z" fill="#CCDAE7"/>
<path d="M125 32.1753H115.128V19.077H116.57V30.7877H125V32.1753Z" fill="#CCDAE7"/>
<path d="M51.0367 1.80708H44.5185V14.9054H45.9633V9.37274H50.997C53.1626 9.37274 54.7234 7.59207 54.7234 5.58844C54.7234 3.58482 53.1442 1.80708 51.0367 1.80708ZM50.997 8.00863H45.9633V3.17412H51.0367C52.2859 3.19172 53.3 4.28008 53.2787 5.60898C53.2573 6.93788 52.2462 8.00863 50.997 8.00863Z" fill="#CCDAE7"/>
<path d="M64.5587 12.3562C64.1464 11.9249 63.7187 11.5113 63.288 11.1006C62.8574 10.6899 62.3931 10.2205 61.9441 9.76876C61.8097 9.64684 61.686 9.51437 61.5745 9.37274H63.1017C63.2323 9.37608 63.363 9.37019 63.4927 9.35514C63.6882 9.3346 63.8806 9.2994 64.0761 9.26126C64.8569 9.03992 65.545 8.58757 66.0424 7.96865C66.5399 7.34973 66.8213 6.59581 66.8465 5.81432C66.8679 5.65265 66.8679 5.48902 66.8465 5.32735C66.651 3.41467 65.3467 1.91562 63.3155 1.80708H56.6874V14.8468C56.6874 14.9054 56.6874 14.9054 56.7271 14.9054H58.0741C58.0924 14.9054 58.0924 14.9054 58.1321 14.8849V9.37274H59.5677C61.4309 11.2179 63.2941 13.0544 65.1543 14.9054H67.1641C66.7548 14.5094 66.3455 14.0987 65.9424 13.7056C65.475 13.2538 65.026 12.805 64.5587 12.3562ZM58.1596 3.17412H63.1537C64.461 3.17412 65.359 4.28007 65.4353 5.45937C65.449 5.65576 65.4357 5.85304 65.3956 6.04608C65.3175 6.57787 65.0452 7.0657 64.6273 7.42249C64.2093 7.77929 63.673 7.98183 63.1139 7.99396H58.1199V3.22986C58.1199 3.17412 58.0986 3.17412 58.1596 3.17412Z" fill="#CCDAE7"/>
<path d="M69.1037 14.9054H78.5083V13.5179H70.5485V9.04124H77.201V7.67127L70.5485 7.65367V3.17412H78.5083V1.80708H69.1037V14.9054Z" fill="#CCDAE7"/>
<path d="M86.4682 3.25039C86.7646 3.20108 87.0656 3.18142 87.3662 3.19172C88.732 3.20589 90.0365 3.73847 90.9949 4.67317C91.4605 5.10114 91.8377 5.60974 92.1067 6.17222H93.6675C93.1987 4.91191 92.3408 3.81888 91.2084 3.03895C90.076 2.25903 88.7228 1.82929 87.3296 1.80708H87.2502C87.0547 1.80708 86.8592 1.82468 86.6637 1.82468C85.0575 1.97618 83.558 2.6655 82.4278 3.77194C81.2975 4.87838 80.6086 6.33141 80.4815 7.87662C80.4851 8.00213 80.4779 8.12772 80.4601 8.25211V8.45747C80.4778 8.56316 80.4849 8.67023 80.4815 8.77722C80.8114 11.2884 81.9232 13.0485 84.2446 14.2307C85.1432 14.6771 86.1407 14.9085 87.1524 14.9054H87.4273C90.1977 14.9054 92.7329 13.069 93.6492 10.5755H92.122C92.1037 10.6136 92.0853 10.6312 92.0639 10.6694C91.6138 11.5269 90.9258 12.2483 90.0759 12.754C89.2259 13.2598 88.247 13.5302 87.2471 13.5355C87.1494 13.5355 87.0516 13.5179 86.9417 13.5179C85.5835 13.4337 84.3097 12.8562 83.3787 11.9027C82.4478 10.9492 81.9296 9.69123 81.9293 8.38413C81.9049 5.91113 83.8719 3.54962 86.4682 3.25039Z" fill="#CCDAE7"/>
<path d="M102.449 1.80707C101.099 1.80533 99.7791 2.18834 98.656 2.9076C97.5329 3.62685 96.6573 4.65 96.14 5.84751C95.6227 7.04501 95.4871 8.36301 95.7502 9.63461C96.0133 10.9062 96.6634 12.0742 97.6181 12.9908C98.5729 13.9073 99.7893 14.5311 101.113 14.7833C102.438 15.0354 103.81 14.9045 105.056 14.4072C106.303 13.9099 107.368 13.0684 108.116 11.9894C108.865 10.9104 109.263 9.64245 109.26 8.34599C109.262 7.4865 109.088 6.63509 108.746 5.84069C108.404 5.04628 107.903 4.32454 107.27 3.71692C106.637 3.10931 105.885 2.62779 105.058 2.30003C104.231 1.97228 103.344 1.80475 102.449 1.80707ZM102.449 13.5179C101.384 13.5179 100.343 13.2145 99.4573 12.6462C98.5718 12.0779 97.8816 11.2702 97.474 10.3252C97.0664 9.38014 96.9598 8.34025 97.1676 7.337C97.3753 6.33376 97.8882 5.41222 98.6413 4.68893C99.3944 3.96563 100.354 3.47305 101.399 3.2735C102.443 3.07394 103.526 3.17635 104.51 3.5678C105.494 3.95925 106.335 4.62214 106.926 5.47265C107.518 6.32316 107.834 7.32309 107.834 8.34599C107.836 9.0256 107.697 9.69882 107.427 10.327C107.157 10.9552 106.761 11.5259 106.26 12.0065C105.76 12.4871 105.166 12.868 104.512 13.1273C103.858 13.3867 103.157 13.5194 102.449 13.5179Z" fill="#CCDAE7"/>
<path d="M118.295 8.25211C118.274 8.72148 118.274 9.17031 118.274 9.63968H123.21C122.97 10.5352 122.485 11.3529 121.806 12.0084C121.127 12.6638 120.278 13.1333 119.346 13.3682C119.132 13.4064 118.919 13.4621 118.705 13.4797C118.43 13.4973 118.158 13.5179 117.883 13.5179C115.036 13.5179 112.657 11.083 112.657 8.38413C112.663 7.89735 112.729 7.41295 112.852 6.94081C113.494 4.88732 115.094 3.64349 117.22 3.22985C117.491 3.19243 117.765 3.1738 118.039 3.17412C118.216 3.17412 118.372 3.19172 118.549 3.19172C119.29 3.2749 120.006 3.50222 120.653 3.8598C121.3 4.21738 121.865 4.69774 122.312 5.27161H124.01C123.42 4.21193 122.539 3.32834 121.461 2.71735C120.384 2.10636 119.153 1.79146 117.901 1.80707H117.511L117.101 1.86281C113.686 2.18257 111.209 5.27162 111.209 8.45747C111.224 8.55458 111.23 8.65271 111.228 8.75082C111.533 11.2238 112.654 13.0602 114.975 14.2014C115.489 14.4463 116.033 14.6287 116.594 14.7441C116.808 14.8028 117.022 14.8204 117.239 14.8585C117.543 14.8902 117.849 14.903 118.155 14.8966C118.257 14.9009 118.36 14.894 118.46 14.8761C118.576 14.8761 118.693 14.8585 118.812 14.8585C120.449 14.5387 121.64 14.128 122.868 12.9458C123.719 12.1159 124.32 11.0797 124.606 9.94772C124.677 9.69555 124.73 9.43865 124.762 9.17913C124.78 8.97378 124.801 8.76842 124.82 8.56307V8.24331L118.295 8.25211Z" fill="#CCDAE7"/>
<path d="M13.9496 20.5877H21.4178V13.4152H13.9496V20.5877Z" fill="#CCDAE7"/>
<path d="M17.6852 0C14.1851 0.00290048 10.7644 1.0024 7.85553 2.87215C4.94671 4.74189 2.68036 7.39793 1.34299 10.5045C0.00562572 13.6111 -0.342717 17.0288 0.341984 20.3255C1.02669 23.6222 2.71369 26.65 5.18976 29.026C7.66582 31.402 10.8198 33.0197 14.2529 33.6744C17.6861 34.3292 21.2443 33.9917 24.4777 32.7045C27.7112 31.4174 30.4747 29.2385 32.419 26.4432C34.3633 23.6478 35.401 20.3617 35.401 17C35.3969 12.49 33.5287 8.16599 30.2068 4.97829C26.8849 1.7906 22.3811 -1.67584e-06 17.6852 0ZM26.6897 25.6511H16.1458L10.8708 20.5848L8.67768 18.4668V8.34893H19.2247L24.4966 13.4152L26.6928 15.5332L26.6897 25.6511Z" fill="#CCDAE7"/>
</svg>
