<svg width="178" height="42" viewBox="0 0 178 42" fill="none" xmlns="http://www.w3.org/2000/svg">
<path d="M20.5461 32V20.891H25.3691C26.7201 20.891 27.7561 21.29 28.4771 22.081C29.1911 22.872 29.5481 24.328 29.5481 26.442C29.5481 28.577 29.1911 30.04 28.4771 30.824C27.7561 31.608 26.7201 32 25.3691 32H20.5461ZM22.3311 30.579H25.0261C25.9221 30.579 26.6011 30.334 27.0631 29.837C27.5251 29.347 27.7561 28.213 27.7561 26.442C27.7561 24.692 27.5251 23.565 27.0631 23.068C26.6011 22.571 25.9221 22.319 25.0261 22.319H22.3311V30.579ZM30.8893 32V20.891H32.6673V32H30.8893ZM38.7757 32.056C37.3267 32.056 36.1997 31.65 35.3947 30.845C34.5827 30.04 34.1767 28.584 34.1767 26.463C34.1767 24.391 34.5897 22.942 35.4087 22.123C36.2277 21.304 37.3967 20.891 38.9017 20.891C40.3087 20.891 41.4077 21.248 42.1987 21.955C42.9897 22.669 43.4027 23.705 43.4307 25.063H41.6387C41.6037 24.069 41.3727 23.362 40.9387 22.935C40.4977 22.508 39.8257 22.298 38.9087 22.298C37.9567 22.298 37.2287 22.571 36.7317 23.11C36.2347 23.649 35.9827 24.783 35.9827 26.505C35.9827 28.094 36.2347 29.179 36.7387 29.767C37.2357 30.355 37.9707 30.649 38.9367 30.649C40.7637 30.649 41.5687 29.823 41.6177 28.15L41.6807 27.541H39.1117V26.33H43.4307V31.993H42.2757V30.278L42.4787 29.592L42.3457 29.55L42.1497 30.089C41.7507 31.398 40.6237 32.056 38.7757 32.056ZM44.9713 32V20.891H46.7493V32H44.9713ZM53.4273 22.949V32H51.6353V22.403H48.0723V20.891H56.9763V22.403H52.9093V22.55H53.0283C53.2663 22.55 53.4273 22.711 53.4273 22.949ZM55.7836 32L59.5846 20.891H62.4266L66.1226 32H64.2606L63.2666 29.109H58.6396L57.6456 32H55.7836ZM60.7886 22.697L59.1506 27.611H62.7906L61.1596 22.697C61.0826 22.494 61.0406 22.221 61.0476 22.004V21.801H60.9006L60.9076 22.004C60.9076 22.221 60.8586 22.501 60.7886 22.697ZM68.3825 30.299H68.2705V30.453H73.8425V32H66.9895V20.891H68.7815V29.893C68.7815 30.138 68.6205 30.299 68.3825 30.299ZM79.2992 32L83.1002 20.891H85.9422L89.6382 32H87.7762L86.7822 29.109H82.1552L81.1612 32H79.2992ZM84.3042 22.697L82.6662 27.611H86.3062L84.6752 22.697C84.5982 22.494 84.5562 22.221 84.5632 22.004V21.801H84.4162L84.4232 22.004C84.4232 22.221 84.3742 22.501 84.3042 22.697ZM90.5051 32V20.891H96.0981C97.1341 20.891 97.8831 21.185 98.3521 21.773C98.8211 22.368 99.0521 23.201 99.0521 24.279C99.0521 25.329 98.8071 26.141 98.3241 26.708C97.9181 27.191 97.3091 27.471 96.4901 27.548L96.5461 27.674L97.1901 27.576L99.0101 32H97.0641L95.3491 28.045L95.3421 27.688H92.2971V32H90.5051ZM92.2971 26.309H95.6221C96.7631 26.309 97.2531 25.658 97.2531 24.307C97.2531 22.928 96.7631 22.256 95.6221 22.256H92.2971V26.309ZM104.813 32.063C103.168 32.063 101.957 31.643 101.194 30.81C100.424 29.977 100.039 28.528 100.039 26.47C100.039 24.377 100.424 22.928 101.187 22.109C101.95 21.297 103.161 20.891 104.813 20.891C106.444 20.891 107.613 21.262 108.313 22.011C109.006 22.76 109.356 23.894 109.356 25.42H107.543C107.543 24.167 107.326 23.341 106.899 22.928C106.472 22.515 105.765 22.312 104.792 22.312C103.805 22.312 103.063 22.557 102.58 23.054C102.097 23.551 101.852 24.685 101.852 26.47C101.852 28.22 102.097 29.354 102.58 29.865C103.063 30.383 103.805 30.642 104.792 30.642C105.765 30.642 106.465 30.418 106.899 29.977C107.326 29.536 107.543 28.717 107.543 27.506H109.356C109.356 28.99 109.006 30.117 108.313 30.894C107.613 31.671 106.444 32.063 104.813 32.063ZM110.562 32V20.891H112.347V25.63H117.534V20.891H119.319V32H117.534V27.219H112.347V32H110.562ZM120.864 32V20.891H122.642V32H120.864ZM129.32 22.949V32H127.528V22.403H123.965V20.891H132.869V22.403H128.802V22.55H128.921C129.159 22.55 129.32 22.711 129.32 22.949ZM133.798 32V20.891H141.568V22.403H135.59V25.588H141.358V27.093H135.59V30.488H141.568V32H133.798ZM147.374 32.063C145.729 32.063 144.518 31.643 143.755 30.81C142.985 29.977 142.6 28.528 142.6 26.47C142.6 24.377 142.985 22.928 143.748 22.109C144.511 21.297 145.722 20.891 147.374 20.891C149.005 20.891 150.174 21.262 150.874 22.011C151.567 22.76 151.917 23.894 151.917 25.42H150.104C150.104 24.167 149.887 23.341 149.46 22.928C149.033 22.515 148.326 22.312 147.353 22.312C146.366 22.312 145.624 22.557 145.141 23.054C144.658 23.551 144.413 24.685 144.413 26.47C144.413 28.22 144.658 29.354 145.141 29.865C145.624 30.383 146.366 30.642 147.353 30.642C148.326 30.642 149.026 30.418 149.46 29.977C149.887 29.536 150.104 28.717 150.104 27.506H151.917C151.917 28.99 151.567 30.117 150.874 30.894C150.174 31.671 149.005 32.063 147.374 32.063ZM157.935 22.949V32H156.143V22.403H152.58V20.891H161.484V22.403H157.417V22.55H157.536C157.774 22.55 157.935 22.711 157.935 22.949Z" fill="#F74A53"/>
<rect x="0.5" y="12.5" width="177" height="29" rx="14.5" stroke="#F74A53"/>
<g clip-path="url(#clip0_206_102)">
<path d="M77.78 4.47002L77.05 0L76.3101 4.47002C76.0279 6.18202 75.2164 7.76256 73.9895 8.98946C72.7626 10.2164 71.182 11.0279 69.47 11.31L65 12.04L69.47 12.78C71.182 13.0621 72.7626 13.8737 73.9895 15.1006C75.2164 16.3275 76.0279 17.908 76.3101 19.62L77.05 24.09L77.78 19.62C78.0621 17.908 78.8737 16.3275 80.1006 15.1006C81.3275 13.8737 82.908 13.0621 84.62 12.78L89.09 12.04L84.65 11.27C82.9382 10.996 81.355 10.1929 80.1229 8.97328C78.8908 7.75371 78.0715 6.17896 77.78 4.47002Z" fill="#F74A53"/>
</g>
<defs>
<clipPath id="clip0_206_102">
<rect width="24.09" height="24.09" fill="white" transform="translate(65)"/>
</clipPath>
</defs>
</svg>
