<svg width="82" height="50" viewBox="0 0 82 50" fill="none" xmlns="http://www.w3.org/2000/svg">
<path d="M20.9147 9.73633V29.8162H17.3259V20.3943H14.1817V29.8162H10.5929V9.73633H20.9147ZM17.3259 11.0374H14.1817V19.1149H17.3259V11.0374Z" fill="#D9D9D9"/>
<path d="M33.6761 19.1149L32.3533 20.4593L33.6761 21.8038V29.8162H30.109V20.8713H26.9647V29.8162H23.3976V9.71469H33.6761V19.1149ZM30.109 19.5594V11.0591H26.9647V19.5594H30.109Z" fill="#D9D9D9"/>
<path d="M49.5491 9.73633V29.8162H44.128L39.6393 13.0541V29.8162H36.0722V9.73633H41.4933L45.9495 26.5635V9.73633H49.5491Z" fill="#D9D9D9"/>
<path d="M62.2996 9.73633V29.8162H52.032V9.73633H62.2996ZM58.7325 11.0591H55.5991V28.5151H58.7325V11.0591Z" fill="#D9D9D9"/>
<path d="M75.061 17.7921L73.7382 19.1149L75.061 20.4593V29.8162H64.7825V9.73633H75.061V17.7921ZM68.3496 18.2475H71.4939V11.0591H68.3496V18.2475ZM71.4939 19.5594H68.3496V28.5151H71.4939V19.5594Z" fill="#D9D9D9"/>
<path d="M7.83893 33.817V30.6727H4.69468V48.1288H7.83893V44.9954H11.4386V49.4515H1.13842V29.35H11.4386V33.817H7.83893Z" fill="#D9D9D9"/>
<path d="M23.7662 29.35V49.4732H20.1774V40.073H17.0548V49.4732H13.4661V29.35H17.0548V38.7285H20.1774V29.35H23.7662Z" fill="#D9D9D9"/>
<path d="M36.5818 29.35V49.4732H32.9821V40.0513H29.8379V49.4732H26.2708V29.35H36.5818ZM32.9821 30.6402H29.8379V38.7285H32.9821V30.6402Z" fill="#D9D9D9"/>
<path d="M42.6209 29.35V49.4732H39.0538V29.35H42.6209ZM46.2206 39.1731L50.6767 49.4732H46.6651L42.6209 39.1731L47.1096 29.35H50.6767L46.2206 39.1731Z" fill="#D9D9D9"/>
<path d="M69.1953 29.35V49.4732H65.6065V30.6727H62.4623V44.9954H58.8952V30.6727H55.7509V49.4732H52.1838V29.35H69.1953Z" fill="#D9D9D9"/>
<path d="M82 29.35V49.4732H78.4112V40.0513H75.267V49.4732H71.6782V29.35H82ZM78.4112 30.6402H75.267V38.7285H78.4112V30.6402Z" fill="#D9D9D9"/>
<path d="M5.72471 13.2167L5.62713 12.5445C5.51668 11.7806 5.361 11.0239 5.16093 10.2784C5.04069 9.80641 4.86224 9.35115 4.62967 8.92316C4.34429 8.39954 3.92045 7.96448 3.40448 7.66548C2.96589 7.40997 2.49565 7.21315 2.00582 7.08003C1.45287 6.91739 0.921612 6.78722 0.325288 6.6788L0 6.60296L0.303582 6.53791C1.03916 6.40786 1.764 6.22302 2.47203 5.98495C2.85035 5.84915 3.21367 5.67471 3.55626 5.46447C4.11266 5.09459 4.54961 4.57106 4.81397 3.95745C5.02022 3.47773 5.18351 2.98065 5.30188 2.47207C5.43199 1.88658 5.5404 1.30104 5.62713 0.71556C5.62713 0.47703 5.70305 0.23853 5.74642 0L5.81147 0.390305C5.92916 1.23329 6.092 2.06934 6.29935 2.89486C6.42121 3.34277 6.58456 3.77836 6.78726 4.19595C7.07663 4.75351 7.516 5.21914 8.05582 5.54038C8.48853 5.78965 8.95124 5.98279 9.43278 6.11505C9.94581 6.27313 10.467 6.40341 10.9941 6.50535L11.4928 6.61375H11.2543C10.5196 6.74806 9.79508 6.93283 9.08582 7.16672C8.67905 7.30095 8.28962 7.48293 7.92569 7.70883C7.35915 8.08919 6.91781 8.62863 6.65716 9.25926C6.43227 9.79379 6.26156 10.3496 6.14757 10.9182C6.00663 11.5362 5.90905 12.1541 5.81147 12.783L5.74642 13.1734L5.72471 13.2167Z" fill="#D9D9D9"/>
</svg>
