<svg width="239" height="181" viewBox="0 0 239 181" fill="none" xmlns="http://www.w3.org/2000/svg">
<path d="M150.488 89.1371C150.117 89.1371 149.761 89.1371 149.376 89.1007C148.991 89.0643 148.65 89.0352 148.257 88.977C144.942 88.4757 141.858 86.9761 139.415 84.6775C136.558 81.9754 134.326 78.6804 132.875 75.0235C131.211 70.942 130.156 66.6375 129.744 62.2484C129.272 57.4362 129.387 52.5845 130.085 47.8001C131.596 37.2003 135.527 28.1065 140.722 21.9008C145.918 15.6952 152.406 12.3777 159.025 13.3599C165.623 14.3056 170.913 19.3036 174.175 26.7096C177.437 34.1157 178.673 43.9443 177.161 54.5441C175.708 64.54 172.148 73.1901 167.374 79.3375C162.6 85.485 156.671 89.1371 150.488 89.1371ZM156.911 17.8414C152.006 17.8414 147.073 21.2097 143.062 26.7169C139.051 32.2241 135.949 39.8775 134.721 48.4403C134.082 52.8101 133.973 57.2411 134.394 61.6373C134.751 65.611 135.696 69.5094 137.198 73.2047C138.345 76.1091 140.077 78.7463 142.285 80.9527C144.088 82.7577 146.415 83.9466 148.933 84.3501C154.15 85.0776 159.425 81.9639 163.719 76.4057C168.013 70.8476 171.327 62.8595 172.613 53.853C173.899 44.8464 172.918 36.2472 170.331 29.6997C167.745 23.1521 163.552 18.6707 158.43 17.9359C158.175 17.9359 157.928 17.8777 157.703 17.8559L156.911 17.8414Z" fill="black"/>
<path d="M96.276 81.3749C95.903 81.3749 95.5323 81.3604 95.1641 81.3313C94.7936 81.3313 94.4377 81.2658 94.0526 81.2148C90.7332 80.7137 87.6443 79.2142 85.1954 76.9152C82.3565 74.2085 80.142 70.9137 78.7068 67.2612C77.0393 63.1808 75.9839 58.8759 75.5751 54.4862C75.0979 49.6745 75.2101 44.8224 75.9093 40.0379C76.5825 35.2487 77.8317 30.5586 79.6296 26.0697C81.2551 21.9722 83.4732 18.1361 86.2126 14.6842C88.6189 11.5815 91.6741 9.04376 95.1641 7.24908C98.1427 5.70126 101.53 5.1244 104.852 5.59922C108.174 6.07404 111.265 7.5768 113.692 9.89722C116.53 12.6067 118.746 15.9006 120.189 19.5513C121.852 23.633 122.907 27.9373 123.32 32.3263C123.795 37.1383 123.68 41.9905 122.979 46.7746C121.525 56.7779 117.965 65.4279 113.191 71.5754C108.417 77.7228 102.459 81.3749 96.276 81.3749ZM102.655 10.0791C100.343 10.1285 98.086 10.794 96.116 12.007C93.7075 13.4801 91.5836 15.3751 89.8456 17.6015C87.37 20.7286 85.3697 24.2049 83.9093 27.9176C80.6659 36.164 79.3967 45.0564 80.2036 53.8823C80.5633 57.8555 81.5084 61.7536 83.0082 65.4497C84.1573 68.353 85.8883 70.9899 88.0944 73.1977C89.8998 75.0003 92.2259 76.1888 94.743 76.5952C99.8728 77.3227 105.148 74.2235 109.464 68.658C113.78 63.0926 117.129 55.0973 118.415 46.1053C119.052 41.7354 119.165 37.3049 118.75 32.9083C118.387 28.9325 117.439 25.0321 115.938 21.3336C114.792 18.4288 113.06 15.7914 110.852 13.5857C109.045 11.7848 106.72 10.5965 104.203 10.1882C103.949 10.1519 103.695 10.1301 103.44 10.1082C103.186 10.0864 102.917 10.0937 102.655 10.0937V10.0791Z" fill="black"/>
<path d="M150.429 94.5645C149.942 94.5645 149.455 94.5645 148.976 94.5136C148.496 94.4627 147.988 94.4262 147.523 94.3535C143.28 93.7079 139.321 91.8283 136.137 88.9482C132.547 85.6807 129.746 81.6379 127.948 77.1262C126.096 72.5932 124.914 67.8142 124.439 62.9398C123.908 57.6418 124.025 52.2987 124.787 47.0292C126.517 34.9162 131.247 24.571 137.561 17.5505C143.875 10.5301 151.773 6.81249 159.86 7.98378C167.962 9.14779 174.509 14.9242 178.599 23.436C182.69 31.9479 184.325 43.2025 182.596 55.3082C180.968 66.6864 176.71 76.5005 170.97 83.47C165.23 90.4395 157.993 94.5645 150.429 94.5645ZM156.867 23.2687C153.706 23.2687 150.059 25.9242 146.927 30.5002C143.795 35.0762 141.187 41.5583 140.09 49.2117C139.53 53.093 139.428 57.0266 139.784 60.9318C140.083 64.4274 140.895 67.8595 142.197 71.1169C142.994 73.1421 144.149 75.0074 145.605 76.6241C146.659 77.8485 148.095 78.6814 149.681 78.9885C152.892 79.4323 156.714 76.9442 160.013 72.3537C163.312 67.7631 166.087 61.07 167.221 53.1038C168.354 45.1376 167.562 37.928 165.68 32.5953C163.799 27.2627 160.834 23.7998 157.637 23.3342H157.252C157.124 23.3122 156.996 23.2977 156.867 23.2906V23.2687Z" fill="#D9D9D9"/>
<path d="M96.2325 86.8021C95.7457 86.8021 95.2516 86.8021 94.7793 86.7512C94.307 86.7003 93.7984 86.6639 93.3261 86.5912C89.0812 85.9469 85.119 84.0671 81.9329 81.1858C78.3473 77.9142 75.5478 73.8726 73.7441 69.3638C71.8911 64.8316 70.7113 60.052 70.242 55.1774C69.1868 44.5421 70.7176 33.8091 74.7034 23.8945C76.5219 19.3468 78.9943 15.0896 82.0422 11.2577C85.0365 7.43441 88.8571 4.34024 93.2172 2.20756C97.0679 0.300329 101.405 -0.394504 105.658 0.21455C109.911 0.823604 113.88 2.70794 117.042 5.61953C120.63 8.88904 123.43 12.9312 125.231 17.4415C127.082 21.9748 128.265 26.7537 128.741 31.6279C129.279 36.9256 129.161 42.2696 128.392 47.5385C126.764 58.9095 122.506 68.7236 116.766 75.6931C111.026 82.6627 103.767 86.8021 96.2325 86.8021ZM102.692 15.5063C101.166 15.5801 99.6927 16.0845 98.4414 16.9614C96.7668 18.0824 95.2806 19.4624 94.0381 21.0499C91.8748 23.8011 90.1358 26.8616 88.8792 30.1293C86.0117 37.4599 84.8825 45.3568 85.5804 53.1986C85.8766 56.6952 86.6922 60.128 88.0001 63.3837C88.794 65.409 89.9461 67.2745 91.4007 68.8909C92.4594 70.1104 93.8935 70.9423 95.4768 71.2553C98.6738 71.7136 102.489 69.2255 105.795 64.635C109.101 60.0444 111.876 53.3368 113.017 45.3706C113.583 41.4874 113.686 37.5506 113.322 33.6431C113.032 30.1462 112.219 26.7128 110.91 23.458C110.111 21.4314 108.957 19.564 107.502 17.9436C106.447 16.7192 105.011 15.8863 103.426 15.5792H103.062L102.692 15.5063Z" fill="#D9D9D9"/>
<path d="M119.483 180.018C117.558 180.018 115.618 179.952 113.671 179.814C111.723 179.676 109.783 179.465 107.858 179.188C89.7735 176.556 73.0648 168.014 60.3294 154.892C47.5941 141.769 39.5457 124.802 37.4359 106.627C23.6741 102.509 13.9885 98.4785 7.92141 94.2589C1.85431 90.0394 -0.587049 85.5289 0.117751 80.5964C0.822552 75.6639 4.41196 71.9972 11.3946 69.6182C18.3772 67.2393 28.7458 66.0825 43.0307 65.9807C45.8131 59.1182 49.5191 52.6686 54.0459 46.8109C64.1512 33.7792 77.9141 24.0671 93.5696 18.9201C109.225 13.7732 126.059 13.4261 141.913 17.9233C157.767 22.4206 171.917 31.5572 182.55 44.1612C193.182 56.7653 199.812 72.2622 201.589 88.6644C215.336 92.7676 225 96.7907 231.052 101.032C237.105 105.273 239.539 109.762 238.827 114.753C238.115 119.744 234.518 123.308 227.507 125.665C220.495 128.023 210.068 129.179 195.703 129.303C189.369 144.311 178.765 157.122 165.212 166.14C151.659 175.157 135.756 179.984 119.483 180.018ZM49.0033 99.6062C49.1205 99.9035 49.2128 100.21 49.2793 100.523C49.3512 100.844 49.3973 101.17 49.4173 101.498C50.4456 117.628 56.9897 132.912 67.9488 144.78C78.9079 156.648 93.6138 164.376 109.594 166.664C125.574 168.953 141.854 165.663 155.697 157.347C169.539 149.031 180.1 136.197 185.604 121.002C185.713 120.694 185.846 120.394 186.003 120.107C186.155 119.824 186.331 119.554 186.527 119.3C186.49 118.939 186.49 118.576 186.527 118.216C186.565 117.849 186.635 117.486 186.737 117.132C187.29 115.269 187.74 113.545 188.111 111.916C188.481 110.286 188.765 108.744 188.975 107.238C189.179 105.848 189.331 104.408 189.433 102.873C189.535 101.338 189.593 99.6643 189.607 97.8456C189.607 97.7655 189.607 97.6928 189.607 97.6128C189.607 97.5328 189.607 97.46 189.607 97.38C189.607 97.2999 189.607 97.1835 189.607 97.0817C189.607 96.9798 189.607 96.878 189.607 96.7762C189.504 80.2628 183.597 64.3131 172.921 51.7256C162.246 39.138 147.484 30.7166 131.226 27.9388C114.968 25.1611 98.2519 28.2046 84.0113 36.5351C69.7707 44.8656 58.9148 57.9512 53.3484 73.4959C53.3484 73.6196 53.2901 73.7433 53.2611 73.8669C53.232 73.9906 53.1887 74.1143 53.1451 74.2307C52.9489 74.7836 52.7743 75.3437 52.6072 75.9112C52.4401 76.4786 52.2801 77.0461 52.113 77.6135C52.0694 77.7809 52.0115 77.9482 51.9533 78.1156C51.8952 78.2829 51.8224 78.443 51.7497 78.603C51.3573 80.0289 51.0112 81.4669 50.7109 82.9171C50.413 84.3721 50.1514 85.8272 49.9407 87.3331C49.7299 88.8391 49.5702 90.4031 49.4684 92.0691C49.3667 93.7351 49.3157 95.5102 49.323 97.4454C49.3219 97.8163 49.2877 98.1864 49.2211 98.5512C49.1771 98.9082 49.1044 99.261 49.0033 99.6062ZM201.676 106.154L201.524 107.609C201.466 108.082 201.4 108.547 201.335 109.013C201.247 109.602 201.153 110.199 201.051 110.795C200.949 111.392 200.841 111.988 200.724 112.599C204.023 112.512 206.9 112.359 209.444 112.17C211.987 111.981 214.086 111.763 215.896 111.523C214.224 110.795 212.263 109.937 209.887 109.042C207.511 108.147 204.764 107.158 201.647 106.146L201.676 106.154ZM23.0856 83.8992C24.7495 84.6267 26.7186 85.4489 29.1019 86.3364C31.4851 87.224 34.1879 88.177 37.3196 89.1882C37.3777 88.5698 37.4358 87.966 37.5085 87.3622C37.5811 86.7583 37.6466 86.1764 37.7338 85.5871C37.821 84.9978 37.8719 84.634 37.9518 84.1321C38.0317 83.6301 38.1044 83.1863 38.1843 82.7207C34.9146 82.8152 32.0445 82.9753 29.5377 83.179C27.0309 83.3827 24.8657 83.6373 23.0565 83.8919L23.0856 83.8992Z" fill="#D9D9D9"/>
<path d="M195.167 108.118C192.668 125.645 184.178 141.762 171.142 153.723C158.106 165.685 141.33 172.751 123.675 173.717C106.019 174.684 88.5746 169.491 74.3139 159.024C60.0532 148.556 49.8582 133.462 45.4663 116.312C41.0745 99.1627 42.7575 81.0191 50.2283 64.9725C57.699 48.926 70.4953 35.9693 86.4372 28.3102C102.379 20.6511 120.48 18.7632 137.656 22.9684C154.833 27.1736 170.021 37.2117 180.635 51.3722C186.672 59.4051 191.065 68.5539 193.559 78.2924C196.053 88.031 196.599 98.1671 195.167 108.118Z" fill="#F74A53"/>
<path fill-rule="evenodd" clip-rule="evenodd" d="M232.696 113.88C233.226 110.148 229.063 106.474 222.262 103.018C215.461 99.5627 205.957 96.318 195.821 93.4443C195.821 94.1718 195.864 94.8994 195.871 95.6269C195.879 96.3544 195.871 97.0819 195.871 97.8458C207.875 101.338 216.129 104.561 221.346 107.223C226.563 109.886 228.728 111.996 228.547 113.262C228.307 114.913 224.914 116.317 218.847 117.314C212.779 118.311 203.922 118.871 192.762 118.849C192.551 119.576 192.355 120.26 192.151 120.966C191.948 121.672 191.73 122.377 191.49 123.061C202.905 123.141 212.961 122.588 220.285 121.141C227.609 119.693 232.194 117.379 232.696 113.88Z" fill="#060A0E"/>
<path fill-rule="evenodd" clip-rule="evenodd" d="M10.3704 82.0512C10.5521 80.7854 13.2186 79.3667 18.9732 78.2754C24.7279 77.1842 33.549 76.4057 46.0465 76.4275C46.2499 75.7 46.446 74.9726 46.6567 74.2887C46.8674 73.6048 47.0853 72.8773 47.3251 72.1862C36.7894 72.0989 26.7697 72.55 19.264 73.9541C11.7582 75.3582 6.7374 77.7152 6.18519 81.4546C5.68384 84.9467 9.44024 88.4897 16.0668 91.938C22.6934 95.3864 32.1973 98.733 43.1763 101.854C43.1327 101.126 43.1253 100.399 43.1253 99.6715C43.1253 98.944 43.1253 98.2164 43.1253 97.4889C32.408 94.3825 24.0958 91.3561 18.5155 88.6934C12.9353 86.0307 10.1306 83.7027 10.3704 82.0512Z" fill="#060A0E"/>
<path fill-rule="evenodd" clip-rule="evenodd" d="M117.304 112.679C101.98 110.497 88.0148 108.009 75.59 105.404C63.1652 102.8 52.2881 100.101 43.1475 97.4526C43.1475 98.1801 43.1475 98.9077 43.1475 99.6352C43.1475 100.363 43.1475 101.09 43.1984 101.818C54.3299 104.982 66.9798 107.914 79.7098 110.46C92.4398 113.007 105.257 115.175 116.716 116.812C128.174 118.449 141.078 119.969 154.012 121.097C166.945 122.224 179.908 122.966 191.475 123.054C191.715 122.37 191.933 121.664 192.137 120.958C192.34 120.253 192.536 119.547 192.747 118.841C183.236 118.841 172.032 118.369 159.382 117.386C146.731 116.404 132.628 114.869 117.304 112.679Z" fill="#060A0E"/>
<path d="M120.937 104.961C120.501 104.961 120.072 104.96 119.644 104.917C119.215 104.873 118.772 104.844 118.343 104.779C114.661 104.245 111.234 102.585 108.531 100.026C105.828 97.4668 103.982 94.1338 103.244 90.4831C103.184 90.1612 103.252 89.8286 103.434 89.5566C103.616 89.2845 103.898 89.0948 104.218 89.0281C104.375 88.987 104.538 88.9806 104.698 89.0095C104.857 89.0384 105.008 89.1019 105.14 89.1954C105.416 89.3857 105.609 89.6747 105.678 90.0029C106.248 92.8825 107.622 95.5412 109.64 97.6704C111.658 99.7996 114.238 101.312 117.081 102.032C119.923 102.752 122.911 102.649 125.698 101.737C128.484 100.825 130.955 99.14 132.824 96.8779C133.168 96.4581 133.49 96.021 133.79 95.5684C134.098 95.0993 134.379 94.6136 134.633 94.1133C134.708 93.9688 134.811 93.8405 134.936 93.7359C135.061 93.6313 135.205 93.5524 135.36 93.5037C135.515 93.455 135.678 93.4375 135.84 93.4523C136.003 93.467 136.16 93.5137 136.304 93.5896C136.592 93.7444 136.808 94.0053 136.907 94.3171C136.958 94.4724 136.976 94.6363 136.961 94.7989C136.946 94.9615 136.898 95.1194 136.82 95.2628C136.529 95.8311 136.207 96.3825 135.854 96.9142C135.505 97.44 135.127 97.9453 134.72 98.4275C133.042 100.465 130.933 102.105 128.546 103.229C126.159 104.354 123.553 104.935 120.915 104.931L120.937 104.961Z" fill="black"/>
<path d="M120.937 106.052C120.479 106.052 120.029 106.052 119.571 106.001C119.113 105.95 118.648 105.921 118.19 105.856C114.29 105.287 110.66 103.525 107.799 100.811C104.937 98.0965 102.983 94.5632 102.205 90.6943C102.087 90.0878 102.213 89.4591 102.556 88.9454C102.899 88.4317 103.431 88.0746 104.036 87.9516C104.334 87.8922 104.641 87.8924 104.939 87.9524C105.237 88.0123 105.52 88.1307 105.773 88.3008C106.283 88.6366 106.643 89.1586 106.775 89.7558C107.307 92.432 108.586 94.9023 110.463 96.8804C112.34 98.8585 114.739 100.263 117.381 100.932C120.024 101.601 122.801 101.506 125.391 100.658C127.982 99.8105 130.279 98.2451 132.017 96.1433C132.34 95.7576 132.64 95.3544 132.918 94.9356C133.202 94.5088 133.461 94.0669 133.696 93.6116C133.909 93.2035 134.239 92.8679 134.642 92.6473C135.046 92.4266 135.506 92.3309 135.964 92.3721C136.422 92.4134 136.858 92.5899 137.216 92.8791C137.574 93.1684 137.839 93.5575 137.976 93.9971C138.068 94.2876 138.101 94.5937 138.074 94.8973C138.046 95.2009 137.959 95.4959 137.816 95.765C137.503 96.3674 137.159 96.9527 136.784 97.5183C136.415 98.0769 136.015 98.6137 135.585 99.1261C133.809 101.287 131.577 103.026 129.049 104.219C126.521 105.411 123.76 106.027 120.966 106.023L120.937 106.052Z" fill="black"/>
<path fill-rule="evenodd" clip-rule="evenodd" d="M132.425 48.0986C131.023 57.9054 132.135 67.1229 135.056 74.0997C137.976 81.0765 142.721 85.8053 148.585 86.6492C154.448 87.4931 160.326 84.2703 165.086 78.3993C169.845 72.5283 173.492 63.9874 174.895 54.1806C176.297 44.3738 175.185 35.1635 172.257 28.1867C169.329 21.2099 164.591 16.4738 158.728 15.6372C152.864 14.8006 146.993 18.0089 142.227 23.8871C137.46 29.7654 133.828 38.3282 132.425 48.0986Z" fill="#D9D9D9"/>
<path fill-rule="evenodd" clip-rule="evenodd" d="M78.2133 40.3652C76.811 50.172 77.9224 59.3895 80.8434 66.3663C83.7643 73.3431 88.5091 78.0719 94.3727 78.9158C100.236 79.7598 106.115 76.5369 110.874 70.6659C115.633 64.7949 119.281 56.254 120.676 46.4472C122.071 36.6404 120.974 27.4301 118.045 20.4533C115.117 13.4765 110.38 8.74044 104.516 7.90381C98.6523 7.06717 92.7742 10.2755 88.015 16.1537C83.2557 22.032 79.6084 30.5657 78.2133 40.3652Z" fill="#D9D9D9"/>
<path d="M150.488 89.1371C150.117 89.1371 149.761 89.1371 149.376 89.1007C148.991 89.0643 148.65 89.0352 148.257 88.977C144.942 88.4757 141.858 86.9761 139.415 84.6775C136.558 81.9754 134.326 78.6804 132.875 75.0235C131.211 70.942 130.156 66.6375 129.744 62.2484C129.272 57.4362 129.387 52.5845 130.085 47.8001C131.596 37.2003 135.527 28.1065 140.722 21.9008C145.918 15.6952 152.406 12.3777 159.025 13.3599C165.645 14.342 170.913 19.3036 174.175 26.7096C177.437 34.1157 178.673 43.937 177.161 54.5368C175.708 64.54 172.148 73.1901 167.374 79.3375C162.6 85.485 156.671 89.1371 150.488 89.1371ZM156.911 17.8414C152.006 17.8414 147.073 21.2097 143.062 26.7169C139.051 32.2241 135.949 39.8775 134.721 48.4403C134.082 52.8101 133.973 57.2411 134.394 61.6373C134.751 65.611 135.696 69.5094 137.198 73.2047C138.345 76.1091 140.077 78.7463 142.285 80.9527C144.088 82.7577 146.415 83.9466 148.933 84.3501C154.15 85.0776 159.425 81.9639 163.719 76.3985C168.013 70.833 171.327 62.8523 172.613 53.8457C173.899 44.8392 172.918 36.2327 170.331 29.6924C167.745 23.1521 163.552 18.6634 158.43 17.9286C158.175 17.9286 157.928 17.8705 157.703 17.8486L156.911 17.8414Z" fill="#060A0E"/>
<path d="M96.276 81.3749C95.903 81.3749 95.5323 81.3604 95.1641 81.3313C94.7936 81.3313 94.4377 81.2658 94.0526 81.2148C90.7332 80.7137 87.6443 79.2142 85.1954 76.9152C82.3565 74.2085 80.142 70.9137 78.7068 67.2612C77.0393 63.1808 75.9839 58.8759 75.5751 54.4862C75.0979 49.6745 75.2101 44.8224 75.9093 40.0379C76.5825 35.2487 77.8317 30.5586 79.6296 26.0697C81.2551 21.9722 83.4732 18.1361 86.2126 14.6842C88.6189 11.5815 91.6741 9.04376 95.1641 7.24908C98.1427 5.70126 101.53 5.1244 104.852 5.59922C108.174 6.07404 111.265 7.5768 113.692 9.89722C116.53 12.6067 118.746 15.9006 120.189 19.5513C121.852 23.633 122.907 27.9373 123.32 32.3263C123.795 37.1383 123.68 41.9905 122.979 46.7746C121.525 56.7779 117.965 65.4279 113.191 71.5754C108.417 77.7228 102.459 81.3749 96.276 81.3749ZM102.655 10.0791C100.343 10.1285 98.086 10.794 96.116 12.007C93.7075 13.4801 91.5836 15.3751 89.8456 17.6015C87.37 20.7286 85.3697 24.2049 83.9093 27.9176C82.2775 32.0225 81.1455 36.3094 80.5378 40.6854C79.8971 45.055 79.7849 49.4859 80.2036 53.8823C80.5633 57.8555 81.5084 61.7536 83.0082 65.4497C84.1573 68.353 85.8883 70.9899 88.0944 73.1977C89.8998 75.0003 92.2259 76.1888 94.743 76.5952C99.8728 77.3227 105.148 74.2235 109.464 68.658C113.78 63.0926 117.129 55.0973 118.415 46.1053C119.052 41.7354 119.165 37.3049 118.75 32.9083C118.387 28.9325 117.439 25.0321 115.938 21.3336C114.792 18.4288 113.06 15.7914 110.852 13.5857C109.045 11.7848 106.72 10.5965 104.203 10.1882C103.949 10.1519 103.695 10.1301 103.44 10.1082C103.186 10.0864 102.917 10.0937 102.655 10.0937V10.0791Z" fill="#060A0E"/>
<path d="M109.61 14.204C106.057 13.6947 102.475 15.4262 99.3065 18.7509C96.1386 22.0756 93.3922 27.0008 91.4885 32.8863L98.4057 38.5682L105.316 44.25L97.0906 47.7639L88.8652 51.2778C89.0396 57.4543 90.3187 62.9543 92.4113 67.0356C94.5039 71.1169 97.4974 73.7796 101.029 74.3107C105.439 74.9436 109.915 72.1282 113.584 67.1302C117.253 62.1322 120.124 54.8571 121.301 46.5562C122.478 38.2554 121.773 30.4929 119.651 24.6437C117.53 18.7945 114.02 14.8369 109.61 14.204Z" fill="#060A0E"/>
<path d="M163.806 21.9663C160.275 21.4644 156.722 23.1595 153.569 26.4478C150.415 29.7361 147.676 34.5887 145.765 40.4014L152.639 46.2215L159.512 52.0416L151.294 55.6791L143.069 59.3167C143.273 65.435 144.523 70.8694 146.652 74.9071C148.781 78.9448 151.694 81.571 155.225 82.073C159.636 82.706 164.112 79.8905 167.781 74.8925C171.45 69.8946 174.32 62.6195 175.497 54.3187C176.674 46.0178 175.97 38.2553 173.855 32.4061C171.741 26.557 168.239 22.6356 163.806 21.9663Z" fill="#060A0E"/>
</svg>
