<svg width="89" height="91" viewBox="0 0 89 91" fill="none" xmlns="http://www.w3.org/2000/svg">
<g clip-path="url(#clip0_206_107)">
<path d="M8.47998 72.64C8.47998 72.64 14.53 87.01 15.87 89.33C17.21 91.65 24.76 89.96 24.45 87.2C24.14 84.44 17.45 71.79 17.45 71.79L8.47998 72.64Z" fill="#FF991E"/>
<path d="M18.72 90.93C17.27 90.93 15.98 90.53 15.44 89.58C14.1 87.26 8.25997 73.42 8.01997 72.83C7.98556 72.76 7.96765 72.683 7.96765 72.605C7.96765 72.527 7.98556 72.45 8.01997 72.38C8.06133 72.3142 8.11694 72.2584 8.18271 72.2169C8.24847 72.1753 8.32272 72.1491 8.39998 72.14L17.4 71.29C17.4987 71.2849 17.5969 71.3074 17.6835 71.3551C17.7701 71.4028 17.8416 71.4738 17.89 71.56C18.16 72.08 24.61 84.31 24.89 87.14C25.04 88.49 23.83 89.72 21.64 90.44C20.697 90.7498 19.7125 90.9151 18.72 90.93ZM9.19998 73.07C10.39 75.87 15.2 87.07 16.3 89.07C16.84 90.02 19.17 90.2 21.38 89.48C23.03 88.93 24.04 88.06 23.95 87.24C23.71 85.11 19.12 76.02 17.17 72.31L9.19998 73.07Z" fill="black"/>
<path d="M8.96996 74.6099C4.23996 74.9799 -2.54004 59.8799 1.96996 56.4199C10.88 49.5999 42.97 26.8899 42.97 26.8899L59.38 69.5499C59.38 69.5499 15.1 74.1199 8.96996 74.6099Z" fill="#F74A53"/>
<path d="M8.80002 75.1099C6.04002 75.1099 2.96001 70.8599 1.31001 66.5499C-0.15999 62.7199 -0.83999 57.9399 1.67001 56.0199C10.49 49.2699 42.36 26.7099 42.67 26.4899C42.7307 26.4444 42.8015 26.4143 42.8764 26.4021C42.9513 26.3899 43.028 26.396 43.1 26.4199C43.1727 26.4392 43.2396 26.4755 43.2953 26.526C43.351 26.5765 43.3937 26.6395 43.42 26.7099L59.82 69.3699C59.8544 69.4399 59.8723 69.5169 59.8723 69.5949C59.8723 69.6729 59.8544 69.7499 59.82 69.8199C59.7809 69.8847 59.7269 69.9393 59.6626 69.9793C59.5983 70.0193 59.5255 70.0435 59.45 70.0499C59 70.0999 15.09 74.6199 9.03001 75.0999H8.82002L8.80002 75.1099ZM42.74 27.6699C38.54 30.6699 10.46 50.5599 2.28001 56.8199C0.570011 58.1199 0.560011 61.8199 2.28001 66.1899C4.05001 70.7899 6.97001 74.1899 8.97001 74.1099C14.62 73.6599 53.21 69.6899 58.71 69.1099L42.74 27.6699Z" fill="black"/>
<path d="M42.97 26.89C30.5 31.61 48.97 73.49 59.38 69.55C69.79 65.61 55.91 22 42.97 26.89Z" fill="black"/>
<mask id="mask0_206_107" style="mask-type:luminance" maskUnits="userSpaceOnUse" x="38" y="26" width="26" height="44">
<path d="M42.97 26.89C30.5 31.61 48.97 73.49 59.38 69.55C69.79 65.61 55.91 22 42.97 26.89Z" fill="white"/>
</mask>
<g mask="url(#mask0_206_107)">
<path d="M53.5599 47.04C53.9985 48.1975 54.2047 49.4302 54.1666 50.6675C54.1285 51.9047 53.847 53.1223 53.338 54.2507C52.8291 55.3791 52.1028 56.3962 51.2005 57.2437C50.2983 58.0912 49.2379 58.7525 48.0799 59.19C45.7446 60.0768 43.1527 59.9999 40.8743 58.976C38.5958 57.952 36.8173 56.065 35.9299 53.73C35.4913 52.5724 35.2851 51.3398 35.3232 50.1025C35.3612 48.8652 35.6428 47.6476 36.1517 46.5192C36.6607 45.3908 37.387 44.3738 38.2892 43.5263C39.1915 42.6788 40.2519 42.0174 41.4099 41.58C43.7451 40.6931 46.337 40.7701 48.6155 41.794C50.894 42.8179 52.6725 44.7049 53.5599 47.04Z" fill="white"/>
<path d="M44.7399 60.3C43.3328 60.3002 41.9418 60.0002 40.6599 59.42C39.4711 58.887 38.3995 58.124 37.507 57.1748C36.6145 56.2257 35.9188 55.1093 35.4599 53.89C34.9981 52.6696 34.7816 51.3702 34.8228 50.066C34.864 48.7619 35.1621 47.4787 35.6999 46.2899C36.2329 45.1011 36.9959 44.0295 37.945 43.1371C38.8941 42.2446 40.0106 41.5488 41.2299 41.0899C42.4484 40.6279 43.7463 40.4113 45.0489 40.4525C46.3514 40.4936 47.633 40.7919 48.8199 41.33C50.0112 41.8634 51.085 42.6277 51.9793 43.5786C52.8735 44.5295 53.5705 45.6481 54.0299 46.87C54.4919 48.0885 54.7086 49.3863 54.6674 50.6889C54.6262 51.9915 54.328 53.273 53.7899 54.46C53.2549 55.6491 52.49 56.7208 51.5392 57.6132C50.5884 58.5056 49.4705 59.2012 48.2499 59.6599C47.1281 60.0832 45.9389 60.3001 44.7399 60.3ZM44.7399 41.4499C43.66 41.4486 42.589 41.6452 41.5799 42.0299C40.4771 42.4382 39.4668 43.0625 38.6083 43.8661C37.7497 44.6697 37.0601 45.6365 36.5799 46.71C36.0959 47.7764 35.8281 48.9283 35.7921 50.0989C35.756 51.2696 35.9524 52.4357 36.3699 53.5299C36.7782 54.6327 37.4024 55.643 38.206 56.5016C39.0096 57.3601 39.9765 58.0497 41.0499 58.5299C42.1164 59.014 43.2682 59.2818 44.4389 59.3178C45.6095 59.3539 46.7757 59.1575 47.8699 58.74C48.9727 58.3317 49.983 57.7074 50.8415 56.9038C51.7001 56.1002 52.3897 55.1334 52.8699 54.0599C53.3539 52.9935 53.6217 51.8416 53.6577 50.671C53.6938 49.5004 53.4974 48.3342 53.0799 47.24C52.6716 46.1371 52.0474 45.1269 51.2438 44.2683C50.4402 43.4098 49.4733 42.7202 48.3999 42.24C47.2534 41.7197 46.0089 41.4504 44.7499 41.4499H44.7399Z" fill="black"/>
</g>
<path d="M62.11 45.9099C59.57 37.9999 54.71 28.53 48.73 25.65C47.7547 25.1377 46.6822 24.8372 45.5827 24.7683C44.4832 24.6993 43.3816 24.8635 42.35 25.2499C34.88 28.0799 36.35 40.0599 40.26 50.3399C43.7 59.4299 50.97 71.7 57.99 71.58C58.6734 71.5681 59.3498 71.4396 59.99 71.2C60.1016 71.1531 60.2087 71.0962 60.31 71.0299C66.27 68.3399 65.55 56.5699 62.11 45.9099ZM58.75 67.9099C54.99 69.3299 47.88 60.5399 43.55 49.0899C39.55 38.5199 39.55 30.09 43.55 28.54C44.1369 28.3289 44.7618 28.2438 45.3838 28.2903C46.0058 28.3368 46.611 28.5139 47.16 28.8099C51.26 30.8099 55.8 37.92 58.72 46.99C62.08 57.27 62.07 66.6499 58.75 67.9099Z" fill="#F74A53"/>
<path d="M59.2501 46.8299C56.2501 37.6499 51.6401 30.3999 47.4201 28.3599C46.8119 28.0309 46.1408 27.835 45.4512 27.785C44.7616 27.735 44.0693 27.8321 43.4201 28.0699C41.2301 28.8999 40.0701 31.4399 40.0601 35.4199C40.2402 40.1767 41.2557 44.8649 43.0601 49.2699C46.7701 59.0899 53.3301 68.5699 57.8601 68.5699C58.2016 68.5621 58.5395 68.4979 58.8601 68.3799C62.5601 67.0099 62.7001 57.5399 59.2501 46.8299ZM58.5801 67.4399C55.4601 68.6199 48.5801 60.9499 44.0101 48.9199C42.2585 44.6228 41.2606 40.0559 41.0601 35.4199C41.0601 31.9399 42.0601 29.6599 43.7701 29.0099C44.2937 28.8204 44.8518 28.7448 45.407 28.7879C45.9622 28.831 46.5019 28.9919 46.9901 29.2599C50.9901 31.1799 55.4101 38.1999 58.2901 47.1399C61.8001 58.0199 61.2701 66.4199 58.6301 67.4399H58.5801Z" fill="black"/>
<path d="M62.63 45.7301C60.05 37.7301 55.11 28.1301 48.99 25.1801C47.9545 24.6379 46.8164 24.3203 45.6498 24.2479C44.4832 24.1755 43.3145 24.35 42.22 24.7601C34.4 27.7601 35.86 39.9901 39.83 50.4901C42.66 57.9801 50.07 72.06 57.93 72.06H58.04C58.6515 72.0414 59.2574 71.9371 59.84 71.75C59.9659 71.7273 60.0897 71.6939 60.21 71.6501C66.8 69.1601 66.16 56.8401 62.63 45.7301ZM59.86 70.7301C59.7224 70.7816 59.5769 70.8086 59.43 70.81C59.3146 70.8155 59.2048 70.8615 59.12 70.94C58.7595 71.0266 58.3906 71.0735 58.02 71.0801H57.93C51.15 71.0801 43.93 58.59 40.77 50.1601C36.97 40.1101 35.44 28.41 42.57 25.72C43.5405 25.3575 44.5766 25.204 45.6106 25.2695C46.6445 25.335 47.653 25.618 48.57 26.1001C54.41 28.9101 59.18 38.2501 61.7 46.1001C65.07 56.7301 65.83 68.4601 59.82 70.7301H59.86Z" fill="black"/>
<path d="M52.35 21.06L48.97 18.86L58.6 0.5L65.2 4.78L52.35 21.06Z" fill="#FFD70E"/>
<path d="M52.35 21.5499C52.2535 21.5543 52.1584 21.5261 52.08 21.4699L48.69 19.2799C48.586 19.212 48.511 19.1079 48.4795 18.9877C48.4481 18.8676 48.4625 18.74 48.52 18.6299L58.15 0.25991C58.22 0.138117 58.3348 0.0484356 58.47 0.00991034C58.6061 -0.0206215 58.7488 0.000772998 58.87 0.0699079L65.47 4.35992C65.5846 4.44042 65.6635 4.56233 65.69 4.69991C65.7071 4.83788 65.6714 4.97721 65.59 5.0899L52.74 21.3599C52.6944 21.42 52.6354 21.4685 52.5677 21.5015C52.4999 21.5345 52.4253 21.5511 52.35 21.5499ZM49.63 18.7299L52.25 20.4299L64.47 4.9399L58.79 1.2499L49.63 18.7299Z" fill="black"/>
<path d="M66.77 71.3899L68.3 67.6599L88.13 73.7099L85.15 80.9899L66.77 71.3899Z" fill="#FFD70E"/>
<path d="M85.1401 81.49C85.0595 81.4905 84.9801 81.4698 84.9101 81.43L66.5401 71.82C66.4302 71.7622 66.3453 71.6663 66.3011 71.5503C66.2569 71.4343 66.2566 71.3062 66.3001 71.19L67.8301 67.46C67.8789 67.3456 67.9678 67.253 68.0802 67.1995C68.1925 67.1461 68.3205 67.1356 68.4401 67.17L88.2701 73.23C88.3367 73.2499 88.3986 73.2832 88.4519 73.3279C88.5053 73.3726 88.5488 73.4278 88.5801 73.49C88.6073 73.5549 88.6213 73.6246 88.6213 73.695C88.6213 73.7654 88.6073 73.8351 88.5801 73.9L85.5801 81.18C85.5517 81.2446 85.5104 81.3027 85.4588 81.3509C85.4073 81.399 85.3464 81.4361 85.2801 81.46C85.2352 81.4771 85.188 81.4872 85.1401 81.49ZM67.4001 71.15L84.8901 80.29L87.4601 74.03L68.6301 68.26L67.4001 71.15Z" fill="black"/>
</g>
<defs>
<clipPath id="clip0_206_107">
<rect width="88.63" height="90.93" fill="white"/>
</clipPath>
</defs>
</svg>
