<svg width="53" height="53" viewBox="0 0 53 53" fill="none" xmlns="http://www.w3.org/2000/svg">
<g clip-path="url(#clip0_206_100)">
<path d="M49.301 22.8009H35.4114L45.2218 12.9905C45.5829 12.6513 45.8722 12.243 46.0725 11.79C46.2728 11.3369 46.38 10.8482 46.3879 10.3528C46.3957 9.8575 46.304 9.36564 46.1181 8.90645C45.9322 8.44725 45.656 8.03007 45.3058 7.67965C44.9556 7.32924 44.5387 7.05272 44.0796 6.86653C43.6205 6.68034 43.1287 6.58825 42.6334 6.59574C42.1381 6.60322 41.6493 6.71013 41.1961 6.91011C40.7428 7.11009 40.3344 7.39907 39.995 7.75991L30.1844 17.574V3.68438C30.1844 2.70334 29.7948 1.76248 29.1011 1.06877C28.4074 0.375071 27.4665 -0.0146484 26.4854 -0.0146484C25.5044 -0.0146484 24.5635 0.375071 23.8698 1.06877C23.1761 1.76248 22.7864 2.70334 22.7864 3.68438V17.574L12.9759 7.75991C12.6345 7.40737 12.2264 7.12629 11.7753 6.93305C11.3242 6.7398 10.8391 6.63825 10.3484 6.63431C9.85761 6.63038 9.371 6.72413 8.91685 6.91011C8.4627 7.0961 8.0501 7.37059 7.70308 7.71761C7.35607 8.06463 7.08156 8.47724 6.89557 8.93139C6.70959 9.38554 6.61585 9.87215 6.61979 10.3629C6.62372 10.8536 6.72526 11.3387 6.91851 11.7898C7.11175 12.2409 7.3928 12.6491 7.74534 12.9905L17.5595 22.8009H3.66986C2.68881 22.8009 1.74792 23.1907 1.05421 23.8844C0.360511 24.5781 -0.0291748 25.5189 -0.0291748 26.5C-0.0291748 27.481 0.360511 28.4219 1.05421 29.1156C1.74792 29.8093 2.68881 30.199 3.66986 30.199H17.5595L7.74534 40.0095C7.3845 40.3489 7.09555 40.7574 6.89557 41.2106C6.69559 41.6638 6.58868 42.1526 6.58119 42.6479C6.57371 43.1433 6.66579 43.6351 6.85198 44.0941C7.03818 44.5532 7.3147 44.9702 7.66511 45.3204C8.01553 45.6705 8.43271 45.9467 8.89191 46.1326C9.3511 46.3185 9.84294 46.4102 10.3383 46.4024C10.8336 46.3946 11.3223 46.2873 11.7754 46.087C12.2285 45.8867 12.6367 45.5975 12.9759 45.2364L22.7864 35.4259V49.3156C22.7864 50.2966 23.1761 51.2375 23.8698 51.9312C24.5635 52.6249 25.5044 53.0146 26.4854 53.0146C27.4665 53.0146 28.4074 52.6249 29.1011 51.9312C29.7948 51.2375 30.1844 50.2966 30.1844 49.3156V35.4259L39.995 45.2364C40.6881 45.9295 41.6281 46.3189 42.6084 46.3189C43.5886 46.3189 44.5287 45.9295 45.2218 45.2364C45.915 44.5433 46.3044 43.6032 46.3044 42.6229C46.3044 41.6427 45.915 40.7026 45.2218 40.0095L35.4114 30.199H49.301C50.2821 30.199 51.2229 29.8093 51.9166 29.1156C52.6103 28.4219 53 27.481 53 26.5C53 25.5189 52.6103 24.5781 51.9166 23.8844C51.2229 23.1907 50.2821 22.8009 49.301 22.8009Z" fill="#F74A53"/>
</g>
<defs>
<clipPath id="clip0_206_100">
<rect width="53" height="53" fill="white"/>
</clipPath>
</defs>
</svg>
