<svg width="18" height="18" viewBox="0 0 18 18" fill="none" xmlns="http://www.w3.org/2000/svg">
<g clip-path="url(#clip0_296_401)">
<path d="M9.54921 3.33999L9.00377 0L8.45085 3.33999C8.24006 4.61919 7.63367 5.80017 6.71694 6.7169C5.80021 7.63364 4.61916 8.24002 3.33995 8.45082L0 8.99626L3.33995 9.5492C4.61916 9.76 5.80021 10.3664 6.71694 11.2831C7.63367 12.1998 8.24006 13.3808 8.45085 14.66L9.00377 18L9.54921 14.66C9.76001 13.3808 10.3664 12.1998 11.2831 11.2831C12.1999 10.3664 13.3808 9.76 14.66 9.5492L18 8.99626L14.6825 8.42092C13.4034 8.21619 12.2205 7.61608 11.2998 6.70482C10.3792 5.79356 9.76703 4.61691 9.54921 3.33999Z" fill="#F74A53"/>
</g>
<defs>
<clipPath id="clip0_296_401">
<rect width="18" height="18" fill="white"/>
</clipPath>
</defs>
</svg>
