<svg width="20" height="19" viewBox="0 0 20 19" fill="none" xmlns="http://www.w3.org/2000/svg">
<path d="M19.6223 1.09254C19.2812 0.809869 18.7453 0.769425 18.1913 0.986759H18.1904C17.6077 1.2152 1.69614 7.88367 1.0484 8.15611C0.930588 8.19611 -0.09834 8.57123 0.00764594 9.40678C0.10226 10.1601 0.929223 10.4721 1.03021 10.5081L5.07541 11.8615C5.34379 12.7343 6.33314 15.9548 6.55194 16.6428C6.6884 17.0717 6.91083 17.6353 7.30066 17.7513C7.64273 17.8801 7.98298 17.7624 8.20314 17.5935L10.6763 15.3521L14.6687 18.3944L14.7638 18.4499C15.0349 18.5673 15.2946 18.6259 15.5425 18.6259C15.7341 18.6259 15.9178 18.5908 16.0934 18.5206C16.6916 18.2806 16.9308 17.7237 16.9558 17.6606L19.938 2.51521C20.12 1.70632 19.8671 1.29476 19.6223 1.09254ZM8.643 12.4028L7.27837 15.9584L5.91375 11.5139L16.3759 3.95832L8.643 12.4028Z" fill="#E8F1F8"/>
</svg>
